  0
SECTION
  2
HEADER
  9
$ACADVER
  1
AC1015
  9
$ACADMAINTVER
 70
     6
  9
$DWGCODEPAGE
  3
ANSI_1252
  9
$INSBASE
 10
0.0
 20
0.0
 30
0.0
  9
$EXTMIN
 10
41.4783895433
 20
315.9810604155
 30
0.0
  9
$EXTMAX
 10
59.4783895433
 20
331.9810604155
 30
0.0
  9
$LIMMIN
 10
0.0
 20
0.0
  9
$LIMMAX
 10
420.0
 20
297.0
  9
$ORTHOMODE
 70
     0
  9
$REGENMODE
 70
     1
  9
$FILLMODE
 70
     1
  9
$QTEXTMODE
 70
     0
  9
$MIRRTEXT
 70
     1
  9
$LTSCALE
 40
1.0
  9
$ATTMODE
 70
     1
  9
$TEXTSIZE
 40
3.5
  9
$TRACEWID
 40
1.0
  9
$TEXTSTYLE
  7
Standard
  9
$CLAYER
  8
0
  9
$CELTYPE
  6
ByLayer
  9
$CECOLOR
 62
   256
  9
$CELTSCALE
 40
1.0
  9
$DISPSILH
 70
     0
  9
$DIMSCALE
 40
1.0
  9
$DIMASZ
 40
3.302
  9
$DIMEXO
 40
0.0
  9
$DIMDLI
 40
3.75
  9
$DIMRND
 40
0.0
  9
$DIMDLE
 40
0.0
  9
$DIMEXE
 40
1.0
  9
$DIMTP
 40
0.0
  9
$DIMTM
 40
0.0
  9
$DIMTXT
 40
3.5
  9
$DIMCEN
 40
2.5
  9
$DIMTSZ
 40
0.0
  9
$DIMTOL
 70
     0
  9
$DIMLIM
 70
     0
  9
$DIMTIH
 70
     1
  9
$DIMTOH
 70
     1
  9
$DIMSE1
 70
     0
  9
$DIMSE2
 70
     0
  9
$DIMTAD
 70
     1
  9
$DIMZIN
 70
     1
  9
$DIMBLK
  1

  9
$DIMASO
 70
     1
  9
$DIMSHO
 70
     1
  9
$DIMPOST
  1

  9
$DIMAPOST
  1

  9
$DIMALT
 70
     0
  9
$DIMALTD
 70
     3
  9
$DIMALTF
 40
0.0393700787
  9
$DIMLFAC
 40
1.0
  9
$DIMTOFL
 70
     1
  9
$DIMTVP
 40
0.0
  9
$DIMTIX
 70
     0
  9
$DIMSOXD
 70
     0
  9
$DIMSAH
 70
     0
  9
$DIMBLK1
  1

  9
$DIMBLK2
  1

  9
$DIMSTYLE
  2
ISO-25
  9
$DIMCLRD
 70
     0
  9
$DIMCLRE
 70
     0
  9
$DIMCLRT
 70
     0
  9
$DIMTFAC
 40
1.0
  9
$DIMGAP
 40
1.524
  9
$DIMJUST
 70
     0
  9
$DIMSD1
 70
     0
  9
$DIMSD2
 70
     0
  9
$DIMTOLJ
 70
     0
  9
$DIMTZIN
 70
     1
  9
$DIMALTZ
 70
     0
  9
$DIMALTTZ
 70
     0
  9
$DIMUPT
 70
     0
  9
$DIMDEC
 70
     2
  9
$DIMTDEC
 70
     2
  9
$DIMALTU
 70
     2
  9
$DIMALTTD
 70
     3
  9
$DIMTXSTY
  7
Standard
  9
$DIMAUNIT
 70
     0
  9
$DIMADEC
 70
     2
  9
$DIMALTRND
 40
0.0
  9
$DIMAZIN
 70
     0
  9
$DIMDSEP
 70
    44
  9
$DIMATFIT
 70
     3
  9
$DIMFRAC
 70
     0
  9
$DIMLDRBLK
  1

  9
$DIMLUNIT
 70
     2
  9
$DIMLWD
 70
    -2
  9
$DIMLWE
 70
    -2
  9
$DIMTMOVE
 70
     0
  9
$LUNITS
 70
     2
  9
$LUPREC
 70
     2
  9
$SKETCHINC
 40
1.0
  9
$FILLETRAD
 40
0.0
  9
$AUNITS
 70
     0
  9
$AUPREC
 70
     2
  9
$MENU
  1
.
  9
$ELEVATION
 40
0.0
  9
$PELEVATION
 40
0.0
  9
$THICKNESS
 40
0.0
  9
$LIMCHECK
 70
     0
  9
$CHAMFERA
 40
0.0
  9
$CHAMFERB
 40
0.0
  9
$CHAMFERC
 40
0.0
  9
$CHAMFERD
 40
0.0
  9
$SKPOLY
 70
     0
  9
$TDCREATE
 40
2460439.530854502
  9
$TDUCREATE
 40
2460439.030854502
  9
$TDUPDATE
 40
2460439.530902234
  9
$TDUUPDATE
 40
2460439.030902234
  9
$TDINDWG
 40
0.0000000116
  9
$TDUSRTIMER
 40
0.0000000116
  9
$USRTIMER
 70
     1
  9
$ANGBASE
 50
0.0
  9
$ANGDIR
 70
     0
  9
$PDMODE
 70
     0
  9
$PDSIZE
 40
-1.0
  9
$PLINEWID
 40
0.0
  9
$SPLFRAME
 70
     0
  9
$SPLINETYPE
 70
     6
  9
$SPLINESEGS
 70
     8
  9
$HANDSEED
  5
11B
  9
$SURFTAB1
 70
     6
  9
$SURFTAB2
 70
     6
  9
$SURFTYPE
 70
     6
  9
$SURFU
 70
     6
  9
$SURFV
 70
     6
  9
$UCSBASE
  2

  9
$UCSNAME
  2

  9
$UCSORG
 10
0.0
 20
0.0
 30
0.0
  9
$UCSXDIR
 10
1.0
 20
0.0
 30
0.0
  9
$UCSYDIR
 10
0.0
 20
1.0
 30
0.0
  9
$UCSORTHOREF
  2

  9
$UCSORTHOVIEW
 70
     0
  9
$UCSORGTOP
 10
0.0
 20
0.0
 30
0.0
  9
$UCSORGBOTTOM
 10
0.0
 20
0.0
 30
0.0
  9
$UCSORGLEFT
 10
0.0
 20
0.0
 30
0.0
  9
$UCSORGRIGHT
 10
0.0
 20
0.0
 30
0.0
  9
$UCSORGFRONT
 10
0.0
 20
0.0
 30
0.0
  9
$UCSORGBACK
 10
0.0
 20
0.0
 30
0.0
  9
$PUCSBASE
  2

  9
$PUCSNAME
  2

  9
$PUCSORG
 10
0.0
 20
0.0
 30
0.0
  9
$PUCSXDIR
 10
1.0
 20
0.0
 30
0.0
  9
$PUCSYDIR
 10
0.0
 20
1.0
 30
0.0
  9
$PUCSORTHOREF
  2

  9
$PUCSORTHOVIEW
 70
     0
  9
$PUCSORGTOP
 10
0.0
 20
0.0
 30
0.0
  9
$PUCSORGBOTTOM
 10
0.0
 20
0.0
 30
0.0
  9
$PUCSORGLEFT
 10
0.0
 20
0.0
 30
0.0
  9
$PUCSORGRIGHT
 10
0.0
 20
0.0
 30
0.0
  9
$PUCSORGFRONT
 10
0.0
 20
0.0
 30
0.0
  9
$PUCSORGBACK
 10
0.0
 20
0.0
 30
0.0
  9
$USERI1
 70
     0
  9
$USERI2
 70
     0
  9
$USERI3
 70
     0
  9
$USERI4
 70
     0
  9
$USERI5
 70
     0
  9
$USERR1
 40
0.0
  9
$USERR2
 40
0.0
  9
$USERR3
 40
0.0
  9
$USERR4
 40
0.0
  9
$USERR5
 40
0.0
  9
$WORLDVIEW
 70
     1
  9
$SHADEDGE
 70
     3
  9
$SHADEDIF
 70
    70
  9
$TILEMODE
 70
     1
  9
$MAXACTVP
 70
    64
  9
$PINSBASE
 10
0.0
 20
0.0
 30
0.0
  9
$PLIMCHECK
 70
     0
  9
$PEXTMIN
 10
1.0000000000E+20
 20
1.0000000000E+20
 30
1.0000000000E+20
  9
$PEXTMAX
 10
-1.0000000000E+20
 20
-1.0000000000E+20
 30
-1.0000000000E+20
  9
$PLIMMIN
 10
0.0
 20
0.0
  9
$PLIMMAX
 10
420.0
 20
297.0
  9
$UNITMODE
 70
     0
  9
$VISRETAIN
 70
     1
  9
$PLINEGEN
 70
     0
  9
$PSLTSCALE
 70
     1
  9
$TREEDEPTH
 70
  3020
  9
$CMLSTYLE
  2
Standard
  9
$CMLJUST
 70
     0
  9
$CMLSCALE
 40
20.0
  9
$PROXYGRAPHICS
 70
     1
  9
$MEASUREMENT
 70
     1
  9
$CELWEIGHT
370
    -1
  9
$ENDCAPS
280
     0
  9
$JOINSTYLE
280
     0
  9
$LWDISPLAY
290
     1
  9
$INSUNITS
 70
     4
  9
$HYPERLINKBASE
  1

  9
$STYLESHEET
  1

  9
$XEDIT
290
     1
  9
$CEPSNTYPE
380
     0
  9
$PSTYLEMODE
290
     1
  9
$FINGERPRINTGUID
  2
{94ad0b87-5c31-485b-9df5-30f60e61697e}
  9
$VERSIONGUID
  2
{FAEB1C32-E019-11D5-929B-00C0DF256EC4}
  9
$EXTNAMES
290
     1
  9
$PSVPSCALE
 40
0.0
  9
$OLESTARTUP
290
     0
  0
ENDSEC
  0
SECTION
  2
CLASSES
  0
CLASS
  1
ACDBDICTIONARYWDFLT
  2
AcDbDictionaryWithDefault
  3
ObjectDBX Classes
 90
        0
280
     0
281
     0
  0
CLASS
  1
VISUALSTYLE
  2
AcDbVisualStyle
  3
ObjectDBX Classes
 90
     4095
280
     0
281
     0
  0
CLASS
  1
MATERIAL
  2
AcDbMaterial
  3
ObjectDBX Classes
 90
     1153
280
     0
281
     0
  0
CLASS
  1
SCALE
  2
AcDbScale
  3
ObjectDBX Classes
 90
     1153
280
     0
281
     0
  0
CLASS
  1
TABLESTYLE
  2
AcDbTableStyle
  3
ObjectDBX Classes
 90
     4095
280
     0
281
     0
  0
CLASS
  1
MLEADERSTYLE
  2
AcDbMLeaderStyle
  3
ACDB_MLEADERSTYLE_CLASS
 90
     4095
280
     0
281
     0
  0
CLASS
  1
SUN
  2
AcDbSun
  3
SCENEOE
 90
     1153
280
     0
281
     0
  0
CLASS
  1
ACDBPLACEHOLDER
  2
AcDbPlaceHolder
  3
ObjectDBX Classes
 90
        0
280
     0
281
     0
  0
CLASS
  1
LAYOUT
  2
AcDbLayout
  3
ObjectDBX Classes
 90
        0
280
     0
281
     0
  0
ENDSEC
  0
SECTION
  2
TABLES
  0
TABLE
  2
VPORT
  5
8
330
0
100
AcDbSymbolTable
 70
     1
  0
VPORT
  5
29
330
8
100
AcDbSymbolTableRecord
100
AcDbViewportTableRecord
  2
*Active
 70
     0
 10
0.0
 20
0.0
 11
1.0
 21
1.0
 12
50.4783895433
 22
323.9810604155
 13
0.0
 23
0.0
 14
10.0
 24
10.0
 15
10.0
 25
10.0
 16
0.0
 26
0.0
 36
1.0
 17
0.0
 27
0.0
 37
0.0
 40
16.32
 41
1.125
 42
50.0
 43
0.0
 44
0.0
 50
0.0
 51
0.0
 71
     0
 72
   100
 73
     1
 74
     3
 75
     0
 76
     0
 77
     0
 78
     0
281
     0
 65
     1
110
0.0
120
0.0
130
0.0
111
1.0
121
0.0
131
0.0
112
0.0
122
1.0
132
0.0
 79
     0
146
0.0
  0
ENDTAB
  0
TABLE
  2
LTYPE
  5
5
330
0
100
AcDbSymbolTable
 70
     6
  0
LTYPE
  5
14
330
5
100
AcDbSymbolTableRecord
100
AcDbLinetypeTableRecord
  2
ByBlock
 70
     0
  3

 72
    65
 73
     0
 40
0.0
  0
LTYPE
  5
15
330
5
100
AcDbSymbolTableRecord
100
AcDbLinetypeTableRecord
  2
ByLayer
 70
     0
  3

 72
    65
 73
     0
 40
0.0
  0
LTYPE
  5
16
330
5
100
AcDbSymbolTableRecord
100
AcDbLinetypeTableRecord
  2
Continuous
 70
     0
  3
Solid line
 72
    65
 73
     0
 40
0.0
  0
LTYPE
  5
5E
330
5
100
AcDbSymbolTableRecord
100
AcDbLinetypeTableRecord
  2
HIDDEN
 70
     0
  3
Hidden __ __ __ __ __ __ __ __ __ __ __ __ __ __
 72
    65
 73
     2
 40
1.905
 49
1.27
 74
     0
 49
-0.635
 74
     0
  0
LTYPE
  5
5F
330
5
100
AcDbSymbolTableRecord
100
AcDbLinetypeTableRecord
  2
PHANTOM
 70
     0
  3
Phantom ______  __  __  ______  __  __  ______
 72
    65
 73
     6
 40
12.7
 49
6.35
 74
     0
 49
-1.27
 74
     0
 49
1.27
 74
     0
 49
-1.27
 74
     0
 49
1.27
 74
     0
 49
-1.27
 74
     0
  0
LTYPE
  5
60
330
5
100
AcDbSymbolTableRecord
100
AcDbLinetypeTableRecord
  2
CENTER
 70
     0
  3
Center ____ _ ____ _ ____ _ ____ _ ____ _ ____
 72
    65
 73
     4
 40
10.16
 49
6.35
 74
     0
 49
-1.27
 74
     0
 49
1.27
 74
     0
 49
-1.27
 74
     0
  0
LTYPE
  5
61
330
5
100
AcDbSymbolTableRecord
100
AcDbLinetypeTableRecord
  2
CENTERX2
 70
     0
  3
Center (2x) ________  __  ________  __  _____
 72
    65
 73
     4
 40
20.32
 49
12.7
 74
     0
 49
-2.54
 74
     0
 49
2.54
 74
     0
 49
-2.54
 74
     0
  0
LTYPE
  5
62
330
5
100
AcDbSymbolTableRecord
100
AcDbLinetypeTableRecord
  2
DOT2
 70
     0
  3
Dot (.5x) ........................................
 72
    65
 73
     2
 40
0.635
 49
0.0
 74
     0
 49
-0.635
 74
     0
  0
ENDTAB
  0
TABLE
  2
LAYER
  5
2
330
0
100
AcDbSymbolTable
 70
     1
  0
LAYER
  5
10
330
2
100
AcDbSymbolTableRecord
100
AcDbLayerTableRecord
  2
0
 70
     0
 62
     7
  6
Continuous
370
    -3
390
F
  0
ENDTAB
  0
TABLE
  2
STYLE
  5
3
330
0
100
AcDbSymbolTable
 70
     2
  0
STYLE
  5
11
330
3
100
AcDbSymbolTableRecord
100
AcDbTextStyleTableRecord
  2
Standard
 70
     0
 40
0.0
 41
1.0
 50
0.0
 71
     0
 42
3.5
  3
txt
  4

  0
STYLE
  5
117
330
3
100
AcDbSymbolTableRecord
100
AcDbTextStyleTableRecord
  2
SLDTEXTSTYLE0
 70
     0
 40
0.0
 41
0.7
 50
0.0
 71
     0
 42
3.5
  3
TXT
  4

  0
ENDTAB
  0
TABLE
  2
VIEW
  5
6
330
0
100
AcDbSymbolTable
 70
     0
  0
ENDTAB
  0
TABLE
  2
UCS
  5
7
330
0
100
AcDbSymbolTable
 70
     0
  0
ENDTAB
  0
TABLE
  2
APPID
  5
9
330
0
100
AcDbSymbolTable
 70
     1
  0
APPID
  5
12
330
9
100
AcDbSymbolTableRecord
100
AcDbRegAppTableRecord
  2
ACAD
 70
     0
  0
ENDTAB
  0
TABLE
  2
DIMSTYLE
  5
A
330
0
100
AcDbSymbolTable
 70
     1
100
AcDbDimStyleTable
  0
DIMSTYLE
105
27
330
A
100
AcDbSymbolTableRecord
100
AcDbDimStyleTableRecord
  2
ISO-25
 70
     0
 41
2.5
 42
0.625
 43
3.75
 44
1.25
 73
     0
 74
     0
 77
     1
 78
     8
140
2.5
141
2.5
143
0.0393700787
147
0.625
171
     3
172
     1
178
     0
271
     2
272
     2
274
     3
278
    44
283
     0
284
     8
340
11
  0
ENDTAB
  0
TABLE
  2
BLOCK_RECORD
  5
1
330
0
100
AcDbSymbolTable
 70
     1
  0
BLOCK_RECORD
  5
1F
330
1
100
AcDbSymbolTableRecord
100
AcDbBlockTableRecord
  2
*Model_Space
340
22
  0
BLOCK_RECORD
  5
1B
330
1
100
AcDbSymbolTableRecord
100
AcDbBlockTableRecord
  2
*Paper_Space
340
1E
  0
BLOCK_RECORD
  5
23
330
1
100
AcDbSymbolTableRecord
100
AcDbBlockTableRecord
  2
*Paper_Space0
340
26
  0
ENDTAB
  0
ENDSEC
  0
SECTION
  2
BLOCKS
  0
BLOCK
  5
20
330
1F
100
AcDbEntity
  8
0
100
AcDbBlockBegin
  2
*Model_Space
 70
     0
 10
0.0
 20
0.0
 30
0.0
  3
*Model_Space
  1

  0
ENDBLK
  5
21
330
1F
100
AcDbEntity
  8
0
100
AcDbBlockEnd
  0
BLOCK
  5
1C
330
1B
100
AcDbEntity
 67
     1
  8
0
100
AcDbBlockBegin
  2
*Paper_Space
 70
     0
 10
0.0
 20
0.0
 30
0.0
  3
*Paper_Space
  1

  0
ENDBLK
  5
1D
330
1B
100
AcDbEntity
 67
     1
  8
0
100
AcDbBlockEnd
  0
BLOCK
  5
24
330
23
100
AcDbEntity
  8
0
100
AcDbBlockBegin
  2
*Paper_Space0
 70
     0
 10
0.0
 20
0.0
 30
0.0
  3
*Paper_Space0
  1

  0
ENDBLK
  5
25
330
23
100
AcDbEntity
  8
0
100
AcDbBlockEnd
  0
ENDSEC
  0
SECTION
  2
ENTITIES
  0
LINE
  5
63
330
1F
100
AcDbEntity
  8
0
  6
Continuous
 62
     7
370
    25
100
AcDbLine
 10
56.5134505253
 20
318.101820275
 30
0.0
 11
56.5721444356
 21
318.2043843776
 31
0.0
  0
LINE
  5
64
330
1F
100
AcDbEntity
  8
0
  6
Continuous
 62
     7
370
    25
100
AcDbLine
 10
56.5721444356
 20
318.2043843776
 30
0.0
 11
56.7570402689
 21
318.2043843776
 31
0.0
  0
LINE
  5
65
330
1F
100
AcDbEntity
  8
0
  6
Continuous
 62
     7
370
    25
100
AcDbLine
 10
56.7570402689
 20
318.2043843776
 30
0.0
 11
56.7570402689
 21
317.2043843776
 31
0.0
  0
LINE
  5
66
330
1F
100
AcDbEntity
  8
0
  6
Continuous
 62
     7
370
    25
100
AcDbLine
 10
56.7570402689
 20
317.2043843776
 30
0.0
 11
56.6672966792
 21
317.2043843776
 31
0.0
  0
LINE
  5
67
330
1F
100
AcDbEntity
  8
0
  6
Continuous
 62
     7
370
    25
100
AcDbLine
 10
56.6672966792
 20
317.2043843776
 30
0.0
 11
56.6672966792
 21
318.101820275
 31
0.0
  0
LINE
  5
68
330
1F
100
AcDbEntity
  8
0
  6
Continuous
 62
     7
370
    25
100
AcDbLine
 10
56.6672966792
 20
318.101820275
 30
0.0
 11
56.5134505253
 21
318.101820275
 31
0.0
  0
LINE
  5
69
330
1F
100
AcDbEntity
  8
0
  6
Continuous
 62
     7
370
    25
100
AcDbLine
 10
55.5134505253
 20
317.2043843776
 30
0.0
 11
55.4237069356
 21
317.2043843776
 31
0.0
  0
LINE
  5
6A
330
1F
100
AcDbEntity
  8
0
  6
Continuous
 62
     7
370
    25
100
AcDbLine
 10
55.4237069356
 20
317.2043843776
 30
0.0
 11
55.4237069356
 21
318.2043843776
 31
0.0
  0
LINE
  5
6B
330
1F
100
AcDbEntity
  8
0
  6
Continuous
 62
     7
370
    25
100
AcDbLine
 10
55.4237069356
 20
318.2043843776
 30
0.0
 11
55.4425370638
 21
318.2043843776
 31
0.0
  0
LINE
  5
6C
330
1F
100
AcDbEntity
  8
0
  6
Continuous
 62
     7
370
    25
100
AcDbLine
 10
55.4425370638
 20
318.2043843776
 30
0.0
 11
56.1031941151
 21
317.4173250827
 31
0.0
  0
LINE
  5
6D
330
1F
100
AcDbEntity
  8
0
  6
Continuous
 62
     7
370
    25
100
AcDbLine
 10
56.1031941151
 20
317.4173250827
 30
0.0
 11
56.1031941151
 21
318.2043843776
 31
0.0
  0
LINE
  5
6E
330
1F
100
AcDbEntity
  8
0
  6
Continuous
 62
     7
370
    25
100
AcDbLine
 10
56.1031941151
 20
318.2043843776
 30
0.0
 11
56.1929377048
 21
318.2043843776
 31
0.0
  0
LINE
  5
6F
330
1F
100
AcDbEntity
  8
0
  6
Continuous
 62
     7
370
    25
100
AcDbLine
 10
56.1929377048
 20
318.2043843776
 30
0.0
 11
56.1929377048
 21
317.2043843776
 31
0.0
  0
LINE
  5
70
330
1F
100
AcDbEntity
  8
0
  6
Continuous
 62
     7
370
    25
100
AcDbLine
 10
56.1929377048
 20
317.2043843776
 30
0.0
 11
56.1725050125
 21
317.2043843776
 31
0.0
  0
LINE
  5
71
330
1F
100
AcDbEntity
  8
0
  6
Continuous
 62
     7
370
    25
100
AcDbLine
 10
56.1725050125
 20
317.2043843776
 30
0.0
 11
55.5134505253
 21
317.9896407878
 31
0.0
  0
LINE
  5
72
330
1F
100
AcDbEntity
  8
0
  6
Continuous
 62
     7
370
    25
100
AcDbLine
 10
55.5134505253
 20
317.9896407878
 30
0.0
 11
55.5134505253
 21
317.2043843776
 31
0.0
  0
LINE
  5
73
330
1F
100
AcDbEntity
  8
0
  6
Continuous
 62
     7
370
    25
100
AcDbLine
 10
55.0775530894
 20
317.2043843776
 30
0.0
 11
55.0775530894
 21
318.2043843776
 31
0.0
  0
LINE
  5
74
330
1F
100
AcDbEntity
  8
0
  6
Continuous
 62
     7
370
    25
100
AcDbLine
 10
55.0775530894
 20
318.2043843776
 30
0.0
 11
55.1672966792
 21
318.2043843776
 31
0.0
  0
LINE
  5
75
330
1F
100
AcDbEntity
  8
0
  6
Continuous
 62
     7
370
    25
100
AcDbLine
 10
55.1672966792
 20
318.2043843776
 30
0.0
 11
55.1672966792
 21
317.2043843776
 31
0.0
  0
LINE
  5
76
330
1F
100
AcDbEntity
  8
0
  6
Continuous
 62
     7
370
    25
100
AcDbLine
 10
55.1672966792
 20
317.2043843776
 30
0.0
 11
55.0775530894
 21
317.2043843776
 31
0.0
  0
LINE
  5
77
330
1F
100
AcDbEntity
  8
0
  6
Continuous
 62
     7
370
    25
100
AcDbLine
 10
56.0847635163
 20
330.1961178398
 30
0.0
 11
56.6306369137
 21
330.9909896347
 31
0.0
  0
LINE
  5
78
330
1F
100
AcDbEntity
  8
0
  6
Continuous
 62
     7
370
    25
100
AcDbLine
 10
56.6306369137
 20
330.9909896347
 30
0.0
 11
56.6488660804
 21
330.9909896347
 31
0.0
  0
LINE
  5
79
330
1F
100
AcDbEntity
  8
0
  6
Continuous
 62
     7
370
    25
100
AcDbLine
 10
56.6488660804
 20
330.9909896347
 30
0.0
 11
56.6488660804
 21
330.2986819424
 31
0.0
  0
LINE
  5
7A
330
1F
100
AcDbEntity
  8
0
  6
Continuous
 62
     7
370
    25
100
AcDbLine
 10
56.6488660804
 20
330.2986819424
 30
0.0
 11
56.7642506958
 21
330.2986819424
 31
0.0
  0
LINE
  5
7B
330
1F
100
AcDbEntity
  8
0
  6
Continuous
 62
     7
370
    25
100
AcDbLine
 10
56.7642506958
 20
330.2986819424
 30
0.0
 11
56.7642506958
 21
330.1961178398
 31
0.0
  0
LINE
  5
7C
330
1F
100
AcDbEntity
  8
0
  6
Continuous
 62
     7
370
    25
100
AcDbLine
 10
56.7642506958
 20
330.1961178398
 30
0.0
 11
56.6488660804
 21
330.1961178398
 31
0.0
  0
LINE
  5
7D
330
1F
100
AcDbEntity
  8
0
  6
Continuous
 62
     7
370
    25
100
AcDbLine
 10
56.6488660804
 20
330.1961178398
 30
0.0
 11
56.6488660804
 21
329.9653486091
 31
0.0
  0
LINE
  5
7E
330
1F
100
AcDbEntity
  8
0
  6
Continuous
 62
     7
370
    25
100
AcDbLine
 10
56.6488660804
 20
329.9653486091
 30
0.0
 11
56.5591224906
 21
329.9653486091
 31
0.0
  0
LINE
  5
7F
330
1F
100
AcDbEntity
  8
0
  6
Continuous
 62
     7
370
    25
100
AcDbLine
 10
56.5591224906
 20
329.9653486091
 30
0.0
 11
56.5591224906
 21
330.1961178398
 31
0.0
  0
LINE
  5
80
330
1F
100
AcDbEntity
  8
0
  6
Continuous
 62
     7
370
    25
100
AcDbLine
 10
56.5591224906
 20
330.1961178398
 30
0.0
 11
56.0847635163
 21
330.1961178398
 31
0.0
  0
LINE
  5
81
330
1F
100
AcDbEntity
  8
0
  6
Continuous
 62
     7
370
    25
100
AcDbLine
 10
55.2386096701
 20
329.9653486091
 30
0.0
 11
55.1488660804
 21
329.9653486091
 31
0.0
  0
LINE
  5
82
330
1F
100
AcDbEntity
  8
0
  6
Continuous
 62
     7
370
    25
100
AcDbLine
 10
55.1488660804
 20
329.9653486091
 30
0.0
 11
55.1488660804
 21
330.9653486091
 31
0.0
  0
LINE
  5
83
330
1F
100
AcDbEntity
  8
0
  6
Continuous
 62
     7
370
    25
100
AcDbLine
 10
55.1488660804
 20
330.9653486091
 30
0.0
 11
55.1676962086
 21
330.9653486091
 31
0.0
  0
LINE
  5
84
330
1F
100
AcDbEntity
  8
0
  6
Continuous
 62
     7
370
    25
100
AcDbLine
 10
55.1676962086
 20
330.9653486091
 30
0.0
 11
55.8283532599
 21
330.1782893142
 31
0.0
  0
LINE
  5
85
330
1F
100
AcDbEntity
  8
0
  6
Continuous
 62
     7
370
    25
100
AcDbLine
 10
55.8283532599
 20
330.1782893142
 30
0.0
 11
55.8283532599
 21
330.9653486091
 31
0.0
  0
LINE
  5
86
330
1F
100
AcDbEntity
  8
0
  6
Continuous
 62
     7
370
    25
100
AcDbLine
 10
55.8283532599
 20
330.9653486091
 30
0.0
 11
55.9180968496
 21
330.9653486091
 31
0.0
  0
LINE
  5
87
330
1F
100
AcDbEntity
  8
0
  6
Continuous
 62
     7
370
    25
100
AcDbLine
 10
55.9180968496
 20
330.9653486091
 30
0.0
 11
55.9180968496
 21
329.9653486091
 31
0.0
  0
LINE
  5
88
330
1F
100
AcDbEntity
  8
0
  6
Continuous
 62
     7
370
    25
100
AcDbLine
 10
55.9180968496
 20
329.9653486091
 30
0.0
 11
55.8976641573
 21
329.9653486091
 31
0.0
  0
LINE
  5
89
330
1F
100
AcDbEntity
  8
0
  6
Continuous
 62
     7
370
    25
100
AcDbLine
 10
55.8976641573
 20
329.9653486091
 30
0.0
 11
55.2386096701
 21
330.7506050193
 31
0.0
  0
LINE
  5
8A
330
1F
100
AcDbEntity
  8
0
  6
Continuous
 62
     7
370
    25
100
AcDbLine
 10
55.2386096701
 20
330.7506050193
 30
0.0
 11
55.2386096701
 21
329.9653486091
 31
0.0
  0
LINE
  5
8B
330
1F
100
AcDbEntity
  8
0
  6
Continuous
 62
     7
370
    25
100
AcDbLine
 10
54.8027122342
 20
329.9653486091
 30
0.0
 11
54.8027122342
 21
330.9653486091
 31
0.0
  0
LINE
  5
8C
330
1F
100
AcDbEntity
  8
0
  6
Continuous
 62
     7
370
    25
100
AcDbLine
 10
54.8027122342
 20
330.9653486091
 30
0.0
 11
54.892455824
 21
330.9653486091
 31
0.0
  0
LINE
  5
8D
330
1F
100
AcDbEntity
  8
0
  6
Continuous
 62
     7
370
    25
100
AcDbLine
 10
54.892455824
 20
330.9653486091
 30
0.0
 11
54.892455824
 21
329.9653486091
 31
0.0
  0
LINE
  5
8E
330
1F
100
AcDbEntity
  8
0
  6
Continuous
 62
     7
370
    25
100
AcDbLine
 10
54.892455824
 20
329.9653486091
 30
0.0
 11
54.8027122342
 21
329.9653486091
 31
0.0
  0
SPLINE
  5
8F
330
1F
100
AcDbEntity
  8
0
  6
Continuous
 62
     7
370
    25
100
AcDbSpline
210
0.0
220
0.0
230
1.0
 70
     8
 71
     3
 72
    19
 73
    15
 74
     0
 42
0.00000001
 43
0.00000001
 40
0.0
 40
0.0
 40
0.0
 40
0.0
 40
0.1227119423657764
 40
0.2396849640167644
 40
0.3518158552560966
 40
0.4637661328620464
 40
0.5208177931608347
 40
0.5794482914479934
 40
0.6406041451202946
 40
0.7052975118059304
 40
0.7736338807131375
 40
0.8446693818863761
 40
0.9200565080210803
 40
1.0
 40
1.0
 40
1.0
 40
1.0
 10
56.37518078219473
 20
325.9347147562056
 30
0.0
 10
56.35108001154528
 20
325.9338733134704
 30
0.0
 10
56.30400560106396
 20
325.9322297801042
 30
0.0
 10
56.23614229417363
 20
325.9178346243511
 30
0.0
 10
56.17305393503999
 20
325.8948669262384
 30
0.0
 10
56.12483102715021
 20
325.8674512430582
 30
0.0
 10
56.08922108944486
 20
325.8403878854435
 30
0.0
 10
56.06377456015049
 20
325.8167523470191
 30
0.0
 10
56.03878548957233
 20
325.7904858298524
 30
0.0
 10
56.01589786595398
 20
325.7599705267083
 30
0.0
 10
55.99275122291746
 20
325.7272729916882
 30
0.0
 10
55.9716785595168
 20
325.6907310509463
 30
0.0
 10
55.95120150753618
 20
325.6512979172495
 30
0.0
 10
55.93886282276681
 20
325.6234210334966
 30
0.0
 10
55.93251251296395
 20
325.6090737305646
 30
0.0
  0
LINE
  5
90
330
1F
100
AcDbEntity
  8
0
  6
Continuous
 62
     7
370
    25
100
AcDbLine
 10
55.932512513
 20
325.6090737306
 30
0.0
 11
55.742555248
 21
325.6090737306
 31
0.0
  0
SPLINE
  5
91
330
1F
100
AcDbEntity
  8
0
  6
Continuous
 62
     7
370
    25
100
AcDbSpline
210
0.0
220
0.0
230
1.0
 70
     8
 71
     3
 72
    23
 73
    19
 74
     0
 42
0.00000001
 43
0.00000001
 40
0.0
 40
0.0
 40
0.0
 40
0.0
 40
0.0726253460834779
 40
0.141976611326257
 40
0.208984928418974
 40
0.2739568703644518
 40
0.3368893473968344
 40
0.3987449534945838
 40
0.460115885278878
 40
0.5208249225900256
 40
0.5809944586325083
 40
0.6401519276014676
 40
0.698622450756265
 40
0.7572710809271644
 40
0.8164266940046522
 40
0.8762540482034793
 40
0.9371652930625411
 40
1.0
 40
1.0
 40
1.0
 40
1.0
 10
55.74255524800668
 20
325.6090737305646
 30
0.0
 10
55.7477015000852
 20
325.6303809946831
 30
0.0
 10
55.75776200196971
 20
325.6720349532431
 30
0.0
 10
55.77874577259139
 20
325.7315479157554
 30
0.0
 10
55.80160532216146
 20
325.78786547393
 30
0.0
 10
55.82905492349349
 20
325.8399330994504
 30
0.0
 10
55.85899593200167
 20
325.8887971977697
 30
0.0
 10
55.89329967312097
 20
325.9333494778051
 30
0.0
 10
55.93038350533942
 20
325.9747230331117
 30
0.0
 10
55.97140145086957
 20
326.0114400863009
 30
0.0
 10
56.01441735576658
 20
326.0446885225355
 30
0.0
 10
56.06003734009205
 20
326.0730367714996
 30
0.0
 10
56.10734356626426
 20
326.0974232829939
 30
0.0
 10
56.15666379428556
 20
326.1175136136994
 30
0.0
 10
56.20814486002312
 20
326.1326480970593
 30
0.0
 10
56.26132134650758
 20
326.1436286413931
 30
0.0
 10
56.31633260610072
 20
326.1507594580845
 30
0.0
 10
56.35367519660539
 20
326.1514553957605
 30
0.0
 10
56.3726367116819
 20
326.1518087732996
 30
0.0
  0
SPLINE
  5
92
330
1F
100
AcDbEntity
  8
0
  6
Continuous
 62
     7
370
    25
100
AcDbSpline
210
0.0
220
0.0
230
1.0
 70
     8
 71
     3
 72
    19
 73
    15
 74
     0
 42
0.00000001
 43
0.00000001
 40
0.0
 40
0.0
 40
0.0
 40
0.0
 40
0.0902542493426802
 40
0.1785397915286899
 40
0.2660930338538312
 40
0.3546309779571793
 40
0.4418861533505884
 40
0.5257469151636568
 40
0.6081136336036606
 40
0.6901972728279013
 40
0.7708214843303524
 40
0.8483261812554215
 40
0.9240117400247425
 40
0.9999999999999999
 40
0.9999999999999999
 40
0.9999999999999999
 40
0.9999999999999999
 10
56.3726367116819
 20
326.1518087732996
 30
0.0
 10
56.40026389379397
 20
326.1509746673896
 30
0.0
 10
56.45491562898358
 20
326.1493246498406
 30
0.0
 10
56.53520566213938
 20
326.1342573477795
 30
0.0
 10
56.61263140512015
 20
326.1104145296413
 30
0.0
 10
56.68634537879959
 20
326.0774708946586
 30
0.0
 10
56.75481557375065
 20
326.0368385671748
 30
0.0
 10
56.81573698192629
 20
325.9884789405765
 30
0.0
 10
56.868283843222
 20
325.933325077296
 30
0.0
 10
56.91236758590217
 20
325.8724058598273
 30
0.0
 10
56.94688437104418
 20
325.8072999089122
 30
0.0
 10
56.97233660643426
 20
325.740292194828
 30
0.0
 10
56.98783162303824
 20
325.6715416692737
 30
0.0
 10
56.98983976929966
 20
325.6251217909154
 30
0.0
 10
56.99084584629728
 20
325.6018655307783
 30
0.0
  0
SPLINE
  5
93
330
1F
100
AcDbEntity
  8
0
  6
Continuous
 62
     7
370
    25
100
AcDbSpline
210
0.0
220
0.0
230
1.0
 70
     8
 71
     3
 72
    15
 73
    11
 74
     0
 42
0.00000001
 43
0.00000001
 40
0.0
 40
0.0
 40
0.0
 40
0.0
 40
0.1280675485959042
 40
0.2506083188677221
 40
0.370630165914552
 40
0.4900722467299453
 40
0.6103747641546833
 40
0.7343130699115417
 40
0.8632165042450433
 40
1.0
 40
1.0
 40
1.0
 40
1.0
 10
56.99084584629728
 20
325.6018655307783
 30
0.0
 10
56.9901421507593
 20
325.5794852311229
 30
0.0
 10
56.98876512779211
 20
325.5356904577097
 30
0.0
 10
56.97707283919009
 20
325.4717541237259
 30
0.0
 10
56.95739614687927
 20
325.4114946797459
 30
0.0
 10
56.93013967141547
 20
325.3546584531283
 30
0.0
 10
56.89485692436547
 20
325.301605811902
 30
0.0
 10
56.85211676957935
 20
325.2522173921911
 30
0.0
 10
56.80161754079136
 20
325.2062741394182
 30
0.0
 10
56.76334884970107
 20
325.1799552200474
 30
0.0
 10
56.74364699480156
 20
325.1664054613339
 30
0.0
  0
SPLINE
  5
94
330
1F
100
AcDbEntity
  8
0
  6
Continuous
 62
     7
370
    25
100
AcDbSpline
210
0.0
220
0.0
230
1.0
 70
     8
 71
     3
 72
    11
 73
     7
 74
     0
 42
0.00000001
 43
0.00000001
 40
0.0
 40
0.0
 40
0.0
 40
0.0
 40
0.2538796003267458
 40
0.5030089172784462
 40
0.7502910806900772
 40
1.0
 40
1.0
 40
1.0
 40
1.0
 10
56.74364699480156
 20
325.1664054613339
 30
0.0
 10
56.76616334161496
 20
325.1555329480683
 30
0.0
 10
56.81077473700513
 20
325.1339913546564
 30
0.0
 10
56.87158386677029
 20
325.0917452536817
 30
0.0
 10
56.92678524853373
 20
325.0429673674248
 30
0.0
 10
56.95756987859794
 20
325.004902048758
 30
0.0
 10
56.97303735270754
 20
324.9857764549236
 30
0.0
  0
SPLINE
  5
95
330
1F
100
AcDbEntity
  8
0
  6
Continuous
 62
     7
370
    25
100
AcDbSpline
210
0.0
220
0.0
230
1.0
 70
     8
 71
     3
 72
    15
 73
    11
 74
     0
 42
0.00000001
 43
0.00000001
 40
0.0
 40
0.0
 40
0.0
 40
0.0
 40
0.1281355097973004
 40
0.2541727119019868
 40
0.3781116451390406
 40
0.5017122630072601
 40
0.6239863093684737
 40
0.7470956136177324
 40
0.8728746366500836
 40
1.0
 40
1.0
 40
1.0
 40
1.0
 10
56.97303735270754
 20
324.9857764549236
 30
0.0
 10
56.98322235498752
 20
324.9718320051412
 30
0.0
 10
57.00342557308316
 20
324.9441714555967
 30
0.0
 10
57.02836325301878
 20
324.8996994266096
 30
0.0
 10
57.05098686024206
 20
324.8547344783295
 30
0.0
 10
57.06861580240637
 20
324.8080714089709
 30
0.0
 10
57.08226761711246
 20
324.7602510625916
 30
0.0
 10
57.09202607470512
 20
324.7111913278324
 30
0.0
 10
57.09808829323777
 20
324.6608521428425
 30
0.0
 10
57.09895646040844
 20
324.6267965000425
 30
0.0
 10
57.09939285484429
 20
324.6096780307783
 30
0.0
  0
SPLINE
  5
96
330
1F
100
AcDbEntity
  8
0
  6
Continuous
 62
     7
370
    25
100
AcDbSpline
210
0.0
220
0.0
230
1.0
 70
     8
 71
     3
 72
    19
 73
    15
 74
     0
 42
0.00000001
 43
0.00000001
 40
0.0
 40
0.0
 40
0.0
 40
0.0
 40
0.0796482511802138
 40
0.1589216764181076
 40
0.2396194947370259
 40
0.3226094298185611
 40
0.4060346366179298
 40
0.4876020954923749
 40
0.5696846265959195
 40
0.6530361450088352
 40
0.7374357177222883
 40
0.822477815855507
 40
0.9097476551184073
 40
1.0
 40
1.0
 40
1.0
 40
1.0
 10
57.09939285484429
 20
324.6096780307783
 30
0.0
 10
57.09830760143075
 20
324.5800388184412
 30
0.0
 10
57.09614220182359
 20
324.520899876374
 30
0.0
 10
57.07678735688518
 20
324.433527068529
 30
0.0
 10
57.04678315894162
 20
324.3481192647713
 30
0.0
 10
57.00417348814218
 20
324.2664311477038
 30
0.0
 10
56.95224408994593
 20
324.1900011077655
 30
0.0
 10
56.89046323199049
 20
324.1216168637283
 30
0.0
 10
56.81953288023765
 20
324.0628348506299
 30
0.0
 10
56.74042660688504
 20
324.0137219984252
 30
0.0
 10
56.6547214863255
 20
323.9744621121463
 30
0.0
 10
56.56305434259399
 20
323.9472130871868
 30
0.0
 10
56.46674597662466
 20
323.9294657445285
 30
0.0
 10
56.40070156334292
 20
323.9275626381045
 30
0.0
 10
56.36712455890412
 20
323.926595098086
 30
0.0
  0
SPLINE
  5
97
330
1F
100
AcDbEntity
  8
0
  6
Continuous
 62
     7
370
    25
100
AcDbSpline
210
0.0
220
0.0
230
1.0
 70
     8
 71
     3
 72
    23
 73
    19
 74
     0
 42
0.00000001
 43
0.00000001
 40
0.0
 40
0.0
 40
0.0
 40
0.0
 40
0.0655411703374054
 40
0.1289631677825947
 40
0.1903771361885681
 40
0.2500923616690495
 40
0.3085484324592177
 40
0.3663979630552974
 40
0.4245421892666909
 40
0.4831699964229095
 40
0.5422433998311318
 40
0.6017393520173225
 40
0.6625060022495981
 40
0.7248555134488517
 40
0.7891278292811992
 40
0.8563463998785266
 40
0.9262952349869229
 40
1.0
 40
1.0
 40
1.0
 40
1.0
 10
56.36712455890412
 20
323.926595098086
 30
0.0
 10
56.34449479159002
 20
323.9271201603899
 30
0.0
 10
56.29996695566668
 20
323.928153307916
 30
0.0
 10
56.2345054114045
 20
323.9352160810207
 30
0.0
 10
56.1720203836936
 20
323.948115655617
 30
0.0
 10
56.11242738879928
 20
323.9654743212431
 30
0.0
 10
56.05567348583752
 20
323.9874826605014
 30
0.0
 10
56.00193186032524
 20
324.0148896826381
 30
0.0
 10
55.95087187710122
 20
324.0471304481648
 30
0.0
 10
55.90297536855184
 20
324.0845855226952
 30
0.0
 10
55.85824804427241
 20
324.1264842376912
 30
0.0
 10
55.8178785396189
 20
324.1735704008618
 30
0.0
 10
55.78119380769679
 20
324.2249735927571
 30
0.0
 10
55.7491761166665
 20
324.281290869601
 30
0.0
 10
55.72036710246548
 20
324.3417944299547
 30
0.0
 10
55.69667195249307
 20
324.4072589980236
 30
0.0
 10
55.67581639431778
 20
324.4770993351312
 30
0.0
 10
55.66611996594038
 20
324.5257692065709
 30
0.0
 10
55.66114499159643
 20
324.5507403972313
 30
0.0
  0
LINE
  5
98
330
1F
100
AcDbEntity
  8
0
  6
Continuous
 62
     7
370
    25
100
AcDbLine
 10
55.6611449916
 20
324.5507403972
 30
0.0
 11
55.8511022566
 21
324.5507403972
 31
0.0
  0
SPLINE
  5
99
330
1F
100
AcDbEntity
  8
0
  6
Continuous
 62
     7
370
    25
100
AcDbSpline
210
0.0
220
0.0
230
1.0
 70
     8
 71
     3
 72
    15
 73
    11
 74
     0
 42
0.00000001
 43
0.00000001
 40
0.0
 40
0.0
 40
0.0
 40
0.0
 40
0.1497703860319894
 40
0.2913164099952212
 40
0.4259663731047611
 40
0.5521595739694733
 40
0.671527413523548
 40
0.786121628691699
 40
0.8953250730705156
 40
1.0
 40
1.0
 40
1.0
 40
1.0
 10
55.85110225655369
 20
324.5507403972313
 30
0.0
 10
55.85605119947235
 20
324.5344426606355
 30
0.0
 10
55.86567732331783
 20
324.5027421473235
 30
0.0
 10
55.88206292260573
 20
324.4571187243678
 30
0.0
 10
55.90073087761976
 20
324.4152945683699
 30
0.0
 10
55.92075730117587
 20
324.3769628707928
 30
0.0
 10
55.94178998043724
 20
324.3417461321598
 30
0.0
 10
55.96532424468636
 20
324.3105755732676
 30
0.0
 10
55.98961701341835
 20
324.2820820938362
 30
0.0
 10
56.00792881282605
 20
324.2660289237579
 30
0.0
 10
56.01689085163916
 20
324.2581722882569
 30
0.0
  0
SPLINE
  5
9A
330
1F
100
AcDbEntity
  8
0
  6
Continuous
 62
     7
370
    25
100
AcDbSpline
210
0.0
220
0.0
230
1.0
 70
     8
 71
     3
 72
    15
 73
    11
 74
     0
 42
0.00000001
 43
0.00000001
 40
0.0
 40
0.0
 40
0.0
 40
0.0
 40
0.1182713048357452
 40
0.23617753308377
 40
0.3556629329485364
 40
0.4759041646707098
 40
0.600127341711112
 40
0.7286081161551403
 40
0.8613134756739553
 40
1.0
 40
1.0
 40
1.0
 40
1.0
 10
56.01689085163916
 20
324.2581722882569
 30
0.0
 10
56.02874211458533
 20
324.2490353434786
 30
0.0
 10
56.05240805832747
 20
324.2307896575899
 30
0.0
 10
56.09097265522988
 20
324.2075053393789
 30
0.0
 10
56.13153094348171
 20
324.1873298621528
 30
0.0
 10
56.1749617226534
 20
324.1719182937908
 30
0.0
 10
56.22032779811844
 20
324.1588689465515
 30
0.0
 10
56.26836244280627
 20
324.1503293945048
 30
0.0
 10
56.31864187410721
 20
324.1444703575499
 30
0.0
 10
56.35297285488028
 20
324.143953327552
 30
0.0
 10
56.37051665292121
 20
324.14368911518
 30
0.0
  0
SPLINE
  5
9B
330
1F
100
AcDbEntity
  8
0
  6
Continuous
 62
     7
370
    25
100
AcDbSpline
210
0.0
220
0.0
230
1.0
 70
     8
 71
     3
 72
    23
 73
    19
 74
     0
 42
0.00000001
 43
0.00000001
 40
0.0
 40
0.0
 40
0.0
 40
0.0
 40
0.0760717369555673
 40
0.148751714574522
 40
0.2184027938458625
 40
0.2857595810623897
 40
0.3505980236748649
 40
0.4149640445981403
 40
0.4780693385717788
 40
0.541760676006929
 40
0.6043498585387239
 40
0.6640750210708823
 40
0.7214636230802117
 40
0.7775871282364438
 40
0.8326444469271066
 40
0.8878435110684948
 40
0.9434603426519681
 40
1.0
 40
1.0
 40
1.0
 40
1.0
 10
56.37051665292121
 20
324.14368911518
 30
0.0
 10
56.39032472357044
 20
324.1440615912104
 30
0.0
 10
56.42905769575442
 20
324.1447899359331
 30
0.0
 10
56.48557563449256
 20
324.1514881015021
 30
0.0
 10
56.53934347182992
 20
324.1612431610612
 30
0.0
 10
56.58976424122348
 20
324.1763095840037
 30
0.0
 10
56.63749840519292
 20
324.1949246703608
 30
0.0
 10
56.68187683139347
 20
324.2182977536488
 30
0.0
 10
56.72348209561528
 20
324.245720513877
 30
0.0
 10
56.76178130746833
 20
324.2768894336266
 30
0.0
 10
56.79621978105946
 20
324.3110110044612
 30
0.0
 10
56.82654224859122
 20
324.346699861752
 30
0.0
 10
56.85232002005726
 20
324.3838055300744
 30
0.0
 10
56.87311389829538
 20
324.4225333460573
 30
0.0
 10
56.88953351681052
 20
324.4627229368563
 30
0.0
 10
56.90071145239259
 20
324.5044870860372
 30
0.0
 10
56.90848355915868
 20
324.5474840041703
 30
0.0
 10
56.90911651033274
 20
324.5767115234826
 30
0.0
 10
56.90943558988703
 20
324.5914455254364
 30
0.0
  0
SPLINE
  5
9C
330
1F
100
AcDbEntity
  8
0
  6
Continuous
 62
     7
370
    25
100
AcDbSpline
210
0.0
220
0.0
230
1.0
 70
     8
 71
     3
 72
    23
 73
    19
 74
     0
 42
0.00000001
 43
0.00000001
 40
0.0
 40
0.0
 40
0.0
 40
0.0
 40
0.0669091856056796
 40
0.1334854404229366
 40
0.2010351165700884
 40
0.2712343400187776
 40
0.342879984161568
 40
0.4138361296100343
 40
0.4859766219744334
 40
0.5602295572555467
 40
0.5998841807523906
 40
0.6440548396425975
 40
0.6918919315842599
 40
0.7446875244737774
 40
0.8014917751698792
 40
0.8628576982200896
 40
0.9293283793947482
 40
1.0
 40
1.0
 40
1.0
 40
1.0
 10
56.90943558988703
 20
324.5914455254364
 30
0.0
 10
56.90851012182143
 20
324.6111676208482
 30
0.0
 10
56.90666379069042
 20
324.6505136772722
 30
0.0
 10
56.89256764979012
 20
324.7084000198084
 30
0.0
 10
56.86938176524561
 20
324.7641732263788
 30
0.0
 10
56.83692267507357
 20
324.8168817279853
 30
0.0
 10
56.79741011536895
 20
324.8657319160559
 30
0.0
 10
56.75122752884
 20
324.9093180030785
 30
0.0
 10
56.69799140977612
 20
324.945283248631
 30
0.0
 10
56.64899367945605
 20
324.9701321027388
 30
0.0
 10
56.60559284670827
 20
324.9870878577308
 30
0.0
 10
56.5684511618341
 20
324.9983817648027
 30
0.0
 10
56.52686978741298
 20
325.0079452613304
 30
0.0
 10
56.48135156690164
 20
325.0168426826812
 30
0.0
 10
56.43155352648137
 20
325.0244151170397
 30
0.0
 10
56.37752988065644
 20
325.0307299294178
 30
0.0
 10
56.31926968197163
 20
325.0357827398939
 30
0.0
 10
56.27893740547631
 20
325.038039164183
 30
0.0
 10
56.25815353860498
 20
325.0392019356928
 30
0.0
  0
LINE
  5
9D
330
1F
100
AcDbEntity
  8
0
  6
Continuous
 62
     7
370
    25
100
AcDbLine
 10
56.2581535386
 20
325.0392019357
 30
0.0
 11
56.2581535386
 21
325.2562959528
 31
0.0
  0
SPLINE
  5
9E
330
1F
100
AcDbEntity
  8
0
  6
Continuous
 62
     7
370
    25
100
AcDbSpline
210
0.0
220
0.0
230
1.0
 70
     8
 71
     3
 72
    19
 73
    15
 74
     0
 42
0.00000001
 43
0.00000001
 40
0.0
 40
0.0
 40
0.0
 40
0.0
 40
0.1101655532114461
 40
0.2157872561749671
 40
0.3180274349094187
 40
0.4175739541655047
 40
0.5116504876474458
 40
0.5961620971027479
 40
0.6729345334849843
 40
0.7436695573498782
 40
0.8106770010653616
 40
0.8740589623137034
 40
0.936696301919348
 40
1.0
 40
1.0
 40
1.0
 40
1.0
 10
56.25815353860499
 20
325.2562959527869
 30
0.0
 10
56.28434043406438
 20
325.256740334085
 30
0.0
 10
56.33563412936382
 20
325.257610767884
 30
0.0
 10
56.41056068509956
 20
325.2681384694086
 30
0.0
 10
56.48220883100993
 20
325.2827015158995
 30
0.0
 10
56.54899071783905
 20
325.3050082750343
 30
0.0
 10
56.60985922543685
 20
325.3309164545637
 30
0.0
 10
56.66266679431495
 20
325.3610651717468
 30
0.0
 10
56.70667359290445
 20
325.3945779010534
 30
0.0
 10
56.74166576471104
 20
325.4319719076554
 30
0.0
 10
56.76799058394078
 20
325.472076722086
 30
0.0
 10
56.78723821857462
 20
325.5138758436398
 30
0.0
 10
56.79860793968477
 20
325.5577356328727
 30
0.0
 10
56.80012569063034
 20
325.5876681225263
 30
0.0
 10
56.80088858134002
 20
325.6027135542826
 30
0.0
  0
SPLINE
  5
9F
330
1F
100
AcDbEntity
  8
0
  6
Continuous
 62
     7
370
    25
100
AcDbSpline
210
0.0
220
0.0
230
1.0
 70
     8
 71
     3
 72
    23
 73
    19
 74
     0
 42
0.00000001
 43
0.00000001
 40
0.0
 40
0.0
 40
0.0
 40
0.0
 40
0.0552745490875067
 40
0.1099660938819803
 40
0.1632474428517987
 40
0.2180761854823261
 40
0.2733008743735909
 40
0.3309093000114163
 40
0.3909945233651899
 40
0.4541759534308076
 40
0.518861540848853
 40
0.583310532011166
 40
0.6485166818638268
 40
0.7150308870971833
 40
0.7825020728543287
 40
0.8523226850768674
 40
0.9249284897844328
 40
1.0
 40
1.0
 40
1.0
 40
1.0
 10
56.80088858134002
 20
325.6027135542826
 30
0.0
 10
56.80063796137746
 20
325.6137672382497
 30
0.0
 10
56.8001393648482
 20
325.6357580182549
 30
0.0
 10
56.7938514873315
 20
325.6678860359856
 30
0.0
 10
56.78440266254673
 20
325.6990318461408
 30
0.0
 10
56.77141254053729
 20
325.7290629980565
 30
0.0
 10
56.75402551560517
 20
325.7577712113187
 30
0.0
 10
56.73321808565951
 20
325.7854012399635
 30
0.0
 10
56.70844213929998
 20
325.8117953348863
 30
0.0
 10
56.68005132134715
 20
325.8363972424265
 30
0.0
 10
56.64956418215166
 20
325.8598434001408
 30
0.0
 10
56.61615122295595
 20
325.8797483139331
 30
0.0
 10
56.58081989872541
 20
325.8967693752841
 30
0.0
 10
56.54353109317334
 20
325.9108055979851
 30
0.0
 10
56.50416379626646
 20
325.9213643103826
 30
0.0
 10
56.46290297330146
 20
325.9289455097069
 30
0.0
 10
56.41966994565345
 20
325.9336854247111
 30
0.0
 10
56.39017466010628
 20
325.9343678476651
 30
0.0
 10
56.37518078219473
 20
325.9347147562056
 30
0.0
  0
SPLINE
  5
A0
330
1F
100
AcDbEntity
  8
0
  6
Continuous
 62
     7
370
    25
100
AcDbSpline
210
0.0
220
0.0
230
1.0
 70
     8
 71
     3
 72
    19
 73
    15
 74
     0
 42
0.00000001
 43
0.00000001
 40
0.0
 40
0.0
 40
0.0
 40
0.0
 40
0.1227119423657763
 40
0.2396849640167642
 40
0.3518158552560964
 40
0.4637661328620563
 40
0.5208177931608352
 40
0.5794482914479938
 40
0.6406041451202951
 40
0.7052975118059307
 40
0.7736338807131379
 40
0.8446693818863703
 40
0.9200565080210853
 40
1.0
 40
1.0
 40
1.0
 40
1.0
 10
54.74697565398959
 20
325.9347147562056
 30
0.0
 10
54.72287488334016
 20
325.9338733134705
 30
0.0
 10
54.67580047285887
 20
325.9322297801043
 30
0.0
 10
54.60793716596848
 20
325.917834624351
 30
0.0
 10
54.54484880683487
 20
325.8948669262384
 30
0.0
 10
54.49662589894508
 20
325.8674512430582
 30
0.0
 10
54.46101596123972
 20
325.8403878854435
 30
0.0
 10
54.43556943194537
 20
325.8167523470191
 30
0.0
 10
54.4105803613672
 20
325.7904858298523
 30
0.0
 10
54.38769273774886
 20
325.7599705267083
 30
0.0
 10
54.36454609471234
 20
325.7272729916883
 30
0.0
 10
54.34347343131168
 20
325.6907310509463
 30
0.0
 10
54.32299637933104
 20
325.6512979172495
 30
0.0
 10
54.31065769456169
 20
325.6234210334967
 30
0.0
 10
54.30430738475882
 20
325.6090737305646
 30
0.0
  0
LINE
  5
A1
330
1F
100
AcDbEntity
  8
0
  6
Continuous
 62
     7
370
    25
100
AcDbLine
 10
54.3043073848
 20
325.6090737306
 30
0.0
 11
54.1143501198
 21
325.6090737306
 31
0.0
  0
SPLINE
  5
A2
330
1F
100
AcDbEntity
  8
0
  6
Continuous
 62
     7
370
    25
100
AcDbSpline
210
0.0
220
0.0
230
1.0
 70
     8
 71
     3
 72
    23
 73
    19
 74
     0
 42
0.00000001
 43
0.00000001
 40
0.0
 40
0.0
 40
0.0
 40
0.0
 40
0.0726253460834779
 40
0.141976611326257
 40
0.2089849284189741
 40
0.2739568703644519
 40
0.3368893473968346
 40
0.3987449534945839
 40
0.4601158852788781
 40
0.5208249225900258
 40
0.5809944586325085
 40
0.6401519276014679
 40
0.698622450756272
 40
0.7572710809271644
 40
0.8164266940046595
 40
0.8762540482034792
 40
0.937165293062541
 40
0.9999999999999999
 40
0.9999999999999999
 40
0.9999999999999999
 40
0.9999999999999999
 10
54.11435011980156
 20
325.6090737305646
 30
0.0
 10
54.11949637188008
 20
325.630380994683
 30
0.0
 10
54.1295568737646
 20
325.6720349532432
 30
0.0
 10
54.15054064438629
 20
325.7315479157555
 30
0.0
 10
54.17340019395632
 20
325.78786547393
 30
0.0
 10
54.20084979528837
 20
325.8399330994504
 30
0.0
 10
54.23079080379652
 20
325.8887971977697
 30
0.0
 10
54.26509454491585
 20
325.9333494778051
 30
0.0
 10
54.30217837713428
 20
325.9747230331117
 30
0.0
 10
54.34319632266445
 20
326.0114400863009
 30
0.0
 10
54.38621222756143
 20
326.0446885225355
 30
0.0
 10
54.43183221188693
 20
326.0730367714996
 30
0.0
 10
54.47913843805914
 20
326.097423282994
 30
0.0
 10
54.52845866608044
 20
326.1175136136994
 30
0.0
 10
54.57993973181795
 20
326.1326480970594
 30
0.0
 10
54.63311621830245
 20
326.143628641393
 30
0.0
 10
54.68812747789559
 20
326.1507594580845
 30
0.0
 10
54.72547006840027
 20
326.1514553957605
 30
0.0
 10
54.74443158347677
 20
326.1518087732996
 30
0.0
  0
SPLINE
  5
A3
330
1F
100
AcDbEntity
  8
0
  6
Continuous
 62
     7
370
    25
100
AcDbSpline
210
0.0
220
0.0
230
1.0
 70
     8
 71
     3
 72
    19
 73
    15
 74
     0
 42
0.00000001
 43
0.00000001
 40
0.0
 40
0.0
 40
0.0
 40
0.0
 40
0.0902542493426802
 40
0.1785397915286898
 40
0.266093033853831
 40
0.3546309779571791
 40
0.4418861533505882
 40
0.5257469151636566
 40
0.6081136336036603
 40
0.690197272827901
 40
0.7708214843303521
 40
0.8483261812554211
 40
0.9240117400247422
 40
1.0
 40
1.0
 40
1.0
 40
1.0
 10
54.74443158347677
 20
326.1518087732996
 30
0.0
 10
54.77205876558883
 20
326.1509746673896
 30
0.0
 10
54.82671050077845
 20
326.1493246498405
 30
0.0
 10
54.90700053393427
 20
326.1342573477795
 30
0.0
 10
54.98442627691501
 20
326.1104145296412
 30
0.0
 10
55.05814025059448
 20
326.0774708946586
 30
0.0
 10
55.12661044554547
 20
326.0368385671746
 30
0.0
 10
55.18753185372118
 20
325.9884789405766
 30
0.0
 10
55.24007871501687
 20
325.9333250772961
 30
0.0
 10
55.28416245769704
 20
325.8724058598271
 30
0.0
 10
55.31867924283905
 20
325.8072999089123
 30
0.0
 10
55.34413147822917
 20
325.740292194828
 30
0.0
 10
55.3596264948331
 20
325.6715416692737
 30
0.0
 10
55.36163464109453
 20
325.6251217909154
 30
0.0
 10
55.36264071809216
 20
325.6018655307783
 30
0.0
  0
SPLINE
  5
A4
330
1F
100
AcDbEntity
  8
0
  6
Continuous
 62
     7
370
    25
100
AcDbSpline
210
0.0
220
0.0
230
1.0
 70
     8
 71
     3
 72
    15
 73
    11
 74
     0
 42
0.00000001
 43
0.00000001
 40
0.0
 40
0.0
 40
0.0
 40
0.0
 40
0.1280675485959049
 40
0.2506083188677259
 40
0.3706301659145525
 40
0.4900722467299522
 40
0.6103747641546908
 40
0.7343130699115411
 40
0.8632165042450534
 40
1.0
 40
1.0
 40
1.0
 40
1.0
 10
55.36264071809216
 20
325.6018655307783
 30
0.0
 10
55.36193702255416
 20
325.5794852311229
 30
0.0
 10
55.36055999958698
 20
325.5356904577096
 30
0.0
 10
55.34886771098498
 20
325.4717541237261
 30
0.0
 10
55.32919101867415
 20
325.4114946797459
 30
0.0
 10
55.30193454321034
 20
325.3546584531283
 30
0.0
 10
55.26665179616034
 20
325.3016058119019
 30
0.0
 10
55.22391164137422
 20
325.2522173921911
 30
0.0
 10
55.17341241258623
 20
325.2062741394182
 30
0.0
 10
55.13514372149593
 20
325.1799552200474
 30
0.0
 10
55.11544186659643
 20
325.1664054613339
 30
0.0
  0
SPLINE
  5
A5
330
1F
100
AcDbEntity
  8
0
  6
Continuous
 62
     7
370
    25
100
AcDbSpline
210
0.0
220
0.0
230
1.0
 70
     8
 71
     3
 72
    11
 73
     7
 74
     0
 42
0.00000001
 43
0.00000001
 40
0.0
 40
0.0
 40
0.0
 40
0.0
 40
0.2538796003267098
 40
0.5030089172784351
 40
0.7502910806900716
 40
1.0
 40
1.0
 40
1.0
 40
1.0
 10
55.11544186659643
 20
325.1664054613339
 30
0.0
 10
55.13795821340982
 20
325.1555329480682
 30
0.0
 10
55.18256960879997
 20
325.1339913546564
 30
0.0
 10
55.24337873856514
 20
325.0917452536816
 30
0.0
 10
55.29858012032862
 20
325.0429673674248
 30
0.0
 10
55.32936475039283
 20
325.004902048758
 30
0.0
 10
55.34483222450241
 20
324.9857764549236
 30
0.0
  0
SPLINE
  5
A6
330
1F
100
AcDbEntity
  8
0
  6
Continuous
 62
     7
370
    25
100
AcDbSpline
210
0.0
220
0.0
230
1.0
 70
     8
 71
     3
 72
    15
 73
    11
 74
     0
 42
0.00000001
 43
0.00000001
 40
0.0
 40
0.0
 40
0.0
 40
0.0
 40
0.1281355097973002
 40
0.2541727119019865
 40
0.3781116451390401
 40
0.5017122630072596
 40
0.6239863093684729
 40
0.7470956136177315
 40
0.8728746366500845
 40
1.0
 40
1.0
 40
1.0
 40
1.0
 10
55.34483222450241
 20
324.9857764549236
 30
0.0
 10
55.35501722678239
 20
324.9718320051412
 30
0.0
 10
55.37522044487801
 20
324.9441714555966
 30
0.0
 10
55.40015812481364
 20
324.8996994266096
 30
0.0
 10
55.42278173203696
 20
324.8547344783296
 30
0.0
 10
55.44041067420125
 20
324.808071408971
 30
0.0
 10
55.45406248890731
 20
324.7602510625915
 30
0.0
 10
55.4638209465
 20
324.7111913278325
 30
0.0
 10
55.46988316503266
 20
324.6608521428424
 30
0.0
 10
55.47075133220332
 20
324.6267965000425
 30
0.0
 10
55.47118772663917
 20
324.6096780307783
 30
0.0
  0
SPLINE
  5
A7
330
1F
100
AcDbEntity
  8
0
  6
Continuous
 62
     7
370
    25
100
AcDbSpline
210
0.0
220
0.0
230
1.0
 70
     8
 71
     3
 72
    19
 73
    15
 74
     0
 42
0.00000001
 43
0.00000001
 40
0.0
 40
0.0
 40
0.0
 40
0.0
 40
0.0796482511802133
 40
0.1589216764181083
 40
0.2396194947370243
 40
0.3226094298185622
 40
0.4060346366179308
 40
0.4876020954923757
 40
0.5696846265959201
 40
0.6530361450088358
 40
0.7374357177222888
 40
0.8224778158555074
 40
0.9097476551184075
 40
1.0
 40
1.0
 40
1.0
 40
1.0
 10
55.47118772663917
 20
324.6096780307783
 30
0.0
 10
55.47010247322562
 20
324.5800388184412
 30
0.0
 10
55.46793707361847
 20
324.5208998763738
 30
0.0
 10
55.44858222868005
 20
324.433527068529
 30
0.0
 10
55.41857803073652
 20
324.3481192647714
 30
0.0
 10
55.37596835993705
 20
324.2664311477038
 30
0.0
 10
55.3240389617408
 20
324.1900011077654
 30
0.0
 10
55.26225810378536
 20
324.1216168637284
 30
0.0
 10
55.19132775203251
 20
324.0628348506299
 30
0.0
 10
55.11222147867992
 20
324.0137219984252
 30
0.0
 10
55.02651635812038
 20
323.9744621121463
 30
0.0
 10
54.93484921438885
 20
323.9472130871868
 30
0.0
 10
54.83854084841951
 20
323.9294657445284
 30
0.0
 10
54.77249643513779
 20
323.9275626381045
 30
0.0
 10
54.73891943069899
 20
323.926595098086
 30
0.0
  0
SPLINE
  5
A8
330
1F
100
AcDbEntity
  8
0
  6
Continuous
 62
     7
370
    25
100
AcDbSpline
210
0.0
220
0.0
230
1.0
 70
     8
 71
     3
 72
    23
 73
    19
 74
     0
 42
0.00000001
 43
0.00000001
 40
0.0
 40
0.0
 40
0.0
 40
0.0
 40
0.0655411703374054
 40
0.1289631677825947
 40
0.1903771361885681
 40
0.2500923616690495
 40
0.3085484324592177
 40
0.3663979630553034
 40
0.4245421892666912
 40
0.4831699964229098
 40
0.5422433998311321
 40
0.6017393520173272
 40
0.6625060022495989
 40
0.724855513448849
 40
0.7891278292811993
 40
0.8563463998785267
 40
0.926295234986923
 40
1.0
 40
1.0
 40
1.0
 40
1.0
 10
54.73891943069899
 20
323.926595098086
 30
0.0
 10
54.71628966338491
 20
323.9271201603899
 30
0.0
 10
54.67176182746155
 20
323.928153307916
 30
0.0
 10
54.60630028319937
 20
323.9352160810207
 30
0.0
 10
54.54381525548847
 20
323.948115655617
 30
0.0
 10
54.48422226059417
 20
323.965474321243
 30
0.0
 10
54.42746835763239
 20
323.9874826605014
 30
0.0
 10
54.37372673212009
 20
324.0148896826379
 30
0.0
 10
54.32266674889607
 20
324.0471304481646
 30
0.0
 10
54.2747702403467
 20
324.0845855226952
 30
0.0
 10
54.23004291606725
 20
324.1264842376909
 30
0.0
 10
54.18967341141379
 20
324.1735704008622
 30
0.0
 10
54.15298867949162
 20
324.2249735927568
 30
0.0
 10
54.12097098846139
 20
324.2812908696012
 30
0.0
 10
54.09216197426035
 20
324.3417944299547
 30
0.0
 10
54.06846682428794
 20
324.4072589980236
 30
0.0
 10
54.04761126611266
 20
324.4770993351314
 30
0.0
 10
54.03791483773527
 20
324.5257692065709
 30
0.0
 10
54.03293986339131
 20
324.5507403972313
 30
0.0
  0
LINE
  5
A9
330
1F
100
AcDbEntity
  8
0
  6
Continuous
 62
     7
370
    25
100
AcDbLine
 10
54.0329398634
 20
324.5507403972
 30
0.0
 11
54.2228971283
 21
324.5507403972
 31
0.0
  0
SPLINE
  5
AA
330
1F
100
AcDbEntity
  8
0
  6
Continuous
 62
     7
370
    25
100
AcDbSpline
210
0.0
220
0.0
230
1.0
 70
     8
 71
     3
 72
    15
 73
    11
 74
     0
 42
0.00000001
 43
0.00000001
 40
0.0
 40
0.0
 40
0.0
 40
0.0
 40
0.1497703860319871
 40
0.2913164099952169
 40
0.4259663731047548
 40
0.5521595739694651
 40
0.671527413523538
 40
0.7861216286916873
 40
0.8953250730705022
 40
1.0
 40
1.0
 40
1.0
 40
1.0
 10
54.22289712834856
 20
324.5507403972313
 30
0.0
 10
54.22784607126719
 20
324.5344426606354
 30
0.0
 10
54.23747219511269
 20
324.5027421473236
 30
0.0
 10
54.25385779440061
 20
324.4571187243677
 30
0.0
 10
54.27252574941463
 20
324.41529456837
 30
0.0
 10
54.29255217297075
 20
324.3769628707929
 30
0.0
 10
54.3135848522321
 20
324.3417461321596
 30
0.0
 10
54.33711911648128
 20
324.3105755732677
 30
0.0
 10
54.36141188521319
 20
324.282082093836
 30
0.0
 10
54.37972368462092
 20
324.2660289237579
 30
0.0
 10
54.38868572343404
 20
324.2581722882569
 30
0.0
  0
SPLINE
  5
AB
330
1F
100
AcDbEntity
  8
0
  6
Continuous
 62
     7
370
    25
100
AcDbSpline
210
0.0
220
0.0
230
1.0
 70
     8
 71
     3
 72
    15
 73
    11
 74
     0
 42
0.00000001
 43
0.00000001
 40
0.0
 40
0.0
 40
0.0
 40
0.0
 40
0.11827130483573
 40
0.2361775330837544
 40
0.3556629329485037
 40
0.4759041646706937
 40
0.6001273417110955
 40
0.7286081161551232
 40
0.8613134756739376
 40
1.0
 40
1.0
 40
1.0
 40
1.0
 10
54.38868572343404
 20
324.2581722882569
 30
0.0
 10
54.40053698638019
 20
324.2490353434785
 30
0.0
 10
54.42420293012232
 20
324.2307896575898
 30
0.0
 10
54.46276752702477
 20
324.2075053393791
 30
0.0
 10
54.50332581527657
 20
324.1873298621525
 30
0.0
 10
54.54675659444825
 20
324.171918293791
 30
0.0
 10
54.59212266991332
 20
324.1588689465516
 30
0.0
 10
54.64015731460113
 20
324.1503293945048
 30
0.0
 10
54.69043674590207
 20
324.1444703575499
 30
0.0
 10
54.72476772667515
 20
324.143953327552
 30
0.0
 10
54.74231152471609
 20
324.14368911518
 30
0.0
  0
SPLINE
  5
AC
330
1F
100
AcDbEntity
  8
0
  6
Continuous
 62
     7
370
    25
100
AcDbSpline
210
0.0
220
0.0
230
1.0
 70
     8
 71
     3
 72
    23
 73
    19
 74
     0
 42
0.00000001
 43
0.00000001
 40
0.0
 40
0.0
 40
0.0
 40
0.0
 40
0.0760717369555589
 40
0.1487517145745141
 40
0.2184027938458463
 40
0.2857595810623824
 40
0.3505980236748664
 40
0.4149640445981422
 40
0.4780693385717737
 40
0.5417606760069243
 40
0.6043498585387197
 40
0.6640750210708785
 40
0.7214636230802133
 40
0.7775871282364415
 40
0.8326444469271046
 40
0.8878435110684955
 40
0.9434603426519677
 40
0.9999999999999999
 40
0.9999999999999999
 40
0.9999999999999999
 40
0.9999999999999999
 10
54.74231152471609
 20
324.14368911518
 30
0.0
 10
54.76211959536533
 20
324.1440615912104
 30
0.0
 10
54.80085256754928
 20
324.144789935933
 30
0.0
 10
54.85737050628742
 20
324.1514881015021
 30
0.0
 10
54.91113834362481
 20
324.1612431610612
 30
0.0
 10
54.96155911301835
 20
324.1763095840036
 30
0.0
 10
55.00929327698781
 20
324.1949246703608
 30
0.0
 10
55.05367170318836
 20
324.2182977536489
 30
0.0
 10
55.09527696741013
 20
324.2457205138769
 30
0.0
 10
55.13357617926322
 20
324.2768894336266
 30
0.0
 10
55.16801465285432
 20
324.3110110044612
 30
0.0
 10
55.1983371203861
 20
324.346699861752
 30
0.0
 10
55.22411489185217
 20
324.3838055300745
 30
0.0
 10
55.24490877009024
 20
324.4225333460574
 30
0.0
 10
55.26132838860538
 20
324.4627229368562
 30
0.0
 10
55.27250632418752
 20
324.5044870860374
 30
0.0
 10
55.28027843095354
 20
324.5474840041702
 30
0.0
 10
55.28091138212761
 20
324.5767115234826
 30
0.0
 10
55.28123046168191
 20
324.5914455254364
 30
0.0
  0
SPLINE
  5
AD
330
1F
100
AcDbEntity
  8
0
  6
Continuous
 62
     7
370
    25
100
AcDbSpline
210
0.0
220
0.0
230
1.0
 70
     8
 71
     3
 72
    23
 73
    19
 74
     0
 42
0.00000001
 43
0.00000001
 40
0.0
 40
0.0
 40
0.0
 40
0.0
 40
0.0669091856056797
 40
0.1334854404229369
 40
0.2010351165700917
 40
0.271234340018777
 40
0.3428799841615675
 40
0.4138361296100397
 40
0.4859766219744324
 40
0.5602295572555459
 40
0.5998841807523898
 40
0.6440548396425968
 40
0.6918919315842593
 40
0.744687524473777
 40
0.8014917751698789
 40
0.8628576982200893
 40
0.9293283793947481
 40
1.0
 40
1.0
 40
1.0
 40
1.0
 10
55.2812304616819
 20
324.5914455254364
 30
0.0
 10
55.2803049936163
 20
324.6111676208482
 30
0.0
 10
55.27845866248528
 20
324.6505136772722
 30
0.0
 10
55.26436252158501
 20
324.7084000198085
 30
0.0
 10
55.24117663704046
 20
324.7641732263787
 30
0.0
 10
55.20871754686845
 20
324.8168817279852
 30
0.0
 10
55.16920498716384
 20
324.865731916056
 30
0.0
 10
55.12302240063488
 20
324.9093180030785
 30
0.0
 10
55.06978628157103
 20
324.9452832486312
 30
0.0
 10
55.02078855125087
 20
324.9701321027387
 30
0.0
 10
54.97738771850314
 20
324.9870878577308
 30
0.0
 10
54.94024603362896
 20
324.9983817648026
 30
0.0
 10
54.89866465920788
 20
325.0079452613305
 30
0.0
 10
54.8531464386965
 20
325.0168426826812
 30
0.0
 10
54.80334839827624
 20
325.0244151170397
 30
0.0
 10
54.74932475245132
 20
325.0307299294177
 30
0.0
 10
54.69106455376649
 20
325.0357827398939
 30
0.0
 10
54.6507322772712
 20
325.0380391641831
 30
0.0
 10
54.62994841039985
 20
325.0392019356928
 30
0.0
  0
LINE
  5
AE
330
1F
100
AcDbEntity
  8
0
  6
Continuous
 62
     7
370
    25
100
AcDbLine
 10
54.6299484104
 20
325.0392019357
 30
0.0
 11
54.6299484104
 21
325.2562959528
 31
0.0
  0
SPLINE
  5
AF
330
1F
100
AcDbEntity
  8
0
  6
Continuous
 62
     7
370
    25
100
AcDbSpline
210
0.0
220
0.0
230
1.0
 70
     8
 71
     3
 72
    19
 73
    15
 74
     0
 42
0.00000001
 43
0.00000001
 40
0.0
 40
0.0
 40
0.0
 40
0.0
 40
0.1101655532114361
 40
0.215787256174976
 40
0.3180274349094179
 40
0.4175739541655037
 40
0.5116504876474446
 40
0.5961620971027464
 40
0.6729345334849903
 40
0.7436695573498773
 40
0.8106770010653606
 40
0.8740589623137062
 40
0.9366963019193482
 40
0.9999999999999999
 40
0.9999999999999999
 40
0.9999999999999999
 40
0.9999999999999999
 10
54.62994841039985
 20
325.2562959527868
 30
0.0
 10
54.65613530585925
 20
325.2567403340849
 30
0.0
 10
54.70742900115869
 20
325.2576107678839
 30
0.0
 10
54.78235555689443
 20
325.2681384694087
 30
0.0
 10
54.85400370280478
 20
325.2827015158994
 30
0.0
 10
54.92078558963393
 20
325.3050082750343
 30
0.0
 10
54.98165409723171
 20
325.3309164545636
 30
0.0
 10
55.03446166610983
 20
325.3610651717468
 30
0.0
 10
55.07846846469933
 20
325.3945779010533
 30
0.0
 10
55.11346063650591
 20
325.4319719076555
 30
0.0
 10
55.13978545573564
 20
325.4720767220858
 30
0.0
 10
55.15903309036951
 20
325.5138758436398
 30
0.0
 10
55.17040281147963
 20
325.5577356328727
 30
0.0
 10
55.17192056242519
 20
325.5876681225262
 30
0.0
 10
55.17268345313489
 20
325.6027135542826
 30
0.0
  0
SPLINE
  5
B0
330
1F
100
AcDbEntity
  8
0
  6
Continuous
 62
     7
370
    25
100
AcDbSpline
210
0.0
220
0.0
230
1.0
 70
     8
 71
     3
 72
    23
 73
    19
 74
     0
 42
0.00000001
 43
0.00000001
 40
0.0
 40
0.0
 40
0.0
 40
0.0
 40
0.0552745490875067
 40
0.1099660938819804
 40
0.1632474428517988
 40
0.2180761854823262
 40
0.2733008743735911
 40
0.3309093000114234
 40
0.3909945233651893
 40
0.454175953430807
 40
0.5188615408488525
 40
0.5833105320111555
 40
0.6485166818638269
 40
0.7150308870971943
 40
0.7825020728543286
 40
0.8523226850768558
 40
0.9249284897844327
 40
1.0
 40
1.0
 40
1.0
 40
1.0
 10
55.17268345313489
 20
325.6027135542826
 30
0.0
 10
55.17243283317233
 20
325.6137672382496
 30
0.0
 10
55.17193423664308
 20
325.6357580182549
 30
0.0
 10
55.16564635912638
 20
325.6678860359856
 30
0.0
 10
55.15619753434162
 20
325.6990318461408
 30
0.0
 10
55.14320741233214
 20
325.7290629980564
 30
0.0
 10
55.12582038740004
 20
325.7577712113186
 30
0.0
 10
55.10501295745438
 20
325.7854012399636
 30
0.0
 10
55.08023701109486
 20
325.8117953348863
 30
0.0
 10
55.05184619314201
 20
325.8363972424264
 30
0.0
 10
55.02135905394654
 20
325.8598434001409
 30
0.0
 10
54.98794609475082
 20
325.879748313933
 30
0.0
 10
54.95261477052029
 20
325.8967693752841
 30
0.0
 10
54.91532596496819
 20
325.910805597985
 30
0.0
 10
54.87595866806134
 20
325.9213643103827
 30
0.0
 10
54.83469784509633
 20
325.9289455097066
 30
0.0
 10
54.79146481744831
 20
325.9336854247111
 30
0.0
 10
54.76196953190116
 20
325.9343678476652
 30
0.0
 10
54.74697565398959
 20
325.9347147562056
 30
0.0
  0
SPLINE
  5
B1
330
1F
100
AcDbEntity
  8
0
  6
Continuous
 62
     7
370
    25
100
AcDbSpline
210
0.0
220
0.0
230
1.0
 70
     8
 71
     3
 72
    15
 73
    11
 74
     0
 42
0.00000001
 43
0.00000001
 40
0.0
 40
0.0
 40
0.0
 40
0.0
 40
0.1219040408699208
 40
0.2394126076020036
 40
0.355410104280168
 40
0.4720907288033029
 40
0.5928589821563885
 40
0.7187034677136702
 40
0.8548923829515215
 40
1.0
 40
1.0
 40
1.0
 40
1.0
 10
53.73443558988703
 20
325.6027135542826
 30
0.0
 10
53.73356802226642
 20
325.579746714712
 30
0.0
 10
53.73186416876955
 20
325.534641147163
 30
0.0
 10
53.71753134819829
 20
325.4688874895405
 30
0.0
 10
53.69339329663958
 20
325.4073093993298
 30
0.0
 10
53.66043730283553
 20
325.3492081377794
 30
0.0
 10
53.61748379373687
 20
325.2956374225582
 30
0.0
 10
53.56510613137047
 20
325.245916033624
 30
0.0
 10
53.50372190404462
 20
325.1996355231561
 30
0.0
 10
53.45760222523936
 20
325.1735180552362
 30
0.0
 10
53.43381125762208
 20
325.1600452850518
 30
0.0
  0
SPLINE
  5
B2
330
1F
100
AcDbEntity
  8
0
  6
Continuous
 62
     7
370
    25
100
AcDbSpline
210
0.0
220
0.0
230
1.0
 70
     8
 71
     3
 72
    23
 73
    19
 74
     0
 42
0.00000001
 43
0.00000001
 40
0.0
 40
0.0
 40
0.0
 40
0.0
 40
0.079524829585006
 40
0.1550999763495444
 40
0.2272198200732564
 40
0.2959105041914913
 40
0.3620558809471771
 40
0.4255201169126664
 40
0.4858127192253259
 40
0.5444947060018135
 40
0.6014596357222479
 40
0.6578405937966858
 40
0.7139744721931196
 40
0.7694679515974877
 40
0.8261299671813632
 40
0.8828853593090731
 40
0.9407008816662451
 40
0.9999999999999999
 40
0.9999999999999999
 40
0.9999999999999999
 40
0.9999999999999999
 10
53.43381125762208
 20
325.1600452850518
 30
0.0
 10
53.45113680756511
 20
325.151011378353
 30
0.0
 10
53.48492741611382
 20
325.1333922432648
 30
0.0
 10
53.53305268012663
 20
325.105022361758
 30
0.0
 10
53.57703399040688
 20
325.0751223496721
 30
0.0
 10
53.61809161586902
 20
325.0451044727891
 30
0.0
 10
53.65550421373788
 20
325.0138191407527
 30
0.0
 10
53.68885345389565
 20
324.9811419462841
 30
0.0
 10
53.71896310975075
 20
324.9478885412727
 30
0.0
 10
53.74522597435387
 20
324.9134958284112
 30
0.0
 10
53.76832596608397
 20
324.8780551787208
 30
0.0
 10
53.78829044784991
 20
324.8414735707382
 30
0.0
 10
53.80535513718211
 20
324.8038311736483
 30
0.0
 10
53.81887939060271
 20
324.7647170907825
 30
0.0
 10
53.83002018843479
 20
324.7247058849226
 30
0.0
 10
53.8376859114839
 20
324.6832809149453
 30
0.0
 10
53.84180852368785
 20
324.64071514688
 30
0.0
 10
53.84258794895946
 20
324.6119476501474
 30
0.0
 10
53.84298259843404
 20
324.5973816899664
 30
0.0
  0
SPLINE
  5
B3
330
1F
100
AcDbEntity
  8
0
  6
Continuous
 62
     7
370
    25
100
AcDbSpline
210
0.0
220
0.0
230
1.0
 70
     8
 71
     3
 72
    15
 73
    11
 74
     0
 42
0.00000001
 43
0.00000001
 40
0.0
 40
0.0
 40
0.0
 40
0.0
 40
0.128158185527659
 40
0.2536731361532282
 40
0.377325305973483
 40
0.4993845547645899
 40
0.6229183680423316
 40
0.7458393931045754
 40
0.8713952850140548
 40
1.0
 40
1.0
 40
1.0
 40
1.0
 10
53.84298259843403
 20
324.5973816899663
 30
0.0
 10
53.84251607267918
 20
324.5770025849973
 30
0.0
 10
53.84159264316244
 20
324.5366646896989
 30
0.0
 10
53.83354931949053
 20
324.4771282317932
 30
0.0
 10
53.82150670869289
 20
324.4193058684364
 30
0.0
 10
53.8039205274577
 20
324.3632102763721
 30
0.0
 10
53.7811129053724
 20
324.3091509886842
 30
0.0
 10
53.753005485518
 20
324.2570817304593
 30
0.0
 10
53.72118823288163
 20
324.2061491006255
 30
0.0
 10
53.6956356882189
 20
324.1748107005964
 30
0.0
 10
53.68270615612634
 20
324.1589535382569
 30
0.0
  0
SPLINE
  5
B4
330
1F
100
AcDbEntity
  8
0
  6
Continuous
 62
     7
370
    25
100
AcDbSpline
210
0.0
220
0.0
230
1.0
 70
     8
 71
     3
 72
    15
 73
    11
 74
     0
 42
0.00000001
 43
0.00000001
 40
0.0
 40
0.0
 40
0.0
 40
0.0
 40
0.1192834503733699
 40
0.237092882068645
 40
0.354796044215122
 40
0.4745763009408648
 40
0.5974600658149768
 40
0.7249261546156156
 40
0.8588831991927675
 40
1.0
 40
1.0
 40
1.0
 40
1.0
 10
53.68270615612634
 20
324.1589535382569
 30
0.0
 10
53.66587171690421
 20
324.1404515891033
 30
0.0
 10
53.63241086629424
 20
324.1036763245132
 30
0.0
 10
53.57508976245026
 20
324.0559298822809
 30
0.0
 10
53.51218128985674
 20
324.0158042963291
 30
0.0
 10
53.44392886964194
 20
323.9831036743877
 30
0.0
 10
53.37051494641081
 20
323.9576517501808
 30
0.0
 10
53.29195516267028
 20
323.9393622274425
 30
0.0
 10
53.20809636542911
 20
323.9288862821546
 30
0.0
 10
53.15045924718294
 20
323.9273719645744
 30
0.0
 10
53.12089058454515
 20
323.926595098086
 30
0.0
  0
SPLINE
  5
B5
330
1F
100
AcDbEntity
  8
0
  6
Continuous
 62
     7
370
    25
100
AcDbSpline
210
0.0
220
0.0
230
1.0
 70
     8
 71
     3
 72
    23
 73
    19
 74
     0
 42
0.00000001
 43
0.00000001
 40
0.0
 40
0.0
 40
0.0
 40
0.0
 40
0.0785564333527051
 40
0.1528628401420996
 40
0.2235596934382885
 40
0.2903749439782051
 40
0.3554030728222203
 40
0.4182911570440882
 40
0.480388563775661
 40
0.543072615206275
 40
0.6049239444620957
 40
0.6643983091133059
 40
0.7219425547367102
 40
0.778374891054679
 40
0.833829940650939
 40
0.8888612363189214
 40
0.944088939577907
 40
1.0
 40
1.0
 40
1.0
 40
1.0
 10
53.12089058454515
 20
323.926595098086
 30
0.0
 10
53.09245867809639
 20
323.9272920728491
 30
0.0
 10
53.03713307604291
 20
323.9286483149446
 30
0.0
 10
52.95660426438728
 20
323.937837328327
 30
0.0
 10
52.88153936024278
 20
323.9539408476991
 30
0.0
 10
52.81150190322405
 20
323.975981159051
 30
0.0
 10
52.74691412201406
 20
324.0046530590328
 30
0.0
 10
52.68796005606661
 20
324.0403390967036
 30
0.0
 10
52.63378912998939
 20
324.0816028736299
 30
0.0
 10
52.58604531026114
 20
324.1296294828276
 30
0.0
 10
52.54365848945283
 20
324.1810692437083
 30
0.0
 10
52.50642447640724
 20
324.2341380743731
 30
0.0
 10
52.47547634320237
 20
324.2888408191706
 30
0.0
 10
52.44927376649343
 20
324.3443618126592
 30
0.0
 10
52.42921500991798
 20
324.4014792487291
 30
0.0
 10
52.41532229224315
 20
324.4598992566716
 30
0.0
 10
52.40649923089314
 20
324.5195197954442
 30
0.0
 10
52.40532530645207
 20
324.5597556048052
 30
0.0
 10
52.40473473518617
 20
324.5799972081287
 30
0.0
  0
SPLINE
  5
B6
330
1F
100
AcDbEntity
  8
0
  6
Continuous
 62
     7
370
    25
100
AcDbSpline
210
0.0
220
0.0
230
1.0
 70
     8
 71
     3
 72
    23
 73
    19
 74
     0
 42
0.00000001
 43
0.00000001
 40
0.0
 40
0.0
 40
0.0
 40
0.0
 40
0.058853586028668
 40
0.1163154589633574
 40
0.1726748434114747
 40
0.2287803868808864
 40
0.2845803591253087
 40
0.3402565063845595
 40
0.3966298050124775
 40
0.4535072628752292
 40
0.5123181897800071
 40
0.5726484440568259
 40
0.6360219358217966
 40
0.7023629463892139
 40
0.7714830560569437
 40
0.8441844774899078
 40
0.9200697939721802
 40
0.9999999999999999
 40
0.9999999999999999
 40
0.9999999999999999
 40
0.9999999999999999
 10
52.40473473518617
 20
324.5799972081287
 30
0.0
 10
52.40508421561786
 20
324.5948496718843
 30
0.0
 10
52.40577491230354
 20
324.6242033825933
 30
0.0
 10
52.41055546337655
 20
324.6675704525563
 30
0.0
 10
52.41824105664089
 20
324.7097804959672
 30
0.0
 10
52.42867891860655
 20
324.7509894219057
 30
0.0
 10
52.44282492032782
 20
324.790897220049
 30
0.0
 10
52.45990468656282
 20
324.8296929827027
 30
0.0
 10
52.4798206768704
 20
324.8674205092071
 30
0.0
 10
52.50285071478277
 20
324.9042861182344
 30
0.0
 10
52.52964289120259
 20
324.9397732518208
 30
0.0
 10
52.55997995559755
 20
324.9744841628467
 30
0.0
 10
52.59446823807595
 20
325.0078802444011
 30
0.0
 10
52.63272406036344
 20
325.0403695204222
 30
0.0
 10
52.67431023423065
 20
325.0725283236369
 30
0.0
 10
52.72030693123838
 20
325.1026186928446
 30
0.0
 10
52.76949479794994
 20
325.1327708905824
 30
0.0
 10
52.80445330515057
 20
325.1507978302506
 30
0.0
 10
52.82238631104087
 20
325.1600452850518
 30
0.0
  0
SPLINE
  5
B7
330
1F
100
AcDbEntity
  8
0
  6
Continuous
 62
     7
370
    25
100
AcDbSpline
210
0.0
220
0.0
230
1.0
 70
     8
 71
     3
 72
    15
 73
    11
 74
     0
 42
0.00000001
 43
0.00000001
 40
0.0
 40
0.0
 40
0.0
 40
0.0
 40
0.1458600603916588
 40
0.2824259030758067
 40
0.410850400357526
 40
0.5350294213479423
 40
0.6547010781259415
 40
0.770133432596457
 40
0.8845558441988113
 40
1.0
 40
1.0
 40
1.0
 40
1.0
 10
52.82238631104087
 20
325.1600452850518
 30
0.0
 10
52.79783819397709
 20
325.1734315498838
 30
0.0
 10
52.75030616833593
 20
325.1993511054072
 30
0.0
 10
52.6873689348892
 20
325.2469741738541
 30
0.0
 10
52.63330889118111
 20
325.2985529951947
 30
0.0
 10
52.58961199052806
 20
325.3551767282545
 30
0.0
 10
52.5552178335511
 20
325.4150765046193
 30
0.0
 10
52.53162086794426
 20
325.4778775524869
 30
0.0
 10
52.51565727999893
 20
325.5424153925591
 30
0.0
 10
52.51407593215637
 20
325.5865062828705
 30
0.0
 10
52.51328174373319
 20
325.6086497188126
 30
0.0
  0
SPLINE
  5
B8
330
1F
100
AcDbEntity
  8
0
  6
Continuous
 62
     7
370
    25
100
AcDbSpline
210
0.0
220
0.0
230
1.0
 70
     8
 71
     3
 72
    19
 73
    15
 74
     0
 42
0.00000001
 43
0.00000001
 40
0.0
 40
0.0
 40
0.0
 40
0.0
 40
0.0740584262733517
 40
0.1488703523168388
 40
0.2266676683691717
 40
0.3077347594510914
 40
0.3911572038059661
 40
0.4739293555425445
 40
0.557927751515049
 40
0.6449892900513662
 40
0.7333640555176081
 40
0.8210920421841629
 40
0.9092872149973426
 40
1.0
 40
1.0
 40
1.0
 40
1.0
 10
52.51328174373318
 20
325.6086497188125
 30
0.0
 10
52.51427078592565
 20
325.6312058612622
 30
0.0
 10
52.5162589332177
 20
325.6765476412917
 30
0.0
 10
52.53233551280982
 20
325.7440427730145
 30
0.0
 10
52.5585338387486
 20
325.8103346956717
 30
0.0
 10
52.59416701313283
 20
325.875102102949
 30
0.0
 10
52.63854880575465
 20
325.9361529470542
 30
0.0
 10
52.69179600251906
 20
325.9909086621884
 30
0.0
 10
52.75263704392971
 20
326.0388732254058
 30
0.0
 10
52.82076823016509
 20
326.0791359584485
 30
0.0
 10
52.89408728701361
 20
326.111904171144
 30
0.0
 10
52.97144584383828
 20
326.1345092173246
 30
0.0
 10
53.05149605636745
 20
326.14928724981
 30
0.0
 10
53.10598372473537
 20
326.1509604171391
 30
0.0
 10
53.13361093710925
 20
326.1518087732996
 30
0.0
  0
SPLINE
  5
B9
330
1F
100
AcDbEntity
  8
0
  6
Continuous
 62
     7
370
    25
100
AcDbSpline
210
0.0
220
0.0
230
1.0
 70
     8
 71
     3
 72
    19
 73
    15
 74
     0
 42
0.00000001
 43
0.00000001
 40
0.0
 40
0.0
 40
0.0
 40
0.0
 40
0.0894097111101357
 40
0.1763057644831051
 40
0.2626259021834171
 40
0.3494457264756629
 40
0.4354982637429754
 40
0.5189281301037133
 40
0.601354656578738
 40
0.6842564217184073
 40
0.7658067397968581
 40
0.8448768657103655
 40
0.9222797948488571
 40
1.0
 40
1.0
 40
1.0
 40
1.0
 10
53.13361093710925
 20
326.1518087732996
 30
0.0
 10
53.1605251490324
 20
326.1509340800856
 30
0.0
 10
53.21359690879603
 20
326.149209284715
 30
0.0
 10
53.2916079454746
 20
326.13482388703
 30
0.0
 10
53.36625060944774
 20
326.110796986993
 30
0.0
 10
53.43726749689616
 20
326.078201999551
 30
0.0
 10
53.50338724531841
 20
326.0380537067772
 30
0.0
 10
53.56180864186712
 20
325.9894303210293
 30
0.0
 10
53.61341453667475
 20
325.9349161451171
 30
0.0
 10
53.65610128939294
 20
325.8738838135896
 30
0.0
 10
53.69127598918412
 20
325.8093652774385
 30
0.0
 10
53.71576939128801
 20
325.7418602290889
 30
0.0
 10
53.73146415649991
 20
325.6728272268253
 30
0.0
 10
53.73344376245062
 20
325.6261166244627
 30
0.0
 10
53.73443558988703
 20
325.6027135542826
 30
0.0
  0
SPLINE
  5
BA
330
1F
100
AcDbEntity
  8
0
  6
Continuous
 62
     7
370
    25
100
AcDbSpline
210
0.0
220
0.0
230
1.0
 70
     8
 71
     3
 72
    15
 73
    11
 74
     0
 42
0.00000001
 43
0.00000001
 40
0.0
 40
0.0
 40
0.0
 40
0.0
 40
0.1219040408699216
 40
0.2394126076020042
 40
0.3554101042801685
 40
0.4720907288033033
 40
0.5928589821563888
 40
0.7187034677136704
 40
0.8548923829515216
 40
1.0
 40
1.0
 40
1.0
 40
1.0
 10
52.1062304616819
 20
325.6027135542826
 30
0.0
 10
52.1053628940613
 20
325.579746714712
 30
0.0
 10
52.10365904056442
 20
325.5346411471631
 30
0.0
 10
52.08932621999318
 20
325.4688874895407
 30
0.0
 10
52.06518816843447
 20
325.4073093993298
 30
0.0
 10
52.03223217463039
 20
325.3492081377794
 30
0.0
 10
51.98927866553174
 20
325.2956374225581
 30
0.0
 10
51.93690100316535
 20
325.245916033624
 30
0.0
 10
51.87551677583949
 20
325.1996355231559
 30
0.0
 10
51.82939709703421
 20
325.1735180552362
 30
0.0
 10
51.80560612941695
 20
325.1600452850518
 30
0.0
  0
SPLINE
  5
BB
330
1F
100
AcDbEntity
  8
0
  6
Continuous
 62
     7
370
    25
100
AcDbSpline
210
0.0
220
0.0
230
1.0
 70
     8
 71
     3
 72
    23
 73
    19
 74
     0
 42
0.00000001
 43
0.00000001
 40
0.0
 40
0.0
 40
0.0
 40
0.0
 40
0.079524829585006
 40
0.1550999763495526
 40
0.2272198200732569
 40
0.2959105041914918
 40
0.3620558809471776
 40
0.4255201169126603
 40
0.4858127192253261
 40
0.544494706001808
 40
0.6014596357222477
 40
0.6578405937966857
 40
0.7139744721931195
 40
0.7694679515974876
 40
0.8261299671813631
 40
0.8828853593090731
 40
0.9407008816662451
 40
1.0
 40
1.0
 40
1.0
 40
1.0
 10
51.80560612941694
 20
325.1600452850518
 30
0.0
 10
51.82293167935999
 20
325.151011378353
 30
0.0
 10
51.85672228790869
 20
325.1333922432647
 30
0.0
 10
51.90484755192151
 20
325.105022361758
 30
0.0
 10
51.94882886220173
 20
325.075122349672
 30
0.0
 10
51.98988648766391
 20
325.0451044727892
 30
0.0
 10
52.02729908553275
 20
325.0138191407528
 30
0.0
 10
52.06064832569052
 20
324.9811419462841
 30
0.0
 10
52.09075798154561
 20
324.9478885412726
 30
0.0
 10
52.11702084614875
 20
324.9134958284113
 30
0.0
 10
52.14012083787882
 20
324.8780551787207
 30
0.0
 10
52.16008531964479
 20
324.8414735707382
 30
0.0
 10
52.17715000897697
 20
324.8038311736482
 30
0.0
 10
52.19067426239758
 20
324.7647170907825
 30
0.0
 10
52.20181506022968
 20
324.7247058849227
 30
0.0
 10
52.20948078327877
 20
324.6832809149453
 30
0.0
 10
52.2136033954827
 20
324.6407151468799
 30
0.0
 10
52.21438282075435
 20
324.6119476501474
 30
0.0
 10
52.21477747022892
 20
324.5973816899664
 30
0.0
  0
SPLINE
  5
BC
330
1F
100
AcDbEntity
  8
0
  6
Continuous
 62
     7
370
    25
100
AcDbSpline
210
0.0
220
0.0
230
1.0
 70
     8
 71
     3
 72
    15
 73
    11
 74
     0
 42
0.00000001
 43
0.00000001
 40
0.0
 40
0.0
 40
0.0
 40
0.0
 40
0.1281581855276593
 40
0.2536731361532288
 40
0.377325305973487
 40
0.4993845547645941
 40
0.6229183680423305
 40
0.7458393931045746
 40
0.8713952850140544
 40
1.0
 40
1.0
 40
1.0
 40
1.0
 10
52.21477747022891
 20
324.5973816899663
 30
0.0
 10
52.21431094447406
 20
324.5770025849974
 30
0.0
 10
52.21338751495732
 20
324.536664689699
 30
0.0
 10
52.20534419128541
 20
324.4771282317932
 30
0.0
 10
52.19330158048778
 20
324.4193058684364
 30
0.0
 10
52.17571539925255
 20
324.3632102763721
 30
0.0
 10
52.15290777716728
 20
324.3091509886843
 30
0.0
 10
52.12480035731288
 20
324.2570817304593
 30
0.0
 10
52.09298310467651
 20
324.2061491006255
 30
0.0
 10
52.06743056001377
 20
324.1748107005964
 30
0.0
 10
52.05450102792122
 20
324.1589535382569
 30
0.0
  0
SPLINE
  5
BD
330
1F
100
AcDbEntity
  8
0
  6
Continuous
 62
     7
370
    25
100
AcDbSpline
210
0.0
220
0.0
230
1.0
 70
     8
 71
     3
 72
    15
 73
    11
 74
     0
 42
0.00000001
 43
0.00000001
 40
0.0
 40
0.0
 40
0.0
 40
0.0
 40
0.1192834503733763
 40
0.2370928820686417
 40
0.3547960442151175
 40
0.474576300940859
 40
0.5974600658149593
 40
0.7249261546156074
 40
0.8588831991927579
 40
1.0
 40
1.0
 40
1.0
 40
1.0
 10
52.05450102792122
 20
324.1589535382569
 30
0.0
 10
52.03766658869909
 20
324.1404515891033
 30
0.0
 10
52.00420573808911
 20
324.1036763245132
 30
0.0
 10
51.94688463424509
 20
324.0559298822809
 30
0.0
 10
51.88397616165161
 20
324.0158042963291
 30
0.0
 10
51.81572374143681
 20
323.9831036743877
 30
0.0
 10
51.74230981820569
 20
323.9576517501807
 30
0.0
 10
51.66375003446517
 20
323.9393622274428
 30
0.0
 10
51.57989123722397
 20
323.9288862821543
 30
0.0
 10
51.52225411897781
 20
323.9273719645744
 30
0.0
 10
51.49268545634002
 20
323.926595098086
 30
0.0
  0
SPLINE
  5
BE
330
1F
100
AcDbEntity
  8
0
  6
Continuous
 62
     7
370
    25
100
AcDbSpline
210
0.0
220
0.0
230
1.0
 70
     8
 71
     3
 72
    23
 73
    19
 74
     0
 42
0.00000001
 43
0.00000001
 40
0.0
 40
0.0
 40
0.0
 40
0.0
 40
0.0785564333526992
 40
0.1528628401420878
 40
0.2235596934382833
 40
0.2903749439782002
 40
0.3554030728222159
 40
0.4182911570440841
 40
0.4803885637756573
 40
0.5430726152062716
 40
0.6049239444620926
 40
0.6643983091133031
 40
0.7219425547367079
 40
0.7783748910546769
 40
0.8338299406509372
 40
0.88886123631892
 40
0.9440889395779068
 40
1.0
 40
1.0
 40
1.0
 40
1.0
 10
51.49268545634002
 20
323.926595098086
 30
0.0
 10
51.46425354989125
 20
323.927292072849
 30
0.0
 10
51.4089279478378
 20
323.9286483149447
 30
0.0
 10
51.32839913618214
 20
323.937837328327
 30
0.0
 10
51.25333423203767
 20
323.9539408476991
 30
0.0
 10
51.18329677501891
 20
323.9759811590511
 30
0.0
 10
51.11870899380893
 20
324.0046530590326
 30
0.0
 10
51.0597549278615
 20
324.0403390967037
 30
0.0
 10
51.00558400178422
 20
324.0816028736298
 30
0.0
 10
50.95784018205602
 20
324.1296294828276
 30
0.0
 10
50.91545336124769
 20
324.1810692437082
 30
0.0
 10
50.87821934820212
 20
324.2341380743733
 30
0.0
 10
50.84727121499727
 20
324.2888408191707
 30
0.0
 10
50.82106863828831
 20
324.3443618126591
 30
0.0
 10
50.80100988171285
 20
324.4014792487291
 30
0.0
 10
50.78711716403804
 20
324.4598992566717
 30
0.0
 10
50.77829410268801
 20
324.5195197954442
 30
0.0
 10
50.77712017824693
 20
324.5597556048051
 30
0.0
 10
50.77652960698105
 20
324.5799972081287
 30
0.0
  0
SPLINE
  5
BF
330
1F
100
AcDbEntity
  8
0
  6
Continuous
 62
     7
370
    25
100
AcDbSpline
210
0.0
220
0.0
230
1.0
 70
     8
 71
     3
 72
    23
 73
    19
 74
     0
 42
0.00000001
 43
0.00000001
 40
0.0
 40
0.0
 40
0.0
 40
0.0
 40
0.0588535860286681
 40
0.1163154589633574
 40
0.1726748434114748
 40
0.2287803868808865
 40
0.2845803591253088
 40
0.3402565063845596
 40
0.3966298050124777
 40
0.4535072628752293
 40
0.5123181897800072
 40
0.5726484440568261
 40
0.6360219358217968
 40
0.7023629463892141
 40
0.7714830560569439
 40
0.8441844774899157
 40
0.9200697939721802
 40
1.0
 40
1.0
 40
1.0
 40
1.0
 10
50.77652960698106
 20
324.5799972081288
 30
0.0
 10
50.77687908741274
 20
324.5948496718844
 30
0.0
 10
50.7775697840984
 20
324.6242033825932
 30
0.0
 10
50.78235033517141
 20
324.6675704525562
 30
0.0
 10
50.79003592843579
 20
324.7097804959673
 30
0.0
 10
50.8004737904014
 20
324.7509894219056
 30
0.0
 10
50.81461979212269
 20
324.790897220049
 30
0.0
 10
50.83169955835772
 20
324.8296929827029
 30
0.0
 10
50.85161554866525
 20
324.867420509207
 30
0.0
 10
50.87464558657764
 20
324.9042861182344
 30
0.0
 10
50.90143776299748
 20
324.9397732518208
 30
0.0
 10
50.9317748273924
 20
324.9744841628467
 30
0.0
 10
50.96626310987084
 20
325.0078802444013
 30
0.0
 10
51.00451893215828
 20
325.0403695204222
 30
0.0
 10
51.04610510602554
 20
325.072528323637
 30
0.0
 10
51.09210180303327
 20
325.1026186928447
 30
0.0
 10
51.14128966974479
 20
325.1327708905823
 30
0.0
 10
51.17624817694544
 20
325.1507978302506
 30
0.0
 10
51.19418118283574
 20
325.1600452850518
 30
0.0
  0
SPLINE
  5
C0
330
1F
100
AcDbEntity
  8
0
  6
Continuous
 62
     7
370
    25
100
AcDbSpline
210
0.0
220
0.0
230
1.0
 70
     8
 71
     3
 72
    15
 73
    11
 74
     0
 42
0.00000001
 43
0.00000001
 40
0.0
 40
0.0
 40
0.0
 40
0.0
 40
0.1458600603916686
 40
0.2824259030758062
 40
0.410850400357525
 40
0.5350294213479407
 40
0.6547010781259455
 40
0.7701334325964561
 40
0.8845558441988128
 40
1.0
 40
1.0
 40
1.0
 40
1.0
 10
51.19418118283574
 20
325.1600452850518
 30
0.0
 10
51.16963306577195
 20
325.1734315498838
 30
0.0
 10
51.12210104013081
 20
325.1993511054073
 30
0.0
 10
51.05916380668403
 20
325.246974173854
 30
0.0
 10
51.00510376297598
 20
325.2985529951946
 30
0.0
 10
50.96140686232294
 20
325.3551767282546
 30
0.0
 10
50.92701270534596
 20
325.4150765046193
 30
0.0
 10
50.90341573973912
 20
325.4778775524869
 30
0.0
 10
50.88745215179379
 20
325.5424153925591
 30
0.0
 10
50.88587080395125
 20
325.5865062828705
 30
0.0
 10
50.88507661552806
 20
325.6086497188125
 30
0.0
  0
SPLINE
  5
C1
330
1F
100
AcDbEntity
  8
0
  6
Continuous
 62
     7
370
    25
100
AcDbSpline
210
0.0
220
0.0
230
1.0
 70
     8
 71
     3
 72
    19
 73
    15
 74
     0
 42
0.00000001
 43
0.00000001
 40
0.0
 40
0.0
 40
0.0
 40
0.0
 40
0.0740584262733516
 40
0.1488703523168387
 40
0.2266676683691716
 40
0.3077347594510875
 40
0.3911572038059666
 40
0.4739293555425449
 40
0.5579277515150494
 40
0.6449892900513665
 40
0.7333640555176083
 40
0.8210920421841631
 40
0.9092872149973427
 40
1.0
 40
1.0
 40
1.0
 40
1.0
 10
50.88507661552806
 20
325.6086497188125
 30
0.0
 10
50.88606565772053
 20
325.6312058612624
 30
0.0
 10
50.88805380501259
 20
325.6765476412918
 30
0.0
 10
50.90413038460466
 20
325.7440427730141
 30
0.0
 10
50.93032871054349
 20
325.8103346956718
 30
0.0
 10
50.96596188492771
 20
325.8751021029489
 30
0.0
 10
51.01034367754951
 20
325.9361529470543
 30
0.0
 10
51.06359087431392
 20
325.9909086621883
 30
0.0
 10
51.12443191572455
 20
326.0388732254057
 30
0.0
 10
51.19256310195998
 20
326.0791359584487
 30
0.0
 10
51.26588215880848
 20
326.111904171144
 30
0.0
 10
51.34324071563319
 20
326.1345092173248
 30
0.0
 10
51.42329092816231
 20
326.14928724981
 30
0.0
 10
51.47777859653024
 20
326.1509604171391
 30
0.0
 10
51.50540580890412
 20
326.1518087732996
 30
0.0
  0
SPLINE
  5
C2
330
1F
100
AcDbEntity
  8
0
  6
Continuous
 62
     7
370
    25
100
AcDbSpline
210
0.0
220
0.0
230
1.0
 70
     8
 71
     3
 72
    19
 73
    15
 74
     0
 42
0.00000001
 43
0.00000001
 40
0.0
 40
0.0
 40
0.0
 40
0.0
 40
0.0894097111101354
 40
0.1763057644831046
 40
0.2626259021834164
 40
0.349445726475669
 40
0.4354982637429746
 40
0.5189281301037123
 40
0.6013546565787367
 40
0.6842564217184102
 40
0.7658067397968608
 40
0.8448768657103652
 40
0.9222797948488568
 40
1.0
 40
1.0
 40
1.0
 40
1.0
 10
51.50540580890412
 20
326.1518087732996
 30
0.0
 10
51.53232002082728
 20
326.1509340800856
 30
0.0
 10
51.5853917805909
 20
326.149209284715
 30
0.0
 10
51.66340281726944
 20
326.1348238870299
 30
0.0
 10
51.73804548124262
 20
326.110796986993
 30
0.0
 10
51.80906236869103
 20
326.078201999551
 30
0.0
 10
51.87518211711328
 20
326.0380537067772
 30
0.0
 10
51.933603513662
 20
325.9894303210293
 30
0.0
 10
51.98520940846961
 20
325.9349161451171
 30
0.0
 10
52.0278961611878
 20
325.8738838135894
 30
0.0
 10
52.06307086097898
 20
325.8093652774385
 30
0.0
 10
52.08756426308292
 20
325.7418602290892
 30
0.0
 10
52.10325902829475
 20
325.6728272268251
 30
0.0
 10
52.10523863424549
 20
325.6261166244627
 30
0.0
 10
52.1062304616819
 20
325.6027135542826
 30
0.0
  0
LINE
  5
C3
330
1F
100
AcDbEntity
  8
0
  6
Continuous
 62
     7
370
    25
100
AcDbLine
 10
49.6639227694
 20
323.9808686024
 30
0.0
 11
48.7684099489
 21
326.097535269
 31
0.0
  0
LINE
  5
C4
330
1F
100
AcDbEntity
  8
0
  6
Continuous
 62
     7
370
    25
100
AcDbLine
 10
48.7684099489
 20
326.097535269
 30
0.0
 11
48.9719355899
 21
326.097535269
 31
0.0
  0
LINE
  5
C5
330
1F
100
AcDbEntity
  8
0
  6
Continuous
 62
     7
370
    25
100
AcDbLine
 10
48.9719355899
 20
326.097535269
 30
0.0
 11
49.6774911454
 21
324.4294730361
 31
0.0
  0
LINE
  5
C6
330
1F
100
AcDbEntity
  8
0
  6
Continuous
 62
     7
370
    25
100
AcDbLine
 10
49.6774911454
 20
324.4294730361
 30
0.0
 11
50.383046701
 21
326.097535269
 31
0.0
  0
LINE
  5
C7
330
1F
100
AcDbEntity
  8
0
  6
Continuous
 62
     7
370
    25
100
AcDbLine
 10
50.383046701
 20
326.097535269
 30
0.0
 11
50.586572342
 21
326.097535269
 31
0.0
  0
LINE
  5
C8
330
1F
100
AcDbEntity
  8
0
  6
Continuous
 62
     7
370
    25
100
AcDbLine
 10
50.586572342
 20
326.097535269
 30
0.0
 11
49.6910595215
 21
323.9808686024
 31
0.0
  0
LINE
  5
C9
330
1F
100
AcDbEntity
  8
0
  6
Continuous
 62
     7
370
    25
100
AcDbLine
 10
49.6910595215
 20
323.9808686024
 30
0.0
 11
49.6639227694
 21
323.9808686024
 31
0.0
  0
LINE
  5
CA
330
1F
100
AcDbEntity
  8
0
  6
Continuous
 62
     7
370
    25
100
AcDbLine
 10
47.1402048207
 20
323.9808686024
 30
0.0
 11
47.1402048207
 21
326.097535269
 31
0.0
  0
LINE
  5
CB
330
1F
100
AcDbEntity
  8
0
  6
Continuous
 62
     7
370
    25
100
AcDbLine
 10
47.1402048207
 20
326.097535269
 30
0.0
 11
47.563792561
 21
326.097535269
 31
0.0
  0
SPLINE
  5
CC
330
1F
100
AcDbEntity
  8
0
  6
Continuous
 62
     7
370
    25
100
AcDbSpline
210
0.0
220
0.0
230
1.0
 70
     8
 71
     3
 72
    15
 73
    11
 74
     0
 42
0.00000001
 43
0.00000001
 40
0.0
 40
0.0
 40
0.0
 40
0.0
 40
0.1762577548177962
 40
0.3384344138804834
 40
0.4848220507878416
 40
0.6171575782663353
 40
0.7346983606124853
 40
0.8373851838323607
 40
0.9263724209295869
 40
0.9999999999999999
 40
0.9999999999999999
 40
0.9999999999999999
 40
0.9999999999999999
 10
47.56379256104088
 20
326.0975352690261
 30
0.0
 10
47.59205981495147
 20
326.0974411765477
 30
0.0
 10
47.64633607371314
 20
326.0972605085662
 30
0.0
 10
47.72409228959732
 20
326.0962531186168
 30
0.0
 10
47.79474486730695
 20
326.0933657701648
 30
0.0
 10
47.85825686537016
 20
326.0908810553951
 30
0.0
 10
47.91462711861774
 20
326.0863502146903
 30
0.0
 10
47.96402848016531
 20
326.0820197280988
 30
0.0
 10
48.00623342103509
 20
326.0763508951515
 30
0.0
 10
48.03178210253713
 20
326.0710861869771
 30
0.0
 10
48.04334985270754
 20
326.0687024698809
 30
0.0
  0
SPLINE
  5
CD
330
1F
100
AcDbEntity
  8
0
  6
Continuous
 62
     7
370
    25
100
AcDbSpline
210
0.0
220
0.0
230
1.0
 70
     8
 71
     3
 72
    23
 73
    19
 74
     0
 42
0.00000001
 43
0.00000001
 40
0.0
 40
0.0
 40
0.0
 40
0.0
 40
0.0642168426314255
 40
0.1270637656931273
 40
0.1887445383478439
 40
0.249132102835037
 40
0.3094525327106273
 40
0.3698266762476822
 40
0.4306501418384829
 40
0.4923519318794639
 40
0.5540721062625238
 40
0.6156897837449842
 40
0.6767977025064985
 40
0.7384390482469567
 40
0.8013169100648602
 40
0.8651845117115465
 40
0.9316413244190327
 40
1.0
 40
1.0
 40
1.0
 40
1.0
 10
48.04334985270754
 20
326.0687024698809
 30
0.0
 10
48.05883576349505
 20
326.0648762832074
 30
0.0
 10
48.08947722855653
 20
326.0573055328083
 30
0.0
 10
48.13359464944733
 20
326.041303774215
 30
0.0
 10
48.17563426440861
 20
326.0227861917038
 30
0.0
 10
48.21542144387939
 20
326.0010367037021
 30
0.0
 10
48.25275689855167
 20
325.9758938607571
 30
0.0
 10
48.28802559127033
 20
325.9477917105224
 30
0.0
 10
48.32138756198111
 20
325.916884019414
 30
0.0
 10
48.35149359547112
 20
325.8823915200288
 30
0.0
 10
48.37988054578162
 20
325.8462046784603
 30
0.0
 10
48.40382223895102
 20
325.807074311228
 30
0.0
 10
48.42446063383083
 20
325.7661551969633
 30
0.0
 10
48.44089232744519
 20
325.723031187178
 30
0.0
 10
48.45412329235518
 20
325.6781204965753
 30
0.0
 10
48.46345249426043
 20
325.631016319507
 30
0.0
 10
48.46904726011336
 20
325.5819332536228
 30
0.0
 10
48.46961685847191
 20
325.5484548992584
 30
0.0
 10
48.46990567535711
 20
325.5314795799235
 30
0.0
  0
SPLINE
  5
CE
330
1F
100
AcDbEntity
  8
0
  6
Continuous
 62
     7
370
    25
100
AcDbSpline
210
0.0
220
0.0
230
1.0
 70
     8
 71
     3
 72
    23
 73
    19
 74
     0
 42
0.00000001
 43
0.00000001
 40
0.0
 40
0.0
 40
0.0
 40
0.0
 40
0.0787802355821224
 40
0.1537206442085531
 40
0.2267135303087529
 40
0.2991911660659258
 40
0.3711899968376787
 40
0.4430064143534102
 40
0.5166891732948778
 40
0.593217216623416
 40
0.6338729178078372
 40
0.6769891422899696
 40
0.7228995063258243
 40
0.7719586105061392
 40
0.8242113233348375
 40
0.8793786506272042
 40
0.9379481193304187
 40
1.0
 40
1.0
 40
1.0
 40
1.0
 10
48.46990567535711
 20
325.5314795799235
 30
0.0
 10
48.46901728126293
 20
325.5032764452303
 30
0.0
 10
48.46728379428538
 20
325.4482448246504
 30
0.0
 10
48.45112146967891
 20
325.3683794344651
 30
0.0
 10
48.42464709822386
 20
325.2938792298967
 30
0.0
 10
48.38816587106112
 20
325.2248380155385
 30
0.0
 10
48.34170837860582
 20
325.1626015776301
 30
0.0
 10
48.2858738620814
 20
325.1079368737082
 30
0.0
 10
48.22063117322813
 20
325.0621927360938
 30
0.0
 10
48.15989534882682
 20
325.0304712780123
 30
0.0
 10
48.10624438043885
 20
325.0101555666062
 30
0.0
 10
48.06207661508608
 20
324.9958611972007
 30
0.0
 10
48.0138970620291
 20
324.9848170562952
 30
0.0
 10
47.96216734062457
 20
324.9749230718434
 30
0.0
 10
47.90667217754127
 20
324.967453237604
 30
0.0
 10
47.84754458229159
 20
324.9619822019011
 30
0.0
 10
47.78474238582957
 20
324.9585628486407
 30
0.0
 10
47.74159923436363
 20
324.9580536361603
 30
0.0
 10
47.71940487407506
 20
324.9577916792826
 30
0.0
  0
LINE
  5
CF
330
1F
100
AcDbEntity
  8
0
  6
Continuous
 62
     7
370
    25
100
AcDbLine
 10
47.7194048741
 20
324.9577916793
 30
0.0
 11
48.4970424275
 21
323.9808686024
 31
0.0
  0
LINE
  5
D0
330
1F
100
AcDbEntity
  8
0
  6
Continuous
 62
     7
370
    25
100
AcDbLine
 10
48.4970424275
 20
323.9808686024
 30
0.0
 11
48.2621399168
 21
323.9808686024
 31
0.0
  0
LINE
  5
D1
330
1F
100
AcDbEntity
  8
0
  6
Continuous
 62
     7
370
    25
100
AcDbLine
 10
48.2621399168
 20
323.9808686024
 30
0.0
 11
47.4845023634
 21
324.9577916793
 31
0.0
  0
LINE
  5
D2
330
1F
100
AcDbEntity
  8
0
  6
Continuous
 62
     7
370
    25
100
AcDbLine
 10
47.4845023634
 20
324.9577916793
 30
0.0
 11
47.3301620856
 21
324.9577916793
 31
0.0
  0
LINE
  5
D3
330
1F
100
AcDbEntity
  8
0
  6
Continuous
 62
     7
370
    25
100
AcDbLine
 10
47.3301620856
 20
324.9577916793
 30
0.0
 11
47.3301620856
 21
323.9808686024
 31
0.0
  0
LINE
  5
D4
330
1F
100
AcDbEntity
  8
0
  6
Continuous
 62
     7
370
    25
100
AcDbLine
 10
47.3301620856
 20
323.9808686024
 30
0.0
 11
47.1402048207
 21
323.9808686024
 31
0.0
  0
LINE
  5
D5
330
1F
100
AcDbEntity
  8
0
  6
Continuous
 62
     7
370
    25
100
AcDbLine
 10
45.6252108303
 20
323.9808686024
 30
0.0
 11
44.9692646497
 21
323.9808686024
 31
0.0
  0
LINE
  5
D6
330
1F
100
AcDbEntity
  8
0
  6
Continuous
 62
     7
370
    25
100
AcDbLine
 10
44.9692646497
 20
323.9808686024
 30
0.0
 11
44.9692646497
 21
326.097535269
 31
0.0
  0
LINE
  5
D7
330
1F
100
AcDbEntity
  8
0
  6
Continuous
 62
     7
370
    25
100
AcDbLine
 10
44.9692646497
 20
326.097535269
 30
0.0
 11
45.3966684959
 21
326.097535269
 31
0.0
  0
SPLINE
  5
D8
330
1F
100
AcDbEntity
  8
0
  6
Continuous
 62
     7
370
    25
100
AcDbSpline
210
0.0
220
0.0
230
1.0
 70
     8
 71
     3
 72
    15
 73
    11
 74
     0
 42
0.00000001
 43
0.00000001
 40
0.0
 40
0.0
 40
0.0
 40
0.0
 40
0.1642892164747551
 40
0.3174059112304869
 40
0.4588436116410185
 40
0.5893665423053112
 40
0.7078313187781643
 40
0.8157700306989986
 40
0.9128799029021275
 40
1.0
 40
1.0
 40
1.0
 40
1.0
 10
45.39666849586994
 20
326.0975352690261
 30
0.0
 10
45.43384259826139
 20
326.0972676195524
 30
0.0
 10
45.50566277061911
 20
326.096750522162
 30
0.0
 10
45.60944744121834
 20
326.0934718713291
 30
0.0
 10
45.70547381185494
 20
326.0876719229352
 30
0.0
 10
45.79342606472839
 20
326.0792236857014
 30
0.0
 10
45.87354565483512
 20
326.0688501844162
 30
0.0
 10
45.94560824164697
 20
326.0558475589316
 30
0.0
 10
46.00998644235387
 20
326.0404937606515
 30
0.0
 10
46.0495798659483
 20
326.0274034169317
 30
0.0
 10
46.06830311125455
 20
326.0212131536415
 30
0.0
  0
SPLINE
  5
D9
330
1F
100
AcDbEntity
  8
0
  6
Continuous
 62
     7
370
    25
100
AcDbSpline
210
0.0
220
0.0
230
1.0
 70
     8
 71
     3
 72
    23
 73
    19
 74
     0
 42
0.00000001
 43
0.00000001
 40
0.0
 40
0.0
 40
0.0
 40
0.0
 40
0.0615449660163205
 40
0.1216942964020216
 40
0.1811548554526317
 40
0.2398753889119459
 40
0.2987019424504092
 40
0.3576474237092047
 40
0.4176048428493587
 40
0.4784940407282824
 40
0.5404070506371272
 40
0.6023449938728039
 40
0.6650043279232194
 40
0.728559308823353
 40
0.7936505420268705
 40
0.8605342675902378
 40
0.9292359605619674
 40
0.9999999999999999
 40
0.9999999999999999
 40
0.9999999999999999
 40
0.9999999999999999
 10
46.06830311125456
 20
326.0212131536416
 30
0.0
 10
46.09279278693093
 20
326.0118812507046
 30
0.0
 10
46.14121679369308
 20
325.993429061427
 30
0.0
 10
46.21016395829335
 20
325.9586212030017
 30
0.0
 10
46.2750702492303
 20
325.9191828033723
 30
0.0
 10
46.33628373208208
 20
325.8750618768866
 30
0.0
 10
46.39240613662115
 20
325.8250091518529
 30
0.0
 10
46.445629959885
 20
325.7711508191171
 30
0.0
 10
46.49377791189928
 20
325.7115283467018
 30
0.0
 10
46.53787007187938
 20
325.6473782349206
 30
0.0
 10
46.57762449450112
 20
325.5794561842935
 30
0.0
 10
46.61218008044471
 20
325.5078916185594
 30
0.0
 10
46.64087844784325
 20
325.433047973685
 30
0.0
 10
46.66470197059444
 20
325.3551333841856
 30
0.0
 10
46.68347768539252
 20
325.2739765271281
 30
0.0
 10
46.69628771075421
 20
325.1894829033677
 30
0.0
 10
46.70473683319948
 20
325.1019864412106
 30
0.0
 10
46.70558594994687
 20
325.0426142655253
 30
0.0
 10
46.70601678646823
 20
325.0124891953081
 30
0.0
  0
SPLINE
  5
DA
330
1F
100
AcDbEntity
  8
0
  6
Continuous
 62
     7
370
    25
100
AcDbSpline
210
0.0
220
0.0
230
1.0
 70
     8
 71
     3
 72
    31
 73
    27
 74
     0
 42
0.00000001
 43
0.00000001
 40
0.0
 40
0.0
 40
0.0
 40
0.0
 40
0.0460806833872288
 40
0.0908067996076157
 40
0.1342952705290613
 40
0.1770243856662426
 40
0.2188227336826354
 40
0.2602441163273801
 40
0.3010798671134232
 40
0.3416138942851404
 40
0.3815834185517317
 40
0.4201195913296035
 40
0.4580746185423162
 40
0.4947384876076421
 40
0.531194622893716
 40
0.5669336984503744
 40
0.6027126507379947
 40
0.6383266061284388
 40
0.6748532488548208
 40
0.7134673707840525
 40
0.7544418038483754
 40
0.7978153607124966
 40
0.8439894562081102
 40
0.8930715698796459
 40
0.9449633461781435
 40
1.0
 40
1.0
 40
1.0
 40
1.0
 10
46.70601678646823
 20
325.0124891953081
 30
0.0
 10
46.70563641089753
 20
324.9863264463186
 30
0.0
 10
46.70488684110632
 20
324.9347700168118
 30
0.0
 10
46.69815625484253
 20
324.8587871894678
 30
0.0
 10
46.68837343271916
 20
324.7850585058454
 30
0.0
 10
46.673227655932
 20
324.7139350586766
 30
0.0
 10
46.65484137399613
 20
324.6447937078602
 30
0.0
 10
46.63127733964267
 20
324.5783713505657
 30
0.0
 10
46.60428349195522
 20
324.5140586658741
 30
0.0
 10
46.5728057082562
 20
324.4527252399675
 30
0.0
 10
46.53824877541873
 20
324.3946176766975
 30
0.0
 10
46.50116372119815
 20
324.3398410477873
 30
0.0
 10
46.46159010064932
 20
324.2891769850729
 30
0.0
 10
46.41915055122323
 20
324.2424720625553
 30
0.0
 10
46.37439350365633
 20
324.199796688955
 30
0.0
 10
46.32702593231318
 20
324.1607943749119
 30
0.0
 10
46.27692561113088
 20
324.1262282679323
 30
0.0
 10
46.22431693593784
 20
324.0947400643909
 30
0.0
 10
46.16766518161292
 20
324.067271563673
 30
0.0
 10
46.10589730063013
 20
324.0440305577439
 30
0.0
 10
46.0387498739457
 20
324.0247709379721
 30
0.0
 10
45.96638771904596
 20
324.0087018724191
 30
0.0
 10
45.88868580631726
 20
323.9959551227242
 30
0.0
 10
45.80556795555691
 20
323.9874120187264
 30
0.0
 10
45.71716187083997
 20
323.9816347689545
 30
0.0
 10
45.65645631519433
 20
323.9811289501125
 30
0.0
 10
45.62521083027165
 20
323.9808686023595
 30
0.0
  0
LINE
  5
DB
330
1F
100
AcDbEntity
  8
0
  6
Continuous
 62
     7
370
    25
100
AcDbLine
 10
41.9822327989
 20
331.9810604155
 30
0.0
 11
59.4783895433
 21
331.8769424839
 31
0.0
  0
LINE
  5
DC
330
1F
100
AcDbEntity
  8
0
  6
Continuous
 62
     7
370
    25
100
AcDbLine
 10
41.4783895433
 20
331.9810604155
 30
0.0
 11
41.9822327989
 21
331.9810604155
 31
0.0
  0
LINE
  5
DD
330
1F
100
AcDbEntity
  8
0
  6
Continuous
 62
     7
370
    25
100
AcDbLine
 10
41.4783895433
 20
331.9810604155
 30
0.0
 11
41.4783895433
 21
315.9810604155
 31
0.0
  0
LINE
  5
DE
330
1F
100
AcDbEntity
  8
0
  6
Continuous
 62
     7
370
    25
100
AcDbLine
 10
41.4783895433
 20
315.9810604155
 30
0.0
 11
59.4783895433
 21
315.9810604155
 31
0.0
  0
LINE
  5
DF
330
1F
100
AcDbEntity
  8
0
  6
Continuous
 62
     7
370
    25
100
AcDbLine
 10
59.4783895433
 20
331.8769424839
 30
0.0
 11
59.4783895433
 21
315.9810604155
 31
0.0
  0
CIRCLE
  5
E0
330
1F
100
AcDbEntity
  8
0
  6
Continuous
 62
     7
370
    25
100
AcDbCircle
 10
42.7283895433
 20
317.810394786
 30
0.0
 40
0.875
  0
CIRCLE
  5
E1
330
1F
100
AcDbEntity
  8
0
  6
Continuous
 62
     7
370
    25
100
AcDbCircle
 10
42.7283895433
 20
320.350394786
 30
0.0
 40
0.875
  0
CIRCLE
  5
E2
330
1F
100
AcDbEntity
  8
0
  6
Continuous
 62
     7
370
    25
100
AcDbCircle
 10
42.7283895433
 20
322.890394786
 30
0.0
 40
0.875
  0
CIRCLE
  5
E3
330
1F
100
AcDbEntity
  8
0
  6
Continuous
 62
     7
370
    25
100
AcDbCircle
 10
42.7283895433
 20
325.430394786
 30
0.0
 40
0.8750000000000568
  0
CIRCLE
  5
E4
330
1F
100
AcDbEntity
  8
0
  6
Continuous
 62
     7
370
    25
100
AcDbCircle
 10
42.7283895433
 20
327.970394786
 30
0.0
 40
0.875
  0
CIRCLE
  5
E5
330
1F
100
AcDbEntity
  8
0
  6
Continuous
 62
     7
370
    25
100
AcDbCircle
 10
58.2283895433
 20
317.810394786
 30
0.0
 40
0.875
  0
CIRCLE
  5
E6
330
1F
100
AcDbEntity
  8
0
  6
Continuous
 62
     7
370
    25
100
AcDbCircle
 10
58.2283895433
 20
320.350394786
 30
0.0
 40
0.875
  0
CIRCLE
  5
E7
330
1F
100
AcDbEntity
  8
0
  6
Continuous
 62
     7
370
    25
100
AcDbCircle
 10
58.2283895433
 20
322.890394786
 30
0.0
 40
0.8749999999999432
  0
CIRCLE
  5
E8
330
1F
100
AcDbEntity
  8
0
  6
Continuous
 62
     7
370
    25
100
AcDbCircle
 10
58.2283895433
 20
325.430394786
 30
0.0
 40
0.875
  0
CIRCLE
  5
E9
330
1F
100
AcDbEntity
  8
0
  6
Continuous
 62
     7
370
    25
100
AcDbCircle
 10
58.2283895433
 20
327.970394786
 30
0.0
 40
0.875
  0
CIRCLE
  5
EA
330
1F
100
AcDbEntity
  8
0
  6
Continuous
 62
     7
370
    25
100
AcDbCircle
 10
58.2283895433
 20
330.510394786
 30
0.0
 40
0.875
  0
CIRCLE
  5
EB
330
1F
100
AcDbEntity
  8
0
  6
Continuous
 62
     7
370
    25
100
AcDbCircle
 10
42.7283895433
 20
330.510394786
 30
0.0
 40
0.875
  0
SPLINE
  5
EC
330
1F
100
AcDbEntity
  8
0
  6
Continuous
 62
     7
370
    25
100
AcDbSpline
210
0.0
220
0.0
230
1.0
 70
     8
 71
     3
 72
    23
 73
    19
 74
     0
 42
0.00000001
 43
0.00000001
 40
0.0
 40
0.0
 40
0.0
 40
0.0
 40
0.0573394259201633
 40
0.113063331623308
 40
0.1691814487493901
 40
0.2257745596549741
 40
0.2838263038920809
 40
0.3434542790865167
 40
0.4059069615102778
 40
0.471392259769716
 40
0.5380028337127195
 40
0.6030635561963658
 40
0.6676018307634226
 40
0.7322254428168998
 40
0.7970048098289858
 40
0.8630479900344301
 40
0.9303569870570448
 40
1.0
 40
1.0
 40
1.0
 40
1.0
 10
53.65302533347678
 20
324.5935655841971
 30
0.0
 10
53.65247751079214
 20
324.6080056901718
 30
0.0
 10
53.65139730015401
 20
324.6364790566959
 30
0.0
 10
53.64454130108481
 20
324.6786711942793
 30
0.0
 10
53.6324969372972
 20
324.7194338485761
 30
0.0
 10
53.61597036871927
 20
324.7592574235863
 30
0.0
 10
53.59396854843323
 20
324.7973350176005
 30
0.0
 10
53.56805760324333
 20
324.8346586069185
 30
0.0
 10
53.5367949695878
 20
324.8701922662698
 30
0.0
 10
53.50146925667766
 20
324.9042119957621
 30
0.0
 10
53.46297074234308
 20
324.9356691317745
 30
0.0
 10
53.42204823093123
 20
324.9634969113138
 30
0.0
 10
53.37901672292286
 20
324.9869327149577
 30
0.0
 10
53.33396727634037
 20
325.0059926907185
 30
0.0
 10
53.28699992108429
 20
325.0209832080825
 30
0.0
 10
53.23814920261172
 20
325.0314552623148
 30
0.0
 10
53.1873579264543
 20
325.0380469268908
 30
0.0
 10
53.15285331413001
 20
325.038812583172
 30
0.0
 10
53.1353069841178
 20
325.0392019356928
 30
0.0
  0
SPLINE
  5
ED
330
1F
100
AcDbEntity
  8
0
  6
Continuous
 62
     7
370
    25
100
AcDbSpline
210
0.0
220
0.0
230
1.0
 70
     8
 71
     3
 72
    23
 73
    19
 74
     0
 42
0.00000001
 43
0.00000001
 40
0.0
 40
0.0
 40
0.0
 40
0.0
 40
0.0712686925865557
 40
0.1398117850281365
 40
0.2064974320993733
 40
0.2715352442755409
 40
0.3360818306156537
 40
0.4005283877476296
 40
0.4649838426509258
 40
0.530050305361598
 40
0.5944234089534162
 40
0.6555827099825154
 40
0.7148491056365133
 40
0.7721150638706213
 40
0.8289992113006609
 40
0.8851221627752383
 40
0.942079353263802
 40
1.0
 40
1.0
 40
1.0
 40
1.0
 10
53.1353069841178
 20
325.0392019356928
 30
0.0
 10
53.11648329475609
 20
325.038867114485
 30
0.0
 10
53.07955580927879
 20
325.0382102769728
 30
0.0
 10
53.02545566701907
 20
325.0308990076598
 30
0.0
 10
52.9735349431292
 20
325.0207212318608
 30
0.0
 10
52.92396869582306
 20
325.0052811533544
 30
0.0
 10
52.87677785635645
 20
324.9852051806662
 30
0.0
 10
52.83170695784246
 20
324.9610542922213
 30
0.0
 10
52.7891007985337
 20
324.9325062384797
 30
0.0
 10
52.74954772116466
 20
324.8999237138709
 30
0.0
 10
52.713429326659
 20
324.864811567904
 30
0.0
 10
52.6817408309777
 20
324.8276416099889
 30
0.0
 10
52.65483042573172
 20
324.7891046496633
 30
0.0
 10
52.63315984067201
 20
324.7487112538612
 30
0.0
 10
52.6153727455698
 20
324.707316746346
 30
0.0
 10
52.60369244837303
 20
324.6638902482701
 30
0.0
 10
52.59620446089716
 20
324.6192666131486
 30
0.0
 10
52.59519896468971
 20
324.5889316964683
 30
0.0
 10
52.59469200014344
 20
324.5736370318467
 30
0.0
  0
SPLINE
  5
EE
330
1F
100
AcDbEntity
  8
0
  6
Continuous
 62
     7
370
    25
100
AcDbSpline
210
0.0
220
0.0
230
1.0
 70
     8
 71
     3
 72
    19
 73
    15
 74
     0
 42
0.00000001
 43
0.00000001
 40
0.0
 40
0.0
 40
0.0
 40
0.0
 40
0.074898207927584
 40
0.148596294343951
 40
0.2244712347857169
 40
0.3023227423595758
 40
0.381918617989671
 40
0.4611486955215839
 40
0.5424171227241718
 40
0.6267160830665818
 40
0.7145968311855355
 40
0.8049029203553204
 40
0.9001272540718664
 40
0.9999999999999999
 40
0.9999999999999999
 40
0.9999999999999999
 40
0.9999999999999999
 10
52.59469200014344
 20
324.5736370318467
 30
0.0
 10
52.5955164471205
 20
324.5546288171782
 30
0.0
 10
52.59715213065777
 20
324.5169169634507
 30
0.0
 10
52.61012828840187
 20
324.4611802489126
 30
0.0
 10
52.6309535884462
 20
324.4072227538484
 30
0.0
 10
52.6599974095281
 20
324.3554841919514
 30
0.0
 10
52.69596113196923
 20
324.3071334133684
 30
0.0
 10
52.7401852340325
 20
324.2649882966969
 30
0.0
 10
52.78992135971945
 20
324.2275405453755
 30
0.0
 10
52.84685234763148
 20
324.1972537465905
 30
0.0
 10
52.909039086628
 20
324.1730663818505
 30
0.0
 10
52.97646503697314
 20
324.1564015853706
 30
0.0
 10
53.04816253542387
 20
324.1453698513868
 30
0.0
 10
53.09766809836186
 20
324.1442581894568
 30
0.0
 10
53.12301064330583
 20
324.14368911518
 30
0.0
  0
SPLINE
  5
EF
330
1F
100
AcDbEntity
  8
0
  6
Continuous
 62
     7
370
    25
100
AcDbSpline
210
0.0
220
0.0
230
1.0
 70
     8
 71
     3
 72
    23
 73
    19
 74
     0
 42
0.00000001
 43
0.00000001
 40
0.0
 40
0.0
 40
0.0
 40
0.0
 40
0.0765589329940529
 40
0.1491613519791254
 40
0.218826846127001
 40
0.2855671390890037
 40
0.3503131057192248
 40
0.4141251538580805
 40
0.4771791613162512
 40
0.5403680185082077
 40
0.6022023899907576
 40
0.6620336537315646
 40
0.7199344070496353
 40
0.7759074326823666
 40
0.8311148643833165
 40
0.8866674470119748
 40
0.9425523618335573
 40
1.0
 40
1.0
 40
1.0
 40
1.0
 10
53.12301064330583
 20
324.14368911518
 30
0.0
 10
53.14281681819194
 20
324.1440693945565
 30
0.0
 10
53.1814055982077
 20
324.1448103007281
 30
0.0
 10
53.23770043399885
 20
324.1513503739521
 30
0.0
 10
53.29082547054153
 20
324.1617218136325
 30
0.0
 10
53.34067768672217
 20
324.1768067199218
 30
0.0
 10
53.38781515173311
 20
324.195221705744
 30
0.0
 10
53.43143865632003
 20
324.218911488372
 30
0.0
 10
53.4726704322366
 20
324.2458550361211
 30
0.0
 10
53.50947873503846
 20
324.2778216355564
 30
0.0
 10
53.54300262794465
 20
324.3119782823609
 30
0.0
 10
53.57223276197992
 20
324.3481370227383
 30
0.0
 10
53.59760709055168
 20
324.3853151432089
 30
0.0
 10
53.61752247807969
 20
324.4243528172822
 30
0.0
 10
53.63344359345582
 20
324.4645010942057
 30
0.0
 10
53.64488783843505
 20
324.5061301891167
 30
0.0
 10
53.65194916861407
 20
324.5493677823788
 30
0.0
 10
53.65266332937535
 20
324.5786981729977
 30
0.0
 10
53.65302533347678
 20
324.5935655841971
 30
0.0
  0
SPLINE
  5
F0
330
1F
100
AcDbEntity
  8
0
  6
Continuous
 62
     7
370
    25
100
AcDbSpline
210
0.0
220
0.0
230
1.0
 70
     8
 71
     3
 72
    23
 73
    19
 74
     0
 42
0.00000001
 43
0.00000001
 40
0.0
 40
0.0
 40
0.0
 40
0.0
 40
0.0509024376836223
 40
0.1010340427825867
 40
0.1510838170086692
 40
0.2030619875551005
 40
0.2562484343627011
 40
0.3108467145045632
 40
0.3687690999692798
 40
0.4300150403860011
 40
0.4925196472738539
 40
0.5560487215256757
 40
0.6219956829149411
 40
0.6901923690829576
 40
0.7613848549885037
 40
0.836356219950725
 40
0.9154870053270986
 40
1.0
 40
1.0
 40
1.0
 40
1.0
 10
53.54447832492976
 20
325.6099217540689
 30
0.0
 10
53.54415665353604
 20
325.6199777567434
 30
0.0
 10
53.54351818192571
 20
325.6399374806912
 30
0.0
 10
53.53825671951299
 20
325.6694125873476
 30
0.0
 10
53.52956276336195
 20
325.6982171450019
 30
0.0
 10
53.51779223398576
 20
325.7265891087155
 30
0.0
 10
53.50230440571921
 20
325.754130408596
 30
0.0
 10
53.48394130186875
 20
325.7812739903924
 30
0.0
 10
53.46163496054253
 20
325.8074092380228
 30
0.0
 10
53.43659997463513
 20
325.8331452126003
 30
0.0
 10
53.40820917988739
 20
325.8569631697732
 30
0.0
 10
53.37651729007415
 20
325.8779089231019
 30
0.0
 10
53.34168678389171
 20
325.8956963958743
 30
0.0
 10
53.30371683795346
 20
325.9101434047163
 30
0.0
 10
53.26274728861669
 20
325.9209942542601
 30
0.0
 10
53.2189668359751
 20
325.9291200455365
 30
0.0
 10
53.17201043233649
 20
325.9336999748414
 30
0.0
 10
53.13969815431156
 20
325.9343691593057
 30
0.0
 10
53.12301064330583
 20
325.9347147562056
 30
0.0
  0
SPLINE
  5
F1
330
1F
100
AcDbEntity
  8
0
  6
Continuous
 62
     7
370
    25
100
AcDbSpline
210
0.0
220
0.0
230
1.0
 70
     8
 71
     3
 72
    23
 73
    19
 74
     0
 42
0.00000001
 43
0.00000001
 40
0.0
 40
0.0
 40
0.0
 40
0.0
 40
0.0752433085911319
 40
0.1472088117202465
 40
0.2164470898547693
 40
0.2840250416193429
 40
0.3506554491966431
 40
0.415031317841024
 40
0.479629830964526
 40
0.5446516341371777
 40
0.6080442396977828
 40
0.6678275650288319
 40
0.7251142466493856
 40
0.7809917079106451
 40
0.8355270040618951
 40
0.889438154541614
 40
0.9440720891799647
 40
1.0
 40
1.0
 40
1.0
 40
1.0
 10
53.12301064330583
 20
325.9347147562056
 30
0.0
 10
53.10816325117755
 20
325.9343207897745
 30
0.0
 10
53.07911526015653
 20
325.9335500191736
 30
0.0
 10
53.03652268286117
 20
325.9295231291798
 30
0.0
 10
52.99602034644134
 20
325.9216895171265
 30
0.0
 10
52.95718507652101
 20
325.9112642010883
 30
0.0
 10
52.92054931865436
 20
325.8971805130262
 30
0.0
 10
52.88561551660378
 20
325.8806130550445
 30
0.0
 10
52.85297821610204
 20
325.8604708154362
 30
0.0
 10
52.82224342811504
 20
325.837876186226
 30
0.0
 10
52.79457510257375
 20
325.8130247620725
 30
0.0
 10
52.77001901657427
 20
325.7871326559527
 30
0.0
 10
52.74962153798712
 20
325.7596913474223
 30
0.0
 10
52.73230048606464
 20
325.7313834346376
 30
0.0
 10
52.71973261597167
 20
325.7013687528041
 30
0.0
 10
52.71031991790761
 20
325.6705675175511
 30
0.0
 10
52.70395698114748
 20
325.6385904995679
 30
0.0
 10
52.70348019289568
 20
325.6167365146213
 30
0.0
 10
52.70323900869046
 20
325.6056816365476
 30
0.0
  0
SPLINE
  5
F2
330
1F
100
AcDbEntity
  8
0
  6
Continuous
 62
     7
370
    25
100
AcDbSpline
210
0.0
220
0.0
230
1.0
 70
     8
 71
     3
 72
    23
 73
    19
 74
     0
 42
0.00000001
 43
0.00000001
 40
0.0
 40
0.0
 40
0.0
 40
0.0
 40
0.0545639495070378
 40
0.1078262027811961
 40
0.1619237085214167
 40
0.2175097010530492
 40
0.2744983327961769
 40
0.3348147646240553
 40
0.3975549470643963
 40
0.4647545773562333
 40
0.5329012097695158
 40
0.6000972138233648
 40
0.665354161456549
 40
0.7310836277241999
 40
0.7968834939590187
 40
0.8632915901470309
 40
0.9308312175092532
 40
1.0
 40
1.0
 40
1.0
 40
1.0
 10
52.70323900869045
 20
325.6056816365475
 30
0.0
 10
52.7036547020137
 20
325.5946262807873
 30
0.0
 10
52.70447617173816
 20
325.5727793096131
 30
0.0
 10
52.71082927297146
 20
325.5405177620895
 30
0.0
 10
52.72029794229836
 20
325.5088151532076
 30
0.0
 10
52.73520572325607
 20
325.4784253165213
 30
0.0
 10
52.75308633043699
 20
325.4482940469167
 30
0.0
 10
52.77515498500639
 20
325.4191744068035
 30
0.0
 10
52.80145549235471
 20
325.3909650550054
 30
0.0
 10
52.83110542052349
 20
325.3639059262742
 30
0.0
 10
52.86340668387712
 20
325.3385671505008
 30
0.0
 10
52.89762655764113
 20
325.3165700359755
 30
0.0
 10
52.93333556575568
 20
325.2981646453511
 30
0.0
 10
52.97016681713264
 20
325.2828463862733
 30
0.0
 10
53.00849568770276
 20
325.2709386622608
 30
0.0
 10
53.04808731688564
 20
325.2624909570341
 30
0.0
 10
53.0889483587733
 20
325.2572404160965
 30
0.0
 10
53.11663471000337
 20
325.2566132651443
 30
0.0
 10
53.13064285484429
 20
325.2562959527868
 30
0.0
  0
SPLINE
  5
F3
330
1F
100
AcDbEntity
  8
0
  6
Continuous
 62
     7
370
    25
100
AcDbSpline
210
0.0
220
0.0
230
1.0
 70
     8
 71
     3
 72
    19
 73
    15
 74
     0
 42
0.00000001
 43
0.00000001
 40
0.0
 40
0.0
 40
0.0
 40
0.0
 40
0.0896899362474009
 40
0.1784940104960717
 40
0.2668377532994758
 40
0.3565581760610161
 40
0.4453342496549924
 40
0.5308058350374709
 40
0.6140762174403054
 40
0.6977070858228209
 40
0.7791419498114586
 40
0.8553535905869273
 40
0.9285568200856755
 40
0.9999999999999999
 40
0.9999999999999999
 40
0.9999999999999999
 40
0.9999999999999999
 10
53.13064285484429
 20
325.2562959527868
 30
0.0
 10
53.14863458428233
 20
325.2568238295868
 30
0.0
 10
53.18444033995033
 20
325.2578743693799
 30
0.0
 10
53.23722355476509
 20
325.2676419839869
 30
0.0
 10
53.28854524924418
 20
325.2830065151409
 30
0.0
 10
53.33785687240596
 20
325.3040280185818
 30
0.0
 10
53.3838820263247
 20
325.3304124862046
 30
0.0
 10
53.42490911520412
 20
325.3620010257161
 30
0.0
 10
53.46058818849486
 20
325.3980642464055
 30
0.0
 10
53.49054846229681
 20
325.4380407232758
 30
0.0
 10
53.51377727418528
 20
325.4805866837936
 30
0.0
 10
53.53186074842091
 20
325.5232830513562
 30
0.0
 10
53.54242062628268
 20
325.5665853529538
 30
0.0
 10
53.54379801203218
 20
325.5955939453515
 30
0.0
 10
53.54447832492976
 20
325.6099217540689
 30
0.0
  0
SPLINE
  5
F4
330
1F
100
AcDbEntity
  8
0
  6
Continuous
 62
     7
370
    25
100
AcDbSpline
210
0.0
220
0.0
230
1.0
 70
     8
 71
     3
 72
    23
 73
    19
 74
     0
 42
0.00000001
 43
0.00000001
 40
0.0
 40
0.0
 40
0.0
 40
0.0
 40
0.0509024376836224
 40
0.1010340427825867
 40
0.1510838170086693
 40
0.2030619875551005
 40
0.2562484343627012
 40
0.3108467145045633
 40
0.3687690999692799
 40
0.4300150403860012
 40
0.492519647273854
 40
0.556048721525676
 40
0.6219956829149413
 40
0.6901923690829578
 40
0.761384854988504
 40
0.8363562199507253
 40
0.9154870053271104
 40
1.0
 40
1.0
 40
1.0
 40
1.0
 10
51.91627319672464
 20
325.6099217540689
 30
0.0
 10
51.91595152533089
 20
325.6199777567434
 30
0.0
 10
51.91531305372059
 20
325.6399374806912
 30
0.0
 10
51.91005159130787
 20
325.6694125873476
 30
0.0
 10
51.90135763515681
 20
325.6982171450018
 30
0.0
 10
51.88958710578063
 20
325.7265891087155
 30
0.0
 10
51.87409927751409
 20
325.7541304085961
 30
0.0
 10
51.85573617366362
 20
325.7812739903924
 30
0.0
 10
51.83342983233742
 20
325.8074092380229
 30
0.0
 10
51.80839484643001
 20
325.8331452126003
 30
0.0
 10
51.78000405168225
 20
325.8569631697732
 30
0.0
 10
51.74831216186901
 20
325.8779089231018
 30
0.0
 10
51.71348165568659
 20
325.8956963958743
 30
0.0
 10
51.67551170974831
 20
325.9101434047163
 30
0.0
 10
51.63454216041152
 20
325.9209942542599
 30
0.0
 10
51.59076170777001
 20
325.9291200455368
 30
0.0
 10
51.54380530413135
 20
325.9336999748412
 30
0.0
 10
51.51149302610643
 20
325.9343691593057
 30
0.0
 10
51.4948055151007
 20
325.9347147562056
 30
0.0
  0
SPLINE
  5
F5
330
1F
100
AcDbEntity
  8
0
  6
Continuous
 62
     7
370
    25
100
AcDbSpline
210
0.0
220
0.0
230
1.0
 70
     8
 71
     3
 72
    23
 73
    19
 74
     0
 42
0.00000001
 43
0.00000001
 40
0.0
 40
0.0
 40
0.0
 40
0.0
 40
0.0752433085911319
 40
0.1472088117202464
 40
0.2164470898547692
 40
0.2840250416193427
 40
0.3506554491966429
 40
0.4150313178410132
 40
0.4796298309645252
 40
0.5446516341371768
 40
0.6080442396977818
 40
0.6678275650288309
 40
0.7251142466493916
 40
0.7809917079106451
 40
0.8355270040618951
 40
0.8894381545416139
 40
0.9440720891799647
 40
1.0
 40
1.0
 40
1.0
 40
1.0
 10
51.4948055151007
 20
325.9347147562056
 30
0.0
 10
51.47995812297243
 20
325.9343207897745
 30
0.0
 10
51.45091013195141
 20
325.9335500191737
 30
0.0
 10
51.40831755465602
 20
325.9295231291796
 30
0.0
 10
51.3678152182362
 20
325.9216895171266
 30
0.0
 10
51.32897994831591
 20
325.9112642010883
 30
0.0
 10
51.29234419044921
 20
325.8971805130262
 30
0.0
 10
51.25741038839868
 20
325.8806130550446
 30
0.0
 10
51.22477308789689
 20
325.8604708154361
 30
0.0
 10
51.19403829990991
 20
325.837876186226
 30
0.0
 10
51.16636997436861
 20
325.8130247620724
 30
0.0
 10
51.14181388836914
 20
325.7871326559526
 30
0.0
 10
51.12141640978201
 20
325.7596913474224
 30
0.0
 10
51.10409535785946
 20
325.7313834346374
 30
0.0
 10
51.09152748776658
 20
325.7013687528042
 30
0.0
 10
51.08211478970249
 20
325.6705675175511
 30
0.0
 10
51.07575185294234
 20
325.638590499568
 30
0.0
 10
51.07527506469057
 20
325.6167365146214
 30
0.0
 10
51.07503388048533
 20
325.6056816365476
 30
0.0
  0
SPLINE
  5
F6
330
1F
100
AcDbEntity
  8
0
  6
Continuous
 62
     7
370
    25
100
AcDbSpline
210
0.0
220
0.0
230
1.0
 70
     8
 71
     3
 72
    23
 73
    19
 74
     0
 42
0.00000001
 43
0.00000001
 40
0.0
 40
0.0
 40
0.0
 40
0.0
 40
0.054563949507037
 40
0.1078262027811972
 40
0.1619237085214178
 40
0.2175097010530502
 40
0.2744983327961777
 40
0.334814764624056
 40
0.3975549470643969
 40
0.4647545773562338
 40
0.5329012097695164
 40
0.6000972138233651
 40
0.665354161456539
 40
0.7310836277242003
 40
0.7968834939590191
 40
0.8632915901470312
 40
0.9308312175092534
 40
1.0
 40
1.0
 40
1.0
 40
1.0
 10
51.07503388048532
 20
325.6056816365475
 30
0.0
 10
51.07544957380856
 20
325.5946262807872
 30
0.0
 10
51.076271043533
 20
325.572779309613
 30
0.0
 10
51.08262414476635
 20
325.5405177620897
 30
0.0
 10
51.09209281409323
 20
325.5088151532076
 30
0.0
 10
51.10700059505093
 20
325.4784253165212
 30
0.0
 10
51.1248812022319
 20
325.4482940469168
 30
0.0
 10
51.14694985680124
 20
325.4191744068036
 30
0.0
 10
51.1732503641496
 20
325.3909650550055
 30
0.0
 10
51.20290029231836
 20
325.3639059262741
 30
0.0
 10
51.23520155567199
 20
325.3385671505008
 30
0.0
 10
51.26942142943602
 20
325.3165700359755
 30
0.0
 10
51.30513043755053
 20
325.2981646453511
 30
0.0
 10
51.34196168892752
 20
325.2828463862732
 30
0.0
 10
51.38029055949767
 20
325.270938662261
 30
0.0
 10
51.41988218868049
 20
325.2624909570339
 30
0.0
 10
51.46074323056821
 20
325.2572404160967
 30
0.0
 10
51.48842958179822
 20
325.2566132651443
 30
0.0
 10
51.50243772663917
 20
325.2562959527868
 30
0.0
  0
SPLINE
  5
F7
330
1F
100
AcDbEntity
  8
0
  6
Continuous
 62
     7
370
    25
100
AcDbSpline
210
0.0
220
0.0
230
1.0
 70
     8
 71
     3
 72
    19
 73
    15
 74
     0
 42
0.00000001
 43
0.00000001
 40
0.0
 40
0.0
 40
0.0
 40
0.0
 40
0.0896899362474008
 40
0.1784940104960714
 40
0.2668377532994865
 40
0.3565581760610161
 40
0.4453342496549822
 40
0.5308058350374697
 40
0.6140762174403042
 40
0.6977070858228196
 40
0.7791419498114571
 40
0.8553535905869258
 40
0.9285568200856765
 40
1.0
 40
1.0
 40
1.0
 40
1.0
 10
51.50243772663917
 20
325.2562959527868
 30
0.0
 10
51.52042945607719
 20
325.2568238295868
 30
0.0
 10
51.5562352117452
 20
325.2578743693798
 30
0.0
 10
51.60901842655998
 20
325.267641983987
 30
0.0
 10
51.66034012103906
 20
325.2830065151408
 30
0.0
 10
51.70965174420082
 20
325.3040280185817
 30
0.0
 10
51.75567689811958
 20
325.3304124862047
 30
0.0
 10
51.79670398699896
 20
325.3620010257158
 30
0.0
 10
51.83238306028974
 20
325.3980642464056
 30
0.0
 10
51.86234333409168
 20
325.4380407232757
 30
0.0
 10
51.88557214598015
 20
325.4805866837936
 30
0.0
 10
51.90365562021582
 20
325.5232830513563
 30
0.0
 10
51.91421549807755
 20
325.5665853529537
 30
0.0
 10
51.91559288382705
 20
325.5955939453514
 30
0.0
 10
51.91627319672464
 20
325.6099217540689
 30
0.0
  0
SPLINE
  5
F8
330
1F
100
AcDbEntity
  8
0
  6
Continuous
 62
     7
370
    25
100
AcDbSpline
210
0.0
220
0.0
230
1.0
 70
     8
 71
     3
 72
    23
 73
    19
 74
     0
 42
0.00000001
 43
0.00000001
 40
0.0
 40
0.0
 40
0.0
 40
0.0
 40
0.0573394259201645
 40
0.1130633316233083
 40
0.169181448749391
 40
0.2257745596549756
 40
0.283826303892083
 40
0.3434542790865194
 40
0.4059069615102812
 40
0.47139225976972
 40
0.5380028337127242
 40
0.6030635561963712
 40
0.6676018307634287
 40
0.7322254428169067
 40
0.797004809829002
 40
0.863047990034438
 40
0.9303569870570533
 40
1.0
 40
1.0
 40
1.0
 40
1.0
 10
52.02482020527165
 20
324.5935655841971
 30
0.0
 10
52.02427238258701
 20
324.6080056901719
 30
0.0
 10
52.02319217194888
 20
324.636479056696
 30
0.0
 10
52.01633617287969
 20
324.6786711942793
 30
0.0
 10
52.00429180909205
 20
324.719433848576
 30
0.0
 10
51.98776524051416
 20
324.7592574235863
 30
0.0
 10
51.9657634202281
 20
324.7973350176006
 30
0.0
 10
51.93985247503822
 20
324.8346586069185
 30
0.0
 10
51.90858984138264
 20
324.8701922662697
 30
0.0
 10
51.87326412847253
 20
324.9042119957621
 30
0.0
 10
51.83476561413794
 20
324.9356691317744
 30
0.0
 10
51.7938431027261
 20
324.9634969113138
 30
0.0
 10
51.75081159471774
 20
324.9869327149578
 30
0.0
 10
51.70576214813524
 20
325.0059926907184
 30
0.0
 10
51.65879479287915
 20
325.0209832080825
 30
0.0
 10
51.6099440744066
 20
325.0314552623149
 30
0.0
 10
51.55915279824917
 20
325.0380469268907
 30
0.0
 10
51.5246481859249
 20
325.0388125831722
 30
0.0
 10
51.50710185591268
 20
325.0392019356929
 30
0.0
  0
SPLINE
  5
F9
330
1F
100
AcDbEntity
  8
0
  6
Continuous
 62
     7
370
    25
100
AcDbSpline
210
0.0
220
0.0
230
1.0
 70
     8
 71
     3
 72
    23
 73
    19
 74
     0
 42
0.00000001
 43
0.00000001
 40
0.0
 40
0.0
 40
0.0
 40
0.0
 40
0.0712686925865637
 40
0.1398117850281351
 40
0.2064974320993797
 40
0.2715352442755466
 40
0.3360818306156588
 40
0.4005283877476339
 40
0.4649838426509295
 40
0.5300503053616078
 40
0.5944234089534189
 40
0.6555827099825232
 40
0.7148491056365154
 40
0.7721150638706228
 40
0.8289992113006652
 40
0.8851221627752397
 40
0.9420793532638029
 40
1.0
 40
1.0
 40
1.0
 40
1.0
 10
51.50710185591267
 20
325.0392019356928
 30
0.0
 10
51.48827816655098
 20
325.038867114485
 30
0.0
 10
51.45135068107371
 20
325.038210276973
 30
0.0
 10
51.39725053881391
 20
325.0308990076596
 30
0.0
 10
51.34532981492409
 20
325.0207212318608
 30
0.0
 10
51.29576356761794
 20
325.0052811533546
 30
0.0
 10
51.24857272815131
 20
324.9852051806661
 30
0.0
 10
51.20350182963734
 20
324.9610542922213
 30
0.0
 10
51.16089567032856
 20
324.9325062384797
 30
0.0
 10
51.12134259295953
 20
324.8999237138709
 30
0.0
 10
51.08522419845387
 20
324.864811567904
 30
0.0
 10
51.05353570277256
 20
324.8276416099889
 30
0.0
 10
51.02662529752659
 20
324.7891046496632
 30
0.0
 10
51.0049547124669
 20
324.7487112538612
 30
0.0
 10
50.98716761736466
 20
324.7073167463459
 30
0.0
 10
50.97548732016793
 20
324.6638902482703
 30
0.0
 10
50.96799933269202
 20
324.6192666131486
 30
0.0
 10
50.96699383648458
 20
324.5889316964683
 30
0.0
 10
50.96648687193832
 20
324.5736370318467
 30
0.0
  0
SPLINE
  5
FA
330
1F
100
AcDbEntity
  8
0
  6
Continuous
 62
     7
370
    25
100
AcDbSpline
210
0.0
220
0.0
230
1.0
 70
     8
 71
     3
 72
    19
 73
    15
 74
     0
 42
0.00000001
 43
0.00000001
 40
0.0
 40
0.0
 40
0.0
 40
0.0
 40
0.0748982079275832
 40
0.1485962943439519
 40
0.2244712347857176
 40
0.302322742359572
 40
0.3819186179896725
 40
0.4611486955215852
 40
0.5424171227241728
 40
0.6267160830665827
 40
0.7145968311855362
 40
0.8049029203553209
 40
0.9001272540718668
 40
0.9999999999999999
 40
0.9999999999999999
 40
0.9999999999999999
 40
0.9999999999999999
 10
50.96648687193832
 20
324.5736370318467
 30
0.0
 10
50.96731131891538
 20
324.5546288171783
 30
0.0
 10
50.96894700245264
 20
324.5169169634509
 30
0.0
 10
50.9819231601967
 20
324.4611802489123
 30
0.0
 10
51.0027484602411
 20
324.4072227538486
 30
0.0
 10
51.03179228132296
 20
324.3554841919514
 30
0.0
 10
51.06775600376408
 20
324.3071334133683
 30
0.0
 10
51.11198010582739
 20
324.264988296697
 30
0.0
 10
51.16171623151433
 20
324.2275405453755
 30
0.0
 10
51.21864721942638
 20
324.1972537465905
 30
0.0
 10
51.28083395842284
 20
324.1730663818504
 30
0.0
 10
51.34825990876805
 20
324.1564015853708
 30
0.0
 10
51.41995740721872
 20
324.1453698513866
 30
0.0
 10
51.46946297015673
 20
324.1442581894568
 30
0.0
 10
51.49480551510071
 20
324.1436891151801
 30
0.0
  0
SPLINE
  5
FB
330
1F
100
AcDbEntity
  8
0
  6
Continuous
 62
     7
370
    25
100
AcDbSpline
210
0.0
220
0.0
230
1.0
 70
     8
 71
     3
 72
    23
 73
    19
 74
     0
 42
0.00000001
 43
0.00000001
 40
0.0
 40
0.0
 40
0.0
 40
0.0
 40
0.0765589329940529
 40
0.1491613519791255
 40
0.2188268461270011
 40
0.2855671390890038
 40
0.3503131057192166
 40
0.4141251538580802
 40
0.4771791613162509
 40
0.5403680185082007
 40
0.6022023899907568
 40
0.6620336537315695
 40
0.7199344070496352
 40
0.7759074326823665
 40
0.8311148643833163
 40
0.8866674470119746
 40
0.9425523618335572
 40
1.0
 40
1.0
 40
1.0
 40
1.0
 10
51.4948055151007
 20
324.14368911518
 30
0.0
 10
51.51461168998682
 20
324.1440693945565
 30
0.0
 10
51.55320047000259
 20
324.1448103007281
 30
0.0
 10
51.60949530579373
 20
324.1513503739522
 30
0.0
 10
51.6626203423364
 20
324.1617218136324
 30
0.0
 10
51.71247255851702
 20
324.1768067199217
 30
0.0
 10
51.75961002352797
 20
324.1952217057438
 30
0.0
 10
51.80323352811492
 20
324.2189114883722
 30
0.0
 10
51.84446530403146
 20
324.245855036121
 30
0.0
 10
51.88127360683333
 20
324.2778216355565
 30
0.0
 10
51.91479749973954
 20
324.3119782823609
 30
0.0
 10
51.94402763377477
 20
324.3481370227381
 30
0.0
 10
51.96940196234656
 20
324.385315143209
 30
0.0
 10
51.98931734987455
 20
324.4243528172821
 30
0.0
 10
52.0052384652507
 20
324.4645010942058
 30
0.0
 10
52.01668271022991
 20
324.5061301891164
 30
0.0
 10
52.02374404040896
 20
324.549367782379
 30
0.0
 10
52.02445820117023
 20
324.5786981729977
 30
0.0
 10
52.02482020527165
 20
324.5935655841971
 30
0.0
  0
LINE
  5
FC
330
1F
100
AcDbEntity
  8
0
  6
Continuous
 62
     7
370
    25
100
AcDbLine
 10
45.1592219147
 20
325.8804412519
 30
0.0
 11
45.1592219147
 21
324.1979626195
 31
0.0
  0
LINE
  5
FD
330
1F
100
AcDbEntity
  8
0
  6
Continuous
 62
     7
370
    25
100
AcDbLine
 10
45.1592219147
 20
324.1979626195
 30
0.0
 11
45.4021806486
 21
324.1979626195
 31
0.0
  0
SPLINE
  5
FE
330
1F
100
AcDbEntity
  8
0
  6
Continuous
 62
     7
370
    25
100
AcDbSpline
210
0.0
220
0.0
230
1.0
 70
     8
 71
     3
 72
    15
 73
    11
 74
     0
 42
0.00000001
 43
0.00000001
 40
0.0
 40
0.0
 40
0.0
 40
0.0
 40
0.1719006646132727
 40
0.330627932095884
 40
0.4755488358809125
 40
0.6067461903123645
 40
0.7250238034674974
 40
0.8297423869584495
 40
0.9213228203439734
 40
1.0
 40
1.0
 40
1.0
 40
1.0
 10
45.40218064864771
 20
324.1979626194535
 30
0.0
 10
45.43709256809525
 20
324.1981126586892
 30
0.0
 10
45.50424097475445
 20
324.1984012390875
 30
0.0
 10
45.60079604930541
 20
324.20093350003
 30
0.0
 10
45.68901835098063
 20
324.2050712431867
 30
0.0
 10
45.76892040666127
 20
324.2108618854804
 30
0.0
 10
45.84045710230775
 20
324.2185233813326
 30
0.0
 10
45.90377794152246
 20
324.2270655844226
 30
0.0
 10
45.95867535965226
 20
324.2377078522608
 30
0.0
 10
45.99189459056481
 20
324.2473543848593
 30
0.0
 10
46.00724541894687
 20
324.2518121119749
 30
0.0
  0
SPLINE
  5
FF
330
1F
100
AcDbEntity
  8
0
  6
Continuous
 62
     7
370
    25
100
AcDbSpline
210
0.0
220
0.0
230
1.0
 70
     8
 71
     3
 72
    23
 73
    19
 74
     0
 42
0.00000001
 43
0.00000001
 40
0.0
 40
0.0
 40
0.0
 40
0.0
 40
0.0624145002632799
 40
0.1233382314733124
 40
0.1831245376922121
 40
0.2417829946389329
 40
0.3005788825509774
 40
0.3596800748966211
 40
0.4188816408500581
 40
0.4795306644577685
 40
0.5408505357600178
 40
0.6023033958983964
 40
0.6644632119464644
 40
0.7278057226670407
 40
0.7928948147812521
 40
0.8596723283028282
 40
0.9284644007335119
 40
1.0
 40
1.0
 40
1.0
 40
1.0
 10
46.00724541894686
 20
324.2518121119749
 30
0.0
 10
46.0265665712506
 20
324.2586166257693
 30
0.0
 10
46.06474739053328
 20
324.2720631276862
 30
0.0
 10
46.11970880872831
 20
324.2965908561187
 30
0.0
 10
46.170966616307
 20
324.3256448697292
 30
0.0
 10
46.21941410778963
 20
324.3579405306618
 30
0.0
 10
46.26436403750267
 20
324.3946169223577
 30
0.0
 10
46.30634909831714
 20
324.4348765203488
 30
0.0
 10
46.34528475913965
 20
324.4789242176541
 30
0.0
 10
46.38076874540081
 20
324.5267053439325
 30
0.0
 10
46.41252376736382
 20
324.5779225060579
 30
0.0
 10
46.44002303467297
 20
324.6320721816597
 30
0.0
 10
46.4641237228259
 20
324.6885610621259
 30
0.0
 10
46.48303982407472
 20
324.748256600931
 30
0.0
 10
46.49786591545575
 20
324.8106251267348
 30
0.0
 10
46.5083674172219
 20
324.8756710271359
 30
0.0
 10
46.51490775058569
 20
324.9433821547346
 30
0.0
 10
46.51567062624382
 20
324.9894360584582
 30
0.0
 10
46.51605952151096
 20
325.0129132070603
 30
0.0
  0
SPLINE
  5
100
330
1F
100
AcDbEntity
  8
0
  6
Continuous
 62
     7
370
    25
100
AcDbSpline
210
0.0
220
0.0
230
1.0
 70
     8
 71
     3
 72
    23
 73
    19
 74
     0
 42
0.00000001
 43
0.00000001
 40
0.0
 40
0.0
 40
0.0
 40
0.0
 40
0.0701511759972964
 40
0.1378126061901688
 40
0.2032262471813753
 40
0.2671740552944671
 40
0.3300240034081944
 40
0.391794271786667
 40
0.4530843989971427
 40
0.5143339076458938
 40
0.5749999928182802
 40
0.6348654826222169
 40
0.69411631518964
 40
0.7534416217804377
 40
0.8131258003036014
 40
0.8740796856370618
 40
0.936007013274408
 40
1.0
 40
1.0
 40
1.0
 40
1.0
 10
46.51605952151096
 20
325.0129132070603
 30
0.0
 10
46.51574910486702
 20
325.0376682165736
 30
0.0
 10
46.51513928862233
 20
325.0862996518814
 30
0.0
 10
46.50747434850972
 20
325.1576559294989
 30
0.0
 10
46.49627321732677
 20
325.2262847038642
 30
0.0
 10
46.48007546434142
 20
325.2921905648878
 30
0.0
 10
46.45943440903969
 20
325.3555020921558
 30
0.0
 10
46.43367479235853
 20
325.4158691292744
 30
0.0
 10
46.40424307499158
 20
325.4739292166405
 30
0.0
 10
46.3692253427097
 20
325.5283422854413
 30
0.0
 10
46.33087400767729
 20
325.5798033562006
 30
0.0
 10
46.28831214731802
 20
325.6269475194346
 30
0.0
 10
46.2422159621126
 20
325.6698821676978
 30
0.0
 10
46.19308821982342
 20
325.7092759424974
 30
0.0
 10
46.13954435504027
 20
325.7435439750585
 30
0.0
 10
46.08284569441955
 20
325.7741973488558
 30
0.0
 10
46.02216045517985
 20
325.8002117212371
 30
0.0
 10
45.97994039626696
 20
325.8140479858592
 30
0.0
 10
45.95848406745113
 20
325.821079606633
 30
0.0
  0
SPLINE
  5
101
330
1F
100
AcDbEntity
  8
0
  6
Continuous
 62
     7
370
    25
100
AcDbSpline
210
0.0
220
0.0
230
1.0
 70
     8
 71
     3
 72
    15
 73
    11
 74
     0
 42
0.00000001
 43
0.00000001
 40
0.0
 40
0.0
 40
0.0
 40
0.0
 40
0.0843186169585768
 40
0.1792845142138943
 40
0.2865825276465562
 40
0.4051114834342745
 40
0.535592873418971
 40
0.6781902099934191
 40
0.8329758397604947
 40
1.0
 40
1.0
 40
1.0
 40
1.0
 10
45.95848406745113
 20
325.821079606633
 30
0.0
 10
45.94073361226447
 20
325.8259881130124
 30
0.0
 10
45.90299127433234
 20
325.8364249443252
 30
0.0
 10
45.84140264608835
 20
325.8478098124691
 30
0.0
 10
45.77208777000487
 20
325.8578515809224
 30
0.0
 10
45.69473890314085
 20
325.8663533475751
 30
0.0
 10
45.60944421597348
 20
325.8724537752438
 30
0.0
 10
45.51613810942991
 20
325.8770326178873
 30
0.0
 10
45.41478025333426
 20
325.8801209146744
 30
0.0
 10
45.34451748286121
 20
325.8803317995067
 30
0.0
 10
45.30805003967336
 20
325.8804412519322
 30
0.0
  0
LINE
  5
102
330
1F
100
AcDbEntity
  8
0
  6
Continuous
 62
     7
370
    25
100
AcDbLine
 10
45.3080500397
 20
325.8804412519
 30
0.0
 11
45.1592219147
 21
325.8804412519
 31
0.0
  0
LINE
  5
103
330
1F
100
AcDbEntity
  8
0
  6
Continuous
 62
     7
370
    25
100
AcDbLine
 10
47.7270370856
 20
325.8804412519
 30
0.0
 11
47.3301620856
 21
325.8804412519
 31
0.0
  0
LINE
  5
104
330
1F
100
AcDbEntity
  8
0
  6
Continuous
 62
     7
370
    25
100
AcDbLine
 10
47.3301620856
 20
325.8804412519
 30
0.0
 11
47.3301620856
 21
325.1748856964
 31
0.0
  0
LINE
  5
105
330
1F
100
AcDbEntity
  8
0
  6
Continuous
 62
     7
370
    25
100
AcDbLine
 10
47.3301620856
 20
325.1748856964
 30
0.0
 11
47.7177088271
 21
325.1719176141
 31
0.0
  0
SPLINE
  5
106
330
1F
100
AcDbEntity
  8
0
  6
Continuous
 62
     7
370
    25
100
AcDbSpline
210
0.0
220
0.0
230
1.0
 70
     8
 71
     3
 72
    23
 73
    19
 74
     0
 42
0.00000001
 43
0.00000001
 40
0.0
 40
0.0
 40
0.0
 40
0.0
 40
0.0716681496796048
 40
0.1389132862742014
 40
0.2011845700265524
 40
0.2591244282905393
 40
0.3122550414262303
 40
0.3606815096231051
 40
0.4050861433286331
 40
0.445101658590691
 40
0.5187777804882491
 40
0.5894615790331621
 40
0.6584622419856826
 40
0.7272832183683301
 40
0.7963224869046992
 40
0.8631748932078498
 40
0.9309493809878211
 40
1.0
 40
1.0
 40
1.0
 40
1.0
 10
47.71770882706652
 20
325.1719176141116
 30
0.0
 10
47.73580332679546
 20
325.1719096090874
 30
0.0
 10
47.77087562086291
 20
325.1718940930706
 30
0.0
 10
47.82161554672501
 20
325.1743093767988
 30
0.0
 10
47.86885961427185
 20
325.1770570025935
 30
0.0
 10
47.91242711677005
 20
325.181259702037
 30
0.0
 10
47.95233751708627
 20
325.1866759930332
 30
0.0
 10
47.98857086698691
 20
325.1934511311201
 30
0.0
 10
48.02118631265784
 20
325.2013445213879
 30
0.0
 10
48.05922495256107
 20
325.2135616950918
 30
0.0
 10
48.10170133104832
 20
325.2329177156617
 30
0.0
 10
48.14786369011686
 20
325.2610787553484
 30
0.0
 10
48.18717462770883
 20
325.2964991274164
 30
0.0
 10
48.22038685872187
 20
325.3370021222564
 30
0.0
 10
48.24707465775692
 20
325.3815345203629
 30
0.0
 10
48.26589004299731
 20
325.4295625150792
 30
0.0
 10
48.27782952000256
 20
325.4798736243506
 30
0.0
 10
48.27923773558386
 20
325.5144527657615
 30
0.0
 10
48.27994841039985
 20
325.5319035916757
 30
0.0
  0
SPLINE
  5
107
330
1F
100
AcDbEntity
  8
0
  6
Continuous
 62
     7
370
    25
100
AcDbSpline
210
0.0
220
0.0
230
1.0
 70
     8
 71
     3
 72
    23
 73
    19
 74
     0
 42
0.00000001
 43
0.00000001
 40
0.0
 40
0.0
 40
0.0
 40
0.0
 40
0.068814295824278
 40
0.1363648245521875
 40
0.2040193535112358
 40
0.2730637386246241
 40
0.3429133195614838
 40
0.4109654441389565
 40
0.4791687665134367
 40
0.5493080065097813
 40
0.5876515764176518
 40
0.6306466687627833
 40
0.678878785696644
 40
0.7319342992295783
 40
0.7911114229480446
 40
0.8552831895130768
 40
0.9250859386773804
 40
1.0
 40
1.0
 40
1.0
 40
1.0
 10
48.27994841039985
 20
325.5319035916757
 30
0.0
 10
48.27922141336062
 20
325.5489255672171
 30
0.0
 10
48.27778077050411
 20
325.5826569115607
 30
0.0
 10
48.26601889620463
 20
325.6320392954013
 30
0.0
 10
48.24612865128906
 20
325.6786464509566
 30
0.0
 10
48.21932425025837
 20
325.7222887823565
 30
0.0
 10
48.18666761844769
 20
325.7619041559444
 30
0.0
 10
48.14837541743714
 20
325.7957993389841
 30
0.0
 10
48.10549465656066
 20
325.823769253337
 30
0.0
 10
48.06541636041452
 20
325.8416426167893
 30
0.0
 10
48.02959376524056
 20
325.8526008137524
 30
0.0
 10
47.99849106607294
 20
325.8603122318666
 30
0.0
 10
47.96334745811885
 20
325.8665076964101
 30
0.0
 10
47.92399229981544
 20
325.8714716189393
 30
0.0
 10
47.88059359929316
 20
325.8757381804613
 30
0.0
 10
47.83293191982351
 20
325.8786118751734
 30
0.0
 10
47.78132348604645
 20
325.88031359299
 30
0.0
 10
47.74555367527832
 20
325.8803977086463
 30
0.0
 10
47.72703708561352
 20
325.8804412519321
 30
0.0
  0
LINE
  5
108
330
1F
100
AcDbEntity
  8
0
  6
Continuous
 62
     7
370
    25
100
AcDbLine
 10
56.2610455676
 20
330.2986819424
 30
0.0
 11
56.5591224906
 21
330.2986819424
 31
0.0
  0
LINE
  5
109
330
1F
100
AcDbEntity
  8
0
  6
Continuous
 62
     7
370
    25
100
AcDbLine
 10
56.5591224906
 20
330.2986819424
 30
0.0
 11
56.5591224906
 21
330.7329768142
 31
0.0
  0
LINE
  5
10A
330
1F
100
AcDbEntity
  8
0
  6
Continuous
 62
     7
370
    25
100
AcDbLine
 10
56.5591224906
 20
330.7329768142
 30
0.0
 11
56.2610455676
 21
330.2986819424
 31
0.0
  0
CIRCLE
  5
10B
330
1F
100
AcDbEntity
  8
0
  6
Continuous
 62
     7
370
    25
100
AcDbCircle
 10
42.7283895433
 20
322.890394786
 30
0.0
 40
0.5
  0
CIRCLE
  5
10C
330
1F
100
AcDbEntity
  8
0
  6
Continuous
 62
     7
370
    25
100
AcDbCircle
 10
42.7283895433
 20
327.970394786
 30
0.0
 40
0.5
  0
CIRCLE
  5
10D
330
1F
100
AcDbEntity
  8
0
  6
Continuous
 62
     7
370
    25
100
AcDbCircle
 10
42.7283895433
 20
325.430394786
 30
0.0
 40
0.5
  0
CIRCLE
  5
10E
330
1F
100
AcDbEntity
  8
0
  6
Continuous
 62
     7
370
    25
100
AcDbCircle
 10
42.7283895433
 20
330.510394786
 30
0.0
 40
0.5
  0
CIRCLE
  5
10F
330
1F
100
AcDbEntity
  8
0
  6
Continuous
 62
     7
370
    25
100
AcDbCircle
 10
58.2283895433
 20
330.510394786
 30
0.0
 40
0.5
  0
CIRCLE
  5
110
330
1F
100
AcDbEntity
  8
0
  6
Continuous
 62
     7
370
    25
100
AcDbCircle
 10
58.2283895433
 20
327.970394786
 30
0.0
 40
0.5
  0
CIRCLE
  5
111
330
1F
100
AcDbEntity
  8
0
  6
Continuous
 62
     7
370
    25
100
AcDbCircle
 10
58.2283895433
 20
325.430394786
 30
0.0
 40
0.5
  0
CIRCLE
  5
112
330
1F
100
AcDbEntity
  8
0
  6
Continuous
 62
     7
370
    25
100
AcDbCircle
 10
58.2283895433
 20
322.890394786
 30
0.0
 40
0.5
  0
CIRCLE
  5
113
330
1F
100
AcDbEntity
  8
0
  6
Continuous
 62
     7
370
    25
100
AcDbCircle
 10
58.2283895433
 20
320.350394786
 30
0.0
 40
0.5
  0
CIRCLE
  5
114
330
1F
100
AcDbEntity
  8
0
  6
Continuous
 62
     7
370
    25
100
AcDbCircle
 10
58.2283895433
 20
317.810394786
 30
0.0
 40
0.5
  0
CIRCLE
  5
115
330
1F
100
AcDbEntity
  8
0
  6
Continuous
 62
     7
370
    25
100
AcDbCircle
 10
42.7283895433
 20
317.810394786
 30
0.0
 40
0.5
  0
CIRCLE
  5
116
330
1F
100
AcDbEntity
  8
0
  6
Continuous
 62
     7
370
    25
100
AcDbCircle
 10
42.7283895433
 20
320.350394786
 30
0.0
 40
0.5
  0
MTEXT
  5
118
330
1F
100
AcDbEntity
  8
0
  6
Continuous
 62
     7
100
AcDbMText
 10
41.4783895433
 20
314.9614940238
 30
0.0
 40
4.83362
 41
0.0
 71
     1
 72
     1
  1
SOLIDWORKS Educational Product.
  7
SLDTEXTSTYLE0
 73
     1
 44
1.0
  0
MTEXT
  5
119
330
1F
100
AcDbEntity
  8
0
  6
Continuous
 62
     7
100
AcDbMText
 10
41.4783895433
 20
307.7110640238
 30
0.0
 40
4.83362
 41
0.0
 71
     1
 72
     1
  1
For Instructional Use Only.
  7
SLDTEXTSTYLE0
 73
     1
 44
1.0
  0
ENDSEC
  0
SECTION
  2
OBJECTS
  0
DICTIONARY
  5
C
330
0
100
AcDbDictionary
281
     1
  3
ACAD_GROUP
350
D
  3
ACAD_LAYOUT
350
1A
  3
ACAD_MLINESTYLE
350
17
  3
ACAD_PLOTSETTINGS
350
19
  3
ACAD_PLOTSTYLENAME
350
E
  3
ACAD_SCALELIST
350
47
  3
DWGPROPS
350
11A
  0
DICTIONARY
  5
D
102
{ACAD_REACTORS
330
C
102
}
330
C
100
AcDbDictionary
281
     1
  0
DICTIONARY
  5
1A
102
{ACAD_REACTORS
330
C
102
}
330
C
100
AcDbDictionary
281
     1
  3
Layout1
350
1E
  3
Layout2
350
26
  3
Model
350
22
  0
DICTIONARY
  5
17
102
{ACAD_REACTORS
330
C
102
}
330
C
100
AcDbDictionary
281
     1
  3
Standard
350
18
  0
DICTIONARY
  5
19
102
{ACAD_REACTORS
330
C
102
}
330
C
100
AcDbDictionary
281
     1
  0
ACDBDICTIONARYWDFLT
  5
E
102
{ACAD_REACTORS
330
C
102
}
330
C
100
AcDbDictionary
281
     1
  3
Normal
350
F
100
AcDbDictionaryWithDefault
340
F
  0
DICTIONARY
  5
47
102
{ACAD_REACTORS
330
C
102
}
330
C
100
AcDbDictionary
281
     1
  3
A0
350
48
  3
A1
350
49
  3
A2
350
4A
  3
A3
350
4B
  3
A4
350
4C
  3
A5
350
4D
  3
A6
350
4E
  3
A7
350
4F
  3
A8
350
50
  3
A9
350
51
  3
B0
350
52
  3
B1
350
53
  3
B2
350
54
  3
B3
350
55
  3
B4
350
56
  3
B5
350
57
  3
B6
350
58
  0
XRECORD
  5
11A
102
{ACAD_REACTORS
330
C
102
}
330
C
100
AcDbXrecord
280
     1
  1
DWGPROPS COOKIE
  2

  3

  4

  6

  7

  8
timai
  9

300
=
301
=
302
=
303
=
304
=
305
=
306
=
307
=
308
=
309
=
 40
0.0
 41
2460439.030854502
 42
2460439.030902234
  1

 90
        0
  0
LAYOUT
  5
1E
102
{ACAD_REACTORS
330
1A
102
}
330
1A
100
AcDbPlotSettings
  1

  2
none_device
  4

  6

 40
0.0
 41
0.0
 42
0.0
 43
0.0
 44
0.0
 45
0.0
 46
0.0
 47
0.0
 48
0.0
 49
0.0
140
0.0
141
0.0
142
1.0
143
1.0
 70
   688
 72
     1
 73
     0
 74
     5
  7

 75
    16
147
1.0
148
0.0
149
0.0
100
AcDbLayout
  1
Layout1
 70
     1
 71
     1
 10
0.0
 20
0.0
 11
420.0
 21
297.0
 12
0.0
 22
0.0
 32
0.0
 14
1.0000000000E+20
 24
1.0000000000E+20
 34
1.0000000000E+20
 15
-1.0000000000E+20
 25
-1.0000000000E+20
 35
-1.0000000000E+20
146
0.0
 13
0.0
 23
0.0
 33
0.0
 16
1.0
 26
0.0
 36
0.0
 17
0.0
 27
1.0
 37
0.0
 76
     0
330
1B
  0
LAYOUT
  5
26
102
{ACAD_REACTORS
330
1A
102
}
330
1A
100
AcDbPlotSettings
  1

  2
none_device
  4

  6

 40
0.0
 41
0.0
 42
0.0
 43
0.0
 44
0.0
 45
0.0
 46
0.0
 47
0.0
 48
0.0
 49
0.0
140
0.0
141
0.0
142
1.0
143
1.0
 70
   688
 72
     1
 73
     0
 74
     5
  7

 75
    16
147
1.0
148
0.0
149
0.0
100
AcDbLayout
  1
Layout2
 70
     1
 71
     2
 10
0.0
 20
0.0
 11
0.0
 21
0.0
 12
0.0
 22
0.0
 32
0.0
 14
0.0
 24
0.0
 34
0.0
 15
0.0
 25
0.0
 35
0.0
146
0.0
 13
0.0
 23
0.0
 33
0.0
 16
1.0
 26
0.0
 36
0.0
 17
0.0
 27
1.0
 37
0.0
 76
     0
330
23
  0
LAYOUT
  5
22
102
{ACAD_REACTORS
330
1A
102
}
330
1A
100
AcDbPlotSettings
  1

  2
none_device
  4
ANSI_A_(11.00_x_8.50_Inches)
  6

 40
6.35
 41
19.05
 42
6.35000508
 43
19.05000254
 44
279.4
 45
215.9
 46
-540.9813437511
 47
-4239.1022409112
 48
0.0
 49
0.0
140
0.0
141
0.0
142
0.5259375
143
1.0
 70
  1696
 72
     0
 73
     0
 74
     0
  7

 75
     0
147
0.0179189148
148
-1300.4909072572
149
0.0
100
AcDbLayout
  1
Model
 70
     1
 71
     0
 10
0.0
 20
0.0
 11
420.0
 21
297.0
 12
0.0
 22
0.0
 32
0.0
 14
41.4783895433
 24
315.9810604155
 34
0.0
 15
59.4783895433
 25
331.9810604155
 35
0.0
146
0.0
 13
0.0
 23
0.0
 33
0.0
 16
1.0
 26
0.0
 36
0.0
 17
0.0
 27
1.0
 37
0.0
 76
     0
330
1F
331
29
  0
MLINESTYLE
  5
18
102
{ACAD_REACTORS
330
17
102
}
330
17
100
AcDbMlineStyle
  2
Standard
 70
     0
  3

 62
   256
 51
90.0
 52
90.0
 71
     2
 49
0.5
 62
   256
  6
BYLAYER
 49
-0.5
 62
   256
  6
BYLAYER
  0
ACDBPLACEHOLDER
  5
F
102
{ACAD_REACTORS
330
E
102
}
330
E
  0
SCALE
  5
48
102
{ACAD_REACTORS
330
47
102
}
330
47
100
AcDbScale
 70
     0
300
1:1
140
1.0
141
1.0
290
     1
  0
SCALE
  5
49
102
{ACAD_REACTORS
330
47
102
}
330
47
100
AcDbScale
 70
     0
300
1:2
140
1.0
141
2.0
290
     0
  0
SCALE
  5
4A
102
{ACAD_REACTORS
330
47
102
}
330
47
100
AcDbScale
 70
     0
300
1:4
140
1.0
141
4.0
290
     0
  0
SCALE
  5
4B
102
{ACAD_REACTORS
330
47
102
}
330
47
100
AcDbScale
 70
     0
300
1:5
140
1.0
141
5.0
290
     0
  0
SCALE
  5
4C
102
{ACAD_REACTORS
330
47
102
}
330
47
100
AcDbScale
 70
     0
300
1:8
140
1.0
141
8.0
290
     0
  0
SCALE
  5
4D
102
{ACAD_REACTORS
330
47
102
}
330
47
100
AcDbScale
 70
     0
300
1:10
140
1.0
141
10.0
290
     0
  0
SCALE
  5
4E
102
{ACAD_REACTORS
330
47
102
}
330
47
100
AcDbScale
 70
     0
300
1:16
140
1.0
141
16.0
290
     0
  0
SCALE
  5
4F
102
{ACAD_REACTORS
330
47
102
}
330
47
100
AcDbScale
 70
     0
300
1:20
140
1.0
141
20.0
290
     0
  0
SCALE
  5
50
102
{ACAD_REACTORS
330
47
102
}
330
47
100
AcDbScale
 70
     0
300
1:30
140
1.0
141
30.0
290
     0
  0
SCALE
  5
51
102
{ACAD_REACTORS
330
47
102
}
330
47
100
AcDbScale
 70
     0
300
1:40
140
1.0
141
40.0
290
     0
  0
SCALE
  5
52
102
{ACAD_REACTORS
330
47
102
}
330
47
100
AcDbScale
 70
     0
300
1:50
140
1.0
141
50.0
290
     0
  0
SCALE
  5
53
102
{ACAD_REACTORS
330
47
102
}
330
47
100
AcDbScale
 70
     0
300
1:100
140
1.0
141
100.0
290
     0
  0
SCALE
  5
54
102
{ACAD_REACTORS
330
47
102
}
330
47
100
AcDbScale
 70
     0
300
2:1
140
2.0
141
1.0
290
     0
  0
SCALE
  5
55
102
{ACAD_REACTORS
330
47
102
}
330
47
100
AcDbScale
 70
     0
300
4:1
140
4.0
141
1.0
290
     0
  0
SCALE
  5
56
102
{ACAD_REACTORS
330
47
102
}
330
47
100
AcDbScale
 70
     0
300
8:1
140
8.0
141
1.0
290
     0
  0
SCALE
  5
57
102
{ACAD_REACTORS
330
47
102
}
330
47
100
AcDbScale
 70
     0
300
10:1
140
10.0
141
1.0
290
     0
  0
SCALE
  5
58
102
{ACAD_REACTORS
330
47
102
}
330
47
100
AcDbScale
 70
     0
300
100:1
140
100.0
141
1.0
290
     0
  0
ENDSEC
  0
EOF
