  0
SECTION
  2
HEADER
  9
$ACADVER
  1
AC1015
  9
$ACADMAINTVER
 70
     6
  9
$DWGCODEPAGE
  3
ANSI_1252
  9
$INSBASE
 10
0.0
 20
0.0
 30
0.0
  9
$EXTMIN
 10
0.0
 20
0.0
 30
0.0
  9
$EXTMAX
 10
32.0
 20
16.0
 30
0.0
  9
$LIMMIN
 10
0.0
 20
0.0
  9
$LIMMAX
 10
420.0
 20
297.0
  9
$ORTHOMODE
 70
     0
  9
$REGENMODE
 70
     1
  9
$FILLMODE
 70
     1
  9
$QTEXTMODE
 70
     0
  9
$MIRRTEXT
 70
     1
  9
$LTSCALE
 40
1.0
  9
$ATTMODE
 70
     1
  9
$TEXTSIZE
 40
3.5
  9
$TRACEWID
 40
1.0
  9
$TEXTSTYLE
  7
Standard
  9
$CLAYER
  8
0
  9
$CELTYPE
  6
ByLayer
  9
$CECOLOR
 62
   256
  9
$CELTSCALE
 40
1.0
  9
$DISPSILH
 70
     0
  9
$DIMSCALE
 40
1.0
  9
$DIMASZ
 40
3.302
  9
$DIMEXO
 40
0.0
  9
$DIMDLI
 40
3.75
  9
$DIMRND
 40
0.0
  9
$DIMDLE
 40
0.0
  9
$DIMEXE
 40
1.0
  9
$DIMTP
 40
0.0
  9
$DIMTM
 40
0.0
  9
$DIMTXT
 40
3.5
  9
$DIMCEN
 40
2.5
  9
$DIMTSZ
 40
0.0
  9
$DIMTOL
 70
     0
  9
$DIMLIM
 70
     0
  9
$DIMTIH
 70
     1
  9
$DIMTOH
 70
     1
  9
$DIMSE1
 70
     0
  9
$DIMSE2
 70
     0
  9
$DIMTAD
 70
     1
  9
$DIMZIN
 70
     1
  9
$DIMBLK
  1

  9
$DIMASO
 70
     1
  9
$DIMSHO
 70
     1
  9
$DIMPOST
  1

  9
$DIMAPOST
  1

  9
$DIMALT
 70
     0
  9
$DIMALTD
 70
     3
  9
$DIMALTF
 40
0.0393700787
  9
$DIMLFAC
 40
1.0
  9
$DIMTOFL
 70
     1
  9
$DIMTVP
 40
0.0
  9
$DIMTIX
 70
     0
  9
$DIMSOXD
 70
     0
  9
$DIMSAH
 70
     0
  9
$DIMBLK1
  1

  9
$DIMBLK2
  1

  9
$DIMSTYLE
  2
ISO-25
  9
$DIMCLRD
 70
     0
  9
$DIMCLRE
 70
     0
  9
$DIMCLRT
 70
     0
  9
$DIMTFAC
 40
1.0
  9
$DIMGAP
 40
1.524
  9
$DIMJUST
 70
     0
  9
$DIMSD1
 70
     0
  9
$DIMSD2
 70
     0
  9
$DIMTOLJ
 70
     0
  9
$DIMTZIN
 70
     1
  9
$DIMALTZ
 70
     0
  9
$DIMALTTZ
 70
     0
  9
$DIMUPT
 70
     0
  9
$DIMDEC
 70
     2
  9
$DIMTDEC
 70
     2
  9
$DIMALTU
 70
     2
  9
$DIMALTTD
 70
     3
  9
$DIMTXSTY
  7
Standard
  9
$DIMAUNIT
 70
     0
  9
$DIMADEC
 70
     2
  9
$DIMALTRND
 40
0.0
  9
$DIMAZIN
 70
     0
  9
$DIMDSEP
 70
    44
  9
$DIMATFIT
 70
     3
  9
$DIMFRAC
 70
     0
  9
$DIMLDRBLK
  1

  9
$DIMLUNIT
 70
     2
  9
$DIMLWD
 70
    -2
  9
$DIMLWE
 70
    -2
  9
$DIMTMOVE
 70
     0
  9
$LUNITS
 70
     2
  9
$LUPREC
 70
     2
  9
$SKETCHINC
 40
1.0
  9
$FILLETRAD
 40
0.0
  9
$AUNITS
 70
     0
  9
$AUPREC
 70
     2
  9
$MENU
  1
.
  9
$ELEVATION
 40
0.0
  9
$PELEVATION
 40
0.0
  9
$THICKNESS
 40
0.0
  9
$LIMCHECK
 70
     0
  9
$CHAMFERA
 40
0.0
  9
$CHAMFERB
 40
0.0
  9
$CHAMFERC
 40
0.0
  9
$CHAMFERD
 40
0.0
  9
$SKPOLY
 70
     0
  9
$TDCREATE
 40
2460443.498820567
  9
$TDUCREATE
 40
2460442.998820567
  9
$TDUPDATE
 40
2460443.498892083
  9
$TDUUPDATE
 40
2460442.998892083
  9
$TDINDWG
 40
0.0000000116
  9
$TDUSRTIMER
 40
0.0000000116
  9
$USRTIMER
 70
     1
  9
$ANGBASE
 50
0.0
  9
$ANGDIR
 70
     0
  9
$PDMODE
 70
     0
  9
$PDSIZE
 40
-1.0
  9
$PLINEWID
 40
0.0
  9
$SPLFRAME
 70
     0
  9
$SPLINETYPE
 70
     6
  9
$SPLINESEGS
 70
     8
  9
$HANDSEED
  5
AD
  9
$SURFTAB1
 70
     6
  9
$SURFTAB2
 70
     6
  9
$SURFTYPE
 70
     6
  9
$SURFU
 70
     6
  9
$SURFV
 70
     6
  9
$UCSBASE
  2

  9
$UCSNAME
  2

  9
$UCSORG
 10
0.0
 20
0.0
 30
0.0
  9
$UCSXDIR
 10
1.0
 20
0.0
 30
0.0
  9
$UCSYDIR
 10
0.0
 20
1.0
 30
0.0
  9
$UCSORTHOREF
  2

  9
$UCSORTHOVIEW
 70
     0
  9
$UCSORGTOP
 10
0.0
 20
0.0
 30
0.0
  9
$UCSORGBOTTOM
 10
0.0
 20
0.0
 30
0.0
  9
$UCSORGLEFT
 10
0.0
 20
0.0
 30
0.0
  9
$UCSORGRIGHT
 10
0.0
 20
0.0
 30
0.0
  9
$UCSORGFRONT
 10
0.0
 20
0.0
 30
0.0
  9
$UCSORGBACK
 10
0.0
 20
0.0
 30
0.0
  9
$PUCSBASE
  2

  9
$PUCSNAME
  2

  9
$PUCSORG
 10
0.0
 20
0.0
 30
0.0
  9
$PUCSXDIR
 10
1.0
 20
0.0
 30
0.0
  9
$PUCSYDIR
 10
0.0
 20
1.0
 30
0.0
  9
$PUCSORTHOREF
  2

  9
$PUCSORTHOVIEW
 70
     0
  9
$PUCSORGTOP
 10
0.0
 20
0.0
 30
0.0
  9
$PUCSORGBOTTOM
 10
0.0
 20
0.0
 30
0.0
  9
$PUCSORGLEFT
 10
0.0
 20
0.0
 30
0.0
  9
$PUCSORGRIGHT
 10
0.0
 20
0.0
 30
0.0
  9
$PUCSORGFRONT
 10
0.0
 20
0.0
 30
0.0
  9
$PUCSORGBACK
 10
0.0
 20
0.0
 30
0.0
  9
$USERI1
 70
     0
  9
$USERI2
 70
     0
  9
$USERI3
 70
     0
  9
$USERI4
 70
     0
  9
$USERI5
 70
     0
  9
$USERR1
 40
0.0
  9
$USERR2
 40
0.0
  9
$USERR3
 40
0.0
  9
$USERR4
 40
0.0
  9
$USERR5
 40
0.0
  9
$WORLDVIEW
 70
     1
  9
$SHADEDGE
 70
     3
  9
$SHADEDIF
 70
    70
  9
$TILEMODE
 70
     1
  9
$MAXACTVP
 70
    64
  9
$PINSBASE
 10
0.0
 20
0.0
 30
0.0
  9
$PLIMCHECK
 70
     0
  9
$PEXTMIN
 10
1.0000000000E+20
 20
1.0000000000E+20
 30
1.0000000000E+20
  9
$PEXTMAX
 10
-1.0000000000E+20
 20
-1.0000000000E+20
 30
-1.0000000000E+20
  9
$PLIMMIN
 10
0.0
 20
0.0
  9
$PLIMMAX
 10
420.0
 20
297.0
  9
$UNITMODE
 70
     0
  9
$VISRETAIN
 70
     1
  9
$PLINEGEN
 70
     0
  9
$PSLTSCALE
 70
     1
  9
$TREEDEPTH
 70
  3020
  9
$CMLSTYLE
  2
Standard
  9
$CMLJUST
 70
     0
  9
$CMLSCALE
 40
20.0
  9
$PROXYGRAPHICS
 70
     1
  9
$MEASUREMENT
 70
     1
  9
$CELWEIGHT
370
    -1
  9
$ENDCAPS
280
     0
  9
$JOINSTYLE
280
     0
  9
$LWDISPLAY
290
     1
  9
$INSUNITS
 70
     4
  9
$HYPERLINKBASE
  1

  9
$STYLESHEET
  1

  9
$XEDIT
290
     1
  9
$CEPSNTYPE
380
     0
  9
$PSTYLEMODE
290
     1
  9
$FINGERPRINTGUID
  2
{b7d08204-5d48-46e4-bb09-cb7e2c72f7c0}
  9
$VERSIONGUID
  2
{FAEB1C32-E019-11D5-929B-00C0DF256EC4}
  9
$EXTNAMES
290
     1
  9
$PSVPSCALE
 40
0.0
  9
$OLESTARTUP
290
     0
  0
ENDSEC
  0
SECTION
  2
CLASSES
  0
CLASS
  1
ACDBDICTIONARYWDFLT
  2
AcDbDictionaryWithDefault
  3
ObjectDBX Classes
 90
        0
280
     0
281
     0
  0
CLASS
  1
VISUALSTYLE
  2
AcDbVisualStyle
  3
ObjectDBX Classes
 90
     4095
280
     0
281
     0
  0
CLASS
  1
MATERIAL
  2
AcDbMaterial
  3
ObjectDBX Classes
 90
     1153
280
     0
281
     0
  0
CLASS
  1
SCALE
  2
AcDbScale
  3
ObjectDBX Classes
 90
     1153
280
     0
281
     0
  0
CLASS
  1
TABLESTYLE
  2
AcDbTableStyle
  3
ObjectDBX Classes
 90
     4095
280
     0
281
     0
  0
CLASS
  1
MLEADERSTYLE
  2
AcDbMLeaderStyle
  3
ACDB_MLEADERSTYLE_CLASS
 90
     4095
280
     0
281
     0
  0
CLASS
  1
SUN
  2
AcDbSun
  3
SCENEOE
 90
     1153
280
     0
281
     0
  0
CLASS
  1
ACDBPLACEHOLDER
  2
AcDbPlaceHolder
  3
ObjectDBX Classes
 90
        0
280
     0
281
     0
  0
CLASS
  1
LAYOUT
  2
AcDbLayout
  3
ObjectDBX Classes
 90
        0
280
     0
281
     0
  0
ENDSEC
  0
SECTION
  2
TABLES
  0
TABLE
  2
VPORT
  5
8
330
0
100
AcDbSymbolTable
 70
     1
  0
VPORT
  5
29
330
8
100
AcDbSymbolTableRecord
100
AcDbViewportTableRecord
  2
*Active
 70
     0
 10
0.0
 20
0.0
 11
1.0
 21
1.0
 12
16.0
 22
8.0
 13
0.0
 23
0.0
 14
10.0
 24
10.0
 15
10.0
 25
10.0
 16
0.0
 26
0.0
 36
1.0
 17
0.0
 27
0.0
 37
0.0
 40
16.32
 41
2.0
 42
50.0
 43
0.0
 44
0.0
 50
0.0
 51
0.0
 71
     0
 72
   100
 73
     1
 74
     3
 75
     0
 76
     0
 77
     0
 78
     0
281
     0
 65
     1
110
0.0
120
0.0
130
0.0
111
1.0
121
0.0
131
0.0
112
0.0
122
1.0
132
0.0
 79
     0
146
0.0
  0
ENDTAB
  0
TABLE
  2
LTYPE
  5
5
330
0
100
AcDbSymbolTable
 70
     6
  0
LTYPE
  5
14
330
5
100
AcDbSymbolTableRecord
100
AcDbLinetypeTableRecord
  2
ByBlock
 70
     0
  3

 72
    65
 73
     0
 40
0.0
  0
LTYPE
  5
15
330
5
100
AcDbSymbolTableRecord
100
AcDbLinetypeTableRecord
  2
ByLayer
 70
     0
  3

 72
    65
 73
     0
 40
0.0
  0
LTYPE
  5
16
330
5
100
AcDbSymbolTableRecord
100
AcDbLinetypeTableRecord
  2
Continuous
 70
     0
  3
Solid line
 72
    65
 73
     0
 40
0.0
  0
LTYPE
  5
5E
330
5
100
AcDbSymbolTableRecord
100
AcDbLinetypeTableRecord
  2
HIDDEN
 70
     0
  3
Hidden __ __ __ __ __ __ __ __ __ __ __ __ __ __
 72
    65
 73
     2
 40
1.905
 49
1.27
 74
     0
 49
-0.635
 74
     0
  0
LTYPE
  5
5F
330
5
100
AcDbSymbolTableRecord
100
AcDbLinetypeTableRecord
  2
PHANTOM
 70
     0
  3
Phantom ______  __  __  ______  __  __  ______
 72
    65
 73
     6
 40
12.7
 49
6.35
 74
     0
 49
-1.27
 74
     0
 49
1.27
 74
     0
 49
-1.27
 74
     0
 49
1.27
 74
     0
 49
-1.27
 74
     0
  0
LTYPE
  5
60
330
5
100
AcDbSymbolTableRecord
100
AcDbLinetypeTableRecord
  2
CENTER
 70
     0
  3
Center ____ _ ____ _ ____ _ ____ _ ____ _ ____
 72
    65
 73
     4
 40
10.16
 49
6.35
 74
     0
 49
-1.27
 74
     0
 49
1.27
 74
     0
 49
-1.27
 74
     0
  0
LTYPE
  5
61
330
5
100
AcDbSymbolTableRecord
100
AcDbLinetypeTableRecord
  2
CENTERX2
 70
     0
  3
Center (2x) ________  __  ________  __  _____
 72
    65
 73
     4
 40
20.32
 49
12.7
 74
     0
 49
-2.54
 74
     0
 49
2.54
 74
     0
 49
-2.54
 74
     0
  0
LTYPE
  5
62
330
5
100
AcDbSymbolTableRecord
100
AcDbLinetypeTableRecord
  2
DOT2
 70
     0
  3
Dot (.5x) ........................................
 72
    65
 73
     2
 40
0.635
 49
0.0
 74
     0
 49
-0.635
 74
     0
  0
ENDTAB
  0
TABLE
  2
LAYER
  5
2
330
0
100
AcDbSymbolTable
 70
     1
  0
LAYER
  5
10
330
2
100
AcDbSymbolTableRecord
100
AcDbLayerTableRecord
  2
0
 70
     0
 62
     7
  6
Continuous
370
    -3
390
F
  0
ENDTAB
  0
TABLE
  2
STYLE
  5
3
330
0
100
AcDbSymbolTable
 70
     2
  0
STYLE
  5
11
330
3
100
AcDbSymbolTableRecord
100
AcDbTextStyleTableRecord
  2
Standard
 70
     0
 40
0.0
 41
1.0
 50
0.0
 71
     0
 42
3.5
  3
txt
  4

  0
STYLE
  5
A9
330
3
100
AcDbSymbolTableRecord
100
AcDbTextStyleTableRecord
  2
SLDTEXTSTYLE0
 70
     0
 40
0.0
 41
0.7
 50
0.0
 71
     0
 42
3.5
  3
TXT
  4

  0
ENDTAB
  0
TABLE
  2
VIEW
  5
6
330
0
100
AcDbSymbolTable
 70
     0
  0
ENDTAB
  0
TABLE
  2
UCS
  5
7
330
0
100
AcDbSymbolTable
 70
     0
  0
ENDTAB
  0
TABLE
  2
APPID
  5
9
330
0
100
AcDbSymbolTable
 70
     1
  0
APPID
  5
12
330
9
100
AcDbSymbolTableRecord
100
AcDbRegAppTableRecord
  2
ACAD
 70
     0
  0
ENDTAB
  0
TABLE
  2
DIMSTYLE
  5
A
330
0
100
AcDbSymbolTable
 70
     1
100
AcDbDimStyleTable
  0
DIMSTYLE
105
27
330
A
100
AcDbSymbolTableRecord
100
AcDbDimStyleTableRecord
  2
ISO-25
 70
     0
 41
2.5
 42
0.625
 43
3.75
 44
1.25
 73
     0
 74
     0
 77
     1
 78
     8
140
2.5
141
2.5
143
0.0393700787
147
0.625
171
     3
172
     1
178
     0
271
     2
272
     2
274
     3
278
    44
283
     0
284
     8
340
11
  0
ENDTAB
  0
TABLE
  2
BLOCK_RECORD
  5
1
330
0
100
AcDbSymbolTable
 70
     1
  0
BLOCK_RECORD
  5
1F
330
1
100
AcDbSymbolTableRecord
100
AcDbBlockTableRecord
  2
*Model_Space
340
22
  0
BLOCK_RECORD
  5
1B
330
1
100
AcDbSymbolTableRecord
100
AcDbBlockTableRecord
  2
*Paper_Space
340
1E
  0
BLOCK_RECORD
  5
23
330
1
100
AcDbSymbolTableRecord
100
AcDbBlockTableRecord
  2
*Paper_Space0
340
26
  0
ENDTAB
  0
ENDSEC
  0
SECTION
  2
BLOCKS
  0
BLOCK
  5
20
330
1F
100
AcDbEntity
  8
0
100
AcDbBlockBegin
  2
*Model_Space
 70
     0
 10
0.0
 20
0.0
 30
0.0
  3
*Model_Space
  1

  0
ENDBLK
  5
21
330
1F
100
AcDbEntity
  8
0
100
AcDbBlockEnd
  0
BLOCK
  5
1C
330
1B
100
AcDbEntity
 67
     1
  8
0
100
AcDbBlockBegin
  2
*Paper_Space
 70
     0
 10
0.0
 20
0.0
 30
0.0
  3
*Paper_Space
  1

  0
ENDBLK
  5
1D
330
1B
100
AcDbEntity
 67
     1
  8
0
100
AcDbBlockEnd
  0
BLOCK
  5
24
330
23
100
AcDbEntity
  8
0
100
AcDbBlockBegin
  2
*Paper_Space0
 70
     0
 10
0.0
 20
0.0
 30
0.0
  3
*Paper_Space0
  1

  0
ENDBLK
  5
25
330
23
100
AcDbEntity
  8
0
100
AcDbBlockEnd
  0
ENDSEC
  0
SECTION
  2
ENTITIES
  0
CIRCLE
  5
63
330
1F
100
AcDbEntity
  8
0
  6
Continuous
 62
     7
370
    25
100
AcDbCircle
 10
30.35
 20
1.65
 30
0.0
 40
0.9999999999999979
  0
CIRCLE
  5
64
330
1F
100
AcDbEntity
  8
0
  6
Continuous
 62
     7
370
    25
100
AcDbCircle
 10
30.35
 20
4.19
 30
0.0
 40
0.9999999999999987
  0
CIRCLE
  5
65
330
1F
100
AcDbEntity
  8
0
  6
Continuous
 62
     7
370
    25
100
AcDbCircle
 10
30.35
 20
6.73
 30
0.0
 40
1.000000000000002
  0
CIRCLE
  5
66
330
1F
100
AcDbEntity
  8
0
  6
Continuous
 62
     7
370
    25
100
AcDbCircle
 10
30.35
 20
9.27
 30
0.0
 40
1.0
  0
CIRCLE
  5
67
330
1F
100
AcDbEntity
  8
0
  6
Continuous
 62
     7
370
    25
100
AcDbCircle
 10
30.35
 20
11.81
 30
0.0
 40
0.9999999999999964
  0
CIRCLE
  5
68
330
1F
100
AcDbEntity
  8
0
  6
Continuous
 62
     7
370
    25
100
AcDbCircle
 10
30.35
 20
14.35
 30
0.0
 40
0.9999999999999982
  0
LINE
  5
69
330
1F
100
AcDbEntity
  8
0
  6
Continuous
 62
     7
370
    25
100
AcDbLine
 10
0.0
 20
0.0
 30
0.0
 11
32.0
 21
0.0
 31
0.0
  0
LINE
  5
6A
330
1F
100
AcDbEntity
  8
0
  6
Continuous
 62
     7
370
    25
100
AcDbLine
 10
32.0
 20
0.0
 30
0.0
 11
32.0
 21
16.0
 31
0.0
  0
LINE
  5
6B
330
1F
100
AcDbEntity
  8
0
  6
Continuous
 62
     7
370
    25
100
AcDbLine
 10
0.0
 20
16.0
 30
0.0
 11
32.0
 21
16.0
 31
0.0
  0
LINE
  5
6C
330
1F
100
AcDbEntity
  8
0
  6
Continuous
 62
     7
370
    25
100
AcDbLine
 10
0.0
 20
0.0
 30
0.0
 11
0.0
 21
16.0
 31
0.0
  0
LINE
  5
6D
330
1F
100
AcDbEntity
  8
0
  6
Continuous
 62
     7
370
    25
100
AcDbLine
 10
24.2195740982
 20
15.4778783406
 30
0.0
 11
27.81
 21
15.4778783406
 31
0.0
  0
LINE
  5
6E
330
1F
100
AcDbEntity
  8
0
  6
Continuous
 62
     7
370
    25
100
AcDbLine
 10
27.81
 20
15.4778783406
 30
0.0
 11
27.81
 21
13.2531359107
 31
0.0
  0
LINE
  5
6F
330
1F
100
AcDbEntity
  8
0
  6
Continuous
 62
     7
370
    25
100
AcDbLine
 10
24.2195740982
 20
13.2531359107
 30
0.0
 11
27.81
 21
13.2531359107
 31
0.0
  0
LINE
  5
70
330
1F
100
AcDbEntity
  8
0
  6
Continuous
 62
     7
370
    25
100
AcDbLine
 10
24.2195740982
 20
15.4778783406
 30
0.0
 11
24.2195740982
 21
13.2531359107
 31
0.0
  0
LINE
  5
71
330
1F
100
AcDbEntity
  8
0
  6
Continuous
 62
     7
370
    25
100
AcDbLine
 10
0.5
 20
14.75
 30
0.0
 11
23.5
 21
14.75
 31
0.0
  0
LINE
  5
72
330
1F
100
AcDbEntity
  8
0
  6
Continuous
 62
     7
370
    25
100
AcDbLine
 10
23.5
 20
14.75
 30
0.0
 11
23.5
 21
1.25
 31
0.0
  0
LINE
  5
73
330
1F
100
AcDbEntity
  8
0
  6
Continuous
 62
     7
370
    25
100
AcDbLine
 10
0.5
 20
1.25
 30
0.0
 11
23.5
 21
1.25
 31
0.0
  0
LINE
  5
74
330
1F
100
AcDbEntity
  8
0
  6
Continuous
 62
     7
370
    25
100
AcDbLine
 10
0.5
 20
14.75
 30
0.0
 11
0.5
 21
1.25
 31
0.0
  0
CIRCLE
  5
75
330
1F
100
AcDbEntity
  8
0
  6
Continuous
 62
     7
370
    25
100
AcDbCircle
 10
30.35
 20
14.35
 30
0.0
 40
0.4999999999999982
  0
CIRCLE
  5
76
330
1F
100
AcDbEntity
  8
0
  6
Continuous
 62
     7
370
    25
100
AcDbCircle
 10
30.35
 20
11.81
 30
0.0
 40
0.4999999999999982
  0
CIRCLE
  5
77
330
1F
100
AcDbEntity
  8
0
  6
Continuous
 62
     7
370
    25
100
AcDbCircle
 10
30.35
 20
9.27
 30
0.0
 40
0.4999999999999982
  0
CIRCLE
  5
78
330
1F
100
AcDbEntity
  8
0
  6
Continuous
 62
     7
370
    25
100
AcDbCircle
 10
30.35
 20
6.73
 30
0.0
 40
0.4999999999999991
  0
CIRCLE
  5
79
330
1F
100
AcDbEntity
  8
0
  6
Continuous
 62
     7
370
    25
100
AcDbCircle
 10
30.35
 20
4.19
 30
0.0
 40
0.4999999999999996
  0
CIRCLE
  5
7A
330
1F
100
AcDbEntity
  8
0
  6
Continuous
 62
     7
370
    25
100
AcDbCircle
 10
30.35
 20
1.65
 30
0.0
 40
0.4999999999999991
  0
LINE
  5
7B
330
1F
100
AcDbEntity
  8
0
  6
Continuous
 62
     7
370
    25
100
AcDbLine
 10
5.7152057501
 20
6.4023969351
 30
0.0
 11
5.7152057501
 21
9.9023969351
 31
0.0
  0
LINE
  5
7C
330
1F
100
AcDbEntity
  8
0
  6
Continuous
 62
     7
370
    25
100
AcDbLine
 10
6.0293083142
 20
6.4023969351
 30
0.0
 11
5.7152057501
 21
6.4023969351
 31
0.0
  0
LINE
  5
7D
330
1F
100
AcDbEntity
  8
0
  6
Continuous
 62
     7
370
    25
100
AcDbLine
 10
6.0293083142
 20
8.1075251402
 30
0.0
 11
6.0293083142
 21
6.4023969351
 31
0.0
  0
LINE
  5
7E
330
1F
100
AcDbEntity
  8
0
  6
Continuous
 62
     7
370
    25
100
AcDbLine
 10
7.8241801091
 20
8.1075251402
 30
0.0
 11
6.0293083142
 21
8.1075251402
 31
0.0
  0
LINE
  5
7F
330
1F
100
AcDbEntity
  8
0
  6
Continuous
 62
     7
370
    25
100
AcDbLine
 10
7.8241801091
 20
6.4023969351
 30
0.0
 11
7.8241801091
 21
8.1075251402
 31
0.0
  0
LINE
  5
80
330
1F
100
AcDbEntity
  8
0
  6
Continuous
 62
     7
370
    25
100
AcDbLine
 10
8.1382826732
 20
6.4023969351
 30
0.0
 11
7.8241801091
 21
6.4023969351
 31
0.0
  0
LINE
  5
81
330
1F
100
AcDbEntity
  8
0
  6
Continuous
 62
     7
370
    25
100
AcDbLine
 10
8.1382826732
 20
9.9023969351
 30
0.0
 11
8.1382826732
 21
6.4023969351
 31
0.0
  0
LINE
  5
82
330
1F
100
AcDbEntity
  8
0
  6
Continuous
 62
     7
370
    25
100
AcDbLine
 10
7.8241801091
 20
9.9023969351
 30
0.0
 11
8.1382826732
 21
9.9023969351
 31
0.0
  0
LINE
  5
83
330
1F
100
AcDbEntity
  8
0
  6
Continuous
 62
     7
370
    25
100
AcDbLine
 10
7.8241801091
 20
8.4664994992
 30
0.0
 11
7.8241801091
 21
9.9023969351
 31
0.0
  0
LINE
  5
84
330
1F
100
AcDbEntity
  8
0
  6
Continuous
 62
     7
370
    25
100
AcDbLine
 10
6.0293083142
 20
8.4664994992
 30
0.0
 11
7.8241801091
 21
8.4664994992
 31
0.0
  0
LINE
  5
85
330
1F
100
AcDbEntity
  8
0
  6
Continuous
 62
     7
370
    25
100
AcDbLine
 10
6.0293083142
 20
9.9023969351
 30
0.0
 11
6.0293083142
 21
8.4664994992
 31
0.0
  0
LINE
  5
86
330
1F
100
AcDbEntity
  8
0
  6
Continuous
 62
     7
370
    25
100
AcDbLine
 10
5.7152057501
 20
9.9023969351
 30
0.0
 11
6.0293083142
 21
9.9023969351
 31
0.0
  0
SPLINE
  5
87
330
1F
100
AcDbEntity
  8
0
  6
Continuous
 62
     7
370
    25
100
AcDbSpline
210
0.0
220
0.0
230
1.0
 70
     8
 71
     3
 72
    23
 73
    19
 74
     0
 42
0.00000001
 43
0.00000001
 40
0.0
 40
0.0
 40
0.0
 40
0.0
 40
0.0685475367089032
 40
0.1356829456230491
 40
0.2012149895263285
 40
0.265682234754696
 40
0.32926683481726
 40
0.3923954278443293
 40
0.4550697616521446
 40
0.517126850064507
 40
0.5787900352866533
 40
0.6397398633435426
 40
0.7001915036663081
 40
0.7598062425966711
 40
0.8196283192750083
 40
0.879354791046277
 40
0.9395116077646621
 40
1.0
 40
1.0
 40
1.0
 40
1.0
 10
10.7394445321896
 20
9.992140524803645
 30
0.0
 10
10.77965900413601
 20
9.991658386612778
 30
0.0
 10
10.85925950143083
 20
9.990704042619178
 30
0.0
 10
10.97701215384319
 20
9.981397900504547
 30
0.0
 10
11.09165448078642
 20
9.965884294277425
 30
0.0
 10
11.20326546282076
 20
9.944768224464312
 30
0.0
 10
11.31238807902368
 20
9.918560902994734
 30
0.0
 10
11.41818831990225
 20
9.88442060467815
 30
0.0
 10
11.52128700676684
 20
9.845384073362546
 30
0.0
 10
11.62103391494328
 20
9.800425607424655
 30
0.0
 10
11.7169504650836
 20
9.749958866017806
 30
0.0
 10
11.80900678359486
 20
9.694543242471505
 30
0.0
 10
11.89647164230252
 20
9.634247436967065
 30
0.0
 10
11.97996049073908
 20
9.569584261557427
 30
0.0
 10
12.05807670181514
 20
9.499185702262016
 30
0.0
 10
12.13303818035034
 20
9.424988106288351
 30
0.0
 10
12.20229925851194
 20
9.344854282131015
 30
0.0
 10
12.24505245350606
 20
9.288449348222077
 30
0.0
 10
12.26648780142037
 20
9.26016937095749
 30
0.0
  0
SPLINE
  5
88
330
1F
100
AcDbEntity
  8
0
  6
Continuous
 62
     7
370
    25
100
AcDbSpline
210
0.0
220
0.0
230
1.0
 70
     8
 71
     3
 72
    23
 73
    19
 74
     0
 42
0.00000001
 43
0.00000001
 40
0.0
 40
0.0
 40
0.0
 40
0.0
 40
0.0645578459297186
 40
0.1270135315497587
 40
0.1879548102020905
 40
0.2480139127896337
 40
0.3077476818488372
 40
0.3682345146974851
 40
0.4294698439426694
 40
0.492743436746585
 40
0.5562577687060831
 40
0.6182167855431435
 40
0.6796554755875552
 40
0.7412455456206296
 40
0.8034152647056969
 40
0.8668154615439921
 40
0.9323283119492651
 40
1.0
 40
1.0
 40
1.0
 40
1.0
 10
8.856231391163957
 20
8.172729467111338
 30
0.0
 10
8.857786584721028
 20
8.235684920652615
 30
0.0
 10
8.86084633095454
 20
8.35954584521475
 30
0.0
 10
8.886842126426286
 20
8.541319798503864
 30
0.0
 10
8.928660922617773
 20
8.715471197357124
 30
0.0
 10
8.98805781121276
 20
8.881674941944995
 30
0.0
 10
9.06336316251815
 20
9.040805222177065
 30
0.0
 10
9.156389776357665
 20
9.191646427023818
 30
0.0
 10
9.266056918579077
 20
9.335163226680345
 30
0.0
 10
9.391504486262697
 20
9.469177977977886
 30
0.0
 10
9.52907182156245
 20
9.591717330600144
 30
0.0
 10
9.676390635451462
 20
9.699523534348476
 30
0.0
 10
9.833172582424096
 20
9.789241050347558
 30
0.0
 10
9.997690434099678
 20
9.864237212773677
 30
0.0
 10
10.1711761156663
 20
9.921881675909518
 30
0.0
 10
10.35325948479174
 20
9.962234862597466
 30
0.0
 10
10.54359839957299
 20
9.987351978887355
 30
0.0
 10
10.67346082522232
 20
9.990527186790183
 30
0.0
 10
10.7394445321896
 20
9.992140524803645
 30
0.0
  0
SPLINE
  5
89
330
1F
100
AcDbEntity
  8
0
  6
Continuous
 62
     7
370
    25
100
AcDbSpline
210
0.0
220
0.0
230
1.0
 70
     8
 71
     3
 72
    15
 73
    11
 74
     0
 42
0.00000001
 43
0.00000001
 40
0.0
 40
0.0
 40
0.0
 40
0.0
 40
0.1243285095938499
 40
0.2471560163611867
 40
0.3687797492913396
 40
0.4907338624016481
 40
0.6136137718478435
 40
0.7389575757222154
 40
0.8673105751912626
 40
1.0
 40
1.0
 40
1.0
 40
1.0
 10
9.300041487317804
 20
6.924732672239542
 30
0.0
 10
9.264605843818003
 20
6.968273861156667
 30
0.0
 10
9.194162366990236
 20
7.054830571564774
 30
0.0
 10
9.104036683439084
 20
7.19511655282322
 30
0.0
 10
9.02688912822981
 20
7.341584761699045
 30
0.0
 10
8.964513207451644
 20
7.495004690477371
 30
0.0
 10
8.915750474297012
 20
7.655032077717835
 30
0.0
 10
8.88196927921727
 20
7.82174759212853
 30
0.0
 10
8.86001767473946
 20
7.994995534330718
 30
0.0
 10
8.85750738595829
 20
8.112832322990611
 30
0.0
 10
8.856231391163957
 20
8.172729467111338
 30
0.0
  0
SPLINE
  5
8A
330
1F
100
AcDbEntity
  8
0
  6
Continuous
 62
     7
370
    25
100
AcDbSpline
210
0.0
220
0.0
230
1.0
 70
     8
 71
     3
 72
    23
 73
    19
 74
     0
 42
0.00000001
 43
0.00000001
 40
0.0
 40
0.0
 40
0.0
 40
0.0
 40
0.0696628008990767
 40
0.1377495622582732
 40
0.2039167435177825
 40
0.2687798623293365
 40
0.3324137064772243
 40
0.3947535404471389
 40
0.4561800316591686
 40
0.5169956491967199
 40
0.5773959379659516
 40
0.6371983435092754
 40
0.6969991842614551
 40
0.7567561942255602
 40
0.8165539052726073
 40
0.8769479965978707
 40
0.9381317879205954
 40
1.0
 40
1.0
 40
1.0
 40
1.0
 10
10.74365126295883
 20
6.312653345316465
 30
0.0
 10
10.70600759590113
 20
6.312915337872256
 30
0.0
 10
10.63157190580439
 20
6.313433395708133
 30
0.0
 10
10.52167315419226
 20
6.32182556311909
 30
0.0
 10
10.41468357339061
 20
6.333275300029081
 30
0.0
 10
10.31090894752391
 20
6.350515431093051
 30
0.0
 10
10.20978297247745
 20
6.370859771146938
 30
0.0
 10
10.11222238798662
 20
6.398131027772161
 30
0.0
 10
10.01726717762816
 20
6.428680194368301
 30
0.0
 10
9.925298836932033
 20
6.46458518111303
 30
0.0
 10
9.836239137135442
 20
6.505101363650414
 30
0.0
 10
9.750375325767527
 20
6.550892922551526
 30
0.0
 10
9.667746893368536
 20
6.601574787212813
 30
0.0
 10
9.587541472513276
 20
6.65602979763645
 30
0.0
 10
9.510943888838257
 20
6.716007099506902
 30
0.0
 10
9.437290363490852
 20
6.780673734010538
 30
0.0
 10
9.366167887258241
 20
6.849811744761893
 30
0.0
 10
9.322165202266488
 20
6.899666598104258
 30
0.0
 10
9.300041487317804
 20
6.924732672239542
 30
0.0
  0
SPLINE
  5
8B
330
1F
100
AcDbEntity
  8
0
  6
Continuous
 62
     7
370
    25
100
AcDbSpline
210
0.0
220
0.0
230
1.0
 70
     8
 71
     3
 72
    23
 73
    19
 74
     0
 42
0.00000001
 43
0.00000001
 40
0.0
 40
0.0
 40
0.0
 40
0.0
 40
0.0616742388774254
 40
0.1230530616348057
 40
0.1834750007317013
 40
0.2437265005106111
 40
0.3042789165122529
 40
0.3648629209606828
 40
0.4259462039686195
 40
0.4873912299654075
 40
0.5492203840754769
 40
0.611143588692603
 40
0.6735285303101517
 40
0.7369614566573043
 40
0.8007852828728405
 40
0.8660125956416145
 40
0.9321007477905784
 40
1.0
 40
1.0
 40
1.0
 40
1.0
 10
12.26648780142037
 20
7.046727864547234
 30
0.0
 10
12.24436969153925
 20
7.018189412623921
 30
0.0
 10
12.20023941627382
 20
6.961249206349777
 30
0.0
 10
12.12878139928745
 20
6.880977496625721
 30
0.0
 10
12.05350410189174
 20
6.805473461126589
 30
0.0
 10
11.97384839188486
 20
6.735345839899107
 30
0.0
 10
11.89073060029517
 20
6.669191374294261
 30
0.0
 10
11.80265828795051
 20
6.608889543018566
 30
0.0
 10
11.71078925544525
 20
6.553598658736194
 30
0.0
 10
11.61543477653963
 20
6.502971734224102
 30
0.0
 10
11.51669616373999
 20
6.458054487199623
 30
0.0
 10
11.414691728798
 20
6.419600719407607
 30
0.0
 10
11.309861153294
 20
6.386475829875079
 30
0.0
 10
11.20219964488193
 20
6.359223893151195
 30
0.0
 10
11.09148388805501
 20
6.337952809277735
 30
0.0
 10
10.97811341396181
 20
6.323733134432982
 30
0.0
 10
10.86184353874278
 20
6.313991219998139
 30
0.0
 10
10.78340211761704
 20
6.313103304179423
 30
0.0
 10
10.74365126295883
 20
6.312653345316465
 30
0.0
  0
LINE
  5
8C
330
1F
100
AcDbEntity
  8
0
  6
Continuous
 62
     7
370
    25
100
AcDbLine
 10
11.9916480578
 20
7.2549610376
 30
0.0
 11
12.2664878014
 21
7.0467278645
 31
0.0
  0
SPLINE
  5
8D
330
1F
100
AcDbEntity
  8
0
  6
Continuous
 62
     7
370
    25
100
AcDbSpline
210
0.0
220
0.0
230
1.0
 70
     8
 71
     3
 72
    15
 73
    11
 74
     0
 42
0.00000001
 43
0.00000001
 40
0.0
 40
0.0
 40
0.0
 40
0.0
 40
0.1285151895116617
 40
0.2529486363526577
 40
0.3747547340060057
 40
0.4959397538670511
 40
0.6171806414298932
 40
0.7409094692781378
 40
0.8678111481862026
 40
1.0
 40
1.0
 40
1.0
 40
1.0
 10
10.74154789757421
 20
6.671627704290824
 30
0.0
 10
10.8026505865678
 20
6.673316484041732
 30
0.0
 10
10.92291529548772
 20
6.676640406581277
 30
0.0
 10
11.09928332182902
 20
6.704799655704141
 30
0.0
 10
11.2681190874578
 20
6.750457573539166
 30
0.0
 10
11.42943167399922
 20
6.814355495858345
 30
0.0
 10
11.58276632020406
 20
6.89742078376108
 30
0.0
 10
11.72836298051308
 20
6.998118661168491
 30
0.0
 10
11.86634455101702
 20
7.11740699392911
 30
0.0
 10
11.94931583325341
 20
7.208490122186296
 30
0.0
 10
11.99164805783063
 20
7.254961037624157
 30
0.0
  0
SPLINE
  5
8E
330
1F
100
AcDbEntity
  8
0
  6
Continuous
 62
     7
370
    25
100
AcDbSpline
210
0.0
220
0.0
230
1.0
 70
     8
 71
     3
 72
    23
 73
    19
 74
     0
 42
0.00000001
 43
0.00000001
 40
0.0
 40
0.0
 40
0.0
 40
0.0
 40
0.0643232165798416
 40
0.1262901037035556
 40
0.1867264692161326
 40
0.2461464323353447
 40
0.3055756426461383
 40
0.3654293856180518
 40
0.4263263089482602
 40
0.4888399064006413
 40
0.5517249718140476
 40
0.6139185964661585
 40
0.6754837657683961
 40
0.7373338970992858
 40
0.8002290443945265
 40
0.8645022981233229
 40
0.9310407391556977
 40
1.0
 40
1.0
 40
1.0
 40
1.0
 10
9.170333955266521
 20
8.148891326085694
 30
0.0
 10
9.171595774290427
 20
8.09716000616298
 30
0.0
 10
9.174073188571885
 20
7.995592421313546
 30
0.0
 10
9.19612152265233
 20
7.846821810772302
 30
0.0
 10
9.229626613940981
 20
7.704301136992032
 30
0.0
 10
9.27984219087668
 20
7.568921294681108
 30
0.0
 10
9.341761241437162
 20
7.439012936623104
 30
0.0
 10
9.420001852942487
 20
7.316774083216684
 30
0.0
 10
9.510618390306686
 20
7.200357518705138
 30
0.0
 10
9.614892809767799
 20
7.092514570956695
 30
0.0
 10
9.72929862575704
 20
6.994000845658603
 30
0.0
 10
9.852046537350958
 20
6.907250264147282
 30
0.0
 10
9.982830825135053
 20
6.834935381680904
 30
0.0
 10
10.12020745532166
 20
6.774759435164588
 30
0.0
 10
10.26523356924026
 20
6.728502707509036
 30
0.0
 10
10.41764837165414
 20
6.69593858400578
 30
0.0
 10
10.57712036690421
 20
6.674696403464159
 30
0.0
 10
10.68608976679424
 20
6.672662715395022
 30
0.0
 10
10.74154789757421
 20
6.671627704290824
 30
0.0
  0
SPLINE
  5
8F
330
1F
100
AcDbEntity
  8
0
  6
Continuous
 62
     7
370
    25
100
AcDbSpline
210
0.0
220
0.0
230
1.0
 70
     8
 71
     3
 72
    31
 73
    27
 74
     0
 42
0.00000001
 43
0.00000001
 40
0.0
 40
0.0
 40
0.0
 40
0.0
 40
0.0439549089061942
 40
0.0875018747976045
 40
0.1304626267314899
 40
0.1727520205665168
 40
0.2154030673796027
 40
0.2576498297432394
 40
0.3001527489572937
 40
0.3431214895020865
 40
0.3859251632064332
 40
0.4276857274028019
 40
0.4688179504865895
 40
0.5094918001549956
 40
0.5498830310733488
 40
0.589980022966886
 40
0.6304052300068395
 40
0.670868626082638
 40
0.7113839438381757
 40
0.7516272580635838
 40
0.7917755768651907
 40
0.8324589188037422
 40
0.8733190450172877
 40
0.9145429556263488
 40
0.9569235582098846
 40
1.0
 40
1.0
 40
1.0
 40
1.0
 10
10.71981312193319
 20
9.633166165829286
 30
0.0
 10
10.68472982259278
 20
9.632762203319444
 30
0.0
 10
10.61488883002189
 20
9.631958027452892
 30
0.0
 10
10.5112403565214
 20
9.621348902247966
 30
0.0
 10
10.40952730539003
 20
9.606437692203398
 30
0.0
 10
10.3098158391714
 20
9.584312368979946
 30
0.0
 10
10.21223288063214
 20
9.556339749902445
 30
0.0
 10
10.11614047856651
 20
9.522914335978747
 30
0.0
 10
10.02292987876941
 20
9.48155949611881
 30
0.0
 10
9.931311640555178
 20
9.435851236161904
 30
0.0
 10
9.843532429559865
 20
9.384223791418592
 30
0.0
 10
9.760477381782538
 20
9.327910439537067
 30
0.0
 10
9.682449413861361
 20
9.26754134309729
 30
0.0
 10
9.60938680172817
 20
9.20289023671949
 30
0.0
 10
9.541214853392693
 20
9.134248276243952
 30
0.0
 10
9.478427542587484
 20
9.06088393465487
 30
0.0
 10
9.421242132322114
 20
8.98303176113762
 30
0.0
 10
9.368525107258701
 20
8.901718353579268
 30
0.0
 10
9.321312373903963
 20
8.817180561944383
 30
0.0
 10
9.281782494513063
 20
8.729105491505877
 30
0.0
 10
9.246777372307442
 20
8.639001388474812
 30
0.0
 10
9.219078129661405
 20
8.545850227646108
 30
0.0
 10
9.197153612830046
 20
8.450307461802865
 30
0.0
 10
9.182025949556582
 20
8.352116673852892
 30
0.0
 10
9.171537478362273
 20
8.251482994255639
 30
0.0
 10
9.170737301461545
 20
8.183273681641218
 30
0.0
 10
9.170333955266521
 20
8.148891326085694
 30
0.0
  0
SPLINE
  5
90
330
1F
100
AcDbEntity
  8
0
  6
Continuous
 62
     7
370
    25
100
AcDbSpline
210
0.0
220
0.0
230
1.0
 70
     8
 71
     3
 72
    19
 73
    15
 74
     0
 42
0.00000001
 43
0.00000001
 40
0.0
 40
0.0
 40
0.0
 40
0.0
 40
0.0631632593634709
 40
0.1254749410306403
 40
0.1871212198160326
 40
0.248294346114298
 40
0.3092948562551205
 40
0.3698500660670924
 40
0.4309733755473815
 40
0.4924559896728168
 40
0.6161479662918539
 40
0.7408436984673612
 40
0.8681826486700419
 40
1.0
 40
1.0
 40
1.0
 40
1.0
 10
11.99164805783063
 20
9.049832832495953
 30
0.0
 10
11.97204216947442
 20
9.073198802327086
 30
0.0
 10
11.93309472264949
 20
9.11961571805041
 30
0.0
 10
11.8704355201256
 20
9.184795262525299
 30
0.0
 10
11.80513387722944
 20
9.245860523948005
 30
0.0
 10
11.73721475601344
 20
9.303102403576924
 30
0.0
 10
11.6654556365265
 20
9.354519169311674
 30
0.0
 10
11.59159483786058
 20
9.402790272254602
 30
0.0
 10
11.51439679265399
 20
9.446058010197126
 30
0.0
 10
11.40764505800856
 20
9.49852099631307
 30
0.0
 10
11.2679972097282
 20
9.553267151325288
 30
0.0
 10
11.09220237065507
 20
9.599170382625488
 30
0.0
 10
10.90869127217037
 20
9.628391558309797
 30
0.0
 10
10.78349367254338
 20
9.631556399768963
 30
0.0
 10
10.71981312193319
 20
9.633166165829286
 30
0.0
  0
LINE
  5
91
330
1F
100
AcDbEntity
  8
0
  6
Continuous
 62
     7
370
    25
100
AcDbLine
 10
12.2664878014
 20
9.260169371
 30
0.0
 11
11.9916480578
 21
9.0498328325
 31
0.0
  0
LINE
  5
92
330
1F
100
AcDbEntity
  8
0
  6
Continuous
 62
     7
370
    25
100
AcDbLine
 10
16.1254621604
 20
9.9023969351
 30
0.0
 11
17.5613595963
 21
9.9023969351
 31
0.0
  0
LINE
  5
93
330
1F
100
AcDbEntity
  8
0
  6
Continuous
 62
     7
370
    25
100
AcDbLine
 10
15.7664878014
 20
8.1523969351
 30
0.0
 11
16.1254621604
 21
9.9023969351
 31
0.0
  0
SPLINE
  5
94
330
1F
100
AcDbEntity
  8
0
  6
Continuous
 62
     7
370
    25
100
AcDbSpline
210
0.0
220
0.0
230
1.0
 70
     8
 71
     3
 72
    15
 73
    11
 74
     0
 42
0.00000001
 43
0.00000001
 40
0.0
 40
0.0
 40
0.0
 40
0.0
 40
0.1022030370352155
 40
0.2110233423738743
 40
0.325099661565208
 40
0.4465020971348892
 40
0.5737877176488535
 40
0.7089007097660686
 40
0.8503578712934031
 40
1.0
 40
1.0
 40
1.0
 40
1.0
 10
16.53772177577934
 20
8.331884114547234
 30
0.0
 10
16.51059284697292
 20
8.331303523389654
 30
0.0
 10
16.45457849164822
 20
8.33010474994632
 30
0.0
 10
16.36865566491895
 20
8.32127825311999
 30
0.0
 10
16.27836394194223
 20
8.307038958691855
 30
0.0
 10
16.18404944638603
 20
8.287452711222668
 30
0.0
 10
16.08542893828302
 20
8.26182163446404
 30
0.0
 10
15.98271053755575
 20
8.231107133838481
 30
0.0
 10
15.87567827095645
 20
8.194385135124882
 30
0.0
 10
15.80356054655771
 20
8.166652921378205
 30
0.0
 10
15.76648780142037
 20
8.152396935060054
 30
0.0
  0
SPLINE
  5
95
330
1F
100
AcDbEntity
  8
0
  6
Continuous
 62
     7
370
    25
100
AcDbSpline
210
0.0
220
0.0
230
1.0
 70
     8
 71
     3
 72
    23
 73
    19
 74
     0
 42
0.00000001
 43
0.00000001
 40
0.0
 40
0.0
 40
0.0
 40
0.0
 40
0.0653513820265936
 40
0.1279160318306128
 40
0.1883602055717001
 40
0.2472160772654519
 40
0.3056301291974103
 40
0.3637698398318191
 40
0.4226609139127803
 40
0.4826872940903907
 40
0.5433002212395596
 40
0.604117955323104
 40
0.6649648912652856
 40
0.7274134941125653
 40
0.7914676251494215
 40
0.8580554427290996
 40
0.9270368146149481
 40
1.0
 40
1.0
 40
1.0
 40
1.0
 10
17.38187241680498
 20
7.559247896598516
 30
0.0
 10
17.38121393734354
 20
7.587323648219714
 30
0.0
 10
17.37992505748914
 20
7.642277937274902
 30
0.0
 10
17.36939448718618
 20
7.722677143716145
 30
0.0
 10
17.35107751483248
 20
7.798750186017741
 30
0.0
 10
17.32565363488552
 20
7.870864419989703
 30
0.0
 10
17.29337412715192
 20
7.939087862337741
 30
0.0
 10
17.25392781483309
 20
8.003490922537933
 30
0.0
 10
17.2065744168896
 20
8.06322475576142
 30
0.0
 10
17.15248252830093
 20
8.118317309370923
 30
0.0
 10
17.09322448735784
 20
8.169162184244028
 30
0.0
 10
17.02778074476072
 20
8.212506270695975
 30
0.0
 10
16.95752081796557
 20
8.248970188347808
 30
0.0
 10
16.88329121849672
 20
8.28043818669057
 30
0.0
 10
16.80332631990931
 20
8.303038932089908
 30
0.0
 10
16.71920968752991
 20
8.32000681753201
 30
0.0
 10
16.63003297958296
 20
8.329822180210277
 30
0.0
 10
16.569062291449
 20
8.33118406858602
 30
0.0
 10
16.53772177577934
 20
8.331884114547234
 30
0.0
  0
SPLINE
  5
96
330
1F
100
AcDbEntity
  8
0
  6
Continuous
 62
     7
370
    25
100
AcDbSpline
210
0.0
220
0.0
230
1.0
 70
     8
 71
     3
 72
    23
 73
    19
 74
     0
 42
0.00000001
 43
0.00000001
 40
0.0
 40
0.0
 40
0.0
 40
0.0
 40
0.0642072952829862
 40
0.1264246897797443
 40
0.1876802842649234
 40
0.2482164244552142
 40
0.308305060008613
 40
0.3696609913251444
 40
0.4316985517867815
 40
0.4959468922087651
 40
0.5597580239721203
 40
0.6222954078261582
 40
0.6839106352841731
 40
0.7450924080566247
 40
0.8067402253892924
 40
0.8690866181212021
 40
0.9332900029747989
 40
0.9999999999999999
 40
0.9999999999999999
 40
0.9999999999999999
 40
0.9999999999999999
 10
16.49355110270242
 20
6.671627704290824
 30
0.0
 10
16.5235095471197
 20
6.672448482195928
 30
0.0
 10
16.58249796930828
 20
6.674064600606981
 30
0.0
 10
16.66930935600129
 20
6.686503612696836
 30
0.0
 10
16.75312223020343
 20
6.705661184004454
 30
0.0
 10
16.83310958696239
 20
6.734331038988221
 30
0.0
 10
16.91067112655143
 20
6.769175757414035
 30
0.0
 10
16.98384489697453
 20
6.813890833229913
 30
0.0
 10
17.0547477741152
 20
6.865350851674923
 30
0.0
 10
17.12117590763625
 20
6.924307481718304
 30
0.0
 10
17.18201535689581
 20
6.98927717633756
 30
0.0
 10
17.23577147802972
 20
7.05875456976247
 30
0.0
 10
17.28054839145587
 20
7.132871416305345
 30
0.0
 10
17.31828250032557
 20
7.210344569156265
 30
0.0
 10
17.34693579914819
 20
7.292023126334712
 30
0.0
 10
17.367376780371
 20
7.377524301507132
 30
0.0
 10
17.37937983918949
 20
7.46705928171356
 30
0.0
 10
17.38103101916147
 20
7.52812859148978
 30
0.0
 10
17.38187241680498
 20
7.559247896598516
 30
0.0
  0
SPLINE
  5
97
330
1F
100
AcDbEntity
  8
0
  6
Continuous
 62
     7
370
    25
100
AcDbSpline
210
0.0
220
0.0
230
1.0
 70
     8
 71
     3
 72
    19
 73
    15
 74
     0
 42
0.00000001
 43
0.00000001
 40
0.0
 40
0.0
 40
0.0
 40
0.0
 40
0.0946872518675543
 40
0.1819941557072737
 40
0.2643769486105124
 40
0.342179861947772
 40
0.4186176108621475
 40
0.4965090753719087
 40
0.577369091611731
 40
0.6615105924542
 40
0.7467325508291978
 40
0.8312579843277417
 40
0.9152056162136545
 40
1.0
 40
1.0
 40
1.0
 40
1.0
 10
15.72161600654857
 20
7.299832832495952
 30
0.0
 10
15.72934456393874
 20
7.266456380047299
 30
0.0
 10
15.74419928037962
 20
7.202304985175339
 30
0.0
 10
15.77680502913158
 20
7.112173643842264
 30
0.0
 10
15.81667090460431
 20
7.031854420166256
 30
0.0
 10
15.86407525302159
 20
6.96028483689271
 30
0.0
 10
15.92062528350781
 20
6.897875839620399
 30
0.0
 10
15.98515471244846
 20
6.842258777682634
 30
0.0
 10
16.05750243564767
 20
6.792083648355094
 30
0.0
 10
16.13789566516758
 20
6.750260881157788
 30
0.0
 10
16.22270874448795
 20
6.71459212775776
 30
0.0
 10
16.31147595449753
 20
6.690840432806089
 30
0.0
 10
16.40178030096862
 20
6.674139539963276
 30
0.0
 10
16.46285867116512
 20
6.672467779161623
 30
0.0
 10
16.49355110270242
 20
6.671627704290824
 30
0.0
  0
LINE
  5
98
330
1F
100
AcDbEntity
  8
0
  6
Continuous
 62
     7
370
    25
100
AcDbLine
 10
15.4075134424
 20
7.2998328325
 30
0.0
 11
15.7216160065
 21
7.2998328325
 31
0.0
  0
SPLINE
  5
99
330
1F
100
AcDbEntity
  8
0
  6
Continuous
 62
     7
370
    25
100
AcDbSpline
210
0.0
220
0.0
230
1.0
 70
     8
 71
     3
 72
    23
 73
    19
 74
     0
 42
0.00000001
 43
0.00000001
 40
0.0
 40
0.0
 40
0.0
 40
0.0
 40
0.0654211437588924
 40
0.1287083718818832
 40
0.1902361418635382
 40
0.2507244020335386
 40
0.3106371794134424
 40
0.3707664082897268
 40
0.4316147444123529
 40
0.4935229735663549
 40
0.5558834553775344
 40
0.6173423673185087
 40
0.6786680390972754
 40
0.7407113595451477
 40
0.8029853625127444
 40
0.8668025802655178
 40
0.9323471713458875
 40
1.0
 40
1.0
 40
1.0
 40
1.0
 10
16.47532193603575
 20
6.312653345316465
 30
0.0
 10
16.44044775533354
 20
6.313344183300627
 30
0.0
 10
16.37183692462966
 20
6.314703325422983
 30
0.0
 10
16.27131635755809
 20
6.328921810677061
 30
0.0
 10
16.17460175186463
 20
6.349285727069601
 30
0.0
 10
16.08247165070721
 20
6.379921996917955
 30
0.0
 10
15.99410038700198
 20
6.418309291608176
 30
0.0
 10
15.91067766921312
 20
6.466825463103599
 30
0.0
 10
15.83007189316525
 20
6.521804566850645
 30
0.0
 10
15.75555985641575
 20
6.586684919815432
 30
0.0
 10
15.6864037429461
 20
6.657600601847943
 30
0.0
 10
15.62449723407576
 20
6.734558243013685
 30
0.0
 10
15.5693636573391
 20
6.816287685099782
 30
0.0
 10
15.52188591035027
 20
6.903185839175507
 30
0.0
 10
15.48138788903387
 20
6.995024370113138
 30
0.0
 10
15.44957290075716
 20
7.092147371005081
 30
0.0
 10
15.42389454581405
 20
7.194047374944482
 30
0.0
 10
15.41303112533769
 20
7.264200885355014
 30
0.0
 10
15.40751344244601
 20
7.299832832495952
 30
0.0
  0
SPLINE
  5
9A
330
1F
100
AcDbEntity
  8
0
  6
Continuous
 62
     7
370
    25
100
AcDbSpline
210
0.0
220
0.0
230
1.0
 70
     8
 71
     3
 72
    31
 73
    27
 74
     0
 42
0.00000001
 43
0.00000001
 40
0.0
 40
0.0
 40
0.0
 40
0.0
 40
0.0440144705761401
 40
0.0874341236677057
 40
0.1301183986578983
 40
0.1725536945581824
 40
0.2145547559681392
 40
0.2562980920971309
 40
0.2984382251332501
 40
0.3408490025880954
 40
0.382715188967027
 40
0.4239240454075319
 40
0.4642462432504176
 40
0.5040736714617967
 40
0.5438619058684909
 40
0.5835667249796546
 40
0.6230943188523339
 40
0.6632290607685838
 40
0.7035512586114693
 40
0.7439378946861849
 40
0.7845412548000936
 40
0.8257501112405973
 40
0.8677573633885066
 40
0.9107451640323095
 40
0.9549144468914789
 40
0.9999999999999999
 40
0.9999999999999999
 40
0.9999999999999999
 40
0.9999999999999999
 10
17.69597498090755
 20
7.545926582495952
 30
0.0
 10
17.69530990563418
 20
7.517404362143992
 30
0.0
 10
17.69398874300427
 20
7.460745374568148
 30
0.0
 10
17.68727015535649
 20
7.376601173882851
 30
0.0
 10
17.6743344392923
 20
7.294238340800508
 30
0.0
 10
17.65696671518826
 20
7.213645948961799
 30
0.0
 10
17.63442429722275
 20
7.13497657678268
 30
0.0
 10
17.60713524332043
 20
7.058005048855907
 30
0.0
 10
17.57373921581057
 20
6.983210442112748
 30
0.0
 10
17.53710784055164
 20
6.909885047088969
 30
0.0
 10
17.49586136251633
 20
6.839686539894252
 30
0.0
 10
17.45008285517736
 20
6.774037553351565
 30
0.0
 10
17.40171736395504
 20
6.711953271871621
 30
0.0
 10
17.34967597849676
 20
6.654099538862438
 30
0.0
 10
17.29347498338417
 20
6.600856520969434
 30
0.0
 10
17.23379501652246
 20
6.55190823946351
 30
0.0
 10
17.17111229749333
 20
6.506426909160415
 30
0.0
 10
17.10445705517238
 20
6.466258713984907
 30
0.0
 10
17.03531457220881
 20
6.429295757832113
 30
0.0
 10
16.96268635506832
 20
6.398972220496773
 30
0.0
 10
16.88822565461083
 20
6.371861692411827
 30
0.0
 10
16.81086077901598
 20
6.350252164800227
 30
0.0
 10
16.73076696640022
 20
6.333319610280902
 30
0.0
 10
16.64781219091814
 20
6.321819009678431
 30
0.0
 10
16.56243152089438
 20
6.313442572208196
 30
0.0
 10
16.50455650831451
 20
6.312918215257564
 30
0.0
 10
16.47532193603575
 20
6.312653345316465
 30
0.0
  0
SPLINE
  5
9B
330
1F
100
AcDbEntity
  8
0
  6
Continuous
 62
     7
370
    25
100
AcDbSpline
210
0.0
220
0.0
230
1.0
 70
     8
 71
     3
 72
    23
 73
    19
 74
     0
 42
0.00000001
 43
0.00000001
 40
0.0
 40
0.0
 40
0.0
 40
0.0
 40
0.0658076458106965
 40
0.1293942736680558
 40
0.1908940606321901
 40
0.2512810689298359
 40
0.3108149644652743
 40
0.3703709874482466
 40
0.430768262589726
 40
0.4928812506175031
 40
0.5551039481552505
 40
0.6160670509938436
 40
0.6772560331746545
 40
0.7382598051991172
 40
0.8007621343762962
 40
0.864777581574485
 40
0.9310452949994038
 40
1.0
 40
1.0
 40
1.0
 40
1.0
 10
16.59451264116396
 20
8.690858473521592
 30
0.0
 10
16.63359638087616
 20
8.69001253782695
 30
0.0
 10
16.71044477820129
 20
8.688349216894723
 30
0.0
 10
16.82288372519492
 20
8.67237736745042
 30
0.0
 10
16.93021661841304
 20
8.647237452820166
 30
0.0
 10
17.03221898858938
 20
8.612116931083474
 30
0.0
 10
17.12907953922667
 20
8.567207197889136
 30
0.0
 10
17.21990710070719
 20
8.511107257531323
 30
0.0
 10
17.30606501369401
 20
8.445573926381673
 30
0.0
 10
17.38600760764819
 20
8.370228914422059
 30
0.0
 10
17.4585319158136
 20
8.287307297669884
 30
0.0
 10
17.5222979054806
 20
8.19814942662641
 30
0.0
 10
17.57646049578486
 20
8.103621764491827
 30
0.0
 10
17.62002125066129
 20
8.002821155753614
 30
0.0
 10
17.65480558493723
 20
7.89686200234324
 30
0.0
 10
17.67795757978103
 20
7.784629419790995
 30
0.0
 10
17.69337428874233
 20
7.667181299777615
 30
0.0
 10
17.69509667506191
 20
7.58687672970044
 30
0.0
 10
17.69597498090755
 20
7.545926582495952
 30
0.0
  0
SPLINE
  5
9C
330
1F
100
AcDbEntity
  8
0
  6
Continuous
 62
     7
370
    25
100
AcDbSpline
210
0.0
220
0.0
230
1.0
 70
     8
 71
     3
 72
    11
 73
     7
 74
     0
 42
0.00000001
 43
0.00000001
 40
0.0
 40
0.0
 40
0.0
 40
0.0
 40
0.2750683690187395
 40
0.5329014600899329
 40
0.7739734595924455
 40
1.0
 40
1.0
 40
1.0
 40
1.0
 10
16.18225302577935
 20
8.62284965941903
 30
0.0
 10
16.21930890015301
 20
8.633079931229288
 30
0.0
 10
16.29109879598538
 20
8.652899464839246
 30
0.0
 10
16.39705865694911
 20
8.674905235268742
 30
0.0
 10
16.4976508604201
 20
8.68817067932622
 30
0.0
 10
16.56292623083061
 20
8.689981989838403
 30
0.0
 10
16.59451264116396
 20
8.690858473521592
 30
0.0
  0
LINE
  5
9D
330
1F
100
AcDbEntity
  8
0
  6
Continuous
 62
     7
370
    25
100
AcDbLine
 10
16.3708547886
 20
9.5434225761
 30
0.0
 11
16.1822530258
 21
8.6228496594
 31
0.0
  0
LINE
  5
9E
330
1F
100
AcDbEntity
  8
0
  6
Continuous
 62
     7
370
    25
100
AcDbLine
 10
17.5613595963
 20
9.5434225761
 30
0.0
 11
16.3708547886
 21
9.5434225761
 31
0.0
  0
LINE
  5
9F
330
1F
100
AcDbEntity
  8
0
  6
Continuous
 62
     7
370
    25
100
AcDbLine
 10
17.5613595963
 20
9.9023969351
 30
0.0
 11
17.5613595963
 21
9.5434225761
 31
0.0
  0
SPLINE
  5
A0
330
1F
100
AcDbEntity
  8
0
  6
Continuous
 62
     7
370
    25
100
AcDbSpline
210
0.0
220
0.0
230
1.0
 70
     8
 71
     3
 72
    31
 73
    27
 74
     0
 42
0.00000001
 43
0.00000001
 40
0.0
 40
0.0
 40
0.0
 40
0.0
 40
0.0337871463469909
 40
0.0666216577242938
 40
0.0992848780959717
 40
0.1313611650426507
 40
0.1635851875953427
 40
0.1961039269870679
 40
0.2289022543238165
 40
0.2621580559050073
 40
0.2959912222583159
 40
0.3302178457247996
 40
0.3650598258919537
 40
0.4009507373401073
 40
0.4376203820767375
 40
0.4757075294370918
 40
0.515380691625048
 40
0.5564135414931642
 40
0.599764829872731
 40
0.6464241555840872
 40
0.6964314445175664
 40
0.7497815178015573
 40
0.8065733069755322
 40
0.8674355315653995
 40
0.931886753250874
 40
1.0
 40
1.0
 40
1.0
 40
1.0
 10
13.84050623090755
 20
6.312653345316465
 30
0.0
 10
13.81290211692229
 20
6.313119700775275
 30
0.0
 10
13.75847219215678
 20
6.314039262712693
 30
0.0
 10
13.67781976671733
 20
6.323552994200879
 30
0.0
 10
13.59953732327738
 20
6.338848497413234
 30
0.0
 10
13.52323856923978
 20
6.360265101504318
 30
0.0
 10
13.44853205415609
 20
6.386479937819757
 30
0.0
 10
13.3764357675003
 20
6.420633621422739
 30
0.0
 10
13.30614808380962
 20
6.459967690378704
 30
0.0
 10
13.23785652779154
 20
6.504763111816988
 30
0.0
 10
13.17284436675171
 20
6.55608479494538
 30
0.0
 10
13.11074576143787
 20
6.612849083631867
 30
0.0
 10
13.0531207423409
 20
6.676472494929287
 30
0.0
 10
12.99948664672358
 20
6.745950418037003
 30
0.0
 10
12.94851255852783
 20
6.820643660369753
 30
0.0
 10
12.90162318520858
 20
6.901572033415175
 30
0.0
 10
12.85825233114053
 20
6.988414643904784
 30
0.0
 10
12.818608840472
 20
7.081732554579878
 30
0.0
 10
12.78346017695708
 20
7.182887482439667
 30
0.0
 10
12.75241246884367
 20
7.293036660942158
 30
0.0
 10
12.7278983113736
 20
7.413152297056199
 30
0.0
 10
12.70691535604072
 20
7.542269664161581
 30
0.0
 10
12.68999097299722
 20
7.68094359454743
 30
0.0
 10
12.67843664767886
 20
7.829249372734324
 30
0.0
 10
12.67129533264309
 20
7.987094581660465
 30
0.0
 10
12.67066026222297
 20
8.095364355977075
 30
0.0
 10
12.67033395526652
 20
8.150994691470311
 30
0.0
  0
SPLINE
  5
A1
330
1F
100
AcDbEntity
  8
0
  6
Continuous
 62
     7
370
    25
100
AcDbSpline
210
0.0
220
0.0
230
1.0
 70
     8
 71
     3
 72
    31
 73
    27
 74
     0
 42
0.00000001
 43
0.00000001
 40
0.0
 40
0.0
 40
0.0
 40
0.0
 40
0.0650632896172792
 40
0.1267731664665228
 40
0.1855157632260789
 40
0.2407646791677152
 40
0.2929797960235983
 40
0.3422503727797673
 40
0.3889192861856603
 40
0.4327756640583103
 40
0.4746284326311177
 40
0.5147746906379537
 40
0.5536058934984424
 40
0.591426406431173
 40
0.6280281199460672
 40
0.6638036341103204
 40
0.6989843361316636
 40
0.7335914893067053
 40
0.7676284691511396
 40
0.801208347786592
 40
0.8342638397266233
 40
0.8669806947287764
 40
0.8997197415181601
 40
0.9327019124985381
 40
0.9661758834327492
 40
1.0
 40
1.0
 40
1.0
 40
1.0
 10
15.04853908347165
 20
8.150994691470311
 30
0.0
 10
15.04788749892773
 20
8.097470783529406
 30
0.0
 10
15.04661791301623
 20
7.993181631670581
 30
0.0
 10
15.04003920624851
 20
7.840650656350789
 30
0.0
 10
15.02708057506979
 20
7.696652613052232
 30
0.0
 10
15.010870586761
 20
7.560842150593511
 30
0.0
 10
14.98841962378759
 20
7.433784531760555
 30
0.0
 10
14.9608144575363
 20
7.315040083292645
 30
0.0
 10
14.93016413471454
 20
7.204096011627216
 30
0.0
 10
14.89232934060473
 20
7.101861200017262
 30
0.0
 10
14.8509186302575
 20
7.006909477152469
 30
0.0
 10
14.80586343408212
 20
6.918242328822773
 30
0.0
 10
14.75759360799645
 20
6.835076036143136
 30
0.0
 10
14.70500486299342
 20
6.758076289211974
 30
0.0
 10
14.64895144979699
 20
6.686697632139107
 30
0.0
 10
14.588233661004
 20
6.622200009487573
 30
0.0
 10
14.52456307590201
 20
6.563029337524427
 30
0.0
 10
14.45715066006807
 20
6.510377710062274
 30
0.0
 10
14.38673910883591
 20
6.464292905425912
 30
0.0
 10
14.31478003191102
 20
6.423079055038092
 30
0.0
 10
14.23999664856374
 20
6.389846359988243
 30
0.0
 10
14.16408369583423
 20
6.361311319010489
 30
0.0
 10
14.08595532971927
 20
6.339510867124347
 30
0.0
 10
14.00570893902983
 20
6.324437011603742
 30
0.0
 10
13.92375270310114
 20
6.313865163148972
 30
0.0
 10
13.86835113801989
 20
6.313058683273669
 30
0.0
 10
13.84050623090755
 20
6.312653345316465
 30
0.0
  0
SPLINE
  5
A2
330
1F
100
AcDbEntity
  8
0
  6
Continuous
 62
     7
370
    25
100
AcDbSpline
210
0.0
220
0.0
230
1.0
 70
     8
 71
     3
 72
    31
 73
    27
 74
     0
 42
0.00000001
 43
0.00000001
 40
0.0
 40
0.0
 40
0.0
 40
0.0
 40
0.0337881161627107
 40
0.0671939323738803
 40
0.0998624108568256
 40
0.1325666121262584
 40
0.1651511732547863
 40
0.1979131873557922
 40
0.2313190035669621
 40
0.2650832782673737
 40
0.2992553087581148
 40
0.3343985665049786
 40
0.369942823509308
 40
0.4062835607000613
 40
0.4440638196985083
 40
0.4829977068727755
 40
0.5233544466133049
 40
0.5655365896041491
 40
0.6096129240658196
 40
0.6563908113764171
 40
0.7058854949364576
 40
0.7583245002617314
 40
0.8138317829411504
 40
0.8727945590393902
 40
0.9347222295400741
 40
1.0
 40
1.0
 40
1.0
 40
1.0
 10
13.84050623090755
 20
9.992140524803645
 30
0.0
 10
13.86834170939189
 20
9.99165270962798
 30
0.0
 10
13.92369771828757
 20
9.990682598723696
 30
0.0
 10
14.0055380935335
 20
9.9813586561891
 30
0.0
 10
14.08548777524808
 20
9.96588753309216
 30
0.0
 10
14.16320591395157
 20
9.943966558509501
 30
0.0
 10
14.23933090041935
 20
9.91677088185008
 30
0.0
 10
14.313267308065
 20
9.882683764740907
 30
0.0
 10
14.38547438970704
 20
9.843004897396439
 30
0.0
 10
14.45480467722694
 20
9.796381020089814
 30
0.0
 10
14.52201929257302
 20
9.744398743893052
 30
0.0
 10
14.58546725554512
 20
9.685636075089711
 30
0.0
 10
14.64515434144258
 20
9.620686355821055
 30
0.0
 10
14.70182964682881
 20
9.550244491934444
 30
0.0
 10
14.75388524402806
 20
9.472959407100866
 30
0.0
 10
14.8034586762635
 20
9.39017529728672
 30
0.0
 10
14.84783071216515
 20
9.30044443249291
 30
0.0
 10
14.89056538734375
 20
9.205263964651865
 30
0.0
 10
14.92745237408299
 20
9.102000305845202
 30
0.0
 10
14.9607186193553
 20
8.991235545327108
 30
0.0
 10
14.98759758793024
 20
8.871661358473768
 30
0.0
 10
15.00998686026837
 20
8.743905113178654
 30
0.0
 10
15.02733175621399
 20
8.6074976299385
 30
0.0
 10
15.03996439829254
 20
8.462731314426737
 30
0.0
 10
15.04663748333388
 20
8.309510923785973
 30
0.0
 10
15.04789418454055
 20
8.20475307460881
 30
0.0
 10
15.04853908347165
 20
8.150994691470311
 30
0.0
  0
SPLINE
  5
A3
330
1F
100
AcDbEntity
  8
0
  6
Continuous
 62
     7
370
    25
100
AcDbSpline
210
0.0
220
0.0
230
1.0
 70
     8
 71
     3
 72
    31
 73
    27
 74
     0
 42
0.00000001
 43
0.00000001
 40
0.0
 40
0.0
 40
0.0
 40
0.0
 40
0.0685946222587424
 40
0.1332460424433012
 40
0.1943125864682565
 40
0.2512792231169665
 40
0.3045134392563467
 40
0.3542349066533244
 40
0.4004805887739892
 40
0.4434107549384919
 40
0.4840148686163445
 40
0.5232523007732031
 40
0.5610423727283597
 40
0.5979002393643994
 40
0.633518488856195
 40
0.6683143511696514
 40
0.7024956712863815
 40
0.7366853535134584
 40
0.7702931693607891
 40
0.8034372550192491
 40
0.8359129516660286
 40
0.8684602457892905
 40
0.9008465382431828
 40
0.9334665246307077
 40
0.9662575752981232
 40
1.0
 40
1.0
 40
1.0
 40
1.0
 10
12.67033395526652
 20
8.150994691470311
 30
0.0
 10
12.67066197342399
 20
8.20709207920456
 30
0.0
 10
12.67129915342284
 20
8.31606206345203
 30
0.0
 10
12.67838757436508
 20
8.474846705518827
 30
0.0
 10
12.69016291667824
 20
8.623806994514002
 30
0.0
 10
12.70630028952853
 20
8.762950060552432
 30
0.0
 10
12.72593826975211
 20
8.89231182507014
 30
0.0
 10
12.75215375635343
 20
9.011546582206444
 30
0.0
 10
12.78196655896839
 20
9.121206188819501
 30
0.0
 10
12.8165190047789
 20
9.22164823729552
 30
0.0
 10
12.85550679379724
 20
9.314225940317684
 30
0.0
 10
12.8979410545193
 20
9.400651141611444
 30
0.0
 10
12.94550584894289
 20
9.480793073951224
 30
0.0
 10
12.99548276186998
 20
9.555930864371163
 30
0.0
 10
13.04989483349781
 20
9.624834559163514
 30
0.0
 10
13.10719362396505
 20
9.688477221682025
 30
0.0
 10
13.16961550023218
 20
9.74538797214584
 30
0.0
 10
13.23503850850563
 20
9.79723427453092
 30
0.0
 10
13.30405497289734
 20
9.842683746202859
 30
0.0
 10
13.37469763904055
 20
9.882716484818623
 30
0.0
 10
13.44745274489648
 20
9.916916352076226
 30
0.0
 10
13.52251892779442
 20
9.94380678793577
 30
0.0
 10
13.5992214856841
 20
9.96601763470838
 30
0.0
 10
13.67782855237539
 20
9.981206582354952
 30
0.0
 10
13.75846991631171
 20
9.990763490844339
 30
0.0
 10
13.81290135110986
 20
9.991677158584535
 30
0.0
 10
13.84050623090755
 20
9.992140524803645
 30
0.0
  0
SPLINE
  5
A4
330
1F
100
AcDbEntity
  8
0
  6
Continuous
 62
     7
370
    25
100
AcDbSpline
210
0.0
220
0.0
230
1.0
 70
     8
 71
     3
 72
    27
 73
    23
 74
     0
 42
0.00000001
 43
0.00000001
 40
0.0
 40
0.0
 40
0.0
 40
0.0
 40
0.0729510658758663
 40
0.141583694186545
 40
0.2059264601708671
 40
0.2653013571846053
 40
0.3205972327139279
 40
0.3718165030988104
 40
0.4187897697094518
 40
0.4616987286157648
 40
0.5021335821035658
 40
0.540804315292648
 40
0.5781805253279663
 40
0.6142968652075148
 40
0.6496782432647876
 40
0.6842994600896375
 40
0.7183589527723611
 40
0.7520808646475967
 40
0.8176524386023858
 40
0.8797220764054374
 40
0.9399655597309874
 40
1.0
 40
1.0
 40
1.0
 40
1.0
 10
12.98443651936909
 20
8.152396935060054
 30
0.0
 10
12.9845559664366
 20
8.1056482362562
 30
0.0
 10
12.98478778974001
 20
8.014918191457042
 30
0.0
 10
12.99084399031723
 20
7.883074930481103
 30
0.0
 10
12.99909422231671
 20
7.760104601663944
 30
0.0
 10
13.00973551950185
 20
7.645851065198813
 30
0.0
 10
13.02553846802787
 20
7.540701052689003
 30
0.0
 10
13.04324525584556
 20
7.443931369623871
 30
0.0
 10
13.06479334546477
 20
7.356054132510066
 30
0.0
 10
13.09028836333178
 20
7.276466321805534
 30
0.0
 10
13.11932746022524
 20
7.203817253310188
 30
0.0
 10
13.1510333238953
 20
7.136216038182846
 30
0.0
 10
13.18509404680022
 20
7.072864101747067
 30
0.0
 10
13.2232131973532
 20
7.014330493372943
 30
0.0
 10
13.2647282605822
 20
6.960424329300081
 30
0.0
 10
13.3087015197197
 20
6.910191496977788
 30
0.0
 10
13.35677410396181
 20
6.865394515642192
 30
0.0
 10
13.42327784650502
 20
6.811667660612721
 30
0.0
 10
13.51107432093207
 20
6.756148526883122
 30
0.0
 10
13.62169477616318
 20
6.70780243705149
 30
0.0
 10
13.73536322714468
 20
6.67741998061918
 30
0.0
 10
13.81251447723161
 20
6.673556224664054
 30
0.0
 10
13.85102305783063
 20
6.671627704290825
 30
0.0
  0
SPLINE
  5
A5
330
1F
100
AcDbEntity
  8
0
  6
Continuous
 62
     7
370
    25
100
AcDbSpline
210
0.0
220
0.0
230
1.0
 70
     8
 71
     3
 72
    27
 73
    23
 74
     0
 42
0.00000001
 43
0.00000001
 40
0.0
 40
0.0
 40
0.0
 40
0.0
 40
0.0603866193110622
 40
0.1208832485859957
 40
0.1827546186251392
 40
0.2478110297583514
 40
0.2812991000432488
 40
0.3150876241506569
 40
0.3497023955502749
 40
0.3848565811185557
 40
0.4209661972261027
 40
0.4585111882611386
 40
0.4971747221273118
 40
0.5376020478662694
 40
0.580503018420011
 40
0.6274675400267048
 40
0.6783882095592431
 40
0.7339832205925597
 40
0.7937467045508344
 40
0.8577136721607324
 40
0.9266978643613855
 40
0.9999999999999999
 40
0.9999999999999999
 40
0.9999999999999999
 40
0.9999999999999999
 10
13.85102305783063
 20
9.633166165829286
 30
0.0
 10
13.81231246574382
 20
9.63113471918203
 30
0.0
 10
13.73482076013871
 20
9.62706812507806
 30
0.0
 10
13.62037280541195
 20
9.598374871486472
 30
0.0
 10
13.51066845376965
 20
9.548361905548859
 30
0.0
 10
13.4234254790908
 20
9.493409533083938
 30
0.0
 10
13.3565616925832
 20
9.441071221642282
 30
0.0
 10
13.30947899920645
 20
9.395684767583823
 30
0.0
 10
13.26533282698876
 20
9.346038513218687
 30
0.0
 10
13.22466512685111
 20
9.291636598368333
 30
0.0
 10
13.18657584365884
 20
9.233171231049205
 30
0.0
 10
13.15159483108314
 20
9.170182466323945
 30
0.0
 10
13.12007750140709
 20
9.102351102098545
 30
0.0
 10
13.09099296522692
 20
9.029734666679483
 30
0.0
 10
13.0654201772007
 20
8.95015372224394
 30
0.0
 10
13.04432621397071
 20
8.862384728650477
 30
0.0
 10
13.02483916085082
 20
8.765922836861293
 30
0.0
 10
13.01104389195026
 20
8.660203328916102
 30
0.0
 10
12.99878013618855
 20
8.545921175546875
 30
0.0
 10
12.99089878823629
 20
8.422643857317535
 30
0.0
 10
12.98476753076706
 20
8.290579476915179
 30
0.0
 10
12.98454906640431
 20
8.199380318412532
 30
0.0
 10
12.98443651936909
 20
8.152396935060054
 30
0.0
  0
SPLINE
  5
A6
330
1F
100
AcDbEntity
  8
0
  6
Continuous
 62
     7
370
    25
100
AcDbSpline
210
0.0
220
0.0
230
1.0
 70
     8
 71
     3
 72
    27
 73
    23
 74
     0
 42
0.00000001
 43
0.00000001
 40
0.0
 40
0.0
 40
0.0
 40
0.0
 40
0.0656811979906389
 40
0.128486464174065
 40
0.1881751303280082
 40
0.2451061306699859
 40
0.2994484245294751
 40
0.3508229360093821
 40
0.3999416805337777
 40
0.4466717436323722
 40
0.4912545333734987
 40
0.5333763442704361
 40
0.5738527549682237
 40
0.6125263117194528
 40
0.6495971364453291
 40
0.6855320415538502
 40
0.7201057860682004
 40
0.7538376629736498
 40
0.8189254160467137
 40
0.8804934616501638
 40
0.9403113338460569
 40
1.0
 40
1.0
 40
1.0
 40
1.0
 10
14.73443651936909
 20
8.152396935060054
 30
0.0
 10
14.73388633013615
 20
8.194464507578097
 30
0.0
 10
14.73281004238061
 20
8.276757672358674
 30
0.0
 10
14.72869605467949
 20
8.397275853020806
 30
0.0
 10
14.71807248018748
 20
8.511743613929951
 30
0.0
 10
14.70627336132298
 20
8.620654086594271
 30
0.0
 10
14.68887614023088
 20
8.723404389298755
 30
0.0
 10
14.67011833335059
 20
8.820854694555072
 30
0.0
 10
14.64491712106036
 20
8.911797719374423
 30
0.0
 10
14.61799734608638
 20
8.997657301086031
 30
0.0
 10
14.58718695055494
 20
9.077457955586823
 30
0.0
 10
14.55327121629738
 20
9.151571741948784
 30
0.0
 10
14.51704945752836
 20
9.220356466705589
 30
0.0
 10
14.47770721706909
 20
9.283623408282097
 30
0.0
 10
14.43571153400382
 20
9.341655951193236
 30
0.0
 10
14.38995398480625
 20
9.393290545750311
 30
0.0
 10
14.34224961199541
 20
9.440127513858856
 30
0.0
 10
14.27543242617175
 20
9.49359008298046
 30
0.0
 10
14.18795813637136
 20
9.548101778463616
 30
0.0
 10
14.07911248902892
 20
9.59826753832396
 30
0.0
 10
13.96584184477778
 20
9.627075830944866
 30
0.0
 10
13.88926839068575
 20
9.631137517982996
 30
0.0
 10
13.85102305783063
 20
9.633166165829287
 30
0.0
  0
SPLINE
  5
A7
330
1F
100
AcDbEntity
  8
0
  6
Continuous
 62
     7
370
    25
100
AcDbSpline
210
0.0
220
0.0
230
1.0
 70
     8
 71
     3
 72
    15
 73
    11
 74
     0
 42
0.00000001
 43
0.00000001
 40
0.0
 40
0.0
 40
0.0
 40
0.0
 40
0.1105883385953361
 40
0.2245417540535954
 40
0.3425034940501041
 40
0.4643240984173579
 40
0.5907560327017667
 40
0.7222274753555143
 40
0.8588428362087239
 40
1.0
 40
1.0
 40
1.0
 40
1.0
 10
14.60192450013832
 20
7.272489082495952
 30
0.0
 10
14.61247626793208
 20
7.303718821962281
 30
0.0
 10
14.63390088176454
 20
7.367128586205746
 30
0.0
 10
14.66151265603528
 20
7.465492238286236
 30
0.0
 10
14.68325805523898
 20
7.568695002224171
 30
0.0
 10
14.70282142098841
 20
7.676120118942615
 30
0.0
 10
14.71617447688576
 20
7.788559819953594
 30
0.0
 10
14.726922290169
 20
7.905666203869342
 30
0.0
 10
14.73325297710826
 20
8.02752756610479
 30
0.0
 10
14.73403772817959
 20
8.110322557300039
 30
0.0
 10
14.73443651936909
 20
8.152396935060054
 30
0.0
  0
SPLINE
  5
A8
330
1F
100
AcDbEntity
  8
0
  6
Continuous
 62
     7
370
    25
100
AcDbSpline
210
0.0
220
0.0
230
1.0
 70
     8
 71
     3
 72
    19
 73
    15
 74
     0
 42
0.00000001
 43
0.00000001
 40
0.0
 40
0.0
 40
0.0
 40
0.0
 40
0.1128134007444581
 40
0.2253938839207299
 40
0.3395948145627002
 40
0.459675410224863
 40
0.5217351900879327
 40
0.5839258387389156
 40
0.6481741447653699
 40
0.7138810381130664
 40
0.7810044549073887
 40
0.8514509275565552
 40
0.9240506926641772
 40
1.0
 40
1.0
 40
1.0
 40
1.0
 10
13.85102305783063
 20
6.671627704290824
 30
0.0
 10
13.88978072948637
 20
6.673225485102374
 30
0.0
 10
13.96721605267108
 20
6.676417747904423
 30
0.0
 10
14.08034984781542
 20
6.707216485278646
 30
0.0
 10
14.19018011789768
 20
6.753686024742326
 30
0.0
 10
14.27625205817656
 20
6.808633530161586
 30
0.0
 10
14.34173460167801
 20
6.860961859612861
 30
0.0
 10
14.38865159178391
 20
6.90557650792577
 30
0.0
 10
14.43171364021717
 20
6.955532375232189
 30
0.0
 10
14.47255571507178
 20
7.009431671147104
 30
0.0
 10
14.51001479074666
 20
7.068304155320886
 30
0.0
 10
14.54407792844187
 20
7.1318667305869
 30
0.0
 10
14.57516127598703
 20
7.200295908499093
 30
0.0
 10
14.59287032193729
 20
7.24806564761492
 30
0.0
 10
14.60192450013832
 20
7.272489082495952
 30
0.0
  0
MTEXT
  5
AA
330
1F
100
AcDbEntity
  8
0
  6
Continuous
 62
     7
100
AcDbMText
 10
0.0
 20
-1.0195663917
 30
0.0
 40
4.83362
 41
0.0
 71
     1
 72
     1
  1
SOLIDWORKS Educational Product.
  7
SLDTEXTSTYLE0
 73
     1
 44
1.0
  0
MTEXT
  5
AB
330
1F
100
AcDbEntity
  8
0
  6
Continuous
 62
     7
100
AcDbMText
 10
0.0
 20
-8.2699963917
 30
0.0
 40
4.83362
 41
0.0
 71
     1
 72
     1
  1
For Instructional Use Only.
  7
SLDTEXTSTYLE0
 73
     1
 44
1.0
  0
ENDSEC
  0
SECTION
  2
OBJECTS
  0
DICTIONARY
  5
C
330
0
100
AcDbDictionary
281
     1
  3
ACAD_GROUP
350
D
  3
ACAD_LAYOUT
350
1A
  3
ACAD_MLINESTYLE
350
17
  3
ACAD_PLOTSETTINGS
350
19
  3
ACAD_PLOTSTYLENAME
350
E
  3
ACAD_SCALELIST
350
47
  3
DWGPROPS
350
AC
  0
DICTIONARY
  5
D
102
{ACAD_REACTORS
330
C
102
}
330
C
100
AcDbDictionary
281
     1
  0
DICTIONARY
  5
1A
102
{ACAD_REACTORS
330
C
102
}
330
C
100
AcDbDictionary
281
     1
  3
Layout1
350
1E
  3
Layout2
350
26
  3
Model
350
22
  0
DICTIONARY
  5
17
102
{ACAD_REACTORS
330
C
102
}
330
C
100
AcDbDictionary
281
     1
  3
Standard
350
18
  0
DICTIONARY
  5
19
102
{ACAD_REACTORS
330
C
102
}
330
C
100
AcDbDictionary
281
     1
  0
ACDBDICTIONARYWDFLT
  5
E
102
{ACAD_REACTORS
330
C
102
}
330
C
100
AcDbDictionary
281
     1
  3
Normal
350
F
100
AcDbDictionaryWithDefault
340
F
  0
DICTIONARY
  5
47
102
{ACAD_REACTORS
330
C
102
}
330
C
100
AcDbDictionary
281
     1
  3
A0
350
48
  3
A1
350
49
  3
A2
350
4A
  3
A3
350
4B
  3
A4
350
4C
  3
A5
350
4D
  3
A6
350
4E
  3
A7
350
4F
  3
A8
350
50
  3
A9
350
51
  3
B0
350
52
  3
B1
350
53
  3
B2
350
54
  3
B3
350
55
  3
B4
350
56
  3
B5
350
57
  3
B6
350
58
  0
XRECORD
  5
AC
102
{ACAD_REACTORS
330
C
102
}
330
C
100
AcDbXrecord
280
     1
  1
DWGPROPS COOKIE
  2

  3

  4

  6

  7

  8
timai
  9

300
=
301
=
302
=
303
=
304
=
305
=
306
=
307
=
308
=
309
=
 40
0.0
 41
2460442.998820567
 42
2460442.998892083
  1

 90
        0
  0
LAYOUT
  5
1E
102
{ACAD_REACTORS
330
1A
102
}
330
1A
100
AcDbPlotSettings
  1

  2
none_device
  4

  6

 40
0.0
 41
0.0
 42
0.0
 43
0.0
 44
0.0
 45
0.0
 46
0.0
 47
0.0
 48
0.0
 49
0.0
140
0.0
141
0.0
142
1.0
143
1.0
 70
   688
 72
     1
 73
     0
 74
     5
  7

 75
    16
147
1.0
148
0.0
149
0.0
100
AcDbLayout
  1
Layout1
 70
     1
 71
     1
 10
0.0
 20
0.0
 11
420.0
 21
297.0
 12
0.0
 22
0.0
 32
0.0
 14
1.0000000000E+20
 24
1.0000000000E+20
 34
1.0000000000E+20
 15
-1.0000000000E+20
 25
-1.0000000000E+20
 35
-1.0000000000E+20
146
0.0
 13
0.0
 23
0.0
 33
0.0
 16
1.0
 26
0.0
 36
0.0
 17
0.0
 27
1.0
 37
0.0
 76
     0
330
1B
  0
LAYOUT
  5
26
102
{ACAD_REACTORS
330
1A
102
}
330
1A
100
AcDbPlotSettings
  1

  2
none_device
  4

  6

 40
0.0
 41
0.0
 42
0.0
 43
0.0
 44
0.0
 45
0.0
 46
0.0
 47
0.0
 48
0.0
 49
0.0
140
0.0
141
0.0
142
1.0
143
1.0
 70
   688
 72
     1
 73
     0
 74
     5
  7

 75
    16
147
1.0
148
0.0
149
0.0
100
AcDbLayout
  1
Layout2
 70
     1
 71
     2
 10
0.0
 20
0.0
 11
0.0
 21
0.0
 12
0.0
 22
0.0
 32
0.0
 14
0.0
 24
0.0
 34
0.0
 15
0.0
 25
0.0
 35
0.0
146
0.0
 13
0.0
 23
0.0
 33
0.0
 16
1.0
 26
0.0
 36
0.0
 17
0.0
 27
1.0
 37
0.0
 76
     0
330
23
  0
LAYOUT
  5
22
102
{ACAD_REACTORS
330
1A
102
}
330
1A
100
AcDbPlotSettings
  1

  2
none_device
  4
ANSI_A_(11.00_x_8.50_Inches)
  6

 40
6.35
 41
19.05
 42
6.35000508
 43
19.05000254
 44
279.4
 45
215.9
 46
-4.95300254
 47
19.74849873
 48
0.0
 49
0.0
140
0.0
141
0.0
142
0.3403125
143
1.0
 70
  1696
 72
     0
 73
     0
 74
     0
  7

 75
     0
147
0.0179189148
148
-1300.4909072572
149
0.0
100
AcDbLayout
  1
Model
 70
     1
 71
     0
 10
0.0
 20
0.0
 11
420.0
 21
297.0
 12
0.0
 22
0.0
 32
0.0
 14
0.0
 24
0.0
 34
0.0
 15
32.0
 25
16.0
 35
0.0
146
0.0
 13
0.0
 23
0.0
 33
0.0
 16
1.0
 26
0.0
 36
0.0
 17
0.0
 27
1.0
 37
0.0
 76
     0
330
1F
331
29
  0
MLINESTYLE
  5
18
102
{ACAD_REACTORS
330
17
102
}
330
17
100
AcDbMlineStyle
  2
Standard
 70
     0
  3

 62
   256
 51
90.0
 52
90.0
 71
     2
 49
0.5
 62
   256
  6
BYLAYER
 49
-0.5
 62
   256
  6
BYLAYER
  0
ACDBPLACEHOLDER
  5
F
102
{ACAD_REACTORS
330
E
102
}
330
E
  0
SCALE
  5
48
102
{ACAD_REACTORS
330
47
102
}
330
47
100
AcDbScale
 70
     0
300
1:1
140
1.0
141
1.0
290
     1
  0
SCALE
  5
49
102
{ACAD_REACTORS
330
47
102
}
330
47
100
AcDbScale
 70
     0
300
1:2
140
1.0
141
2.0
290
     0
  0
SCALE
  5
4A
102
{ACAD_REACTORS
330
47
102
}
330
47
100
AcDbScale
 70
     0
300
1:4
140
1.0
141
4.0
290
     0
  0
SCALE
  5
4B
102
{ACAD_REACTORS
330
47
102
}
330
47
100
AcDbScale
 70
     0
300
1:5
140
1.0
141
5.0
290
     0
  0
SCALE
  5
4C
102
{ACAD_REACTORS
330
47
102
}
330
47
100
AcDbScale
 70
     0
300
1:8
140
1.0
141
8.0
290
     0
  0
SCALE
  5
4D
102
{ACAD_REACTORS
330
47
102
}
330
47
100
AcDbScale
 70
     0
300
1:10
140
1.0
141
10.0
290
     0
  0
SCALE
  5
4E
102
{ACAD_REACTORS
330
47
102
}
330
47
100
AcDbScale
 70
     0
300
1:16
140
1.0
141
16.0
290
     0
  0
SCALE
  5
4F
102
{ACAD_REACTORS
330
47
102
}
330
47
100
AcDbScale
 70
     0
300
1:20
140
1.0
141
20.0
290
     0
  0
SCALE
  5
50
102
{ACAD_REACTORS
330
47
102
}
330
47
100
AcDbScale
 70
     0
300
1:30
140
1.0
141
30.0
290
     0
  0
SCALE
  5
51
102
{ACAD_REACTORS
330
47
102
}
330
47
100
AcDbScale
 70
     0
300
1:40
140
1.0
141
40.0
290
     0
  0
SCALE
  5
52
102
{ACAD_REACTORS
330
47
102
}
330
47
100
AcDbScale
 70
     0
300
1:50
140
1.0
141
50.0
290
     0
  0
SCALE
  5
53
102
{ACAD_REACTORS
330
47
102
}
330
47
100
AcDbScale
 70
     0
300
1:100
140
1.0
141
100.0
290
     0
  0
SCALE
  5
54
102
{ACAD_REACTORS
330
47
102
}
330
47
100
AcDbScale
 70
     0
300
2:1
140
2.0
141
1.0
290
     0
  0
SCALE
  5
55
102
{ACAD_REACTORS
330
47
102
}
330
47
100
AcDbScale
 70
     0
300
4:1
140
4.0
141
1.0
290
     0
  0
SCALE
  5
56
102
{ACAD_REACTORS
330
47
102
}
330
47
100
AcDbScale
 70
     0
300
8:1
140
8.0
141
1.0
290
     0
  0
SCALE
  5
57
102
{ACAD_REACTORS
330
47
102
}
330
47
100
AcDbScale
 70
     0
300
10:1
140
10.0
141
1.0
290
     0
  0
SCALE
  5
58
102
{ACAD_REACTORS
330
47
102
}
330
47
100
AcDbScale
 70
     0
300
100:1
140
100.0
141
1.0
290
     0
  0
ENDSEC
  0
EOF
