  0
SECTION
  2
HEADER
  9
$ACADVER
  1
AC1015
  9
$ACADMAINTVER
 70
     6
  9
$DWGCODEPAGE
  3
ANSI_1252
  9
$INSBASE
 10
0.0
 20
0.0
 30
0.0
  9
$EXTMIN
 10
139.2919376913
 20
157.953364851
 30
0.0
  9
$EXTMAX
 10
154.2919376913
 20
170.953364851
 30
0.0
  9
$LIMMIN
 10
0.0
 20
0.0
  9
$LIMMAX
 10
420.0
 20
297.0
  9
$ORTHOMODE
 70
     0
  9
$REGENMODE
 70
     1
  9
$FILLMODE
 70
     1
  9
$QTEXTMODE
 70
     0
  9
$MIRRTEXT
 70
     1
  9
$LTSCALE
 40
1.0
  9
$ATTMODE
 70
     1
  9
$TEXTSIZE
 40
3.5
  9
$TRACEWID
 40
1.0
  9
$TEXTSTYLE
  7
Standard
  9
$CLAYER
  8
0
  9
$CELTYPE
  6
ByLayer
  9
$CECOLOR
 62
   256
  9
$CELTSCALE
 40
1.0
  9
$DISPSILH
 70
     0
  9
$DIMSCALE
 40
1.0
  9
$DIMASZ
 40
3.302
  9
$DIMEXO
 40
0.0
  9
$DIMDLI
 40
3.75
  9
$DIMRND
 40
0.0
  9
$DIMDLE
 40
0.0
  9
$DIMEXE
 40
1.0
  9
$DIMTP
 40
0.0
  9
$DIMTM
 40
0.0
  9
$DIMTXT
 40
3.5
  9
$DIMCEN
 40
2.5
  9
$DIMTSZ
 40
0.0
  9
$DIMTOL
 70
     0
  9
$DIMLIM
 70
     0
  9
$DIMTIH
 70
     1
  9
$DIMTOH
 70
     1
  9
$DIMSE1
 70
     0
  9
$DIMSE2
 70
     0
  9
$DIMTAD
 70
     1
  9
$DIMZIN
 70
     1
  9
$DIMBLK
  1

  9
$DIMASO
 70
     1
  9
$DIMSHO
 70
     1
  9
$DIMPOST
  1

  9
$DIMAPOST
  1

  9
$DIMALT
 70
     0
  9
$DIMALTD
 70
     3
  9
$DIMALTF
 40
0.0393700787
  9
$DIMLFAC
 40
1.0
  9
$DIMTOFL
 70
     1
  9
$DIMTVP
 40
0.0
  9
$DIMTIX
 70
     0
  9
$DIMSOXD
 70
     0
  9
$DIMSAH
 70
     0
  9
$DIMBLK1
  1

  9
$DIMBLK2
  1

  9
$DIMSTYLE
  2
ISO-25
  9
$DIMCLRD
 70
     0
  9
$DIMCLRE
 70
     0
  9
$DIMCLRT
 70
     0
  9
$DIMTFAC
 40
1.0
  9
$DIMGAP
 40
1.524
  9
$DIMJUST
 70
     0
  9
$DIMSD1
 70
     0
  9
$DIMSD2
 70
     0
  9
$DIMTOLJ
 70
     0
  9
$DIMTZIN
 70
     1
  9
$DIMALTZ
 70
     0
  9
$DIMALTTZ
 70
     0
  9
$DIMUPT
 70
     0
  9
$DIMDEC
 70
     2
  9
$DIMTDEC
 70
     2
  9
$DIMALTU
 70
     2
  9
$DIMALTTD
 70
     3
  9
$DIMTXSTY
  7
Standard
  9
$DIMAUNIT
 70
     0
  9
$DIMADEC
 70
     2
  9
$DIMALTRND
 40
0.0
  9
$DIMAZIN
 70
     0
  9
$DIMDSEP
 70
    44
  9
$DIMATFIT
 70
     3
  9
$DIMFRAC
 70
     0
  9
$DIMLDRBLK
  1

  9
$DIMLUNIT
 70
     2
  9
$DIMLWD
 70
    -2
  9
$DIMLWE
 70
    -2
  9
$DIMTMOVE
 70
     0
  9
$LUNITS
 70
     2
  9
$LUPREC
 70
     2
  9
$SKETCHINC
 40
1.0
  9
$FILLETRAD
 40
0.0
  9
$AUNITS
 70
     0
  9
$AUPREC
 70
     2
  9
$MENU
  1
.
  9
$ELEVATION
 40
0.0
  9
$PELEVATION
 40
0.0
  9
$THICKNESS
 40
0.0
  9
$LIMCHECK
 70
     0
  9
$CHAMFERA
 40
0.0
  9
$CHAMFERB
 40
0.0
  9
$CHAMFERC
 40
0.0
  9
$CHAMFERD
 40
0.0
  9
$SKPOLY
 70
     0
  9
$TDCREATE
 40
2460442.659438241
  9
$TDUCREATE
 40
2460442.159438241
  9
$TDUPDATE
 40
2460442.659486366
  9
$TDUUPDATE
 40
2460442.159486366
  9
$TDINDWG
 40
0.0000000116
  9
$TDUSRTIMER
 40
0.0000000116
  9
$USRTIMER
 70
     1
  9
$ANGBASE
 50
0.0
  9
$ANGDIR
 70
     0
  9
$PDMODE
 70
     0
  9
$PDSIZE
 40
-1.0
  9
$PLINEWID
 40
0.0
  9
$SPLFRAME
 70
     0
  9
$SPLINETYPE
 70
     6
  9
$SPLINESEGS
 70
     8
  9
$HANDSEED
  5
12F
  9
$SURFTAB1
 70
     6
  9
$SURFTAB2
 70
     6
  9
$SURFTYPE
 70
     6
  9
$SURFU
 70
     6
  9
$SURFV
 70
     6
  9
$UCSBASE
  2

  9
$UCSNAME
  2

  9
$UCSORG
 10
0.0
 20
0.0
 30
0.0
  9
$UCSXDIR
 10
1.0
 20
0.0
 30
0.0
  9
$UCSYDIR
 10
0.0
 20
1.0
 30
0.0
  9
$UCSORTHOREF
  2

  9
$UCSORTHOVIEW
 70
     0
  9
$UCSORGTOP
 10
0.0
 20
0.0
 30
0.0
  9
$UCSORGBOTTOM
 10
0.0
 20
0.0
 30
0.0
  9
$UCSORGLEFT
 10
0.0
 20
0.0
 30
0.0
  9
$UCSORGRIGHT
 10
0.0
 20
0.0
 30
0.0
  9
$UCSORGFRONT
 10
0.0
 20
0.0
 30
0.0
  9
$UCSORGBACK
 10
0.0
 20
0.0
 30
0.0
  9
$PUCSBASE
  2

  9
$PUCSNAME
  2

  9
$PUCSORG
 10
0.0
 20
0.0
 30
0.0
  9
$PUCSXDIR
 10
1.0
 20
0.0
 30
0.0
  9
$PUCSYDIR
 10
0.0
 20
1.0
 30
0.0
  9
$PUCSORTHOREF
  2

  9
$PUCSORTHOVIEW
 70
     0
  9
$PUCSORGTOP
 10
0.0
 20
0.0
 30
0.0
  9
$PUCSORGBOTTOM
 10
0.0
 20
0.0
 30
0.0
  9
$PUCSORGLEFT
 10
0.0
 20
0.0
 30
0.0
  9
$PUCSORGRIGHT
 10
0.0
 20
0.0
 30
0.0
  9
$PUCSORGFRONT
 10
0.0
 20
0.0
 30
0.0
  9
$PUCSORGBACK
 10
0.0
 20
0.0
 30
0.0
  9
$USERI1
 70
     0
  9
$USERI2
 70
     0
  9
$USERI3
 70
     0
  9
$USERI4
 70
     0
  9
$USERI5
 70
     0
  9
$USERR1
 40
0.0
  9
$USERR2
 40
0.0
  9
$USERR3
 40
0.0
  9
$USERR4
 40
0.0
  9
$USERR5
 40
0.0
  9
$WORLDVIEW
 70
     1
  9
$SHADEDGE
 70
     3
  9
$SHADEDIF
 70
    70
  9
$TILEMODE
 70
     1
  9
$MAXACTVP
 70
    64
  9
$PINSBASE
 10
0.0
 20
0.0
 30
0.0
  9
$PLIMCHECK
 70
     0
  9
$PEXTMIN
 10
1.0000000000E+20
 20
1.0000000000E+20
 30
1.0000000000E+20
  9
$PEXTMAX
 10
-1.0000000000E+20
 20
-1.0000000000E+20
 30
-1.0000000000E+20
  9
$PLIMMIN
 10
0.0
 20
0.0
  9
$PLIMMAX
 10
420.0
 20
297.0
  9
$UNITMODE
 70
     0
  9
$VISRETAIN
 70
     1
  9
$PLINEGEN
 70
     0
  9
$PSLTSCALE
 70
     1
  9
$TREEDEPTH
 70
  3020
  9
$CMLSTYLE
  2
Standard
  9
$CMLJUST
 70
     0
  9
$CMLSCALE
 40
20.0
  9
$PROXYGRAPHICS
 70
     1
  9
$MEASUREMENT
 70
     1
  9
$CELWEIGHT
370
    -1
  9
$ENDCAPS
280
     0
  9
$JOINSTYLE
280
     0
  9
$LWDISPLAY
290
     1
  9
$INSUNITS
 70
     4
  9
$HYPERLINKBASE
  1

  9
$STYLESHEET
  1

  9
$XEDIT
290
     1
  9
$CEPSNTYPE
380
     0
  9
$PSTYLEMODE
290
     1
  9
$FINGERPRINTGUID
  2
{cb79c8f7-e08b-4a10-826c-884419aeabc7}
  9
$VERSIONGUID
  2
{FAEB1C32-E019-11D5-929B-00C0DF256EC4}
  9
$EXTNAMES
290
     1
  9
$PSVPSCALE
 40
0.0
  9
$OLESTARTUP
290
     0
  0
ENDSEC
  0
SECTION
  2
CLASSES
  0
CLASS
  1
ACDBDICTIONARYWDFLT
  2
AcDbDictionaryWithDefault
  3
ObjectDBX Classes
 90
        0
280
     0
281
     0
  0
CLASS
  1
VISUALSTYLE
  2
AcDbVisualStyle
  3
ObjectDBX Classes
 90
     4095
280
     0
281
     0
  0
CLASS
  1
MATERIAL
  2
AcDbMaterial
  3
ObjectDBX Classes
 90
     1153
280
     0
281
     0
  0
CLASS
  1
SCALE
  2
AcDbScale
  3
ObjectDBX Classes
 90
     1153
280
     0
281
     0
  0
CLASS
  1
TABLESTYLE
  2
AcDbTableStyle
  3
ObjectDBX Classes
 90
     4095
280
     0
281
     0
  0
CLASS
  1
MLEADERSTYLE
  2
AcDbMLeaderStyle
  3
ACDB_MLEADERSTYLE_CLASS
 90
     4095
280
     0
281
     0
  0
CLASS
  1
SUN
  2
AcDbSun
  3
SCENEOE
 90
     1153
280
     0
281
     0
  0
CLASS
  1
ACDBPLACEHOLDER
  2
AcDbPlaceHolder
  3
ObjectDBX Classes
 90
        0
280
     0
281
     0
  0
CLASS
  1
LAYOUT
  2
AcDbLayout
  3
ObjectDBX Classes
 90
        0
280
     0
281
     0
  0
ENDSEC
  0
SECTION
  2
TABLES
  0
TABLE
  2
VPORT
  5
8
330
0
100
AcDbSymbolTable
 70
     1
  0
VPORT
  5
29
330
8
100
AcDbSymbolTableRecord
100
AcDbViewportTableRecord
  2
*Active
 70
     0
 10
0.0
 20
0.0
 11
1.0
 21
1.0
 12
146.7919376913
 22
164.453364851
 13
0.0
 23
0.0
 14
10.0
 24
10.0
 15
10.0
 25
10.0
 16
0.0
 26
0.0
 36
1.0
 17
0.0
 27
0.0
 37
0.0
 40
13.26
 41
1.1538461538
 42
50.0
 43
0.0
 44
0.0
 50
0.0
 51
0.0
 71
     0
 72
   100
 73
     1
 74
     3
 75
     0
 76
     0
 77
     0
 78
     0
281
     0
 65
     1
110
0.0
120
0.0
130
0.0
111
1.0
121
0.0
131
0.0
112
0.0
122
1.0
132
0.0
 79
     0
146
0.0
  0
ENDTAB
  0
TABLE
  2
LTYPE
  5
5
330
0
100
AcDbSymbolTable
 70
     6
  0
LTYPE
  5
14
330
5
100
AcDbSymbolTableRecord
100
AcDbLinetypeTableRecord
  2
ByBlock
 70
     0
  3

 72
    65
 73
     0
 40
0.0
  0
LTYPE
  5
15
330
5
100
AcDbSymbolTableRecord
100
AcDbLinetypeTableRecord
  2
ByLayer
 70
     0
  3

 72
    65
 73
     0
 40
0.0
  0
LTYPE
  5
16
330
5
100
AcDbSymbolTableRecord
100
AcDbLinetypeTableRecord
  2
Continuous
 70
     0
  3
Solid line
 72
    65
 73
     0
 40
0.0
  0
LTYPE
  5
5E
330
5
100
AcDbSymbolTableRecord
100
AcDbLinetypeTableRecord
  2
HIDDEN
 70
     0
  3
Hidden __ __ __ __ __ __ __ __ __ __ __ __ __ __
 72
    65
 73
     2
 40
1.905
 49
1.27
 74
     0
 49
-0.635
 74
     0
  0
LTYPE
  5
5F
330
5
100
AcDbSymbolTableRecord
100
AcDbLinetypeTableRecord
  2
PHANTOM
 70
     0
  3
Phantom ______  __  __  ______  __  __  ______
 72
    65
 73
     6
 40
12.7
 49
6.35
 74
     0
 49
-1.27
 74
     0
 49
1.27
 74
     0
 49
-1.27
 74
     0
 49
1.27
 74
     0
 49
-1.27
 74
     0
  0
LTYPE
  5
60
330
5
100
AcDbSymbolTableRecord
100
AcDbLinetypeTableRecord
  2
CENTER
 70
     0
  3
Center ____ _ ____ _ ____ _ ____ _ ____ _ ____
 72
    65
 73
     4
 40
10.16
 49
6.35
 74
     0
 49
-1.27
 74
     0
 49
1.27
 74
     0
 49
-1.27
 74
     0
  0
LTYPE
  5
61
330
5
100
AcDbSymbolTableRecord
100
AcDbLinetypeTableRecord
  2
CENTERX2
 70
     0
  3
Center (2x) ________  __  ________  __  _____
 72
    65
 73
     4
 40
20.32
 49
12.7
 74
     0
 49
-2.54
 74
     0
 49
2.54
 74
     0
 49
-2.54
 74
     0
  0
LTYPE
  5
62
330
5
100
AcDbSymbolTableRecord
100
AcDbLinetypeTableRecord
  2
DOT2
 70
     0
  3
Dot (.5x) ........................................
 72
    65
 73
     2
 40
0.635
 49
0.0
 74
     0
 49
-0.635
 74
     0
  0
ENDTAB
  0
TABLE
  2
LAYER
  5
2
330
0
100
AcDbSymbolTable
 70
     1
  0
LAYER
  5
10
330
2
100
AcDbSymbolTableRecord
100
AcDbLayerTableRecord
  2
0
 70
     0
 62
     7
  6
Continuous
370
    -3
390
F
  0
ENDTAB
  0
TABLE
  2
STYLE
  5
3
330
0
100
AcDbSymbolTable
 70
     2
  0
STYLE
  5
11
330
3
100
AcDbSymbolTableRecord
100
AcDbTextStyleTableRecord
  2
Standard
 70
     0
 40
0.0
 41
1.0
 50
0.0
 71
     0
 42
3.5
  3
txt
  4

  0
STYLE
  5
12B
330
3
100
AcDbSymbolTableRecord
100
AcDbTextStyleTableRecord
  2
SLDTEXTSTYLE0
 70
     0
 40
0.0
 41
0.7
 50
0.0
 71
     0
 42
3.5
  3
TXT
  4

  0
ENDTAB
  0
TABLE
  2
VIEW
  5
6
330
0
100
AcDbSymbolTable
 70
     0
  0
ENDTAB
  0
TABLE
  2
UCS
  5
7
330
0
100
AcDbSymbolTable
 70
     0
  0
ENDTAB
  0
TABLE
  2
APPID
  5
9
330
0
100
AcDbSymbolTable
 70
     1
  0
APPID
  5
12
330
9
100
AcDbSymbolTableRecord
100
AcDbRegAppTableRecord
  2
ACAD
 70
     0
  0
ENDTAB
  0
TABLE
  2
DIMSTYLE
  5
A
330
0
100
AcDbSymbolTable
 70
     1
100
AcDbDimStyleTable
  0
DIMSTYLE
105
27
330
A
100
AcDbSymbolTableRecord
100
AcDbDimStyleTableRecord
  2
ISO-25
 70
     0
 41
2.5
 42
0.625
 43
3.75
 44
1.25
 73
     0
 74
     0
 77
     1
 78
     8
140
2.5
141
2.5
143
0.0393700787
147
0.625
171
     3
172
     1
178
     0
271
     2
272
     2
274
     3
278
    44
283
     0
284
     8
340
11
  0
ENDTAB
  0
TABLE
  2
BLOCK_RECORD
  5
1
330
0
100
AcDbSymbolTable
 70
     1
  0
BLOCK_RECORD
  5
1F
330
1
100
AcDbSymbolTableRecord
100
AcDbBlockTableRecord
  2
*Model_Space
340
22
  0
BLOCK_RECORD
  5
1B
330
1
100
AcDbSymbolTableRecord
100
AcDbBlockTableRecord
  2
*Paper_Space
340
1E
  0
BLOCK_RECORD
  5
23
330
1
100
AcDbSymbolTableRecord
100
AcDbBlockTableRecord
  2
*Paper_Space0
340
26
  0
ENDTAB
  0
ENDSEC
  0
SECTION
  2
BLOCKS
  0
BLOCK
  5
20
330
1F
100
AcDbEntity
  8
0
100
AcDbBlockBegin
  2
*Model_Space
 70
     0
 10
0.0
 20
0.0
 30
0.0
  3
*Model_Space
  1

  0
ENDBLK
  5
21
330
1F
100
AcDbEntity
  8
0
100
AcDbBlockEnd
  0
BLOCK
  5
1C
330
1B
100
AcDbEntity
 67
     1
  8
0
100
AcDbBlockBegin
  2
*Paper_Space
 70
     0
 10
0.0
 20
0.0
 30
0.0
  3
*Paper_Space
  1

  0
ENDBLK
  5
1D
330
1B
100
AcDbEntity
 67
     1
  8
0
100
AcDbBlockEnd
  0
BLOCK
  5
24
330
23
100
AcDbEntity
  8
0
100
AcDbBlockBegin
  2
*Paper_Space0
 70
     0
 10
0.0
 20
0.0
 30
0.0
  3
*Paper_Space0
  1

  0
ENDBLK
  5
25
330
23
100
AcDbEntity
  8
0
100
AcDbBlockEnd
  0
ENDSEC
  0
SECTION
  2
ENTITIES
  0
LINE
  5
63
330
1F
100
AcDbEntity
  8
0
  6
Continuous
 62
     7
370
    25
100
AcDbLine
 10
147.3515487275
 20
162.3319814559
 30
0.0
 11
147.3515487275
 21
163.0627506867
 31
0.0
  0
LINE
  5
64
330
1F
100
AcDbEntity
  8
0
  6
Continuous
 62
     7
370
    25
100
AcDbLine
 10
147.3515487275
 20
163.0627506867
 30
0.0
 11
147.4412923173
 21
163.0627506867
 31
0.0
  0
LINE
  5
65
330
1F
100
AcDbEntity
  8
0
  6
Continuous
 62
     7
370
    25
100
AcDbLine
 10
147.4412923173
 20
163.0627506867
 30
0.0
 11
147.4412923173
 21
162.9551785713
 31
0.0
  0
SPLINE
  5
66
330
1F
100
AcDbEntity
  8
0
  6
Continuous
 62
     7
370
    25
100
AcDbSpline
210
0.0
220
0.0
230
1.0
 70
     8
 71
     3
 72
    15
 73
    11
 74
     0
 42
0.00000001
 43
0.00000001
 40
0.0
 40
0.0
 40
0.0
 40
0.0
 40
0.1600594124854733
 40
0.3061123827400733
 40
0.4383665141302099
 40
0.5605414552552446
 40
0.6753172249526962
 40
0.7861136344282207
 40
0.892841788105123
 40
1.0
 40
1.0
 40
1.0
 40
1.0
 10
147.4412923172927
 20
162.9551785713004
 30
0.0
 10
147.4479176769359
 20
162.9651945222506
 30
0.0
 10
147.4605886257755
 20
162.9843499506205
 30
0.0
 10
147.4816494627338
 20
163.0096840366182
 30
0.0
 10
147.503221843099
 20
163.0306597642214
 30
0.0
 10
147.5254090394712
 20
163.0473750552985
 30
0.0
 10
147.5483742108741
 20
163.0598930892482
 30
0.0
 10
147.5716133399363
 20
163.0690625278286
 30
0.0
 10
147.5954920456099
 20
163.0744846178964
 30
0.0
 10
147.611538309675
 20
163.0752085204557
 30
0.0
 10
147.619577573703
 20
163.0755711995055
 30
0.0
  0
SPLINE
  5
67
330
1F
100
AcDbEntity
  8
0
  6
Continuous
 62
     7
370
    25
100
AcDbSpline
210
0.0
220
0.0
230
1.0
 70
     8
 71
     3
 72
    11
 73
     7
 74
     0
 42
0.00000001
 43
0.00000001
 40
0.0
 40
0.0
 40
0.0
 40
0.0
 40
0.2252775478671485
 40
0.4635231951766695
 40
0.7203235553268871
 40
0.9999999999999999
 40
0.9999999999999999
 40
0.9999999999999999
 40
0.9999999999999999
 10
147.619577573703
 20
163.0755711995055
 30
0.0
 10
147.6258136669849
 20
163.0752310490498
 30
0.0
 10
147.6386448341866
 20
163.0745311673814
 30
0.0
 10
147.6580684312734
 20
163.0696137889122
 30
0.0
 10
147.6780808461048
 20
163.0617629253258
 30
0.0
 10
147.6909786710335
 20
163.0543800045643
 30
0.0
 10
147.697702573703
 20
163.0505311354029
 30
0.0
  0
LINE
  5
68
330
1F
100
AcDbEntity
  8
0
  6
Continuous
 62
     7
370
    25
100
AcDbLine
 10
147.6977025737
 20
163.0505311354
 30
0.0
 11
147.6484237275
 21
162.9728067764
 31
0.0
  0
SPLINE
  5
69
330
1F
100
AcDbEntity
  8
0
  6
Continuous
 62
     7
370
    25
100
AcDbSpline
210
0.0
220
0.0
230
1.0
 70
     8
 71
     3
 72
    11
 73
     7
 74
     0
 42
0.00000001
 43
0.00000001
 40
0.0
 40
0.0
 40
0.0
 40
0.0
 40
0.2951388013691611
 40
0.5602299448881973
 40
0.7949833567409267
 40
1.0
 40
1.0
 40
1.0
 40
1.0
 10
147.6484237275492
 20
162.9728067764286
 30
0.0
 10
147.6441068643652
 20
162.9747325667472
 30
0.0
 10
147.6359126316434
 20
162.9783880854355
 30
0.0
 10
147.6239256127095
 20
162.9827143740446
 30
0.0
 10
147.6128738022149
 20
162.9852617785727
 30
0.0
 10
147.6058327855399
 20
162.9856476978447
 30
0.0
 10
147.6025503301132
 20
162.9858276097619
 30
0.0
  0
SPLINE
  5
6A
330
1F
100
AcDbEntity
  8
0
  6
Continuous
 62
     7
370
    25
100
AcDbSpline
210
0.0
220
0.0
230
1.0
 70
     8
 71
     3
 72
    19
 73
    15
 74
     0
 42
0.00000001
 43
0.00000001
 40
0.0
 40
0.0
 40
0.0
 40
0.0
 40
0.0938065293522762
 40
0.1913381281363482
 40
0.2951906166252071
 40
0.4103123367233427
 40
0.4719302510512809
 40
0.5364251593464423
 40
0.6031187283036081
 40
0.6741176724905569
 40
0.7493320232259564
 40
0.8282833841715711
 40
0.9120398092627691
 40
0.9999999999999999
 40
0.9999999999999999
 40
0.9999999999999999
 40
0.9999999999999999
 10
147.6025503301132
 20
162.9858276097619
 30
0.0
 10
147.5953486919672
 20
162.9853475990851
 30
0.0
 10
147.5806594376916
 20
162.9843685164455
 30
0.0
 10
147.5590924378602
 20
162.9766717142264
 30
0.0
 10
147.5381646648599
 20
162.9642359313369
 30
0.0
 10
147.5215441899067
 20
162.9504441850938
 30
0.0
 10
147.5086749747996
 20
162.9371448143898
 30
0.0
 10
147.4994920532194
 20
162.9255309850848
 30
0.0
 10
147.4910684112327
 20
162.9125085189339
 30
0.0
 10
147.4830197768325
 20
162.8983000378472
 30
0.0
 10
147.4756865499156
 20
162.8826629389809
 30
0.0
 10
147.4688423587145
 20
162.8657534494317
 30
0.0
 10
147.4626541121653
 20
162.847551984069
 30
0.0
 10
147.4591254709584
 20
162.834871264006
 30
0.0
 10
147.4573179583184
 20
162.828375686685
 30
0.0
  0
SPLINE
  5
6B
330
1F
100
AcDbEntity
  8
0
  6
Continuous
 62
     7
370
    25
100
AcDbSpline
210
0.0
220
0.0
230
1.0
 70
     8
 71
     3
 72
    15
 73
    11
 74
     0
 42
0.00000001
 43
0.00000001
 40
0.0
 40
0.0
 40
0.0
 40
0.0
 40
0.0708548685015746
 40
0.1569381495573312
 40
0.2586003949601208
 40
0.3758909295892016
 40
0.5081661676988857
 40
0.6562378085782028
 40
0.8201767703978936
 40
1.0
 40
1.0
 40
1.0
 40
1.0
 10
147.4573179583184
 20
162.828375686685
 30
0.0
 10
147.4559658459283
 20
162.8225822085195
 30
0.0
 10
147.4529710197298
 20
162.8097500946225
 30
0.0
 10
147.4500591517745
 20
162.7882219447021
 30
0.0
 10
147.4471821466383
 20
162.7627866136266
 30
0.0
 10
147.4451545413953
 20
162.7333733013742
 30
0.0
 10
147.4432751007874
 20
162.7000554602518
 30
0.0
 10
147.442215077294
 20
162.6627823329308
 30
0.0
 10
147.4413284657064
 20
162.6215156611759
 30
0.0
 10
147.4413047323146
 20
162.5926658459667
 30
0.0
 10
147.4412923172927
 20
162.5775744046337
 30
0.0
  0
LINE
  5
6C
330
1F
100
AcDbEntity
  8
0
  6
Continuous
 62
     7
370
    25
100
AcDbLine
 10
147.4412923173
 20
162.5775744046
 30
0.0
 11
147.4412923173
 21
162.3319814559
 31
0.0
  0
LINE
  5
6D
330
1F
100
AcDbEntity
  8
0
  6
Continuous
 62
     7
370
    25
100
AcDbLine
 10
147.4412923173
 20
162.3319814559
 30
0.0
 11
147.3515487275
 21
162.3319814559
 31
0.0
  0
SPLINE
  5
6E
330
1F
100
AcDbEntity
  8
0
  6
Continuous
 62
     7
370
    25
100
AcDbSpline
210
0.0
220
0.0
230
1.0
 70
     8
 71
     3
 72
    19
 73
    15
 74
     0
 42
0.00000001
 43
0.00000001
 40
0.0
 40
0.0
 40
0.0
 40
0.0
 40
0.0825922633314064
 40
0.1638788940984697
 40
0.2456587396294959
 40
0.3277256953541481
 40
0.4086099609102938
 40
0.4857490859539644
 40
0.5591690561973347
 40
0.6302684758575283
 40
0.7053060284321241
 40
0.7920649660966181
 40
0.8897964374101422
 40
1.0
 40
1.0
 40
1.0
 40
1.0
 10
146.810483022421
 20
162.4089045328388
 30
0.0
 10
146.819440493165
 20
162.4090782633131
 30
0.0
 10
146.83721383343
 20
162.4094229779006
 30
0.0
 10
146.8636826498137
 20
162.4127749524467
 30
0.0
 10
146.889722514785
 20
162.4181950311956
 30
0.0
 10
146.9152256528613
 20
162.4255921712194
 30
0.0
 10
146.9396744659803
 20
162.4346141289642
 30
0.0
 10
146.9623160517122
 20
162.4455006597211
 30
0.0
 10
146.9831389704625
 20
162.4575434445048
 30
0.0
 10
147.0026009609157
 20
162.4713176373758
 30
0.0
 10
147.0214783875878
 20
162.4881771193767
 30
0.0
 10
147.0402048122776
 20
162.5092158968019
 30
0.0
 10
147.0602838560958
 20
162.5340980475973
 30
0.0
 10
147.0728523111654
 20
162.5528253807338
 30
0.0
 10
147.0795134711389
 20
162.562750686685
 30
0.0
  0
LINE
  5
6F
330
1F
100
AcDbEntity
  8
0
  6
Continuous
 62
     7
370
    25
100
AcDbLine
 10
147.0795134711
 20
162.5627506867
 30
0.0
 11
147.1592410352
 21
162.5208836995
 31
0.0
  0
SPLINE
  5
70
330
1F
100
AcDbEntity
  8
0
  6
Continuous
 62
     7
370
    25
100
AcDbSpline
210
0.0
220
0.0
230
1.0
 70
     8
 71
     3
 72
    19
 73
    15
 74
     0
 42
0.00000001
 43
0.00000001
 40
0.0
 40
0.0
 40
0.0
 40
0.0
 40
0.0933698567361781
 40
0.1816607660709947
 40
0.2658742270426214
 40
0.3463547840343018
 40
0.4245998617178827
 40
0.5019031838373718
 40
0.5799920909873595
 40
0.6584434305294212
 40
0.7386722364878207
 40
0.8218941484362637
 40
0.9088007920466399
 40
1.0
 40
1.0
 40
1.0
 40
1.0
 10
147.1592410352415
 20
162.5208836995055
 30
0.0
 10
147.1528877223157
 20
162.509614176284
 30
0.0
 10
147.1405266913201
 20
162.4876881469075
 30
0.0
 10
147.11926933478
 20
162.4575647582012
 30
0.0
 10
147.0969858854718
 20
162.4304654108186
 30
0.0
 10
147.0726704660423
 20
162.4071140810233
 30
0.0
 10
147.0470505577696
 20
162.3867565424591
 30
0.0
 10
147.0199840849739
 20
162.3689457353968
 30
0.0
 10
146.9913301370493
 20
162.3537690152978
 30
0.0
 10
146.9610873585413
 20
162.3409825787627
 30
0.0
 10
146.9290017725009
 20
162.331151294732
 30
0.0
 10
146.8949956249552
 20
162.3242072316117
 30
0.0
 10
146.8590037691326
 20
162.3199148691401
 30
0.0
 10
146.8343334320276
 20
162.3194162574895
 30
0.0
 10
146.8217009711389
 20
162.3191609430952
 30
0.0
  0
SPLINE
  5
71
330
1F
100
AcDbEntity
  8
0
  6
Continuous
 62
     7
370
    25
100
AcDbSpline
210
0.0
220
0.0
230
1.0
 70
     8
 71
     3
 72
    23
 73
    19
 74
     0
 42
0.00000001
 43
0.00000001
 40
0.0
 40
0.0
 40
0.0
 40
0.0
 40
0.071578657689168
 40
0.1396292246928423
 40
0.2047966973966676
 40
0.2681349633967099
 40
0.3298137469867439
 40
0.3913013977745692
 40
0.4534335150970542
 40
0.5165516903198012
 40
0.5796312707049368
 40
0.6411189214927879
 40
0.7012940466987836
 40
0.7608103356761747
 40
0.819931721778177
 40
0.8789195754993979
 40
0.9389828222504912
 40
1.0
 40
1.0
 40
1.0
 40
1.0
 10
146.8217009711389
 20
162.3191609430952
 30
0.0
 10
146.8076604061288
 20
162.3194887074751
 30
0.0
 10
146.7802713313695
 20
162.3201280808264
 30
0.0
 10
146.7404028321944
 20
162.3256402135219
 30
0.0
 10
146.7028658555095
 20
162.3346323160058
 30
0.0
 10
146.6676625116941
 20
162.347193899289
 30
0.0
 10
146.6348790109577
 20
162.363601706172
 30
0.0
 10
146.6044501952971
 20
162.3835901295444
 30
0.0
 10
146.5762160450489
 20
162.4070564880269
 30
0.0
 10
146.5510662709959
 20
162.4342040433089
 30
0.0
 10
146.5284251616501
 20
162.4632560311076
 30
0.0
 10
146.5084463559428
 20
162.4935291409607
 30
0.0
 10
146.4917442327857
 20
162.5249472050961
 30
0.0
 10
146.4781577727299
 20
162.5573102119658
 30
0.0
 10
146.467184954167
 20
162.5904141815494
 30
0.0
 10
146.4595373245187
 20
162.6245603151407
 30
0.0
 10
146.4551288250953
 20
162.6596561963521
 30
0.0
 10
146.4544532692275
 20
162.6833982922715
 30
0.0
 10
146.4541128301133
 20
162.6953628661722
 30
0.0
  0
SPLINE
  5
72
330
1F
100
AcDbEntity
  8
0
  6
Continuous
 62
     7
370
    25
100
AcDbSpline
210
0.0
220
0.0
230
1.0
 70
     8
 71
     3
 72
    15
 73
    11
 74
     0
 42
0.00000001
 43
0.00000001
 40
0.0
 40
0.0
 40
0.0
 40
0.0
 40
0.1280448079611778
 40
0.2537679000245519
 40
0.3774284265813529
 40
0.5005508414825369
 40
0.6232958832424741
 40
0.7465783319335202
 40
0.8723475406046537
 40
1.0
 40
1.0
 40
1.0
 40
1.0
 10
146.4541128301132
 20
162.6953628661721
 30
0.0
 10
146.454415441922
 20
162.7065899605772
 30
0.0
 10
146.4550151785645
 20
162.7288405790591
 30
0.0
 10
146.4587954035342
 20
162.7617735917821
 30
0.0
 10
146.4654949158393
 20
162.793781721076
 30
0.0
 10
146.4746881512534
 20
162.8248915633528
 30
0.0
 10
146.4865599358772
 20
162.8550510302054
 30
0.0
 10
146.5010834270818
 20
162.8842784769548
 30
0.0
 10
146.5182812493071
 20
162.9125428026292
 30
0.0
 10
146.5315591560947
 20
162.9303722694029
 30
0.0
 10
146.5382474454979
 20
162.9393532507875
 30
0.0
  0
SPLINE
  5
73
330
1F
100
AcDbEntity
  8
0
  6
Continuous
 62
     7
370
    25
100
AcDbSpline
210
0.0
220
0.0
230
1.0
 70
     8
 71
     3
 72
    15
 73
    11
 74
     0
 42
0.00000001
 43
0.00000001
 40
0.0
 40
0.0
 40
0.0
 40
0.0
 40
0.1288352544875493
 40
0.2535893349864844
 40
0.3746432573141695
 40
0.4953400422377951
 40
0.6163247746358338
 40
0.7397593354405455
 40
0.8668423203805886
 40
1.0
 40
1.0
 40
1.0
 40
1.0
 10
146.5382474454979
 20
162.9393532507875
 30
0.0
 10
146.5473067834338
 20
162.9501729279555
 30
0.0
 10
146.5651384824647
 20
162.97146954237
 30
0.0
 10
146.5952974411374
 20
162.9994519211648
 30
0.0
 10
146.6279546400923
 20
163.0228929997868
 30
0.0
 10
146.662700818978
 20
163.042323610112
 30
0.0
 10
146.6999398115668
 20
163.0570875092528
 30
0.0
 10
146.7391710375774
 20
163.0680896756048
 30
0.0
 10
146.7808412050708
 20
163.0742548216144
 30
0.0
 10
146.8093284110246
 20
163.0751256312207
 30
0.0
 10
146.8239044967799
 20
163.0755711995055
 30
0.0
  0
SPLINE
  5
74
330
1F
100
AcDbEntity
  8
0
  6
Continuous
 62
     7
370
    25
100
AcDbSpline
210
0.0
220
0.0
230
1.0
 70
     8
 71
     3
 72
    15
 73
    11
 74
     0
 42
0.00000001
 43
0.00000001
 40
0.0
 40
0.0
 40
0.0
 40
0.0
 40
0.1320402344260277
 40
0.259032840779428
 40
0.3818798239250628
 40
0.5022584437149932
 40
0.6227521895275163
 40
0.7447426318590371
 40
0.870108927341878
 40
1.0
 40
1.0
 40
1.0
 40
1.0
 10
146.8239044967799
 20
163.0755711995055
 30
0.0
 10
146.8388895268667
 20
163.0751843283934
 30
0.0
 10
146.868286739992
 20
163.0744253754603
 30
0.0
 10
146.9111530602883
 20
163.0673892802006
 30
0.0
 10
146.9517132650141
 20
163.0562314074682
 30
0.0
 10
146.9899511233881
 20
163.0404731816109
 30
0.0
 10
147.0258705121746
 20
163.0201418810994
 30
0.0
 10
147.0592379549102
 20
162.9949584978191
 30
0.0
 10
147.0906241013527
 20
162.9656961871834
 30
0.0
 10
147.1088836953105
 20
162.9431924130613
 30
0.0
 10
147.1181753301132
 20
162.9317410713004
 30
0.0
  0
SPLINE
  5
75
330
1F
100
AcDbEntity
  8
0
  6
Continuous
 62
     7
370
    25
100
AcDbSpline
210
0.0
220
0.0
230
1.0
 70
     8
 71
     3
 72
    15
 73
    11
 74
     0
 42
0.00000001
 43
0.00000001
 40
0.0
 40
0.0
 40
0.0
 40
0.0
 40
0.118521840013293
 40
0.2362547631617476
 40
0.3561744339909951
 40
0.4772496548985834
 40
0.6015398708217605
 40
0.7296183821680344
 40
0.8621582661414445
 40
1.0
 40
1.0
 40
1.0
 40
1.0
 10
147.1181753301132
 20
162.9317410713004
 30
0.0
 10
147.1244973124882
 20
162.9231114766186
 30
0.0
 10
147.1370991962301
 20
162.9059097284218
 30
0.0
 10
147.1528840819544
 20
162.8778608263929
 30
0.0
 10
147.1665861948069
 20
162.848514942293
 30
0.0
 10
147.1775384693826
 20
162.8173977145538
 30
0.0
 10
147.1864068982958
 20
162.7848778345044
 30
0.0
 10
147.1928231322216
 20
162.7507228217289
 30
0.0
 10
147.1965858803879
 20
162.7149428470543
 30
0.0
 10
147.1973255082017
 20
162.6905638312039
 30
0.0
 10
147.197702573703
 20
162.6781353020696
 30
0.0
  0
LINE
  5
76
330
1F
100
AcDbEntity
  8
0
  6
Continuous
 62
     7
370
    25
100
AcDbLine
 10
147.1977025737
 20
162.6781353021
 30
0.0
 11
146.5438564199
 21
162.6781353021
 31
0.0
  0
SPLINE
  5
77
330
1F
100
AcDbEntity
  8
0
  6
Continuous
 62
     7
370
    25
100
AcDbSpline
210
0.0
220
0.0
230
1.0
 70
     8
 71
     3
 72
    23
 73
    19
 74
     0
 42
0.00000001
 43
0.00000001
 40
0.0
 40
0.0
 40
0.0
 40
0.0
 40
0.0683846151037742
 40
0.1344755875434568
 40
0.1983910577839676
 40
0.2607534774484901
 40
0.3218292228076589
 40
0.3830372384795096
 40
0.4446531231064337
 40
0.507398011204006
 40
0.5698252379730256
 40
0.6307776406313103
 40
0.6909286865236874
 40
0.7509451326917066
 40
0.8110494767293361
 40
0.8723308525469812
 40
0.9350040935893964
 40
0.9999999999999999
 40
0.9999999999999999
 40
0.9999999999999999
 40
0.9999999999999999
 10
146.5438564198568
 20
162.6781353020696
 30
0.0
 10
146.544296307408
 20
162.668506597999
 30
0.0
 10
146.5451613285361
 20
162.6495721397847
 30
0.0
 10
146.5491942265837
 20
162.6218662017613
 30
0.0
 10
146.5555510190905
 20
162.5954738182859
 30
0.0
 10
146.5644850369873
 20
162.5705929491506
 30
0.0
 10
146.5753041356315
 20
162.5468986270034
 30
0.0
 10
146.5885571975703
 20
162.5245666164409
 30
0.0
 10
146.6043684986997
 20
162.5036986364267
 30
0.0
 10
146.6220044128095
 20
162.4841080256858
 30
0.0
 10
146.6416350114768
 20
162.4666620939236
 30
0.0
 10
146.6622872249685
 20
162.4510473007138
 30
0.0
 10
146.6842568149654
 20
162.4379599873625
 30
0.0
 10
146.7073705531066
 20
162.4273371617188
 30
0.0
 10
146.7315910631478
 20
162.4190210714161
 30
0.0
 10
146.756925976038
 20
162.4133445512211
 30
0.0
 10
146.7833254378536
 20
162.4095425206852
 30
0.0
 10
146.801321361863
 20
162.4091197591995
 30
0.0
 10
146.810483022421
 20
162.4089045328388
 30
0.0
  0
LINE
  5
78
330
1F
100
AcDbEntity
  8
0
  6
Continuous
 62
     7
370
    25
100
AcDbLine
 10
146.107958984
 20
163.0627506867
 30
0.0
 11
146.107958984
 21
163.3576224816
 31
0.0
  0
LINE
  5
79
330
1F
100
AcDbEntity
  8
0
  6
Continuous
 62
     7
370
    25
100
AcDbLine
 10
146.107958984
 20
163.3576224816
 30
0.0
 11
146.1977025737
 21
163.3576224816
 31
0.0
  0
LINE
  5
7A
330
1F
100
AcDbEntity
  8
0
  6
Continuous
 62
     7
370
    25
100
AcDbLine
 10
146.1977025737
 20
163.3576224816
 30
0.0
 11
146.1977025737
 21
163.0627506867
 31
0.0
  0
LINE
  5
7B
330
1F
100
AcDbEntity
  8
0
  6
Continuous
 62
     7
370
    25
100
AcDbLine
 10
146.1977025737
 20
163.0627506867
 30
0.0
 11
146.3259077019
 21
163.0627506867
 31
0.0
  0
LINE
  5
7C
330
1F
100
AcDbEntity
  8
0
  6
Continuous
 62
     7
370
    25
100
AcDbLine
 10
146.3259077019
 20
163.0627506867
 30
0.0
 11
146.3259077019
 21
162.9730070969
 31
0.0
  0
LINE
  5
7D
330
1F
100
AcDbEntity
  8
0
  6
Continuous
 62
     7
370
    25
100
AcDbLine
 10
146.3259077019
 20
162.9730070969
 30
0.0
 11
146.1977025737
 21
162.9730070969
 31
0.0
  0
LINE
  5
7E
330
1F
100
AcDbEntity
  8
0
  6
Continuous
 62
     7
370
    25
100
AcDbLine
 10
146.1977025737
 20
162.9730070969
 30
0.0
 11
146.1977025737
 21
162.3319814559
 31
0.0
  0
LINE
  5
7F
330
1F
100
AcDbEntity
  8
0
  6
Continuous
 62
     7
370
    25
100
AcDbLine
 10
146.1977025737
 20
162.3319814559
 30
0.0
 11
146.107958984
 21
162.3319814559
 31
0.0
  0
LINE
  5
80
330
1F
100
AcDbEntity
  8
0
  6
Continuous
 62
     7
370
    25
100
AcDbLine
 10
146.107958984
 20
162.3319814559
 30
0.0
 11
146.107958984
 21
162.9730070969
 31
0.0
  0
LINE
  5
81
330
1F
100
AcDbEntity
  8
0
  6
Continuous
 62
     7
370
    25
100
AcDbLine
 10
146.107958984
 20
162.9730070969
 30
0.0
 11
145.9797538558
 21
162.9730070969
 31
0.0
  0
LINE
  5
82
330
1F
100
AcDbEntity
  8
0
  6
Continuous
 62
     7
370
    25
100
AcDbLine
 10
145.9797538558
 20
162.9730070969
 30
0.0
 11
145.9797538558
 21
163.0627506867
 31
0.0
  0
LINE
  5
83
330
1F
100
AcDbEntity
  8
0
  6
Continuous
 62
     7
370
    25
100
AcDbLine
 10
145.9797538558
 20
163.0627506867
 30
0.0
 11
146.107958984
 21
163.0627506867
 31
0.0
  0
SPLINE
  5
84
330
1F
100
AcDbEntity
  8
0
  6
Continuous
 62
     7
370
    25
100
AcDbSpline
210
0.0
220
0.0
230
1.0
 70
     8
 71
     3
 72
    11
 73
     7
 74
     0
 42
0.00000001
 43
0.00000001
 40
0.0
 40
0.0
 40
0.0
 40
0.0
 40
0.2161821019353099
 40
0.4538628546213
 40
0.7149988390359954
 40
1.0
 40
1.0
 40
1.0
 40
1.0
 10
145.7806352660107
 20
163.3704429943773
 30
0.0
 10
145.7886571969206
 20
163.3701694570439
 30
0.0
 10
145.8054988153052
 20
163.3695951799236
 30
0.0
 10
145.8318407017372
 20
163.3660427778546
 30
0.0
 10
145.8602968495902
 20
163.3599081979189
 30
0.0
 10
145.8798213983921
 20
163.3544573737113
 30
0.0
 10
145.8900102660107
 20
163.3516128661722
 30
0.0
  0
LINE
  5
85
330
1F
100
AcDbEntity
  8
0
  6
Continuous
 62
     7
370
    25
100
AcDbLine
 10
145.890010266
 20
163.3516128662
 30
0.0
 11
145.890010266
 21
163.2582635072
 31
0.0
  0
SPLINE
  5
86
330
1F
100
AcDbEntity
  8
0
  6
Continuous
 62
     7
370
    25
100
AcDbSpline
210
0.0
220
0.0
230
1.0
 70
     8
 71
     3
 72
    11
 73
     7
 74
     0
 42
0.00000001
 43
0.00000001
 40
0.0
 40
0.0
 40
0.0
 40
0.0
 40
0.291370979984775
 40
0.553028172792957
 40
0.7890114875487027
 40
1.0
 40
1.0
 40
1.0
 40
1.0
 10
145.8900102660107
 20
163.2582635071978
 30
0.0
 10
145.8815134719327
 20
163.2616780421396
 30
0.0
 10
145.8653863802651
 20
163.2681589003908
 30
0.0
 10
145.8416034156564
 20
163.2752059362361
 30
0.0
 10
145.8197380346348
 20
163.2797590048544
 30
0.0
 10
145.805694065987
 20
163.2803978461071
 30
0.0
 10
145.7990647531902
 20
163.2806994046337
 30
0.0
  0
SPLINE
  5
87
330
1F
100
AcDbEntity
  8
0
  6
Continuous
 62
     7
370
    25
100
AcDbSpline
210
0.0
220
0.0
230
1.0
 70
     8
 71
     3
 72
    23
 73
    19
 74
     0
 42
0.00000001
 43
0.00000001
 40
0.0
 40
0.0
 40
0.0
 40
0.0
 40
0.0819996033692675
 40
0.1587238808248341
 40
0.2294242900918389
 40
0.2977193617267058
 40
0.3607760944827745
 40
0.4169875438102698
 40
0.4685455736808868
 40
0.5166749476257113
 40
0.5445339798615622
 40
0.5815093126016809
 40
0.6283340393799054
 40
0.6834325460479554
 40
0.7495060425028869
 40
0.8228181855220383
 40
0.9071508469960922
 40
1.0
 40
1.0
 40
1.0
 40
1.0
 10
145.7990647531902
 20
163.2806994046337
 30
0.0
 10
145.7945865348797
 20
163.2805133074397
 30
0.0
 10
145.7859181979584
 20
163.2801530853455
 30
0.0
 10
145.7734601046399
 20
163.2783164351584
 30
0.0
 10
145.762234616114
 20
163.2745727777418
 30
0.0
 10
145.7522615817016
 20
163.2697072701464
 30
0.0
 10
145.7439900216665
 20
163.2636060747332
 30
0.0
 10
145.7369082433401
 20
163.2574759993833
 30
0.0
 10
145.731774949162
 20
163.2505659478271
 30
0.0
 10
145.7289878212555
 20
163.244131544913
 30
0.0
 10
145.7272878210306
 20
163.2381741182112
 30
0.0
 10
145.7267763558216
 20
163.2320728992686
 30
0.0
 10
145.725523523212
 20
163.2245803032357
 30
0.0
 10
145.7251741498904
 20
163.2153906695204
 30
0.0
 10
145.7243777588604
 20
163.2047898950989
 30
0.0
 10
145.7244482277704
 20
163.1925536389651
 30
0.0
 10
145.7237956783662
 20
163.1788744552805
 30
0.0
 10
145.723893368178
 20
163.1691885841851
 30
0.0
 10
145.7239445608825
 20
163.1641128661722
 30
0.0
  0
LINE
  5
88
330
1F
100
AcDbEntity
  8
0
  6
Continuous
 62
     7
370
    25
100
AcDbLine
 10
145.7239445609
 20
163.1641128662
 30
0.0
 11
145.7239445609
 21
163.0627506867
 31
0.0
  0
LINE
  5
89
330
1F
100
AcDbEntity
  8
0
  6
Continuous
 62
     7
370
    25
100
AcDbLine
 10
145.7239445609
 20
163.0627506867
 30
0.0
 11
145.8771897532
 21
163.0627506867
 31
0.0
  0
LINE
  5
8A
330
1F
100
AcDbEntity
  8
0
  6
Continuous
 62
     7
370
    25
100
AcDbLine
 10
145.8771897532
 20
163.0627506867
 30
0.0
 11
145.8771897532
 21
162.9730070969
 31
0.0
  0
LINE
  5
8B
330
1F
100
AcDbEntity
  8
0
  6
Continuous
 62
     7
370
    25
100
AcDbLine
 10
145.8771897532
 20
162.9730070969
 30
0.0
 11
145.7237442404
 21
162.9730070969
 31
0.0
  0
LINE
  5
8C
330
1F
100
AcDbEntity
  8
0
  6
Continuous
 62
     7
370
    25
100
AcDbLine
 10
145.7237442404
 20
162.9730070969
 30
0.0
 11
145.7233435993
 21
162.3319814559
 31
0.0
  0
LINE
  5
8D
330
1F
100
AcDbEntity
  8
0
  6
Continuous
 62
     7
370
    25
100
AcDbLine
 10
145.7233435993
 20
162.3319814559
 30
0.0
 11
145.6336000096
 21
162.3319814559
 31
0.0
  0
LINE
  5
8E
330
1F
100
AcDbEntity
  8
0
  6
Continuous
 62
     7
370
    25
100
AcDbLine
 10
145.6336000096
 20
162.3319814559
 30
0.0
 11
145.6336000096
 21
162.9730070969
 31
0.0
  0
LINE
  5
8F
330
1F
100
AcDbEntity
  8
0
  6
Continuous
 62
     7
370
    25
100
AcDbLine
 10
145.6336000096
 20
162.9730070969
 30
0.0
 11
145.531035907
 21
162.9730070969
 31
0.0
  0
LINE
  5
90
330
1F
100
AcDbEntity
  8
0
  6
Continuous
 62
     7
370
    25
100
AcDbLine
 10
145.531035907
 20
162.9730070969
 30
0.0
 11
145.531035907
 21
163.0627506867
 31
0.0
  0
LINE
  5
91
330
1F
100
AcDbEntity
  8
0
  6
Continuous
 62
     7
370
    25
100
AcDbLine
 10
145.531035907
 20
163.0627506867
 30
0.0
 11
145.6336000096
 21
163.0627506867
 31
0.0
  0
LINE
  5
92
330
1F
100
AcDbEntity
  8
0
  6
Continuous
 62
     7
370
    25
100
AcDbLine
 10
145.6336000096
 20
163.0627506867
 30
0.0
 11
145.6336000096
 21
163.1795375457
 31
0.0
  0
SPLINE
  5
93
330
1F
100
AcDbEntity
  8
0
  6
Continuous
 62
     7
370
    25
100
AcDbSpline
210
0.0
220
0.0
230
1.0
 70
     8
 71
     3
 72
    23
 73
    19
 74
     0
 42
0.00000001
 43
0.00000001
 40
0.0
 40
0.0
 40
0.0
 40
0.0
 40
0.069774922660186
 40
0.1338564334601374
 40
0.1929478316482595
 40
0.247915963291126
 40
0.2966422796888176
 40
0.3415043542393636
 40
0.3816302135621244
 40
0.4169048131312879
 40
0.483173327955172
 40
0.5489166715112967
 40
0.616061617662462
 40
0.6863021304191297
 40
0.7596451141755819
 40
0.8353895515120194
 40
0.9149744633747752
 40
1.0
 40
1.0
 40
1.0
 40
1.0
 10
145.6336000096004
 20
163.1795375456593
 30
0.0
 10
145.6336072137203
 20
163.1860162827549
 30
0.0
 10
145.6336210341266
 20
163.1984451125963
 30
0.0
 10
145.6345889915175
 20
163.2163335240592
 30
0.0
 10
145.6354163401829
 20
163.2328545138986
 30
0.0
 10
145.6370642338905
 20
163.2478798375199
 30
0.0
 10
145.638967578413
 20
163.2615501642017
 30
0.0
 10
145.6416921953527
 20
163.2736624158647
 30
0.0
 10
145.6442668728041
 20
163.2845429185344
 30
0.0
 10
145.648937899171
 20
163.2968579633879
 30
0.0
 10
145.6559156760903
 20
163.3108151131965
 30
0.0
 10
145.6672100179243
 20
163.3255647987216
 30
0.0
 10
145.6807508772253
 20
163.3387947836346
 30
0.0
 10
145.6969246839749
 20
163.3499397416936
 30
0.0
 10
145.7151291226043
 20
163.3592013067229
 30
0.0
 10
145.7353808878142
 20
163.365841836179
 30
0.0
 10
145.7574595156712
 20
163.369596248977
 30
0.0
 10
145.7727416499985
 20
163.3701545945218
 30
0.0
 10
145.7806352660107
 20
163.3704429943773
 30
0.0
  0
LINE
  5
94
330
1F
100
AcDbEntity
  8
0
  6
Continuous
 62
     7
370
    25
100
AcDbLine
 10
145.2746256506
 20
162.3319814559
 30
0.0
 11
145.2746256506
 21
163.0627506867
 31
0.0
  0
LINE
  5
95
330
1F
100
AcDbEntity
  8
0
  6
Continuous
 62
     7
370
    25
100
AcDbLine
 10
145.2746256506
 20
163.0627506867
 30
0.0
 11
145.3643692404
 21
163.0627506867
 31
0.0
  0
LINE
  5
96
330
1F
100
AcDbEntity
  8
0
  6
Continuous
 62
     7
370
    25
100
AcDbLine
 10
145.3643692404
 20
163.0627506867
 30
0.0
 11
145.3643692404
 21
162.3319814559
 31
0.0
  0
LINE
  5
97
330
1F
100
AcDbEntity
  8
0
  6
Continuous
 62
     7
370
    25
100
AcDbLine
 10
145.3643692404
 20
162.3319814559
 30
0.0
 11
145.2746256506
 21
162.3319814559
 31
0.0
  0
SPLINE
  5
98
330
1F
100
AcDbEntity
  8
0
  6
Continuous
 62
     7
370
    25
100
AcDbSpline
210
0.0
220
0.0
230
1.0
 70
     8
 71
     3
 72
    15
 73
    11
 74
     0
 42
0.00000001
 43
0.00000001
 40
0.0
 40
0.0
 40
0.0
 40
0.0
 40
0.1232898687277493
 40
0.2421490813340421
 40
0.3634374760537387
 40
0.4897453933414965
 40
0.6181148445930587
 40
0.7448937812572128
 40
0.8689322665891674
 40
1.0
 40
1.0
 40
1.0
 40
1.0
 10
145.2361641121645
 20
163.2931192764286
 30
0.0
 10
145.2364672797694
 20
163.2982995191722
 30
0.0
 10
145.237062720074
 20
163.3084738427756
 30
0.0
 10
145.2419690389707
 20
163.3230724236087
 30
0.0
 10
145.2496432697598
 20
163.3364957098381
 30
0.0
 10
145.2603520021979
 20
163.3482172811026
 30
0.0
 10
145.2731044194181
 20
163.3580016910367
 30
0.0
 10
145.2873434894657
 20
163.3652619714659
 30
0.0
 10
145.3028762607167
 20
163.3697109255717
 30
0.0
 10
145.3135915395706
 20
163.3701945296673
 30
0.0
 10
145.3190968044722
 20
163.3704429943773
 30
0.0
  0
SPLINE
  5
99
330
1F
100
AcDbEntity
  8
0
  6
Continuous
 62
     7
370
    25
100
AcDbSpline
210
0.0
220
0.0
230
1.0
 70
     8
 71
     3
 72
    15
 73
    11
 74
     0
 42
0.00000001
 43
0.00000001
 40
0.0
 40
0.0
 40
0.0
 40
0.0
 40
0.1318992643310676
 40
0.258284092316922
 40
0.3843411247789688
 40
0.5119796151256912
 40
0.6386320084212143
 40
0.7592297631644861
 40
0.8774121680352245
 40
1.0
 40
1.0
 40
1.0
 40
1.0
 10
145.3190968044722
 20
163.3704429943773
 30
0.0
 10
145.3246657518403
 20
163.3701846651214
 30
0.0
 10
145.3355708203667
 20
163.3696788068232
 30
0.0
 10
145.3513403254171
 20
163.3653469562293
 30
0.0
 10
145.3656994717243
 20
163.3580041889594
 30
0.0
 10
145.3784359668357
 20
163.3481528515593
 30
0.0
 10
145.3893650773159
 20
163.3365672962852
 30
0.0
 10
145.3970167088518
 20
163.3230641624866
 30
0.0
 10
145.4019345363133
 20
163.3084759799754
 30
0.0
 10
145.4025284092498
 20
163.2983002402094
 30
0.0
 10
145.4028307788312
 20
163.2931192764286
 30
0.0
  0
SPLINE
  5
9A
330
1F
100
AcDbEntity
  8
0
  6
Continuous
 62
     7
370
    25
100
AcDbSpline
210
0.0
220
0.0
230
1.0
 70
     8
 71
     3
 72
    15
 73
    11
 74
     0
 42
0.00000001
 43
0.00000001
 40
0.0
 40
0.0
 40
0.0
 40
0.0
 40
0.1201621349926461
 40
0.2375463202768849
 40
0.3574970509272336
 40
0.4849171224652487
 40
0.6133292680852284
 40
0.7401503701287195
 40
0.8673012545632622
 40
1.0
 40
1.0
 40
1.0
 40
1.0
 10
145.4028307788312
 20
163.2931192764286
 30
0.0
 10
145.4025215903098
 20
163.2880728040962
 30
0.0
 10
145.401910361194
 20
163.2780965255206
 30
0.0
 10
145.3970205074079
 20
163.2637612477913
 30
0.0
 10
145.3892998680243
 20
163.2504457382247
 30
0.0
 10
145.3784429749883
 20
163.238882678164
 30
0.0
 10
145.365697614702
 20
163.2290367867382
 30
0.0
 10
145.3513408187449
 20
163.2216925756224
 30
0.0
 10
145.3355706905978
 20
163.2173611078037
 30
0.0
 10
145.3246657079727
 20
163.2168551967355
 30
0.0
 10
145.3190968044723
 20
163.2165968405312
 30
0.0
  0
SPLINE
  5
9B
330
1F
100
AcDbEntity
  8
0
  6
Continuous
 62
     7
370
    25
100
AcDbSpline
210
0.0
220
0.0
230
1.0
 70
     8
 71
     3
 72
    15
 73
    11
 74
     0
 42
0.00000001
 43
0.00000001
 40
0.0
 40
0.0
 40
0.0
 40
0.0
 40
0.1318667517023608
 40
0.2566614034534219
 40
0.3842132129424814
 40
0.5133652331525067
 40
0.6404431518254369
 40
0.7610850047779063
 40
0.8791455246531324
 40
1.0
 40
1.0
 40
1.0
 40
1.0
 10
145.3190968044722
 20
163.2165968405311
 30
0.0
 10
145.313591582996
 20
163.216845332023
 30
0.0
 10
145.3028763886641
 20
163.217328988246
 30
0.0
 10
145.2873430051378
 20
163.2217775647421
 30
0.0
 10
145.2731062938825
 20
163.2290392999136
 30
0.0
 10
145.2603449588373
 20
163.2388182099409
 30
0.0
 10
145.2497077607996
 20
163.2505167520065
 30
0.0
 10
145.2419653821148
 20
163.2637531216799
 30
0.0
 10
145.2370868215761
 20
163.2780985944279
 30
0.0
 10
145.2364740705433
 20
163.2880734990877
 30
0.0
 10
145.2361641121645
 20
163.2931192764286
 30
0.0
  0
LINE
  5
9C
330
1F
100
AcDbEntity
  8
0
  6
Continuous
 62
     7
370
    25
100
AcDbLine
 10
144.4412923173
 20
162.3319814559
 30
0.0
 11
144.4412923173
 21
163.3576224816
 31
0.0
  0
LINE
  5
9D
330
1F
100
AcDbEntity
  8
0
  6
Continuous
 62
     7
370
    25
100
AcDbLine
 10
144.4412923173
 20
163.3576224816
 30
0.0
 11
144.531035907
 21
163.3576224816
 31
0.0
  0
LINE
  5
9E
330
1F
100
AcDbEntity
  8
0
  6
Continuous
 62
     7
370
    25
100
AcDbLine
 10
144.531035907
 20
163.3576224816
 30
0.0
 11
144.531035907
 21
162.9247298534
 31
0.0
  0
SPLINE
  5
9F
330
1F
100
AcDbEntity
  8
0
  6
Continuous
 62
     7
370
    25
100
AcDbSpline
210
0.0
220
0.0
230
1.0
 70
     8
 71
     3
 72
    15
 73
    11
 74
     0
 42
0.00000001
 43
0.00000001
 40
0.0
 40
0.0
 40
0.0
 40
0.0
 40
0.1407235132503336
 40
0.2739958912186122
 40
0.4006841600587454
 40
0.522554679004753
 40
0.6415337705509467
 40
0.7599691428622306
 40
0.8784045151735134
 40
1.0
 40
1.0
 40
1.0
 40
1.0
 10
144.5310359070363
 20
162.9247298533517
 30
0.0
 10
144.5406694217922
 20
162.9367709910929
 30
0.0
 10
144.5594263686603
 20
162.9602157032842
 30
0.0
 10
144.5909966876932
 20
162.9908046149594
 30
0.0
 10
144.6234169368692
 20
163.0173185067378
 30
0.0
 10
144.6578068825341
 20
163.0384243516563
 30
0.0
 10
144.6935356026319
 20
163.0550976497295
 30
0.0
 10
144.7307537867544
 20
163.0669226915778
 30
0.0
 10
144.7694683499791
 20
163.0741944334802
 30
0.0
 10
144.7957612499903
 20
163.0751082671554
 30
0.0
 10
144.8090807788312
 20
163.0755711995055
 30
0.0
  0
SPLINE
  5
A0
330
1F
100
AcDbEntity
  8
0
  6
Continuous
 62
     7
370
    25
100
AcDbSpline
210
0.0
220
0.0
230
1.0
 70
     8
 71
     3
 72
    23
 73
    19
 74
     0
 42
0.00000001
 43
0.00000001
 40
0.0
 40
0.0
 40
0.0
 40
0.0
 40
0.0772285532334823
 40
0.1511549072636026
 40
0.2234536379509346
 40
0.2954972249195241
 40
0.3669198573541317
 40
0.4367940850066724
 40
0.506696430852298
 40
0.5778638467408276
 40
0.6159118097672497
 40
0.6580480255185036
 40
0.703775986058034
 40
0.7540801428690721
 40
0.8089794210802377
 40
0.8679131928433494
 40
0.9317018161757216
 40
1.0
 40
1.0
 40
1.0
 40
1.0
 10
144.8090807788312
 20
163.0755711995055
 30
0.0
 10
144.8226037482077
 20
163.0750725051434
 30
0.0
 10
144.8490714612029
 20
163.0740964399848
 30
0.0
 10
144.8876090219753
 20
163.0663783311191
 30
0.0
 10
144.9235978433804
 20
163.0531904916683
 30
0.0
 10
144.9569309413191
 20
163.0351427702246
 30
0.0
 10
144.9868808547801
 20
163.0126648195828
 30
0.0
 10
145.0134093588447
 20
162.9867129559715
 30
0.0
 10
145.0350781584994
 20
162.9566346936451
 30
0.0
 10
145.0498207633437
 20
162.928847192511
 30
0.0
 10
145.0594131655855
 20
162.9041218342378
 30
0.0
 10
145.0654851159754
 20
162.8829114021654
 30
0.0
 10
145.0706334583523
 20
162.8592765698091
 30
0.0
 10
145.0751190971473
 20
162.8332295034225
 30
0.0
 10
145.0781086918878
 20
162.8046451687613
 30
0.0
 10
145.0805100113145
 20
162.7736525246328
 30
0.0
 10
145.0822175696608
 20
162.7402533480264
 30
0.0
 10
145.0822837423676
 20
162.7171332767735
 30
0.0
 10
145.0823179583184
 20
162.7051785713004
 30
0.0
  0
LINE
  5
A1
330
1F
100
AcDbEntity
  8
0
  6
Continuous
 62
     7
370
    25
100
AcDbLine
 10
145.0823179583
 20
162.7051785713
 30
0.0
 11
145.0823179583
 21
162.3319814559
 31
0.0
  0
LINE
  5
A2
330
1F
100
AcDbEntity
  8
0
  6
Continuous
 62
     7
370
    25
100
AcDbLine
 10
145.0823179583
 20
162.3319814559
 30
0.0
 11
144.9925743686
 21
162.3319814559
 31
0.0
  0
LINE
  5
A3
330
1F
100
AcDbEntity
  8
0
  6
Continuous
 62
     7
370
    25
100
AcDbLine
 10
144.9925743686
 20
162.3319814559
 30
0.0
 11
144.9925743686
 21
162.6757314559
 31
0.0
  0
SPLINE
  5
A4
330
1F
100
AcDbEntity
  8
0
  6
Continuous
 62
     7
370
    25
100
AcDbSpline
210
0.0
220
0.0
230
1.0
 70
     8
 71
     3
 72
    15
 73
    11
 74
     0
 42
0.00000001
 43
0.00000001
 40
0.0
 40
0.0
 40
0.0
 40
0.0
 40
0.1788665699310298
 40
0.3421413072700899
 40
0.4898709911204559
 40
0.6233121032799688
 40
0.740055623438315
 40
0.8414680041078557
 40
0.9289010934036881
 40
1.0
 40
1.0
 40
1.0
 40
1.0
 10
144.9925743685748
 20
162.6757314559158
 30
0.0
 10
144.9925199962422
 20
162.6856807900684
 30
0.0
 10
144.9924159912234
 20
162.7047121730416
 30
0.0
 10
144.9920721784916
 20
162.7319596325737
 30
0.0
 10
144.9913046883958
 20
162.7566728138799
 30
0.0
 10
144.990064452442
 20
162.7787725143845
 30
0.0
 10
144.9887600789048
 20
162.7982895439019
 30
0.0
 10
144.9869648454257
 20
162.8151955594548
 30
0.0
 10
144.9848762071288
 20
162.8295137809696
 30
0.0
 10
144.9829994124387
 20
162.8381322462927
 30
0.0
 10
144.9821577019081
 20
162.8419974815568
 30
0.0
  0
SPLINE
  5
A5
330
1F
100
AcDbEntity
  8
0
  6
Continuous
 62
     7
370
    25
100
AcDbSpline
210
0.0
220
0.0
230
1.0
 70
     8
 71
     3
 72
    15
 73
    11
 74
     0
 42
0.00000001
 43
0.00000001
 40
0.0
 40
0.0
 40
0.0
 40
0.0
 40
0.1362573959515917
 40
0.2619540501110753
 40
0.3796376751609403
 40
0.4943790325909077
 40
0.6098662115170878
 40
0.7298874857748455
 40
0.8592125479191544
 40
1.0
 40
1.0
 40
1.0
 40
1.0
 10
144.9821577019081
 20
162.8419974815568
 30
0.0
 10
144.9788936318806
 20
162.8533386997448
 30
0.0
 10
144.9726184762638
 20
162.8751421256564
 30
0.0
 10
144.9580333399236
 20
162.9047599571078
 30
0.0
 10
144.9398164796206
 20
162.9300127401683
 30
0.0
 10
144.9175744048848
 20
162.9505596796396
 30
0.0
 10
144.8917005865679
 20
162.9666772623123
 30
0.0
 10
144.8620263111077
 20
162.9778394857986
 30
0.0
 10
144.8288308629839
 20
162.9847674063618
 30
0.0
 10
144.8054447281902
 20
162.9854643502155
 30
0.0
 10
144.7932554583184
 20
162.9858276097619
 30
0.0
  0
SPLINE
  5
A6
330
1F
100
AcDbEntity
  8
0
  6
Continuous
 62
     7
370
    25
100
AcDbSpline
210
0.0
220
0.0
230
1.0
 70
     8
 71
     3
 72
    23
 73
    19
 74
     0
 42
0.00000001
 43
0.00000001
 40
0.0
 40
0.0
 40
0.0
 40
0.0
 40
0.0640199753991363
 40
0.126693877202696
 40
0.189084394719262
 40
0.2503626319435171
 40
0.3125164793751601
 40
0.3742426024152076
 40
0.4378501622567501
 40
0.502657325979137
 40
0.5677454391231801
 40
0.6305759140873931
 40
0.6927720900845102
 40
0.7542675456219708
 40
0.8151205536325609
 40
0.8760513585554144
 40
0.9379817981186724
 40
1.0
 40
1.0
 40
1.0
 40
1.0
 10
144.7932554583184
 20
162.9858276097619
 30
0.0
 10
144.7860360945532
 20
162.9856916593854
 30
0.0
 10
144.7717491601919
 20
162.985422617103
 30
0.0
 10
144.7505638271023
 20
162.9827215032346
 30
0.0
 10
144.7300126660963
 20
162.9783075836349
 30
0.0
 10
144.7098977581382
 20
162.9723348582895
 30
0.0
 10
144.6906454159347
 20
162.9642075621535
 30
0.0
 10
144.6716944659417
 20
162.954798936631
 30
0.0
 10
144.6535818348145
 20
162.9432822923558
 30
0.0
 10
144.63598588714
 20
162.9303606445159
 30
0.0
 10
144.6196094490409
 20
162.9160549988823
 30
0.0
 10
144.6043731303335
 20
162.9009558688789
 30
0.0
 10
144.5907907474316
 20
162.8848773076648
 30
0.0
 10
144.5784854357245
 20
162.8680772744999
 30
0.0
 10
144.5678630683945
 20
162.8503253335113
 30
0.0
 10
144.5585907592248
 20
162.8317926711082
 30
0.0
 10
144.5507234173996
 20
162.8124549152134
 30
0.0
 10
144.5468140767551
 20
162.7990334690251
 30
0.0
 10
144.5448580224209
 20
162.7923179943773
 30
0.0
  0
SPLINE
  5
A7
330
1F
100
AcDbEntity
  8
0
  6
Continuous
 62
     7
370
    25
100
AcDbSpline
210
0.0
220
0.0
230
1.0
 70
     8
 71
     3
 72
    15
 73
    11
 74
     0
 42
0.00000001
 43
0.00000001
 40
0.0
 40
0.0
 40
0.0
 40
0.0
 40
0.0759990781976985
 40
0.1656113455725391
 40
0.269045027247751
 40
0.3874479753730094
 40
0.518826658472049
 40
0.6653935553139931
 40
0.8250827975617718
 40
1.0
 40
1.0
 40
1.0
 40
1.0
 10
144.5448580224209
 20
162.7923179943773
 30
0.0
 10
144.5437324717819
 20
162.7874548655439
 30
0.0
 10
144.5412797584033
 20
162.7768575092482
 30
0.0
 10
144.538618377465
 20
162.7593791309821
 30
0.0
 10
144.5362361498605
 20
162.7390687389801
 30
0.0
 10
144.5342222784991
 20
162.7159571388929
 30
0.0
 10
144.5329871109605
 20
162.6899596411052
 30
0.0
 10
144.5316561850255
 20
162.6612536527942
 30
0.0
 10
144.5311607524588
 20
162.6296593611349
 30
0.0
 10
144.5310787659147
 20
162.6076892161523
 30
0.0
 10
144.5310359070363
 20
162.596204212326
 30
0.0
  0
LINE
  5
A8
330
1F
100
AcDbEntity
  8
0
  6
Continuous
 62
     7
370
    25
100
AcDbLine
 10
144.531035907
 20
162.5962042123
 30
0.0
 11
144.531035907
 21
162.3319814559
 31
0.0
  0
LINE
  5
A9
330
1F
100
AcDbEntity
  8
0
  6
Continuous
 62
     7
370
    25
100
AcDbLine
 10
144.531035907
 20
162.3319814559
 30
0.0
 11
144.4412923173
 21
162.3319814559
 31
0.0
  0
SPLINE
  5
AA
330
1F
100
AcDbEntity
  8
0
  6
Continuous
 62
     7
370
    25
100
AcDbSpline
210
0.0
220
0.0
230
1.0
 70
     8
 71
     3
 72
    23
 73
    19
 74
     0
 42
0.00000001
 43
0.00000001
 40
0.0
 40
0.0
 40
0.0
 40
0.0
 40
0.0572082694335504
 40
0.1136960596575265
 40
0.1691779164171879
 40
0.2241592165805865
 40
0.2787198783810327
 40
0.3337942174470032
 40
0.3892414593400324
 40
0.4458220733936433
 40
0.5037042811090283
 40
0.5642938918193935
 40
0.6279754158952131
 40
0.6950382596840842
 40
0.7653727258510337
 40
0.8396114430907227
 40
0.9175377500777855
 40
1.0
 40
1.0
 40
1.0
 40
1.0
 10
143.9761480865235
 20
162.3063404302747
 30
0.0
 10
143.9685951313861
 20
162.3064864821597
 30
0.0
 10
143.9535843427991
 20
162.3067767465567
 30
0.0
 10
143.9313816336924
 20
162.3093428266773
 30
0.0
 10
143.9096274653502
 20
162.3129734277033
 30
0.0
 10
143.8885948133404
 20
162.3187374476967
 30
0.0
 10
143.8680126957285
 20
162.3257308697088
 30
0.0
 10
143.847970628721
 20
162.3343418218796
 30
0.0
 10
143.828458899048
 20
162.3446610222932
 30
0.0
 10
143.8093681610856
 20
162.3564596007585
 30
0.0
 10
143.7907469683467
 20
162.3701903849196
 30
0.0
 10
143.7727699775099
 20
162.3861828124733
 30
0.0
 10
143.7548473530775
 20
162.4039958138994
 30
0.0
 10
143.7375080969856
 20
162.424113117717
 30
0.0
 10
143.7204014843268
 20
162.4462097128193
 30
0.0
 10
143.7038647958878
 20
162.4704923366471
 30
0.0
 10
143.6875557336938
 20
162.4968287234354
 30
0.0
 10
143.677322742886
 20
162.5153616050696
 30
0.0
 10
143.672061548062
 20
162.5248901097619
 30
0.0
  0
LINE
  5
AB
330
1F
100
AcDbEntity
  8
0
  6
Continuous
 62
     7
370
    25
100
AcDbLine
 10
143.6720615481
 20
162.5248901098
 30
0.0
 11
143.7565968045
 21
162.5755711995
 31
0.0
  0
SPLINE
  5
AC
330
1F
100
AcDbEntity
  8
0
  6
Continuous
 62
     7
370
    25
100
AcDbSpline
210
0.0
220
0.0
230
1.0
 70
     8
 71
     3
 72
    15
 73
    11
 74
     0
 42
0.00000001
 43
0.00000001
 40
0.0
 40
0.0
 40
0.0
 40
0.0
 40
0.1590042985174017
 40
0.3046460998967858
 40
0.4385469045795857
 40
0.5623222987759486
 40
0.6774325425257239
 40
0.786897392938736
 40
0.8936108891042885
 40
1.0
 40
1.0
 40
1.0
 40
1.0
 10
143.7565968044723
 20
162.5755711995055
 30
0.0
 10
143.7644591579724
 20
162.5624099466635
 30
0.0
 10
143.7795231238662
 20
162.537193494118
 30
0.0
 10
143.804652083624
 20
162.5031197682812
 30
0.0
 10
143.8306900582429
 20
162.4741591520644
 30
0.0
 10
143.8578298678284
 20
162.4504801213387
 30
0.0
 10
143.8859058530062
 20
162.431837582268
 30
0.0
 10
143.9151012969309
 20
162.4186369446341
 30
0.0
 10
143.9453178142772
 20
162.4104038088138
 30
0.0
 10
143.9658817632713
 20
162.4094037840838
 30
0.0
 10
143.9761480865235
 20
162.4089045328388
 30
0.0
  0
SPLINE
  5
AD
330
1F
100
AcDbEntity
  8
0
  6
Continuous
 62
     7
370
    25
100
AcDbSpline
210
0.0
220
0.0
230
1.0
 70
     8
 71
     3
 72
    19
 73
    15
 74
     0
 42
0.00000001
 43
0.00000001
 40
0.0
 40
0.0
 40
0.0
 40
0.0
 40
0.0912636048966275
 40
0.1809303110850413
 40
0.2700882198317194
 40
0.3601561333876866
 40
0.4483425324981118
 40
0.5326658421383114
 40
0.6138337041070347
 40
0.6939815272835161
 40
0.7727159770890192
 40
0.8493351720622458
 40
0.923967326575207
 40
1.0
 40
1.0
 40
1.0
 40
1.0
 10
143.9761480865235
 20
162.4089045328388
 30
0.0
 10
143.9849157609553
 20
162.4091487249852
 30
0.0
 10
144.0022976961117
 20
162.4096328364889
 30
0.0
 10
144.0278869083864
 20
162.4142844942174
 30
0.0
 10
144.0527388518909
 20
162.421430816764
 30
0.0
 10
144.076341319814
 20
162.4316653686236
 30
0.0
 10
144.0983686382515
 20
162.4440477931164
 30
0.0
 10
144.1176848369192
 20
162.4590038438328
 30
0.0
 10
144.1343837263989
 20
162.4757484740367
 30
0.0
 10
144.1480434734182
 20
162.4944292325059
 30
0.0
 10
144.1585234835005
 20
162.5145198463936
 30
0.0
 10
144.16657836019
 20
162.535141546776
 30
0.0
 10
144.1710483812347
 20
162.55661828057
 30
0.0
 10
144.1717217393652
 20
162.5710784128122
 30
0.0
 10
144.172061548062
 20
162.578375686685
 30
0.0
  0
SPLINE
  5
AE
330
1F
100
AcDbEntity
  8
0
  6
Continuous
 62
     7
370
    25
100
AcDbSpline
210
0.0
220
0.0
230
1.0
 70
     8
 71
     3
 72
    11
 73
     7
 74
     0
 42
0.00000001
 43
0.00000001
 40
0.0
 40
0.0
 40
0.0
 40
0.0
 40
0.2347233736739309
 40
0.4771583189290415
 40
0.7285562842029815
 40
1.0
 40
1.0
 40
1.0
 40
1.0
 10
144.172061548062
 20
162.578375686685
 30
0.0
 10
144.1716403164336
 20
162.5867016437443
 30
0.0
 10
144.170784014087
 20
162.603627097787
 30
0.0
 10
144.163546448352
 20
162.6285984272024
 30
0.0
 10
144.1521609492538
 20
162.6533105900664
 30
0.0
 10
144.1416573367668
 20
162.6685966659458
 30
0.0
 10
144.1362041762671
 20
162.676532737967
 30
0.0
  0
SPLINE
  5
AF
330
1F
100
AcDbEntity
  8
0
  6
Continuous
 62
     7
370
    25
100
AcDbSpline
210
0.0
220
0.0
230
1.0
 70
     8
 71
     3
 72
    15
 73
    11
 74
     0
 42
0.00000001
 43
0.00000001
 40
0.0
 40
0.0
 40
0.0
 40
0.0
 40
0.0902792146499955
 40
0.1895299184469771
 40
0.2991978724003777
 40
0.4189258867738606
 40
0.5483762854012179
 40
0.6881363695386958
 40
0.839083501658935
 40
1.0
 40
1.0
 40
1.0
 40
1.0
 10
144.1362041762671
 20
162.676532737967
 30
0.0
 10
144.1317268579298
 20
162.6822604018537
 30
0.0
 10
144.1223272881327
 20
162.6942849157304
 30
0.0
 10
144.1061679988204
 20
162.7121835544376
 30
0.0
 10
144.087206251876
 20
162.7306459598525
 30
0.0
 10
144.0660909504726
 20
162.7503771189809
 30
0.0
 10
144.0420529250896
 20
162.7704593466061
 30
0.0
 10
144.0158450638316
 20
162.79185028316
 30
0.0
 10
143.9867982469841
 20
162.8137364480305
 30
0.0
 10
143.9664269622361
 20
162.8284143239009
 30
0.0
 10
143.9559157147286
 20
162.8359878661722
 30
0.0
  0
SPLINE
  5
B0
330
1F
100
AcDbEntity
  8
0
  6
Continuous
 62
     7
370
    25
100
AcDbSpline
210
0.0
220
0.0
230
1.0
 70
     8
 71
     3
 72
    15
 73
    11
 74
     0
 42
0.00000001
 43
0.00000001
 40
0.0
 40
0.0
 40
0.0
 40
0.0
 40
0.1815353013763427
 40
0.3470816724815988
 40
0.4955678164314947
 40
0.6283573018771573
 40
0.7455196699921343
 40
0.8458307507575399
 40
0.9307818073847719
 40
1.0
 40
1.0
 40
1.0
 40
1.0
 10
143.9559157147286
 20
162.8359878661722
 30
0.0
 10
143.9453945729632
 20
162.8434817483491
 30
0.0
 10
143.9252789510831
 20
162.857809480419
 30
0.0
 10
143.8971479275556
 20
162.8790735615658
 30
0.0
 10
143.8719923666957
 20
162.8985146671492
 30
0.0
 10
143.8499240762604
 20
162.9163158134643
 30
0.0
 10
143.8309527628758
 20
162.9324794148156
 30
0.0
 10
143.8149289311575
 20
162.9468502545705
 30
0.0
 10
143.8022607719873
 20
162.9598169862472
 30
0.0
 10
143.7952163203706
 20
162.9682287981744
 30
0.0
 10
143.7920535352415
 20
162.9720054943773
 30
0.0
  0
SPLINE
  5
B1
330
1F
100
AcDbEntity
  8
0
  6
Continuous
 62
     7
370
    25
100
AcDbSpline
210
0.0
220
0.0
230
1.0
 70
     8
 71
     3
 72
    15
 73
    11
 74
     0
 42
0.00000001
 43
0.00000001
 40
0.0
 40
0.0
 40
0.0
 40
0.0
 40
0.1335067689985003
 40
0.2625589787303321
 40
0.3882644471488039
 40
0.5126673546814206
 40
0.6337222699657732
 40
0.7553938601371135
 40
0.8775529450912051
 40
1.0
 40
1.0
 40
1.0
 40
1.0
 10
143.7920535352415
 20
162.9720054943773
 30
0.0
 10
143.7876328080326
 20
162.9778915049071
 30
0.0
 10
143.7789388546853
 20
162.9894671345556
 30
0.0
 10
143.7674628531238
 20
163.0075599510605
 30
0.0
 10
143.7577088066101
 20
163.0260808840347
 30
0.0
 10
143.7500624259997
 20
163.0450797024817
 30
0.0
 10
143.7436235063313
 20
163.0642896821619
 30
0.0
 10
143.7392926689832
 20
163.0839614666475
 30
0.0
 10
143.7365808412931
 20
163.1040067862087
 30
0.0
 10
143.736303130855
 20
163.1174963578152
 30
0.0
 10
143.7361641121645
 20
163.1242490841209
 30
0.0
  0
SPLINE
  5
B2
330
1F
100
AcDbEntity
  8
0
  6
Continuous
 62
     7
370
    25
100
AcDbSpline
210
0.0
220
0.0
230
1.0
 70
     8
 71
     3
 72
    19
 73
    15
 74
     0
 42
0.00000001
 43
0.00000001
 40
0.0
 40
0.0
 40
0.0
 40
0.0
 40
0.083785370653718
 40
0.1657798879221595
 40
0.2462800078932895
 40
0.3274609277364288
 40
0.4087969540321041
 40
0.4897152412310102
 40
0.5713760321300522
 40
0.6555233211113383
 40
0.7410194827999952
 40
0.8265467605037611
 40
0.9119888516548322
 40
1.0
 40
1.0
 40
1.0
 40
1.0
 10
143.7361641121645
 20
163.1242490841209
 30
0.0
 10
143.7365370290198
 20
163.1348290197108
 30
0.0
 10
143.7372748918947
 20
163.1557627522066
 30
0.0
 10
143.7435150396863
 20
163.1863429894757
 30
0.0
 10
143.7533644378733
 20
163.2155391086807
 30
0.0
 10
143.7671629772623
 20
163.2430620611735
 30
0.0
 10
143.7849507923817
 20
163.2681951985701
 30
0.0
 10
143.8055353564861
 20
163.2912276234221
 30
0.0
 10
143.8300529239825
 20
163.3105900754853
 30
0.0
 10
143.8569536734863
 20
163.3275078064536
 30
0.0
 10
143.8863983512243
 20
163.3407494993698
 30
0.0
 10
143.9172528950522
 20
163.3507383508444
 30
0.0
 10
143.9495663442022
 20
163.356398138756
 30
0.0
 10
143.9714529540946
 20
163.3572103573025
 30
0.0
 10
143.9825583429337
 20
163.3576224815568
 30
0.0
  0
SPLINE
  5
B3
330
1F
100
AcDbEntity
  8
0
  6
Continuous
 62
     7
370
    25
100
AcDbSpline
210
0.0
220
0.0
230
1.0
 70
     8
 71
     3
 72
    19
 73
    15
 74
     0
 42
0.00000001
 43
0.00000001
 40
0.0
 40
0.0
 40
0.0
 40
0.0
 40
0.107232799360127
 40
0.2132518127819011
 40
0.3188304473075658
 40
0.4267935306343037
 40
0.4836459507827461
 40
0.5436038220211088
 40
0.6083076495640634
 40
0.6771267602600066
 40
0.7506856360204716
 40
0.8287134184432461
 40
0.9121903482234678
 40
1.0
 40
1.0
 40
1.0
 40
1.0
 10
143.9825583429337
 20
163.3576224815568
 30
0.0
 10
143.9943423715903
 20
163.3572160382428
 30
0.0
 10
144.017777043518
 20
163.3564077522143
 30
0.0
 10
144.0522482479664
 20
163.3493798861228
 30
0.0
 10
144.0854370240809
 20
163.3377511227549
 30
0.0
 10
144.1121350997437
 20
163.3245543633328
 30
0.0
 10
144.1330301744469
 20
163.3113739588432
 30
0.0
 10
144.1489652409296
 20
163.2993682947636
 30
0.0
 10
144.1651130840114
 20
163.2855468351624
 30
0.0
 10
144.1816039568196
 20
163.2698727648535
 30
0.0
 10
144.1981584309451
 20
163.2522022645423
 30
0.0
 10
144.2150222744434
 20
163.2326563534253
 30
0.0
 10
144.2322349226751
 20
163.2113544803212
 30
0.0
 10
144.2433080255676
 20
163.1961474801056
 30
0.0
 10
144.248984624985
 20
163.1883516482234
 30
0.0
  0
LINE
  5
B4
330
1F
100
AcDbEntity
  8
0
  6
Continuous
 62
     7
370
    25
100
AcDbLine
 10
144.248984625
 20
163.1883516482
 30
0.0
 11
144.1678548173
 21
163.1268532508
 31
0.0
  0
SPLINE
  5
B5
330
1F
100
AcDbEntity
  8
0
  6
Continuous
 62
     7
370
    25
100
AcDbSpline
210
0.0
220
0.0
230
1.0
 70
     8
 71
     3
 72
    19
 73
    15
 74
     0
 42
0.00000001
 43
0.00000001
 40
0.0
 40
0.0
 40
0.0
 40
0.0
 40
0.0984694310256049
 40
0.1896291011376976
 40
0.2741840894379525
 40
0.3521831609671779
 40
0.4231988731835146
 40
0.4885509460005596
 40
0.548473346027898
 40
0.6014401636179033
 40
0.7011980824258277
 40
0.7995918021381752
 40
0.8985450984822153
 40
0.9999999999999999
 40
0.9999999999999999
 40
0.9999999999999999
 40
0.9999999999999999
 10
144.1678548172927
 20
163.1268532507875
 30
0.0
 10
144.1629559794435
 20
163.133164305194
 30
0.0
 10
144.1535219631372
 20
163.1453179204009
 30
0.0
 10
144.1391992526057
 20
163.1623382962885
 30
0.0
 10
144.1256996389141
 20
163.177885861869
 30
0.0
 10
144.11239952469
 20
163.1913901841632
 30
0.0
 10
144.1000013442712
 20
163.2035907936884
 30
0.0
 10
144.0879679036292
 20
163.2140364384954
 30
0.0
 10
144.0764723747043
 20
163.2228294657612
 30
0.0
 10
144.0619818288054
 20
163.2322133400351
 30
0.0
 10
144.0437767664273
 20
163.2415151981937
 30
0.0
 10
144.0209240417875
 20
163.2493863633587
 30
0.0
 10
143.9970422489204
 20
163.2541163810498
 30
0.0
 10
143.980776639923
 20
163.2547417774978
 30
0.0
 10
143.9725423172927
 20
163.2550583789927
 30
0.0
  0
SPLINE
  5
B6
330
1F
100
AcDbEntity
  8
0
  6
Continuous
 62
     7
370
    25
100
AcDbSpline
210
0.0
220
0.0
230
1.0
 70
     8
 71
     3
 72
    15
 73
    11
 74
     0
 42
0.00000001
 43
0.00000001
 40
0.0
 40
0.0
 40
0.0
 40
0.0
 40
0.1430730837303275
 40
0.2759029640929546
 40
0.4023708562739322
 40
0.5284136450935685
 40
0.6503563791869297
 40
0.7658950861246653
 40
0.8807741308439616
 40
1.0
 40
1.0
 40
1.0
 40
1.0
 10
143.9725423172927
 20
163.2550583789927
 30
0.0
 10
143.9622118823198
 20
163.2547121790064
 30
0.0
 10
143.94229061163
 20
163.254044564946
 30
0.0
 10
143.9140076870277
 20
163.2467531405768
 30
0.0
 10
143.8885522798668
 20
163.235272609061
 30
0.0
 10
143.8666801184222
 20
163.2191826153193
 30
0.0
 10
143.8484695535528
 20
163.2001194745521
 30
0.0
 10
143.8352965653343
 20
163.1781826588165
 30
0.0
 10
143.8273679468908
 20
163.1539591152151
 30
0.0
 10
143.8264004384191
 20
163.1370614991204
 30
0.0
 10
143.8259077019081
 20
163.1284558148901
 30
0.0
  0
SPLINE
  5
B7
330
1F
100
AcDbEntity
  8
0
  6
Continuous
 62
     7
370
    25
100
AcDbSpline
210
0.0
220
0.0
230
1.0
 70
     8
 71
     3
 72
    15
 73
    11
 74
     0
 42
0.00000001
 43
0.00000001
 40
0.0
 40
0.0
 40
0.0
 40
0.0
 40
0.107285214269038
 40
0.2147458609696418
 40
0.3229385595552346
 40
0.434116162517528
 40
0.5534123109627894
 40
0.6860729848108472
 40
0.8342559920596282
 40
1.0
 40
1.0
 40
1.0
 40
1.0
 10
143.8259077019081
 20
163.1284558148901
 30
0.0
 10
143.8260200238038
 20
163.1230982495929
 30
0.0
 10
143.8262448512636
 20
163.112374358325
 30
0.0
 10
143.8293805077454
 20
163.0965310949096
 30
0.0
 10
143.8334088874477
 20
163.0807278550757
 30
0.0
 10
143.83979249652
 20
163.0650356885516
 30
0.0
 10
143.8486054404103
 20
163.0491801573939
 30
0.0
 10
143.8601783478121
 20
163.0328882323771
 30
0.0
 10
143.8747535798263
 20
163.0160163156136
 30
0.0
 10
143.8859184404982
 20
163.0050427802494
 30
0.0
 10
143.8918131506261
 20
162.9992490841209
 30
0.0
  0
SPLINE
  5
B8
330
1F
100
AcDbEntity
  8
0
  6
Continuous
 62
     7
370
    25
100
AcDbSpline
210
0.0
220
0.0
230
1.0
 70
     8
 71
     3
 72
    15
 73
    11
 74
     0
 42
0.00000001
 43
0.00000001
 40
0.0
 40
0.0
 40
0.0
 40
0.0
 40
0.0525942815291226
 40
0.1249519739749911
 40
0.2180938989285599
 40
0.3335024107324149
 40
0.46878917850447
 40
0.6249375859645584
 40
0.8016830479281746
 40
1.0
 40
1.0
 40
1.0
 40
1.0
 10
143.8918131506261
 20
162.9992490841209
 30
0.0
 10
143.8940021141711
 20
162.9972956481735
 30
0.0
 10
143.8992025904959
 20
162.992654731508
 30
0.0
 10
143.9087099978502
 20
162.9850569370384
 30
0.0
 10
143.9212650830586
 20
162.9756847163825
 30
0.0
 10
143.9365399976808
 20
162.964088340247
 30
0.0
 10
143.9548163867455
 20
162.9506364939277
 30
0.0
 10
143.9760962599297
 20
162.9355011761666
 30
0.0
 10
144.0001424121682
 20
162.9181910450218
 30
0.0
 10
144.017205816711
 20
162.9060888905618
 30
0.0
 10
144.0262282147286
 20
162.8996897892491
 30
0.0
  0
SPLINE
  5
B9
330
1F
100
AcDbEntity
  8
0
  6
Continuous
 62
     7
370
    25
100
AcDbSpline
210
0.0
220
0.0
230
1.0
 70
     8
 71
     3
 72
    19
 73
    15
 74
     0
 42
0.00000001
 43
0.00000001
 40
0.0
 40
0.0
 40
0.0
 40
0.0
 40
0.0969723103814832
 40
0.1877734389628731
 40
0.2723961390137131
 40
0.351320997375286
 40
0.4243347744514658
 40
0.4919087840005422
 40
0.5542332197967982
 40
0.6112676582441592
 40
0.7163478449915487
 40
0.8145400858215905
 40
0.9084954561492053
 40
1.0
 40
1.0
 40
1.0
 40
1.0
 10
144.0262282147287
 20
162.8996897892491
 30
0.0
 10
144.0370813328165
 20
162.8917922579492
 30
0.0
 10
144.0580968917818
 20
162.8764997831626
 30
0.0
 10
144.0879990574707
 20
162.8535238745833
 30
0.0
 10
144.1151115740694
 20
162.8310530835622
 30
0.0
 10
144.1395296322322
 20
162.8092309101061
 30
0.0
 10
144.161494463215
 20
162.7882228835336
 30
0.0
 10
144.1807623834077
 20
162.7677762605821
 30
0.0
 10
144.1975297206498
 20
162.7480375255301
 30
0.0
 10
144.2155809259241
 20
162.7227310753326
 30
0.0
 10
144.2340260172158
 20
162.69165076554
 30
0.0
 10
144.2498664479089
 20
162.6535712688127
 30
0.0
 10
144.2598545471816
 20
162.6153437486708
 30
0.0
 10
144.2611606944479
 20
162.5896503668206
 30
0.0
 10
144.2618051378056
 20
162.5769734430952
 30
0.0
  0
SPLINE
  5
BA
330
1F
100
AcDbEntity
  8
0
  6
Continuous
 62
     7
370
    25
100
AcDbSpline
210
0.0
220
0.0
230
1.0
 70
     8
 71
     3
 72
    23
 73
    19
 74
     0
 42
0.00000001
 43
0.00000001
 40
0.0
 40
0.0
 40
0.0
 40
0.0
 40
0.0614842551969272
 40
0.1217745277022577
 40
0.1809195598139774
 40
0.240256115078292
 40
0.300114444402363
 40
0.3611459476125952
 40
0.4235005824126259
 40
0.4886693612807534
 40
0.5539541046535457
 40
0.6175812610152885
 40
0.6802384268167602
 40
0.7421873887725072
 40
0.8046632117692968
 40
0.8682589893126981
 40
0.9330202571803861
 40
0.9999999999999999
 40
0.9999999999999999
 40
0.9999999999999999
 40
0.9999999999999999
 10
144.2618051378056
 20
162.5769734430953
 30
0.0
 10
144.2616173840559
 20
162.5680081959251
 30
0.0
 10
144.2612455226075
 20
162.5502518006271
 30
0.0
 10
144.2569709758135
 20
162.5241789215179
 30
0.0
 10
144.2507082143385
 20
162.4988558158939
 30
0.0
 10
144.2412690046383
 20
162.4745954980524
 30
0.0
 10
144.2297481022784
 20
162.4509541372858
 30
0.0
 10
144.2151291743167
 20
162.4285518800255
 30
0.0
 10
144.1981841215345
 20
162.4068929090007
 30
0.0
 10
144.1787459029904
 20
162.3865547686135
 30
0.0
 10
144.1574756451856
 20
162.3678844269034
 30
0.0
 10
144.1349945895676
 20
162.3512761236254
 30
0.0
 10
144.1112659401579
 20
162.3374280312269
 30
0.0
 10
144.0864184211056
 20
162.3261277906412
 30
0.0
 10
144.0604463249035
 20
162.3172896427764
 30
0.0
 10
144.0333583866651
 20
162.3108859658819
 30
0.0
 10
144.0051099548881
 20
162.3069557627639
 30
0.0
 10
143.985909817296
 20
162.3065478309168
 30
0.0
 10
143.9761480865235
 20
162.3063404302748
 30
0.0
  0
LINE
  5
BB
330
1F
100
AcDbEntity
  8
0
  6
Continuous
 62
     7
370
    25
100
AcDbLine
 10
150.9925743686
 20
164.9986481226
 30
0.0
 11
150.9925743686
 21
166.0242891482
 31
0.0
  0
LINE
  5
BC
330
1F
100
AcDbEntity
  8
0
  6
Continuous
 62
     7
370
    25
100
AcDbLine
 10
150.9925743686
 20
166.0242891482
 30
0.0
 11
151.0823179583
 21
166.0242891482
 31
0.0
  0
LINE
  5
BD
330
1F
100
AcDbEntity
  8
0
  6
Continuous
 62
     7
370
    25
100
AcDbLine
 10
151.0823179583
 20
166.0242891482
 30
0.0
 11
151.0823179583
 21
164.9986481226
 31
0.0
  0
LINE
  5
BE
330
1F
100
AcDbEntity
  8
0
  6
Continuous
 62
     7
370
    25
100
AcDbLine
 10
151.0823179583
 20
164.9986481226
 30
0.0
 11
150.9925743686
 21
164.9986481226
 31
0.0
  0
SPLINE
  5
BF
330
1F
100
AcDbEntity
  8
0
  6
Continuous
 62
     7
370
    25
100
AcDbSpline
210
0.0
220
0.0
230
1.0
 70
     8
 71
     3
 72
    19
 73
    15
 74
     0
 42
0.00000001
 43
0.00000001
 40
0.0
 40
0.0
 40
0.0
 40
0.0
 40
0.082592263331482
 40
0.1638788940985493
 40
0.245658739629569
 40
0.3277256953541328
 40
0.4086099609103521
 40
0.4857490859539396
 40
0.5591690561972612
 40
0.6302684758575683
 40
0.7053060284320943
 40
0.7920649660966392
 40
0.8897964374101022
 40
0.9999999999999999
 40
0.9999999999999999
 40
0.9999999999999999
 40
0.9999999999999999
 10
150.4386881506261
 20
165.0755711995055
 30
0.0
 10
150.4476456213701
 20
165.0757449299797
 30
0.0
 10
150.4654189616351
 20
165.0760896445673
 30
0.0
 10
150.4918877780188
 20
165.0794416191134
 30
0.0
 10
150.5179276429901
 20
165.0848616978622
 30
0.0
 10
150.5434307810665
 20
165.0922588378861
 30
0.0
 10
150.5678795941855
 20
165.1012807956309
 30
0.0
 10
150.5905211799173
 20
165.1121673263879
 30
0.0
 10
150.6113440986676
 20
165.1242101111715
 30
0.0
 10
150.6308060891209
 20
165.1379843040425
 30
0.0
 10
150.6496835157928
 20
165.1548437860433
 30
0.0
 10
150.6684099404828
 20
165.1758825634687
 30
0.0
 10
150.6884889843008
 20
165.200764714264
 30
0.0
 10
150.7010574393705
 20
165.2194920474005
 30
0.0
 10
150.707718599344
 20
165.2294173533516
 30
0.0
  0
LINE
  5
C0
330
1F
100
AcDbEntity
  8
0
  6
Continuous
 62
     7
370
    25
100
AcDbLine
 10
150.7077185993
 20
165.2294173534
 30
0.0
 11
150.7874461634
 21
165.1875503662
 31
0.0
  0
SPLINE
  5
C1
330
1F
100
AcDbEntity
  8
0
  6
Continuous
 62
     7
370
    25
100
AcDbSpline
210
0.0
220
0.0
230
1.0
 70
     8
 71
     3
 72
    19
 73
    15
 74
     0
 42
0.00000001
 43
0.00000001
 40
0.0
 40
0.0
 40
0.0
 40
0.0
 40
0.0933698567361777
 40
0.1816607660710323
 40
0.2658742270426671
 40
0.3463547840343008
 40
0.4245998617179336
 40
0.5019031838374033
 40
0.5799920909873907
 40
0.6584434305294878
 40
0.738672236487887
 40
0.8218941484362644
 40
0.9088007920466401
 40
1.0
 40
1.0
 40
1.0
 40
1.0
 10
150.7874461634466
 20
165.1875503661722
 30
0.0
 10
150.7810928505209
 20
165.1762808429506
 30
0.0
 10
150.7687318195253
 20
165.1543548135741
 30
0.0
 10
150.747474462985
 20
165.1242314248678
 30
0.0
 10
150.725191013677
 20
165.0971320774854
 30
0.0
 10
150.7008755942474
 20
165.07378074769
 30
0.0
 10
150.6752556859748
 20
165.0534232091259
 30
0.0
 10
150.6481892131789
 20
165.0356124020633
 30
0.0
 10
150.6195352652545
 20
165.0204356819645
 30
0.0
 10
150.5892924867464
 20
165.0076492454294
 30
0.0
 10
150.557206900706
 20
164.9978179613986
 30
0.0
 10
150.5232007531603
 20
164.9908738982783
 30
0.0
 10
150.4872088973378
 20
164.9865815358067
 30
0.0
 10
150.4625385602327
 20
164.9860829241562
 30
0.0
 10
150.449906099344
 20
164.9858276097619
 30
0.0
  0
SPLINE
  5
C2
330
1F
100
AcDbEntity
  8
0
  6
Continuous
 62
     7
370
    25
100
AcDbSpline
210
0.0
220
0.0
230
1.0
 70
     8
 71
     3
 72
    23
 73
    19
 74
     0
 42
0.00000001
 43
0.00000001
 40
0.0
 40
0.0
 40
0.0
 40
0.0
 40
0.0715786576891653
 40
0.1396292246928837
 40
0.2047966973966953
 40
0.2681349633967068
 40
0.3298137469867595
 40
0.3913013977745688
 40
0.4534335150970876
 40
0.5165516903197657
 40
0.5796312707049279
 40
0.6411189214927507
 40
0.7012940466987857
 40
0.760810335676131
 40
0.8199317217781457
 40
0.8789195754994001
 40
0.9389828222504443
 40
1.0
 40
1.0
 40
1.0
 40
1.0
 10
150.449906099344
 20
164.9858276097619
 30
0.0
 10
150.4358655343339
 20
164.9861553741418
 30
0.0
 10
150.4084764595747
 20
164.9867947474931
 30
0.0
 10
150.3686079603995
 20
164.9923068801886
 30
0.0
 10
150.3310709837145
 20
165.0012989826725
 30
0.0
 10
150.2958676398993
 20
165.0138605659558
 30
0.0
 10
150.2630841391627
 20
165.0302683728386
 30
0.0
 10
150.2326553235022
 20
165.0502567962112
 30
0.0
 10
150.204421173254
 20
165.0737231546936
 30
0.0
 10
150.1792713992011
 20
165.1008707099756
 30
0.0
 10
150.1566302898552
 20
165.1299226977742
 30
0.0
 10
150.1366514841479
 20
165.1601958076274
 30
0.0
 10
150.1199493609909
 20
165.1916138717628
 30
0.0
 10
150.106362900935
 20
165.2239768786324
 30
0.0
 10
150.0953900823721
 20
165.2570808482162
 30
0.0
 10
150.0877424527238
 20
165.2912269818073
 30
0.0
 10
150.0833339533004
 20
165.3263228630189
 30
0.0
 10
150.0826583974326
 20
165.3500649589382
 30
0.0
 10
150.0823179583184
 20
165.3620295328388
 30
0.0
  0
SPLINE
  5
C3
330
1F
100
AcDbEntity
  8
0
  6
Continuous
 62
     7
370
    25
100
AcDbSpline
210
0.0
220
0.0
230
1.0
 70
     8
 71
     3
 72
    15
 73
    11
 74
     0
 42
0.00000001
 43
0.00000001
 40
0.0
 40
0.0
 40
0.0
 40
0.0
 40
0.1280448079610792
 40
0.2537679000244722
 40
0.3774284265812799
 40
0.5005508414825717
 40
0.6232958832425156
 40
0.7465783319335682
 40
0.8723475406047085
 40
1.0
 40
1.0
 40
1.0
 40
1.0
 10
150.0823179583184
 20
165.3620295328388
 30
0.0
 10
150.0826205701271
 20
165.3732566272438
 30
0.0
 10
150.0832203067697
 20
165.3955072457258
 30
0.0
 10
150.0870005317393
 20
165.4284402584487
 30
0.0
 10
150.0937000440444
 20
165.4604483877426
 30
0.0
 10
150.1028932794586
 20
165.4915582300195
 30
0.0
 10
150.1147650640822
 20
165.521717696872
 30
0.0
 10
150.1292885552869
 20
165.5509451436215
 30
0.0
 10
150.1464863775123
 20
165.579209469296
 30
0.0
 10
150.1597642842999
 20
165.5970389360696
 30
0.0
 10
150.166452573703
 20
165.6060199174542
 30
0.0
  0
SPLINE
  5
C4
330
1F
100
AcDbEntity
  8
0
  6
Continuous
 62
     7
370
    25
100
AcDbSpline
210
0.0
220
0.0
230
1.0
 70
     8
 71
     3
 72
    15
 73
    11
 74
     0
 42
0.00000001
 43
0.00000001
 40
0.0
 40
0.0
 40
0.0
 40
0.0
 40
0.1288352544875431
 40
0.2535893349864721
 40
0.3746432573142199
 40
0.4953400422378396
 40
0.6163247746357625
 40
0.7397593354405498
 40
0.8668423203805993
 40
1.0
 40
1.0
 40
1.0
 40
1.0
 10
150.166452573703
 20
165.6060199174542
 30
0.0
 10
150.1755119116389
 20
165.6168395946222
 30
0.0
 10
150.1933436106699
 20
165.6381362090367
 30
0.0
 10
150.2235025693424
 20
165.6661185878314
 30
0.0
 10
150.2561597682974
 20
165.6895596664534
 30
0.0
 10
150.2909059471831
 20
165.7089902767786
 30
0.0
 10
150.3281449397719
 20
165.7237541759195
 30
0.0
 10
150.3673761657826
 20
165.7347563422715
 30
0.0
 10
150.409046333276
 20
165.740921488281
 30
0.0
 10
150.4375335392297
 20
165.7417922978872
 30
0.0
 10
150.452109624985
 20
165.7422378661722
 30
0.0
  0
SPLINE
  5
C5
330
1F
100
AcDbEntity
  8
0
  6
Continuous
 62
     7
370
    25
100
AcDbSpline
210
0.0
220
0.0
230
1.0
 70
     8
 71
     3
 72
    15
 73
    11
 74
     0
 42
0.00000001
 43
0.00000001
 40
0.0
 40
0.0
 40
0.0
 40
0.0
 40
0.1320402344260181
 40
0.259032840779413
 40
0.3818798239250426
 40
0.5022584437149991
 40
0.6227521895274769
 40
0.7447426318589925
 40
0.8701089273417686
 40
1.0
 40
1.0
 40
1.0
 40
1.0
 10
150.452109624985
 20
165.7422378661722
 30
0.0
 10
150.4670946550718
 20
165.74185099506
 30
0.0
 10
150.4964918681972
 20
165.7410920421271
 30
0.0
 10
150.5393581884933
 20
165.7340559468672
 30
0.0
 10
150.5799183932193
 20
165.7228980741349
 30
0.0
 10
150.6181562515932
 20
165.7071398482776
 30
0.0
 10
150.6540756403797
 20
165.686808547766
 30
0.0
 10
150.6874430831153
 20
165.6616251644858
 30
0.0
 10
150.7188292295579
 20
165.6323628538501
 30
0.0
 10
150.7370888235156
 20
165.6098590797279
 30
0.0
 10
150.7463804583184
 20
165.598407737967
 30
0.0
  0
SPLINE
  5
C6
330
1F
100
AcDbEntity
  8
0
  6
Continuous
 62
     7
370
    25
100
AcDbSpline
210
0.0
220
0.0
230
1.0
 70
     8
 71
     3
 72
    15
 73
    11
 74
     0
 42
0.00000001
 43
0.00000001
 40
0.0
 40
0.0
 40
0.0
 40
0.0
 40
0.1185218400132461
 40
0.2362547631617638
 40
0.3561744339909304
 40
0.4772496548985311
 40
0.6015398708217209
 40
0.7296183821681087
 40
0.8621582661414304
 40
1.0
 40
1.0
 40
1.0
 40
1.0
 10
150.7463804583184
 20
165.598407737967
 30
0.0
 10
150.7527024406934
 20
165.5897781432852
 30
0.0
 10
150.7653043244352
 20
165.5725763950884
 30
0.0
 10
150.7810892101596
 20
165.5445274930597
 30
0.0
 10
150.794791323012
 20
165.5151816089596
 30
0.0
 10
150.8057435975877
 20
165.4840643812205
 30
0.0
 10
150.814612026501
 20
165.451544501171
 30
0.0
 10
150.8210282604267
 20
165.4173894883955
 30
0.0
 10
150.824791008593
 20
165.381609513721
 30
0.0
 10
150.8255306364068
 20
165.3572304978705
 30
0.0
 10
150.8259077019081
 20
165.3448019687363
 30
0.0
  0
LINE
  5
C7
330
1F
100
AcDbEntity
  8
0
  6
Continuous
 62
     7
370
    25
100
AcDbLine
 10
150.8259077019
 20
165.3448019687
 30
0.0
 11
150.1720615481
 21
165.3448019687
 31
0.0
  0
SPLINE
  5
C8
330
1F
100
AcDbEntity
  8
0
  6
Continuous
 62
     7
370
    25
100
AcDbSpline
210
0.0
220
0.0
230
1.0
 70
     8
 71
     3
 72
    23
 73
    19
 74
     0
 42
0.00000001
 43
0.00000001
 40
0.0
 40
0.0
 40
0.0
 40
0.0
 40
0.0683846151037784
 40
0.134475587543461
 40
0.1983910577839564
 40
0.260753477448501
 40
0.3218292228076423
 40
0.3830372384795267
 40
0.4446531231064114
 40
0.5073980112040324
 40
0.5698252379730083
 40
0.6307776406313322
 40
0.6909286865237323
 40
0.750945132691779
 40
0.8110494767293466
 40
0.8723308525470557
 40
0.9350040935894621
 40
1.0
 40
1.0
 40
1.0
 40
1.0
 10
150.1720615480619
 20
165.3448019687363
 30
0.0
 10
150.1725014356132
 20
165.3351732646657
 30
0.0
 10
150.1733664567412
 20
165.3162388064515
 30
0.0
 10
150.1773993547887
 20
165.2885328684278
 30
0.0
 10
150.1837561472957
 20
165.2621404849526
 30
0.0
 10
150.1926901651923
 20
165.2372596158173
 30
0.0
 10
150.2035092638367
 20
165.2135652936701
 30
0.0
 10
150.2167623257755
 20
165.1912332831076
 30
0.0
 10
150.2325736269048
 20
165.1703653030933
 30
0.0
 10
150.2502095410146
 20
165.1507746923525
 30
0.0
 10
150.2698401396819
 20
165.1333287605903
 30
0.0
 10
150.2904923531736
 20
165.1177139673804
 30
0.0
 10
150.3124619431707
 20
165.1046266540293
 30
0.0
 10
150.3355756813117
 20
165.0940038283853
 30
0.0
 10
150.3597961913529
 20
165.0856877380827
 30
0.0
 10
150.3851311042431
 20
165.0800112178877
 30
0.0
 10
150.4115305660587
 20
165.0762091873519
 30
0.0
 10
150.4295264900681
 20
165.0757864258661
 30
0.0
 10
150.4386881506261
 20
165.0755711995055
 30
0.0
  0
LINE
  5
C9
330
1F
100
AcDbEntity
  8
0
  6
Continuous
 62
     7
370
    25
100
AcDbLine
 10
149.607958984
 20
164.9986481226
 30
0.0
 11
149.2746256506
 21
165.7294173534
 31
0.0
  0
LINE
  5
CA
330
1F
100
AcDbEntity
  8
0
  6
Continuous
 62
     7
370
    25
100
AcDbLine
 10
149.2746256506
 20
165.7294173534
 30
0.0
 11
149.3717810993
 21
165.7294173534
 31
0.0
  0
LINE
  5
CB
330
1F
100
AcDbEntity
  8
0
  6
Continuous
 62
     7
370
    25
100
AcDbLine
 10
149.3717810993
 20
165.7294173534
 30
0.0
 11
149.6143692404
 21
165.1973660713
 31
0.0
  0
LINE
  5
CC
330
1F
100
AcDbEntity
  8
0
  6
Continuous
 62
     7
370
    25
100
AcDbLine
 10
149.6143692404
 20
165.1973660713
 30
0.0
 11
149.8569573814
 21
165.7294173534
 31
0.0
  0
LINE
  5
CD
330
1F
100
AcDbEntity
  8
0
  6
Continuous
 62
     7
370
    25
100
AcDbLine
 10
149.8569573814
 20
165.7294173534
 30
0.0
 11
149.9541128301
 21
165.7294173534
 31
0.0
  0
LINE
  5
CE
330
1F
100
AcDbEntity
  8
0
  6
Continuous
 62
     7
370
    25
100
AcDbLine
 10
149.9541128301
 20
165.7294173534
 30
0.0
 11
149.6207794968
 21
164.9986481226
 31
0.0
  0
LINE
  5
CF
330
1F
100
AcDbEntity
  8
0
  6
Continuous
 62
     7
370
    25
100
AcDbLine
 10
149.6207794968
 20
164.9986481226
 30
0.0
 11
149.607958984
 21
164.9986481226
 31
0.0
  0
SPLINE
  5
D0
330
1F
100
AcDbEntity
  8
0
  6
Continuous
 62
     7
370
    25
100
AcDbSpline
210
0.0
220
0.0
230
1.0
 70
     8
 71
     3
 72
    19
 73
    15
 74
     0
 42
0.00000001
 43
0.00000001
 40
0.0
 40
0.0
 40
0.0
 40
0.0
 40
0.082592263331397
 40
0.1638788940984646
 40
0.2456587396294846
 40
0.3277256953541307
 40
0.4086099609103502
 40
0.4857490859539379
 40
0.5591690561972598
 40
0.6302684758575671
 40
0.7053060284320933
 40
0.7920649660966386
 40
0.889796437410102
 40
1.0
 40
1.0
 40
1.0
 40
1.0
 10
148.7848419967799
 20
165.0755711995055
 30
0.0
 10
148.7937994675239
 20
165.0757449299797
 30
0.0
 10
148.8115728077889
 20
165.0760896445673
 30
0.0
 10
148.8380416241727
 20
165.0794416191134
 30
0.0
 10
148.864081489144
 20
165.0848616978622
 30
0.0
 10
148.8895846272203
 20
165.092258837886
 30
0.0
 10
148.9140334403394
 20
165.101280795631
 30
0.0
 10
148.9366750260711
 20
165.1121673263878
 30
0.0
 10
148.9574979448215
 20
165.1242101111715
 30
0.0
 10
148.9769599352747
 20
165.1379843040424
 30
0.0
 10
148.9958373619467
 20
165.1548437860433
 30
0.0
 10
149.0145637866366
 20
165.1758825634686
 30
0.0
 10
149.0346428304547
 20
165.2007647142639
 30
0.0
 10
149.0472112855244
 20
165.2194920474005
 30
0.0
 10
149.0538724454979
 20
165.2294173533517
 30
0.0
  0
LINE
  5
D1
330
1F
100
AcDbEntity
  8
0
  6
Continuous
 62
     7
370
    25
100
AcDbLine
 10
149.0538724455
 20
165.2294173534
 30
0.0
 11
149.1336000096
 21
165.1875503662
 31
0.0
  0
SPLINE
  5
D2
330
1F
100
AcDbEntity
  8
0
  6
Continuous
 62
     7
370
    25
100
AcDbSpline
210
0.0
220
0.0
230
1.0
 70
     8
 71
     3
 72
    19
 73
    15
 74
     0
 42
0.00000001
 43
0.00000001
 40
0.0
 40
0.0
 40
0.0
 40
0.0
 40
0.0933698567362061
 40
0.1816607660710172
 40
0.2658742270426472
 40
0.3463547840343242
 40
0.4245998617179003
 40
0.5019031838373654
 40
0.5799920909873483
 40
0.6584434305294409
 40
0.7386722364878354
 40
0.821894148436208
 40
0.9088007920465788
 40
1.0
 40
1.0
 40
1.0
 40
1.0
 10
149.1336000096004
 20
165.1875503661722
 30
0.0
 10
149.1272466966747
 20
165.1762808429507
 30
0.0
 10
149.1148856656791
 20
165.1543548135742
 30
0.0
 10
149.0936283091389
 20
165.1242314248679
 30
0.0
 10
149.0713448598308
 20
165.0971320774853
 30
0.0
 10
149.0470294404012
 20
165.07378074769
 30
0.0
 10
149.0214095321287
 20
165.0534232091259
 30
0.0
 10
148.9943430593327
 20
165.0356124020633
 30
0.0
 10
148.9656891114084
 20
165.0204356819646
 30
0.0
 10
148.9354463329003
 20
165.0076492454295
 30
0.0
 10
148.90336074686
 20
164.9978179613987
 30
0.0
 10
148.8693545993141
 20
164.9908738982783
 30
0.0
 10
148.8333627434916
 20
164.9865815358067
 30
0.0
 10
148.8086924063865
 20
164.9860829241562
 30
0.0
 10
148.7960599454979
 20
164.9858276097619
 30
0.0
  0
SPLINE
  5
D3
330
1F
100
AcDbEntity
  8
0
  6
Continuous
 62
     7
370
    25
100
AcDbSpline
210
0.0
220
0.0
230
1.0
 70
     8
 71
     3
 72
    23
 73
    19
 74
     0
 42
0.00000001
 43
0.00000001
 40
0.0
 40
0.0
 40
0.0
 40
0.0
 40
0.0715786576891207
 40
0.1396292246928415
 40
0.2047966973966556
 40
0.2681349633966693
 40
0.3298137469867242
 40
0.3913013977745752
 40
0.45343351509706
 40
0.5165516903197404
 40
0.5796312707049048
 40
0.6411189214927299
 40
0.7012940466987669
 40
0.7608103356761144
 40
0.8199317217781312
 40
0.8789195754993981
 40
0.9389828222504444
 40
1.0
 40
1.0
 40
1.0
 40
1.0
 10
148.7960599454979
 20
164.9858276097619
 30
0.0
 10
148.7820193804877
 20
164.9861553741418
 30
0.0
 10
148.7546303057285
 20
164.986794747493
 30
0.0
 10
148.7147618065534
 20
164.9923068801886
 30
0.0
 10
148.6772248298684
 20
165.0012989826724
 30
0.0
 10
148.6420214860531
 20
165.0138605659558
 30
0.0
 10
148.6092379853167
 20
165.0302683728387
 30
0.0
 10
148.5788091696561
 20
165.0502567962112
 30
0.0
 10
148.5505750194078
 20
165.0737231546935
 30
0.0
 10
148.5254252453549
 20
165.1008707099757
 30
0.0
 10
148.5027841360091
 20
165.1299226977742
 30
0.0
 10
148.4828053303018
 20
165.1601958076274
 30
0.0
 10
148.4661032071447
 20
165.1916138717628
 30
0.0
 10
148.4525167470889
 20
165.2239768786324
 30
0.0
 10
148.441543928526
 20
165.2570808482161
 30
0.0
 10
148.4338962988777
 20
165.2912269818073
 30
0.0
 10
148.4294877994543
 20
165.3263228630189
 30
0.0
 10
148.4288122435864
 20
165.3500649589381
 30
0.0
 10
148.4284718044723
 20
165.3620295328388
 30
0.0
  0
SPLINE
  5
D4
330
1F
100
AcDbEntity
  8
0
  6
Continuous
 62
     7
370
    25
100
AcDbSpline
210
0.0
220
0.0
230
1.0
 70
     8
 71
     3
 72
    15
 73
    11
 74
     0
 42
0.00000001
 43
0.00000001
 40
0.0
 40
0.0
 40
0.0
 40
0.0
 40
0.1280448079610771
 40
0.253767900024468
 40
0.3774284265812737
 40
0.5005508414825334
 40
0.6232958832425138
 40
0.7465783319335174
 40
0.8723475406047106
 40
1.0
 40
1.0
 40
1.0
 40
1.0
 10
148.4284718044722
 20
165.3620295328388
 30
0.0
 10
148.428774416281
 20
165.3732566272438
 30
0.0
 10
148.4293741529235
 20
165.3955072457258
 30
0.0
 10
148.4331543778932
 20
165.4284402584488
 30
0.0
 10
148.4398538901984
 20
165.4604483877427
 30
0.0
 10
148.4490471256123
 20
165.4915582300194
 30
0.0
 10
148.4609189102362
 20
165.5217176968721
 30
0.0
 10
148.4754424014407
 20
165.5509451436215
 30
0.0
 10
148.4926402236661
 20
165.5792094692959
 30
0.0
 10
148.5059181304538
 20
165.5970389360696
 30
0.0
 10
148.5126064198568
 20
165.6060199174542
 30
0.0
  0
SPLINE
  5
D5
330
1F
100
AcDbEntity
  8
0
  6
Continuous
 62
     7
370
    25
100
AcDbSpline
210
0.0
220
0.0
230
1.0
 70
     8
 71
     3
 72
    15
 73
    11
 74
     0
 42
0.00000001
 43
0.00000001
 40
0.0
 40
0.0
 40
0.0
 40
0.0
 40
0.1288352544875414
 40
0.2535893349864689
 40
0.3746432573141466
 40
0.4953400422377648
 40
0.6163247746357646
 40
0.7397593354404688
 40
0.8668423203805167
 40
1.0
 40
1.0
 40
1.0
 40
1.0
 10
148.5126064198568
 20
165.6060199174542
 30
0.0
 10
148.5216657577928
 20
165.6168395946222
 30
0.0
 10
148.5394974568237
 20
165.6381362090367
 30
0.0
 10
148.5696564154963
 20
165.6661185878314
 30
0.0
 10
148.6023136144512
 20
165.6895596664534
 30
0.0
 10
148.637059793337
 20
165.7089902767786
 30
0.0
 10
148.6742987859257
 20
165.7237541759194
 30
0.0
 10
148.7135300119364
 20
165.7347563422715
 30
0.0
 10
148.7552001794298
 20
165.740921488281
 30
0.0
 10
148.7836873853836
 20
165.7417922978873
 30
0.0
 10
148.7982634711389
 20
165.7422378661722
 30
0.0
  0
SPLINE
  5
D6
330
1F
100
AcDbEntity
  8
0
  6
Continuous
 62
     7
370
    25
100
AcDbSpline
210
0.0
220
0.0
230
1.0
 70
     8
 71
     3
 72
    15
 73
    11
 74
     0
 42
0.00000001
 43
0.00000001
 40
0.0
 40
0.0
 40
0.0
 40
0.0
 40
0.1320402344259374
 40
0.2590328407793331
 40
0.3818798239249634
 40
0.5022584437149961
 40
0.6227521895274746
 40
0.7447426318589909
 40
0.8701089273417678
 40
1.0
 40
1.0
 40
1.0
 40
1.0
 10
148.7982634711389
 20
165.7422378661722
 30
0.0
 10
148.8132485012257
 20
165.74185099506
 30
0.0
 10
148.842645714351
 20
165.741092042127
 30
0.0
 10
148.8855120346472
 20
165.7340559468673
 30
0.0
 10
148.9260722393731
 20
165.7228980741349
 30
0.0
 10
148.9643100977471
 20
165.7071398482776
 30
0.0
 10
149.0002294865336
 20
165.6868085477661
 30
0.0
 10
149.0335969292692
 20
165.6616251644857
 30
0.0
 10
149.0649830757117
 20
165.6323628538501
 30
0.0
 10
149.0832426696695
 20
165.609859079728
 30
0.0
 10
149.0925343044722
 20
165.598407737967
 30
0.0
  0
SPLINE
  5
D7
330
1F
100
AcDbEntity
  8
0
  6
Continuous
 62
     7
370
    25
100
AcDbSpline
210
0.0
220
0.0
230
1.0
 70
     8
 71
     3
 72
    15
 73
    11
 74
     0
 42
0.00000001
 43
0.00000001
 40
0.0
 40
0.0
 40
0.0
 40
0.0
 40
0.1185218400132483
 40
0.2362547631617682
 40
0.356174433990937
 40
0.4772496548985055
 40
0.6015398708217244
 40
0.7296183821681147
 40
0.8621582661414279
 40
1.0
 40
1.0
 40
1.0
 40
1.0
 10
149.0925343044722
 20
165.598407737967
 30
0.0
 10
149.0988562868472
 20
165.5897781432852
 30
0.0
 10
149.1114581705891
 20
165.5725763950884
 30
0.0
 10
149.1272430563134
 20
165.5445274930596
 30
0.0
 10
149.1409451691659
 20
165.5151816089596
 30
0.0
 10
149.1518974437415
 20
165.4840643812205
 30
0.0
 10
149.1607658726549
 20
165.4515445011711
 30
0.0
 10
149.1671821065806
 20
165.4173894883956
 30
0.0
 10
149.1709448547468
 20
165.3816095137211
 30
0.0
 10
149.1716844825607
 20
165.3572304978705
 30
0.0
 10
149.1720615480619
 20
165.3448019687363
 30
0.0
  0
LINE
  5
D8
330
1F
100
AcDbEntity
  8
0
  6
Continuous
 62
     7
370
    25
100
AcDbLine
 10
149.1720615481
 20
165.3448019687
 30
0.0
 11
148.5182153942
 21
165.3448019687
 31
0.0
  0
SPLINE
  5
D9
330
1F
100
AcDbEntity
  8
0
  6
Continuous
 62
     7
370
    25
100
AcDbSpline
210
0.0
220
0.0
230
1.0
 70
     8
 71
     3
 72
    23
 73
    19
 74
     0
 42
0.00000001
 43
0.00000001
 40
0.0
 40
0.0
 40
0.0
 40
0.0
 40
0.068384615103773
 40
0.1344755875434544
 40
0.1983910577839642
 40
0.2607534774484856
 40
0.3218292228076532
 40
0.3830372384795365
 40
0.4446531231064201
 40
0.5073980112040399
 40
0.5698252379730147
 40
0.6307776406313376
 40
0.6909286865237365
 40
0.7509451326917821
 40
0.8110494767293486
 40
0.8723308525469925
 40
0.9350040935893977
 40
1.0
 40
1.0
 40
1.0
 40
1.0
 10
148.5182153942158
 20
165.3448019687363
 30
0.0
 10
148.518655281767
 20
165.3351732646657
 30
0.0
 10
148.519520302895
 20
165.3162388064515
 30
0.0
 10
148.5235532009426
 20
165.2885328684279
 30
0.0
 10
148.5299099934495
 20
165.2621404849525
 30
0.0
 10
148.5388440113463
 20
165.2372596158173
 30
0.0
 10
148.5496631099904
 20
165.21356529367
 30
0.0
 10
148.5629161719294
 20
165.1912332831077
 30
0.0
 10
148.5787274730586
 20
165.1703653030934
 30
0.0
 10
148.5963633871685
 20
165.1507746923525
 30
0.0
 10
148.6159939858358
 20
165.1333287605902
 30
0.0
 10
148.6366461993275
 20
165.1177139673804
 30
0.0
 10
148.6586157893245
 20
165.1046266540292
 30
0.0
 10
148.6817295274655
 20
165.0940038283853
 30
0.0
 10
148.7059500375068
 20
165.0856877380828
 30
0.0
 10
148.731284950397
 20
165.0800112178877
 30
0.0
 10
148.7576844122126
 20
165.076209187352
 30
0.0
 10
148.775680336222
 20
165.0757864258661
 30
0.0
 10
148.7848419967799
 20
165.0755711995055
 30
0.0
  0
LINE
  5
DA
330
1F
100
AcDbEntity
  8
0
  6
Continuous
 62
     7
370
    25
100
AcDbLine
 10
147.8387282147
 20
164.9986481226
 30
0.0
 11
147.8387282147
 21
165.9986481226
 31
0.0
  0
LINE
  5
DB
330
1F
100
AcDbEntity
  8
0
  6
Continuous
 62
     7
370
    25
100
AcDbLine
 10
147.8387282147
 20
165.9986481226
 30
0.0
 11
147.9284718045
 21
165.9986481226
 31
0.0
  0
LINE
  5
DC
330
1F
100
AcDbEntity
  8
0
  6
Continuous
 62
     7
370
    25
100
AcDbLine
 10
147.9284718045
 20
165.9986481226
 30
0.0
 11
147.9284718045
 21
165.1012122251
 31
0.0
  0
LINE
  5
DD
330
1F
100
AcDbEntity
  8
0
  6
Continuous
 62
     7
370
    25
100
AcDbLine
 10
147.9284718045
 20
165.1012122251
 30
0.0
 11
148.3130871891
 21
165.1012122251
 31
0.0
  0
LINE
  5
DE
330
1F
100
AcDbEntity
  8
0
  6
Continuous
 62
     7
370
    25
100
AcDbLine
 10
148.3130871891
 20
165.1012122251
 30
0.0
 11
148.3130871891
 21
164.9986481226
 31
0.0
  0
LINE
  5
DF
330
1F
100
AcDbEntity
  8
0
  6
Continuous
 62
     7
370
    25
100
AcDbLine
 10
148.3130871891
 20
164.9986481226
 30
0.0
 11
147.8387282147
 21
164.9986481226
 31
0.0
  0
SPLINE
  5
E0
330
1F
100
AcDbEntity
  8
0
  6
Continuous
 62
     7
370
    25
100
AcDbSpline
210
0.0
220
0.0
230
1.0
 70
     8
 71
     3
 72
    19
 73
    15
 74
     0
 42
0.00000001
 43
0.00000001
 40
0.0
 40
0.0
 40
0.0
 40
0.0
 40
0.091268804434328
 40
0.1820814045528073
 40
0.2719096545272213
 40
0.362049458505325
 40
0.4500663484251036
 40
0.5339764739707218
 40
0.6136024537412779
 40
0.6901976142648627
 40
0.7654128769004352
 40
0.8414365506928706
 40
0.9197327486058002
 40
0.9999999999999999
 40
0.9999999999999999
 40
0.9999999999999999
 40
0.9999999999999999
 10
146.9144493685748
 20
165.7422378661722
 30
0.0
 10
146.9264151137307
 20
165.7419744687254
 30
0.0
 10
146.950286793633
 20
165.7414489904159
 30
0.0
 10
146.9856984241068
 20
165.7370265183527
 30
0.0
 10
147.0205884794954
 20
165.7303589708068
 30
0.0
 10
147.0543447947794
 20
165.7204810194436
 30
0.0
 10
147.0865580846187
 20
165.7085199749519
 30
0.0
 10
147.1167110703882
 20
165.6950877708436
 30
0.0
 10
147.1440939572083
 20
165.6794893127246
 30
0.0
 10
147.1692161255337
 20
165.6624264228967
 30
0.0
 10
147.1921245590628
 20
165.6431804498331
 30
0.0
 10
147.2130544140843
 20
165.6215213191456
 30
0.0
 10
147.2324348852869
 20
165.5975617536959
 30
0.0
 10
147.2434225171281
 20
165.5799029733287
 30
0.0
 10
147.248984624985
 20
165.5709638277106
 30
0.0
  0
LINE
  5
E1
330
1F
100
AcDbEntity
  8
0
  6
Continuous
 62
     7
370
    25
100
AcDbLine
 10
147.248984625
 20
165.5709638277
 30
0.0
 11
147.1738644327
 21
165.5242891482
 31
0.0
  0
SPLINE
  5
E2
330
1F
100
AcDbEntity
  8
0
  6
Continuous
 62
     7
370
    25
100
AcDbSpline
210
0.0
220
0.0
230
1.0
 70
     8
 71
     3
 72
    15
 73
    11
 74
     0
 42
0.00000001
 43
0.00000001
 40
0.0
 40
0.0
 40
0.0
 40
0.0
 40
0.128324237769082
 40
0.2525844750621204
 40
0.3735064833108456
 40
0.4933644513855774
 40
0.6146085973434281
 40
0.7384702442356471
 40
0.8659947178699953
 40
1.0
 40
1.0
 40
1.0
 40
1.0
 10
147.1738644326774
 20
165.5242891482235
 30
0.0
 10
147.1656273282837
 20
165.5345258321773
 30
0.0
 10
147.1494139867864
 20
165.5546750065485
 30
0.0
 10
147.1212599192587
 20
165.5806778446265
 30
0.0
 10
147.0912566580528
 20
165.6030112851319
 30
0.0
 10
147.0588915015629
 20
165.6212123568328
 30
0.0
 10
147.0242098444051
 20
165.6352756283669
 30
0.0
 10
146.9873484583335
 20
165.6452271156535
 30
0.0
 10
146.9483125997894
 20
165.6514283278903
 30
0.0
 10
146.9215511143507
 20
165.6521331384233
 30
0.0
 10
146.9078387916517
 20
165.6524942764286
 30
0.0
  0
SPLINE
  5
E3
330
1F
100
AcDbEntity
  8
0
  6
Continuous
 62
     7
370
    25
100
AcDbSpline
210
0.0
220
0.0
230
1.0
 70
     8
 71
     3
 72
    23
 73
    19
 74
     0
 42
0.00000001
 43
0.00000001
 40
0.0
 40
0.0
 40
0.0
 40
0.0
 40
0.0695216413260594
 40
0.1369209822612702
 40
0.2019692428653075
 40
0.2654615503849174
 40
0.3282478845128408
 40
0.3908167166700808
 40
0.4535501756793759
 40
0.5175419816323171
 40
0.5807383719174987
 40
0.6419215091741669
 40
0.7015967244089212
 40
0.7603128802454935
 40
0.8187565130147021
 40
0.8777180795361719
 40
0.9380940530277054
 40
1.0
 40
1.0
 40
1.0
 40
1.0
 10
146.9078387916517
 20
165.6524942764286
 30
0.0
 10
146.896879089677
 20
165.6521923215115
 30
0.0
 10
146.8752942546378
 20
165.6515976295126
 30
0.0
 10
146.8436067822246
 20
165.6478803456982
 30
0.0
 10
146.8134232527581
 20
165.6411254861819
 30
0.0
 10
146.7845544787864
 20
165.6322252128413
 30
0.0
 10
146.7572057877774
 20
165.6202965585726
 30
0.0
 10
146.731305525364
 20
165.6057794853953
 30
0.0
 10
146.706623956792
 20
165.5889080453067
 30
0.0
 10
146.683876316409
 20
165.5693621751928
 30
0.0
 10
146.6630680286713
 20
165.5481054130075
 30
0.0
 10
146.6450397675171
 20
165.5253186429039
 30
0.0
 10
146.6293435008905
 20
165.5016843882734
 30
0.0
 10
146.617027513365
 20
165.4766124619244
 30
0.0
 10
146.6069488932289
 20
165.4506764467081
 30
0.0
 10
146.6003184017474
 20
165.4233867736563
 30
0.0
 10
146.5958999173437
 20
165.395093057206
 30
0.0
 10
146.5953943948815
 20
165.3758021029968
 30
0.0
 10
146.5951384711389
 20
165.3660359430952
 30
0.0
  0
SPLINE
  5
E4
330
1F
100
AcDbEntity
  8
0
  6
Continuous
 62
     7
370
    25
100
AcDbSpline
210
0.0
220
0.0
230
1.0
 70
     8
 71
     3
 72
    19
 73
    15
 74
     0
 42
0.00000001
 43
0.00000001
 40
0.0
 40
0.0
 40
0.0
 40
0.0
 40
0.0805252423525569
 40
0.1599654769450033
 40
0.2403213612945816
 40
0.322528527629393
 40
0.4050235832074827
 40
0.4865966363996266
 40
0.5678654736293045
 40
0.651332773384527
 40
0.7362375672939928
 40
0.8215290690095387
 40
0.9090049060738107
 40
1.0
 40
1.0
 40
1.0
 40
1.0
 10
146.5951384711389
 20
165.3660359430952
 30
0.0
 10
146.5956468289136
 20
165.3532447399435
 30
0.0
 10
146.5966566947831
 20
165.3278346840021
 30
0.0
 10
146.6045713975552
 20
165.2903266549237
 30
0.0
 10
146.6175269425026
 20
165.2540627433931
 30
0.0
 10
146.6352577569763
 20
165.2193004185007
 30
0.0
 10
146.6576797953798
 20
165.1871306598528
 30
0.0
 10
146.6840148134652
 20
165.1582782443143
 30
0.0
 10
146.7142774086817
 20
165.1333022362504
 30
0.0
 10
146.748200931756
 20
165.1125958005135
 30
0.0
 10
146.7849888584541
 20
165.0959496954814
 30
0.0
 10
146.8242431740964
 20
165.0840904575144
 30
0.0
 10
146.8656431113666
 20
165.0769326367844
 30
0.0
 10
146.8939878962495
 20
165.0760309387736
 30
0.0
 10
146.9084397531902
 20
165.0755711995055
 30
0.0
  0
SPLINE
  5
E5
330
1F
100
AcDbEntity
  8
0
  6
Continuous
 62
     7
370
    25
100
AcDbSpline
210
0.0
220
0.0
230
1.0
 70
     8
 71
     3
 72
    15
 73
    11
 74
     0
 42
0.00000001
 43
0.00000001
 40
0.0
 40
0.0
 40
0.0
 40
0.0
 40
0.1299810785765473
 40
0.2554473120268284
 40
0.3772983447181155
 40
0.4984417785419484
 40
0.6193721253365994
 40
0.7418565019577955
 40
0.8685636891456946
 40
1.0
 40
1.0
 40
1.0
 40
1.0
 10
146.9084397531902
 20
165.0755711995055
 30
0.0
 10
146.9216840915839
 20
165.0759424844186
 30
0.0
 10
146.9477127311313
 20
165.0766721577994
 30
0.0
 10
146.9857605268656
 20
165.0828232901789
 30
0.0
 10
147.021983358537
 20
165.0928928997822
 30
0.0
 10
147.0563799387014
 20
165.1069350855103
 30
0.0
 10
147.0888874147174
 20
165.1250858043394
 30
0.0
 10
147.1192957504084
 20
165.1474741388571
 30
0.0
 10
147.1482100184879
 20
165.1734560246623
 30
0.0
 10
147.1652091546543
 20
165.1935468736022
 30
0.0
 10
147.1738644326774
 20
165.2037763277106
 30
0.0
  0
LINE
  5
E6
330
1F
100
AcDbEntity
  8
0
  6
Continuous
 62
     7
370
    25
100
AcDbLine
 10
147.1738644327
 20
165.2037763277
 30
0.0
 11
147.248984625
 21
165.1544974816
 31
0.0
  0
SPLINE
  5
E7
330
1F
100
AcDbEntity
  8
0
  6
Continuous
 62
     7
370
    25
100
AcDbSpline
210
0.0
220
0.0
230
1.0
 70
     8
 71
     3
 72
    23
 73
    19
 74
     0
 42
0.00000001
 43
0.00000001
 40
0.0
 40
0.0
 40
0.0
 40
0.0
 40
0.0596333961362538
 40
0.1190688615049971
 40
0.1781965462156739
 40
0.2369566475521858
 40
0.2959319880758126
 40
0.3558557687429187
 40
0.4164733051171564
 40
0.4777415997318223
 40
0.5399029904536343
 40
0.6025375151244189
 40
0.6654223850767943
 40
0.7297652560446585
 40
0.7948287708416651
 40
0.8618265399702117
 40
0.9300109324340764
 40
1.0
 40
1.0
 40
1.0
 40
1.0
 10
147.248984624985
 20
165.1544974815568
 30
0.0
 10
147.2445309957799
 20
165.1479572738661
 30
0.0
 10
147.2356385195271
 20
165.1348985662594
 30
0.0
 10
147.220773483683
 20
165.1164859614966
 30
0.0
 10
147.2047392460532
 20
165.0992511951247
 30
0.0
 10
147.1875983612285
 20
165.0832173693733
 30
0.0
 10
147.1695746441349
 20
165.0680007924553
 30
0.0
 10
147.1500523842504
 20
165.0543289140233
 30
0.0
 10
147.1296610666892
 20
165.0414332503901
 30
0.0
 10
147.1081613073396
 20
165.029829572618
 30
0.0
 10
147.0857753936216
 20
165.0193991950339
 30
0.0
 10
147.0625348251602
 20
165.0104302891141
 30
0.0
 10
147.0385405929569
 20
165.0027245445696
 30
0.0
 10
147.0137644854772
 20
164.9965995883487
 30
0.0
 10
146.9881576573887
 20
164.9917107773543
 30
0.0
 10
146.9617863332674
 20
164.9884668626217
 30
0.0
 10
146.9346595956669
 20
164.9860453537305
 30
0.0
 10
146.916324695293
 20
164.9859008203321
 30
0.0
 10
146.9070375096004
 20
164.9858276097619
 30
0.0
  0
SPLINE
  5
E8
330
1F
100
AcDbEntity
  8
0
  6
Continuous
 62
     7
370
    25
100
AcDbSpline
210
0.0
220
0.0
230
1.0
 70
     8
 71
     3
 72
    23
 73
    19
 74
     0
 42
0.00000001
 43
0.00000001
 40
0.0
 40
0.0
 40
0.0
 40
0.0
 40
0.0695585437274236
 40
0.13633525055757
 40
0.2010957661175449
 40
0.2644499547795269
 40
0.3270049911572312
 40
0.3893913874404102
 40
0.4519764903030426
 40
0.5156699828848034
 40
0.5789732464632444
 40
0.6401670288004581
 40
0.6997398434247761
 40
0.7586849854260567
 40
0.8178204012911366
 40
0.8769839874813341
 40
0.9376342848621191
 40
1.0
 40
1.0
 40
1.0
 40
1.0
 10
146.9070375096004
 20
164.9858276097619
 30
0.0
 10
146.8928629714052
 20
164.9860822611333
 30
0.0
 10
146.8650807736645
 20
164.9865813796696
 30
0.0
 10
146.8244172000605
 20
164.9920695154982
 30
0.0
 10
146.7855561522858
 20
165.0003431201492
 30
0.0
 10
146.7485109071527
 20
165.0122184726958
 30
0.0
 10
146.7132756973674
 20
165.0275055513409
 30
0.0
 10
146.6798833778691
 20
165.0461789555089
 30
0.0
 10
146.6484445155272
 20
165.068393752624
 30
0.0
 10
146.6192700061645
 20
165.0937545438728
 30
0.0
 10
146.5924753072646
 20
165.1212518698644
 30
0.0
 10
146.569467824307
 20
165.1509232749879
 30
0.0
 10
146.5495120327018
 20
165.1816778600856
 30
0.0
 10
146.5334870203958
 20
165.2141948675265
 30
0.0
 10
146.5207307556993
 20
165.2480421168271
 30
0.0
 10
146.5120150892494
 20
165.28349075681
 30
0.0
 10
146.5063780213299
 20
165.3202485436834
 30
0.0
 10
146.5057256271806
 20
165.3453150814132
 30
0.0
 10
146.5053948813953
 20
165.3580231225824
 30
0.0
  0
SPLINE
  5
E9
330
1F
100
AcDbEntity
  8
0
  6
Continuous
 62
     7
370
    25
100
AcDbSpline
210
0.0
220
0.0
230
1.0
 70
     8
 71
     3
 72
    31
 73
    27
 74
     0
 42
0.00000001
 43
0.00000001
 40
0.0
 40
0.0
 40
0.0
 40
0.0
 40
0.0412914469532588
 40
0.0821355032144578
 40
0.122636035225951
 40
0.1628308697551312
 40
0.2030066005770832
 40
0.2435260831621892
 40
0.2841729362467727
 40
0.3254098107964676
 40
0.3668546660987931
 40
0.4075505951658581
 40
0.4481873740565886
 40
0.4886828510840429
 40
0.529014965189697
 40
0.5698427286955051
 40
0.6113702381646519
 40
0.6532377352823951
 40
0.6954461190732809
 40
0.7377513945469928
 40
0.7800433605771279
 40
0.8228070703900356
 40
0.8659781422330072
 40
0.9095950301662421
 40
0.9542314047047775
 40
1.0
 40
1.0
 40
1.0
 40
1.0
 10
146.5053948813953
 20
165.3580231225824
 30
0.0
 10
146.5055208860057
 20
165.3666455324552
 30
0.0
 10
146.5057715299731
 20
165.3837969288356
 30
0.0
 10
146.5086463664699
 20
165.4092526621733
 30
0.0
 10
146.5123602158796
 20
165.4343693894099
 30
0.0
 10
146.5186532836146
 20
165.4588287377953
 30
0.0
 10
146.5259220355205
 20
165.4830016778151
 30
0.0
 10
146.5352007588877
 20
165.5065968496161
 30
0.0
 10
146.5460851574357
 20
165.5297238989959
 30
0.0
 10
146.5584428566642
 20
165.5523232503111
 30
0.0
 10
146.5723539266956
 20
165.5740231187353
 30
0.0
 10
146.587748564767
 20
165.5945241657839
 30
0.0
 10
146.6040469465439
 20
165.6140726702061
 30
0.0
 10
146.6220115499829
 20
165.6319937446848
 30
0.0
 10
146.6408800225103
 20
165.6490040850503
 30
0.0
 10
146.6611861869938
 20
165.6646492634304
 30
0.0
 10
146.6828135731825
 20
165.6789752608505
 30
0.0
 10
146.7054373796337
 20
165.6922469795479
 30
0.0
 10
146.729044440014
 20
165.7040639610008
 30
0.0
 10
146.7534920601126
 20
165.7142448861032
 30
0.0
 10
146.7786329256107
 20
165.72294562207
 30
0.0
 10
146.8045072525227
 20
165.7298338847107
 30
0.0
 10
146.83094330199
 20
165.7356102913796
 30
0.0
 10
146.8581493985479
 20
165.739243961756
 30
0.0
 10
146.8860214620505
 20
165.7418114683048
 30
0.0
 10
146.9048946113973
 20
165.7420945517821
 30
0.0
 10
146.9144493685748
 20
165.7422378661722
 30
0.0
  0
LINE
  5
EA
330
1F
100
AcDbEntity
  8
0
  6
Continuous
 62
     7
370
    25
100
AcDbLine
 10
146.2233435993
 20
164.9986481226
 30
0.0
 11
146.2233435993
 21
165.7294173534
 31
0.0
  0
LINE
  5
EB
330
1F
100
AcDbEntity
  8
0
  6
Continuous
 62
     7
370
    25
100
AcDbLine
 10
146.2233435993
 20
165.7294173534
 30
0.0
 11
146.3130871891
 21
165.7294173534
 31
0.0
  0
LINE
  5
EC
330
1F
100
AcDbEntity
  8
0
  6
Continuous
 62
     7
370
    25
100
AcDbLine
 10
146.3130871891
 20
165.7294173534
 30
0.0
 11
146.3130871891
 21
164.9986481226
 31
0.0
  0
LINE
  5
ED
330
1F
100
AcDbEntity
  8
0
  6
Continuous
 62
     7
370
    25
100
AcDbLine
 10
146.3130871891
 20
164.9986481226
 30
0.0
 11
146.2233435993
 21
164.9986481226
 31
0.0
  0
SPLINE
  5
EE
330
1F
100
AcDbEntity
  8
0
  6
Continuous
 62
     7
370
    25
100
AcDbSpline
210
0.0
220
0.0
230
1.0
 70
     8
 71
     3
 72
    15
 73
    11
 74
     0
 42
0.00000001
 43
0.00000001
 40
0.0
 40
0.0
 40
0.0
 40
0.0
 40
0.1232898687277519
 40
0.2421490813338372
 40
0.3634374760537276
 40
0.4897453933411765
 40
0.6181148445930508
 40
0.7448937812572076
 40
0.8689322665891648
 40
1.0
 40
1.0
 40
1.0
 40
1.0
 10
146.1848820608825
 20
165.9597859430952
 30
0.0
 10
146.1851852284873
 20
165.9649661858389
 30
0.0
 10
146.1857806687919
 20
165.9751405094422
 30
0.0
 10
146.1906869876887
 20
165.9897390902754
 30
0.0
 10
146.1983612184778
 20
166.0031623765048
 30
0.0
 10
146.2090699509159
 20
166.0148839477694
 30
0.0
 10
146.221822368136
 20
166.0246683577034
 30
0.0
 10
146.2360614381836
 20
166.0319286381326
 30
0.0
 10
146.2515942094346
 20
166.0363775922384
 30
0.0
 10
146.2623094882885
 20
166.0368611963339
 30
0.0
 10
146.2678147531902
 20
166.037109661044
 30
0.0
  0
SPLINE
  5
EF
330
1F
100
AcDbEntity
  8
0
  6
Continuous
 62
     7
370
    25
100
AcDbSpline
210
0.0
220
0.0
230
1.0
 70
     8
 71
     3
 72
    15
 73
    11
 74
     0
 42
0.00000001
 43
0.00000001
 40
0.0
 40
0.0
 40
0.0
 40
0.0
 40
0.1318992643310819
 40
0.25828409231695
 40
0.3843411247790104
 40
0.5119796151258802
 40
0.6386320084211069
 40
0.7592297631646915
 40
0.8774121680352338
 40
1.0
 40
1.0
 40
1.0
 40
1.0
 10
146.2678147531902
 20
166.037109661044
 30
0.0
 10
146.2733837005582
 20
166.0368513317881
 30
0.0
 10
146.2842887690846
 20
166.0363454734899
 30
0.0
 10
146.300058274135
 20
166.0320136228959
 30
0.0
 10
146.3144174204422
 20
166.0246708556262
 30
0.0
 10
146.3271539155536
 20
166.0148195182259
 30
0.0
 10
146.3380830260339
 20
166.0032339629518
 30
0.0
 10
146.3457346575697
 20
165.9897308291532
 30
0.0
 10
146.3506524850313
 20
165.9751426466422
 30
0.0
 10
146.3512463579677
 20
165.9649669068761
 30
0.0
 10
146.3515487275491
 20
165.9597859430952
 30
0.0
  0
SPLINE
  5
F0
330
1F
100
AcDbEntity
  8
0
  6
Continuous
 62
     7
370
    25
100
AcDbSpline
210
0.0
220
0.0
230
1.0
 70
     8
 71
     3
 72
    15
 73
    11
 74
     0
 42
0.00000001
 43
0.00000001
 40
0.0
 40
0.0
 40
0.0
 40
0.0
 40
0.1201621349926147
 40
0.2375463202768456
 40
0.3574970509274883
 40
0.484917122465183
 40
0.6133292680851542
 40
0.7401503701287366
 40
0.8673012545632709
 40
1.0
 40
1.0
 40
1.0
 40
1.0
 10
146.3515487275491
 20
165.9597859430952
 30
0.0
 10
146.3512395390277
 20
165.9547394707629
 30
0.0
 10
146.3506283099119
 20
165.9447631921872
 30
0.0
 10
146.3457384561259
 20
165.9304279144581
 30
0.0
 10
146.3380178167423
 20
165.9171124048913
 30
0.0
 10
146.3271609237062
 20
165.9055493448307
 30
0.0
 10
146.31441556342
 20
165.8957034534048
 30
0.0
 10
146.3000587674628
 20
165.8883592422891
 30
0.0
 10
146.2842886393158
 20
165.8840277744704
 30
0.0
 10
146.2733836566906
 20
165.8835218634021
 30
0.0
 10
146.2678147531902
 20
165.8832635071978
 30
0.0
  0
SPLINE
  5
F1
330
1F
100
AcDbEntity
  8
0
  6
Continuous
 62
     7
370
    25
100
AcDbSpline
210
0.0
220
0.0
230
1.0
 70
     8
 71
     3
 72
    15
 73
    11
 74
     0
 42
0.00000001
 43
0.00000001
 40
0.0
 40
0.0
 40
0.0
 40
0.0
 40
0.1318667517023403
 40
0.2566614034533821
 40
0.3842132129425222
 40
0.5133652331527039
 40
0.640443151825301
 40
0.7610850047779434
 40
0.8791455246531512
 40
1.0
 40
1.0
 40
1.0
 40
1.0
 10
146.2678147531902
 20
165.8832635071978
 30
0.0
 10
146.262309531714
 20
165.8835119986897
 30
0.0
 10
146.251594337382
 20
165.8839956549126
 30
0.0
 10
146.2360609538558
 20
165.8884442314088
 30
0.0
 10
146.2218242426005
 20
165.8957059665804
 30
0.0
 10
146.2090629075552
 20
165.9054848766075
 30
0.0
 10
146.1984257095175
 20
165.9171834186732
 30
0.0
 10
146.1906833308327
 20
165.9304197883466
 30
0.0
 10
146.185804770294
 20
165.9447652610946
 30
0.0
 10
146.1851920192613
 20
165.9547401657544
 30
0.0
 10
146.1848820608825
 20
165.9597859430952
 30
0.0
  0
LINE
  5
F2
330
1F
100
AcDbEntity
  8
0
  6
Continuous
 62
     7
370
    25
100
AcDbLine
 10
145.9412923173
 20
165.6016128662
 30
0.0
 11
145.9412923173
 21
165.7294173534
 31
0.0
  0
LINE
  5
F3
330
1F
100
AcDbEntity
  8
0
  6
Continuous
 62
     7
370
    25
100
AcDbLine
 10
145.9412923173
 20
165.7294173534
 30
0.0
 11
146.031035907
 21
165.7294173534
 31
0.0
  0
LINE
  5
F4
330
1F
100
AcDbEntity
  8
0
  6
Continuous
 62
     7
370
    25
100
AcDbLine
 10
146.031035907
 20
165.7294173534
 30
0.0
 11
146.031035907
 21
165.1494894687
 31
0.0
  0
SPLINE
  5
F5
330
1F
100
AcDbEntity
  8
0
  6
Continuous
 62
     7
370
    25
100
AcDbSpline
210
0.0
220
0.0
230
1.0
 70
     8
 71
     3
 72
    15
 73
    11
 74
     0
 42
0.00000001
 43
0.00000001
 40
0.0
 40
0.0
 40
0.0
 40
0.0
 40
0.1634452548497863
 40
0.3154887127129549
 40
0.4562908239366918
 40
0.5858641495747808
 40
0.7054286858067139
 40
0.8133707129824643
 40
0.9117182381600529
 40
1.0
 40
1.0
 40
1.0
 40
1.0
 10
146.0310359070363
 20
165.1494894687362
 30
0.0
 10
146.030956752016
 20
165.1371358702772
 30
0.0
 10
146.03080396376
 20
165.1132904495042
 30
0.0
 10
146.0297036862587
 20
165.0788109410434
 30
0.0
 10
146.0273834927672
 20
165.0469634880343
 30
0.0
 10
146.0247524409519
 20
165.0176028427231
 30
0.0
 10
146.0209676648606
 20
164.9908650969917
 30
0.0
 10
146.0163458456496
 20
164.9666704670848
 30
0.0
 10
146.0111356516061
 20
164.9449957349798
 30
0.0
 10
146.0065584466192
 20
164.9316457804005
 30
0.0
 10
146.0043932788312
 20
164.9253308148901
 30
0.0
  0
SPLINE
  5
F6
330
1F
100
AcDbEntity
  8
0
  6
Continuous
 62
     7
370
    25
100
AcDbSpline
210
0.0
220
0.0
230
1.0
 70
     8
 71
     3
 72
    23
 73
    19
 74
     0
 42
0.00000001
 43
0.00000001
 40
0.0
 40
0.0
 40
0.0
 40
0.0
 40
0.0613707062984707
 40
0.1209064680177747
 40
0.1794236650000309
 40
0.2376066874397624
 40
0.2959384682493679
 40
0.3542182268208204
 40
0.4135370665946864
 40
0.4740867825531961
 40
0.5351211890802341
 40
0.5969876649622162
 40
0.6600198335467755
 40
0.7242774964845
 40
0.7900118502255504
 40
0.8577476843344648
 40
0.9278290322155166
 40
1.0
 40
1.0
 40
1.0
 40
1.0
 10
146.0043932788312
 20
164.9253308148901
 30
0.0
 10
146.0011963534779
 20
164.917122265864
 30
0.0
 10
145.9948980887796
 20
164.9009505981391
 30
0.0
 10
145.9831021935057
 20
164.8780265064839
 30
0.0
 10
145.9698925067574
 20
164.8564418236705
 30
0.0
 10
145.9548048637189
 20
164.8363168375837
 30
0.0
 10
145.9379074911383
 20
164.8177525769085
 30
0.0
 10
145.9195984933799
 20
164.8003457199715
 30
0.0
 10
145.8995212958309
 20
164.78446452929
 30
0.0
 10
145.8776873780577
 20
164.7703830157309
 30
0.0
 10
145.8546000542861
 20
164.7577010002586
 30
0.0
 10
145.8302725965526
 20
164.7467162667774
 30
0.0
 10
145.8048421855917
 20
164.737148597171
 30
0.0
 10
145.7780699308491
 20
164.7299820841054
 30
0.0
 10
145.750375578144
 20
164.7237721639434
 30
0.0
 10
145.721433454978
 20
164.7197308251449
 30
0.0
 10
145.691412655891
 20
164.7169802371087
 30
0.0
 10
145.6709996901537
 20
164.7167258848289
 30
0.0
 10
145.6606432788312
 20
164.7165968405311
 30
0.0
  0
SPLINE
  5
F7
330
1F
100
AcDbEntity
  8
0
  6
Continuous
 62
     7
370
    25
100
AcDbSpline
210
0.0
220
0.0
230
1.0
 70
     8
 71
     3
 72
    19
 73
    15
 74
     0
 42
0.00000001
 43
0.00000001
 40
0.0
 40
0.0
 40
0.0
 40
0.0
 40
0.0964914237691326
 40
0.1884736749923235
 40
0.2768399149588048
 40
0.3621365621714245
 40
0.4434367545654381
 40
0.5201655209985961
 40
0.5927096635690103
 40
0.6629173343528014
 40
0.7354188002026997
 40
0.8148809699993766
 40
0.9030605557399495
 40
0.9999999999999999
 40
0.9999999999999999
 40
0.9999999999999999
 40
0.9999999999999999
 10
145.6606432788312
 20
164.7165968405311
 30
0.0
 10
145.6455333546593
 20
164.7168415507628
 30
0.0
 10
145.6160196131649
 20
164.7173195355914
 30
0.0
 10
145.5729896152551
 20
164.7228883684747
 30
0.0
 10
145.5321225524191
 20
164.7307610464958
 30
0.0
 10
145.4939584219333
 20
164.742676882962
 30
0.0
 10
145.458738394256
 20
164.7572588800281
 30
0.0
 10
145.4267030012473
 20
164.7740002951578
 30
0.0
 10
145.3981398276709
 20
164.7931972405298
 30
0.0
 10
145.3723902068129
 20
164.8150545550773
 30
0.0
 10
145.3491497524883
 20
164.8410441784023
 30
0.0
 10
145.3272848124937
 20
164.8716724195806
 30
0.0
 10
145.3062388291058
 20
164.9074058164811
 30
0.0
 10
145.2939049325722
 20
164.9336323059709
 30
0.0
 10
145.2874461634466
 20
164.9473660713004
 30
0.0
  0
LINE
  5
F8
330
1F
100
AcDbEntity
  8
0
  6
Continuous
 62
     7
370
    25
100
AcDbLine
 10
145.2874461634
 20
164.9473660713
 30
0.0
 11
145.3771897532
 21
164.9473660713
 31
0.0
  0
SPLINE
  5
F9
330
1F
100
AcDbEntity
  8
0
  6
Continuous
 62
     7
370
    25
100
AcDbSpline
210
0.0
220
0.0
230
1.0
 70
     8
 71
     3
 72
    15
 73
    11
 74
     0
 42
0.00000001
 43
0.00000001
 40
0.0
 40
0.0
 40
0.0
 40
0.0
 40
0.1247164867022614
 40
0.2438053739154878
 40
0.3600615340644464
 40
0.4751119996583951
 40
0.5935250978119233
 40
0.7193501703843324
 40
0.8538547713042998
 40
1.0
 40
1.0
 40
1.0
 40
1.0
 10
145.3771897531902
 20
164.9473660713004
 30
0.0
 10
145.3844075272774
 20
164.9359072496511
 30
0.0
 10
145.3985173868214
 20
164.913506664366
 30
0.0
 10
145.4249026670976
 20
164.8845029055275
 30
0.0
 10
145.4538187603397
 20
164.8597162299025
 30
0.0
 10
145.4862415269638
 20
164.8397417230269
 30
0.0
 10
145.5223058742233
 20
164.8246817826264
 30
0.0
 10
145.5620334988431
 20
164.8139459836447
 30
0.0
 10
145.6057476764817
 20
164.8075184788286
 30
0.0
 10
145.6361814519626
 20
164.8067438233599
 30
0.0
 10
145.6520294967799
 20
164.8063404302747
 30
0.0
  0
SPLINE
  5
FA
330
1F
100
AcDbEntity
  8
0
  6
Continuous
 62
     7
370
    25
100
AcDbSpline
210
0.0
220
0.0
230
1.0
 70
     8
 71
     3
 72
    23
 73
    19
 74
     0
 42
0.00000001
 43
0.00000001
 40
0.0
 40
0.0
 40
0.0
 40
0.0
 40
0.0981712978276964
 40
0.1892644356875803
 40
0.2744630560180677
 40
0.3550231712817322
 40
0.4309204620429369
 40
0.5010860453857513
 40
0.5666076270376345
 40
0.6297208634283235
 40
0.6627106951128701
 40
0.6987655616316333
 40
0.7386105373889557
 40
0.7825812280784414
 40
0.8304087872491077
 40
0.8825778660702555
 40
0.9392286810451809
 40
1.0
 40
1.0
 40
1.0
 40
1.0
 10
145.6520294967799
 20
164.8063404302747
 30
0.0
 10
145.6676771797353
 20
164.8067490442161
 30
0.0
 10
145.6978443462076
 20
164.8075368109948
 30
0.0
 10
145.7412246802205
 20
164.8139488521869
 30
0.0
 10
145.7808232339543
 20
164.8246841189761
 30
0.0
 10
145.8164118627048
 20
164.8397150864749
 30
0.0
 10
145.8475706537155
 20
164.858129488342
 30
0.0
 10
145.874431222654
 20
164.8787009381734
 30
0.0
 10
145.896186844409
 20
164.9018955104632
 30
0.0
 10
145.9108191206004
 20
164.9232617407749
 30
0.0
 10
145.9199147256286
 20
164.9422972064026
 30
0.0
 10
145.9257067932759
 20
164.9586836623904
 30
0.0
 10
145.9304136416915
 20
164.9772130560083
 30
0.0
 10
145.9343507381302
 20
164.9978232663576
 30
0.0
 10
145.9375995705221
 20
165.0205437398054
 30
0.0
 10
145.9396575369071
 20
165.0454264264839
 30
0.0
 10
145.941144911642
 20
165.0724147757187
 30
0.0
 10
145.9412420458845
 20
165.0911271009215
 30
0.0
 10
145.9412923172927
 20
165.1008115841209
 30
0.0
  0
LINE
  5
FB
330
1F
100
AcDbEntity
  8
0
  6
Continuous
 62
     7
370
    25
100
AcDbLine
 10
145.9412923173
 20
165.1008115841
 30
0.0
 11
145.9412923173
 21
165.138672161
 31
0.0
  0
SPLINE
  5
FC
330
1F
100
AcDbEntity
  8
0
  6
Continuous
 62
     7
370
    25
100
AcDbSpline
210
0.0
220
0.0
230
1.0
 70
     8
 71
     3
 72
    15
 73
    11
 74
     0
 42
0.00000001
 43
0.00000001
 40
0.0
 40
0.0
 40
0.0
 40
0.0
 40
0.1265607130145124
 40
0.2508952618879062
 40
0.3747192653150231
 40
0.4998264235934306
 40
0.6249635314328822
 40
0.7490394747387601
 40
0.8731801199413224
 40
1.0
 40
1.0
 40
1.0
 40
1.0
 10
145.9412923172927
 20
165.1386721610439
 30
0.0
 10
145.9321834266063
 20
165.1278316461419
 30
0.0
 10
145.9141258678281
 20
165.1063412976715
 30
0.0
 10
145.8829409172186
 20
165.0781808300449
 30
0.0
 10
145.8488789413244
 20
165.0539276499588
 30
0.0
 10
145.8119979292094
 20
165.0340366115264
 30
0.0
 10
145.7732012885926
 20
165.0181276330667
 30
0.0
 10
145.7329092227591
 20
165.0070010728087
 30
0.0
 10
145.6914829212731
 20
164.9998125299829
 30
0.0
 10
145.663410878466
 20
164.9990390110583
 30
0.0
 10
145.6492250096004
 20
164.9986481225824
 30
0.0
  0
SPLINE
  5
FD
330
1F
100
AcDbEntity
  8
0
  6
Continuous
 62
     7
370
    25
100
AcDbSpline
210
0.0
220
0.0
230
1.0
 70
     8
 71
     3
 72
    31
 73
    27
 74
     0
 42
0.00000001
 43
0.00000001
 40
0.0
 40
0.0
 40
0.0
 40
0.0
 40
0.0428647590311867
 40
0.0852222575672312
 40
0.1272022841437598
 40
0.1690253126086123
 40
0.210882033099723
 40
0.252962677727101
 40
0.2956282851000641
 40
0.3385532936306123
 40
0.381463247717198
 40
0.4235815621432736
 40
0.465066165395443
 40
0.5063122188418674
 40
0.5470395054616403
 40
0.5876758328931898
 40
0.6286747862975718
 40
0.6699464646027736
 40
0.7110355744560712
 40
0.751995828635238
 40
0.7926726074835206
 40
0.8334460178854812
 40
0.8741906070422352
 40
0.9154935830294965
 40
0.9574778068391465
 40
1.0
 40
1.0
 40
1.0
 40
1.0
 10
145.6492250096004
 20
164.9986481225824
 30
0.0
 10
145.6408717897657
 20
164.9987952730026
 30
0.0
 10
145.6242642018926
 20
164.9990878324684
 30
0.0
 10
145.599591416969
 20
165.0016474831612
 30
0.0
 10
145.5752827203038
 20
165.0053614095311
 30
0.0
 10
145.5513948049818
 20
165.0108132492406
 30
0.0
 10
145.5278932012484
 20
165.0178108853946
 30
0.0
 10
145.5048167463566
 20
165.0265585250374
 30
0.0
 10
145.4819785959089
 20
165.0364485588278
 30
0.0
 10
145.4597938822342
 20
165.048097931239
 30
0.0
 10
145.4384835591672
 20
165.0610585903417
 30
0.0
 10
145.4182083634143
 20
165.0750982734019
 30
0.0
 10
145.3990744951035
 20
165.0901434986137
 30
0.0
 10
145.3812640695465
 20
165.1063426242697
 30
0.0
 10
145.3648004491325
 20
165.1236722050589
 30
0.0
 10
145.3494622011169
 20
165.1419475059254
 30
0.0
 10
145.3355029590979
 20
165.1614237177385
 30
0.0
 10
145.3226362764576
 20
165.181745705605
 30
0.0
 10
145.3114769763511
 20
165.2030488266941
 30
0.0
 10
145.3016814415438
 20
165.2248711396734
 30
0.0
 10
145.293164468675
 20
165.2471659838121
 30
0.0
 10
145.2863743538932
 20
165.2700080017133
 30
0.0
 10
145.2811883215304
 20
165.293382792818
 30
0.0
 10
145.2773282566764
 20
165.3172520639243
 30
0.0
 10
145.2751388476318
 20
165.3416893175328
 30
0.0
 10
145.2747974407621
 20
165.3581525601599
 30
0.0
 10
145.2746256506261
 20
165.3664365841209
 30
0.0
  0
SPLINE
  5
FE
330
1F
100
AcDbEntity
  8
0
  6
Continuous
 62
     7
370
    25
100
AcDbSpline
210
0.0
220
0.0
230
1.0
 70
     8
 71
     3
 72
    31
 73
    27
 74
     0
 42
0.00000001
 43
0.00000001
 40
0.0
 40
0.0
 40
0.0
 40
0.0
 40
0.0420341186638453
 40
0.0839054330862411
 40
0.1250689344486148
 40
0.1661584697031701
 40
0.207210272870721
 40
0.2484907320562609
 40
0.2898781122328084
 40
0.3321695142040914
 40
0.3744758421539213
 40
0.4162249804562147
 40
0.457609586958545
 40
0.4990731704672262
 40
0.5405533615534464
 40
0.5822488491953837
 40
0.6245497501259819
 40
0.667432800921042
 40
0.7103225433055161
 40
0.7524671185698848
 40
0.7940647568437901
 40
0.8352157072950015
 40
0.8762283442246692
 40
0.9174461887061636
 40
0.9586431404713104
 40
1.0
 40
1.0
 40
1.0
 40
1.0
 10
145.2746256506261
 20
165.3664365841209
 30
0.0
 10
145.2747739838476
 20
165.3747231829777
 30
0.0
 10
145.2750700757747
 20
165.3912642854916
 30
0.0
 10
145.2776274984465
 20
165.4158012527452
 30
0.0
 10
145.2812755525677
 20
165.4400096628143
 30
0.0
 10
145.2870492008522
 20
165.463639989012
 30
0.0
 10
145.2939984929983
 20
165.4869613466587
 30
0.0
 10
145.3026052280146
 20
165.509801477062
 30
0.0
 10
145.312953444968
 20
165.5321673368069
 30
0.0
 10
145.3246705163042
 20
165.5540754886485
 30
0.0
 10
145.3378373999188
 20
165.5752319500583
 30
0.0
 10
145.352275251578
 20
165.5953252774597
 30
0.0
 10
145.3680015013665
 20
165.6142076122956
 30
0.0
 10
145.3847991915437
 20
165.6320694471152
 30
0.0
 10
145.4028734249833
 20
165.648738445177
 30
0.0
 10
145.4222148513676
 20
165.6641741494294
 30
0.0
 10
145.4426328171522
 20
165.6786352997921
 30
0.0
 10
145.4641906028654
 20
165.6918099675524
 30
0.0
 10
145.486555571013
 20
165.7034620379867
 30
0.0
 10
145.5091595189539
 20
165.7140942085367
 30
0.0
 10
145.5323018718169
 20
165.7225325284024
 30
0.0
 10
145.5555511687951
 20
165.7299676995554
 30
0.0
 10
145.5793168587275
 20
165.7352348981897
 30
0.0
 10
145.6033075426195
 20
165.7392983958804
 30
0.0
 10
145.6276053534069
 20
165.7417740304592
 30
0.0
 10
145.6438776091347
 20
165.7420830547398
 30
0.0
 10
145.6520294967799
 20
165.7422378661722
 30
0.0
  0
SPLINE
  5
FF
330
1F
100
AcDbEntity
  8
0
  6
Continuous
 62
     7
370
    25
100
AcDbSpline
210
0.0
220
0.0
230
1.0
 70
     8
 71
     3
 72
    15
 73
    11
 74
     0
 42
0.00000001
 43
0.00000001
 40
0.0
 40
0.0
 40
0.0
 40
0.0
 40
0.1209110787487035
 40
0.238762228638707
 40
0.3547548590848395
 40
0.4703593994502742
 40
0.5891440987928901
 40
0.7163289048363773
 40
0.8524452858576146
 40
1.0
 40
1.0
 40
1.0
 40
1.0
 10
145.6520294967799
 20
165.7422378661722
 30
0.0
 10
145.6654726222026
 20
165.7418502452344
 30
0.0
 10
145.6920186642941
 20
165.7410848129851
 30
0.0
 10
145.731084664988
 20
165.7350787714471
 30
0.0
 10
145.7687824478386
 20
165.7255033390609
 30
0.0
 10
145.8053247380319
 20
165.7117845874866
 30
0.0
 10
145.8410092097467
 20
165.6930560051052
 30
0.0
 10
145.8757182541209
 20
165.6683865913878
 30
0.0
 10
145.9095522924567
 20
165.6375550657503
 30
0.0
 10
145.9304316726131
 20
165.6139113902167
 30
0.0
 10
145.9412923172927
 20
165.6016128661722
 30
0.0
  0
SPLINE
  5
100
330
1F
100
AcDbEntity
  8
0
  6
Continuous
 62
     7
370
    25
100
AcDbSpline
210
0.0
220
0.0
230
1.0
 70
     8
 71
     3
 72
    15
 73
    11
 74
     0
 42
0.00000001
 43
0.00000001
 40
0.0
 40
0.0
 40
0.0
 40
0.0
 40
0.1284975211375
 40
0.2527129855154641
 40
0.3748191325670376
 40
0.4964364263727359
 40
0.6179105567458024
 40
0.7412876173093202
 40
0.8687004007445851
 40
1.0
 40
1.0
 40
1.0
 40
1.0
 10
144.4645294967799
 20
165.6212442764286
 30
0.0
 10
144.4738005227873
 20
165.6309514019295
 30
0.0
 10
144.4920336267444
 20
165.650042172276
 30
0.0
 10
144.5227046918097
 20
165.674480036301
 30
0.0
 10
144.5548457835555
 20
165.6955989145468
 30
0.0
 10
144.5890529053091
 20
165.7125921189619
 30
0.0
 10
144.6249622932965
 20
165.7259745525981
 30
0.0
 10
144.6627392197329
 20
165.735278985488
 30
0.0
 10
144.7022465098643
 20
165.741351372622
 30
0.0
 10
144.729263544463
 20
165.7419394234236
 30
0.0
 10
144.7429750096004
 20
165.7422378661722
 30
0.0
  0
SPLINE
  5
101
330
1F
100
AcDbEntity
  8
0
  6
Continuous
 62
     7
370
    25
100
AcDbSpline
210
0.0
220
0.0
230
1.0
 70
     8
 71
     3
 72
    15
 73
    11
 74
     0
 42
0.00000001
 43
0.00000001
 40
0.0
 40
0.0
 40
0.0
 40
0.0
 40
0.1317514273024267
 40
0.2583323505141525
 40
0.3821339760925315
 40
0.5038043916000738
 40
0.6246929865409185
 40
0.7468705897275502
 40
0.8715135042347567
 40
1.0
 40
1.0
 40
1.0
 40
1.0
 10
144.7429750096004
 20
165.7422378661722
 30
0.0
 10
144.7566868018414
 20
165.7419458972753
 30
0.0
 10
144.7835722754327
 20
165.7413734176223
 30
0.0
 10
144.8229459571125
 20
165.7352548560073
 30
0.0
 10
144.8605302816657
 20
165.7258984661828
 30
0.0
 10
144.8964691937125
 20
165.7129637341616
 30
0.0
 10
144.9303024209846
 20
165.6956260340053
 30
0.0
 10
144.9625227764441
 20
165.6749376651124
 30
0.0
 10
144.9930419218398
 20
165.6504283526654
 30
0.0
 10
145.0113342159133
 20
165.6314689045583
 30
0.0
 10
145.0206192403697
 20
165.621845237967
 30
0.0
  0
SPLINE
  5
102
330
1F
100
AcDbEntity
  8
0
  6
Continuous
 62
     7
370
    25
100
AcDbSpline
210
0.0
220
0.0
230
1.0
 70
     8
 71
     3
 72
    15
 73
    11
 74
     0
 42
0.00000001
 43
0.00000001
 40
0.0
 40
0.0
 40
0.0
 40
0.0
 40
0.1281572795931675
 40
0.2538343627967038
 40
0.3765056225221533
 40
0.4985336856679335
 40
0.621367728732483
 40
0.7445647449043108
 40
0.8706337982552514
 40
1.0
 40
1.0
 40
1.0
 40
1.0
 10
145.0206192403697
 20
165.621845237967
 30
0.0
 10
145.0286140843882
 20
165.6126412420272
 30
0.0
 10
145.0444490501705
 20
165.5944113728228
 30
0.0
 10
145.0647535412532
 20
165.5648526262622
 30
0.0
 10
145.0822454155839
 20
165.5342411689502
 30
0.0
 10
145.0962634044372
 20
165.5021705041871
 30
0.0
 10
145.1073162683473
 20
165.4689205981431
 30
0.0
 10
145.1151636101345
 20
165.4343771663835
 30
0.0
 10
145.1198313058318
 20
165.3986164957653
 30
0.0
 10
145.1204607249579
 20
165.3743296848861
 30
0.0
 10
145.1207794967799
 20
165.3620295328388
 30
0.0
  0
SPLINE
  5
103
330
1F
100
AcDbEntity
  8
0
  6
Continuous
 62
     7
370
    25
100
AcDbSpline
210
0.0
220
0.0
230
1.0
 70
     8
 71
     3
 72
    23
 73
    19
 74
     0
 42
0.00000001
 43
0.00000001
 40
0.0
 40
0.0
 40
0.0
 40
0.0
 40
0.0624160261588258
 40
0.1233369785373362
 40
0.1832651398530956
 40
0.2431724430697059
 40
0.3028983539197556
 40
0.3637735975039149
 40
0.4256053049523881
 40
0.4896590425101952
 40
0.5537845767921276
 40
0.616221532811063
 40
0.6778544713083515
 40
0.7395168974879618
 40
0.8020965355763789
 40
0.8658658412779894
 40
0.9315077951965318
 40
1.0
 40
1.0
 40
1.0
 40
1.0
 10
145.1207794967799
 20
165.3620295328388
 30
0.0
 10
145.120499114689
 20
165.349658087788
 30
0.0
 10
145.1199450666016
 20
165.3252115354103
 30
0.0
 10
145.1147040333471
 20
165.2892060023279
 30
0.0
 10
145.106552294525
 20
165.2542931958463
 30
0.0
 10
145.0948860550452
 20
165.2206192833456
 30
0.0
 10
145.0799265952557
 20
165.1880813326567
 30
0.0
 10
145.0616721131032
 20
165.1568214614312
 30
0.0
 10
145.0399945082028
 20
165.1267779947818
 30
0.0
 10
145.0154219377003
 20
165.0982060409953
 30
0.0
 10
144.9882642588
 20
165.0718728367687
 30
0.0
 10
144.9588025021374
 20
165.0489219026106
 30
0.0
 10
144.9276156353513
 20
165.0292586099338
 30
0.0
 10
144.8942889629872
 20
165.013419634044
 30
0.0
 10
144.8591268238924
 20
165.0009311482407
 30
0.0
 10
144.8220533758624
 20
164.9921597149748
 30
0.0
 10
144.7831262129157
 20
164.986856376753
 30
0.0
 10
144.7565470068111
 20
164.9861753558213
 30
0.0
 10
144.7429750096004
 20
164.9858276097619
 30
0.0
  0
SPLINE
  5
104
330
1F
100
AcDbEntity
  8
0
  6
Continuous
 62
     7
370
    25
100
AcDbSpline
210
0.0
220
0.0
230
1.0
 70
     8
 71
     3
 72
    23
 73
    19
 74
     0
 42
0.00000001
 43
0.00000001
 40
0.0
 40
0.0
 40
0.0
 40
0.0
 40
0.0687422616055076
 40
0.1346351922242905
 40
0.1983241870671711
 40
0.2608250125604282
 40
0.3227135881590395
 40
0.384554534607647
 40
0.4469128577247624
 40
0.5109576325148352
 40
0.5749307010013464
 40
0.6366845377961048
 40
0.6974831152940436
 40
0.7571338075238688
 40
0.8169656636752561
 40
0.8768183516571846
 40
0.9376625803839956
 40
1.0
 40
1.0
 40
1.0
 40
1.0
 10
144.7429750096004
 20
164.9858276097619
 30
0.0
 10
144.7293365183122
 20
164.986176522967
 30
0.0
 10
144.7026248441053
 20
164.9868598871062
 30
0.0
 10
144.6635602778415
 20
164.9921391107432
 30
0.0
 10
144.6264203867173
 20
165.000927105763
 30
0.0
 10
144.5912122157117
 20
165.0134606751144
 30
0.0
 10
144.557742259439
 20
165.0292591161858
 30
0.0
 10
144.5263746888818
 20
165.0488624560652
 30
0.0
 10
144.4968889987346
 20
165.0718796432762
 30
0.0
 10
144.4697255746157
 20
165.0982041967191
 30
0.0
 10
144.4451545445225
 20
165.1267784699556
 30
0.0
 10
144.4234765421365
 20
165.1568213380965
 30
0.0
 10
144.4052221632364
 20
165.1880813647929
 30
0.0
 10
144.390262676413
 20
165.2206192747761
 30
0.0
 10
144.3785964441506
 20
165.2542931981441
 30
0.0
 10
144.3704447033883
 20
165.2892060017042
 30
0.0
 10
144.3652036706551
 20
165.3252115355717
 30
0.0
 10
144.3646496224965
 20
165.3496580878423
 30
0.0
 10
144.3643692403697
 20
165.3620295328388
 30
0.0
  0
SPLINE
  5
105
330
1F
100
AcDbEntity
  8
0
  6
Continuous
 62
     7
370
    25
100
AcDbSpline
210
0.0
220
0.0
230
1.0
 70
     8
 71
     3
 72
    15
 73
    11
 74
     0
 42
0.00000001
 43
0.00000001
 40
0.0
 40
0.0
 40
0.0
 40
0.0
 40
0.128919131812005
 40
0.2552377249248675
 40
0.3786785959785376
 40
0.5010878871851266
 40
0.622713679429773
 40
0.7462407949383874
 40
0.8715890472316162
 40
1.0
 40
1.0
 40
1.0
 40
1.0
 10
144.3643692403697
 20
165.3620295328388
 30
0.0
 10
144.364690186185
 20
165.3742628316654
 30
0.0
 10
144.3653256037415
 20
165.3984826609252
 30
0.0
 10
144.3699886063342
 20
165.4341761068256
 30
0.0
 10
144.3778053367584
 20
165.4686610751298
 30
0.0
 10
144.388871450031
 20
165.5017826396964
 30
0.0
 10
144.4030186474286
 20
165.5337127642793
 30
0.0
 10
144.4202647296984
 20
165.5643998588468
 30
0.0
 10
144.4407763389956
 20
165.5938249446978
 30
0.0
 10
144.4565483251478
 20
165.6120312532773
 30
0.0
 10
144.4645294967799
 20
165.6212442764286
 30
0.0
  0
LINE
  5
106
330
1F
100
AcDbEntity
  8
0
  6
Continuous
 62
     7
370
    25
100
AcDbLine
 10
143.7746256506
 20
164.9986481226
 30
0.0
 11
143.7746256506
 21
165.9986481226
 31
0.0
  0
LINE
  5
107
330
1F
100
AcDbEntity
  8
0
  6
Continuous
 62
     7
370
    25
100
AcDbLine
 10
143.7746256506
 20
165.9986481226
 30
0.0
 11
143.8643692404
 21
165.9986481226
 31
0.0
  0
LINE
  5
108
330
1F
100
AcDbEntity
  8
0
  6
Continuous
 62
     7
370
    25
100
AcDbLine
 10
143.8643692404
 20
165.9986481226
 30
0.0
 11
143.8643692404
 21
165.1012122251
 31
0.0
  0
LINE
  5
109
330
1F
100
AcDbEntity
  8
0
  6
Continuous
 62
     7
370
    25
100
AcDbLine
 10
143.8643692404
 20
165.1012122251
 30
0.0
 11
144.248984625
 21
165.1012122251
 31
0.0
  0
LINE
  5
10A
330
1F
100
AcDbEntity
  8
0
  6
Continuous
 62
     7
370
    25
100
AcDbLine
 10
144.248984625
 20
165.1012122251
 30
0.0
 11
144.248984625
 21
164.9986481226
 31
0.0
  0
LINE
  5
10B
330
1F
100
AcDbEntity
  8
0
  6
Continuous
 62
     7
370
    25
100
AcDbLine
 10
144.248984625
 20
164.9986481226
 30
0.0
 11
143.7746256506
 21
164.9986481226
 31
0.0
  0
CIRCLE
  5
10C
330
1F
100
AcDbEntity
  8
0
  6
Continuous
 62
     7
370
    25
100
AcDbCircle
 10
140.3719376913
 20
169.803364851
 30
0.0
 40
1.0
  0
LINE
  5
10D
330
1F
100
AcDbEntity
  8
0
  6
Continuous
 62
     7
370
    25
100
AcDbLine
 10
154.2919376913
 20
157.953364851
 30
0.0
 11
154.2919376913
 21
170.953364851
 31
0.0
  0
LINE
  5
10E
330
1F
100
AcDbEntity
  8
0
  6
Continuous
 62
     7
370
    25
100
AcDbLine
 10
139.2919376913
 20
170.953364851
 30
0.0
 11
154.2919376913
 21
170.953364851
 31
0.0
  0
LINE
  5
10F
330
1F
100
AcDbEntity
  8
0
  6
Continuous
 62
     7
370
    25
100
AcDbLine
 10
139.2919376913
 20
157.953364851
 30
0.0
 11
139.2919376913
 21
170.953364851
 31
0.0
  0
LINE
  5
110
330
1F
100
AcDbEntity
  8
0
  6
Continuous
 62
     7
370
    25
100
AcDbLine
 10
139.2919376913
 20
157.953364851
 30
0.0
 11
154.2919376913
 21
157.953364851
 31
0.0
  0
CIRCLE
  5
111
330
1F
100
AcDbEntity
  8
0
  6
Continuous
 62
     7
370
    25
100
AcDbCircle
 10
153.0719376913
 20
169.803364851
 30
0.0
 40
1.0
  0
CIRCLE
  5
112
330
1F
100
AcDbEntity
  8
0
  6
Continuous
 62
     7
370
    25
100
AcDbCircle
 10
150.5319376913
 20
169.803364851
 30
0.0
 40
1.0
  0
CIRCLE
  5
113
330
1F
100
AcDbEntity
  8
0
  6
Continuous
 62
     7
370
    25
100
AcDbCircle
 10
147.9919376913
 20
169.803364851
 30
0.0
 40
1.0
  0
CIRCLE
  5
114
330
1F
100
AcDbEntity
  8
0
  6
Continuous
 62
     7
370
    25
100
AcDbCircle
 10
145.4519376913
 20
169.803364851
 30
0.0
 40
1.0
  0
CIRCLE
  5
115
330
1F
100
AcDbEntity
  8
0
  6
Continuous
 62
     7
370
    25
100
AcDbCircle
 10
142.9119376913
 20
169.803364851
 30
0.0
 40
1.0
  0
CIRCLE
  5
116
330
1F
100
AcDbEntity
  8
0
  6
Continuous
 62
     7
370
    25
100
AcDbCircle
 10
153.0719376913
 20
159.053364851
 30
0.0
 40
1.0
  0
CIRCLE
  5
117
330
1F
100
AcDbEntity
  8
0
  6
Continuous
 62
     7
370
    25
100
AcDbCircle
 10
150.5319376913
 20
159.053364851
 30
0.0
 40
1.0
  0
CIRCLE
  5
118
330
1F
100
AcDbEntity
  8
0
  6
Continuous
 62
     7
370
    25
100
AcDbCircle
 10
147.9919376913
 20
159.053364851
 30
0.0
 40
1.0
  0
CIRCLE
  5
119
330
1F
100
AcDbEntity
  8
0
  6
Continuous
 62
     7
370
    25
100
AcDbCircle
 10
145.4519376913
 20
159.053364851
 30
0.0
 40
1.0
  0
CIRCLE
  5
11A
330
1F
100
AcDbEntity
  8
0
  6
Continuous
 62
     7
370
    25
100
AcDbCircle
 10
142.9119376913
 20
159.053364851
 30
0.0
 40
1.0
  0
LINE
  5
11B
330
1F
100
AcDbEntity
  8
0
  6
Continuous
 62
     7
370
    25
100
AcDbLine
 10
141.1419376913
 20
158.283364851
 30
0.0
 11
141.1419376913
 21
159.823364851
 31
0.0
  0
LINE
  5
11C
330
1F
100
AcDbEntity
  8
0
  6
Continuous
 62
     7
370
    25
100
AcDbLine
 10
139.6019376913
 20
158.283364851
 30
0.0
 11
141.1419376913
 21
158.283364851
 31
0.0
  0
LINE
  5
11D
330
1F
100
AcDbEntity
  8
0
  6
Continuous
 62
     7
370
    25
100
AcDbLine
 10
139.6019376913
 20
158.283364851
 30
0.0
 11
139.6019376913
 21
159.823364851
 31
0.0
  0
LINE
  5
11E
330
1F
100
AcDbEntity
  8
0
  6
Continuous
 62
     7
370
    25
100
AcDbLine
 10
139.6019376913
 20
159.823364851
 30
0.0
 11
141.1419376913
 21
159.823364851
 31
0.0
  0
CIRCLE
  5
11F
330
1F
100
AcDbEntity
  8
0
  6
Continuous
 62
     7
370
    25
100
AcDbCircle
 10
140.3719376913
 20
159.053364851
 30
0.0
 40
0.5
  0
CIRCLE
  5
120
330
1F
100
AcDbEntity
  8
0
  6
Continuous
 62
     7
370
    25
100
AcDbCircle
 10
142.9119376913
 20
159.053364851
 30
0.0
 40
0.5
  0
CIRCLE
  5
121
330
1F
100
AcDbEntity
  8
0
  6
Continuous
 62
     7
370
    25
100
AcDbCircle
 10
145.4519376913
 20
159.053364851
 30
0.0
 40
0.5
  0
CIRCLE
  5
122
330
1F
100
AcDbEntity
  8
0
  6
Continuous
 62
     7
370
    25
100
AcDbCircle
 10
147.9919376913
 20
159.053364851
 30
0.0
 40
0.5
  0
CIRCLE
  5
123
330
1F
100
AcDbEntity
  8
0
  6
Continuous
 62
     7
370
    25
100
AcDbCircle
 10
150.5319376913
 20
159.053364851
 30
0.0
 40
0.5
  0
CIRCLE
  5
124
330
1F
100
AcDbEntity
  8
0
  6
Continuous
 62
     7
370
    25
100
AcDbCircle
 10
153.0719376913
 20
159.053364851
 30
0.0
 40
0.5
  0
CIRCLE
  5
125
330
1F
100
AcDbEntity
  8
0
  6
Continuous
 62
     7
370
    25
100
AcDbCircle
 10
153.0719376913
 20
169.803364851
 30
0.0
 40
0.5
  0
CIRCLE
  5
126
330
1F
100
AcDbEntity
  8
0
  6
Continuous
 62
     7
370
    25
100
AcDbCircle
 10
150.5319376913
 20
169.803364851
 30
0.0
 40
0.5
  0
CIRCLE
  5
127
330
1F
100
AcDbEntity
  8
0
  6
Continuous
 62
     7
370
    25
100
AcDbCircle
 10
147.9919376913
 20
169.803364851
 30
0.0
 40
0.5
  0
CIRCLE
  5
128
330
1F
100
AcDbEntity
  8
0
  6
Continuous
 62
     7
370
    25
100
AcDbCircle
 10
145.4519376913
 20
169.803364851
 30
0.0
 40
0.5
  0
CIRCLE
  5
129
330
1F
100
AcDbEntity
  8
0
  6
Continuous
 62
     7
370
    25
100
AcDbCircle
 10
142.9119376913
 20
169.803364851
 30
0.0
 40
0.5
  0
CIRCLE
  5
12A
330
1F
100
AcDbEntity
  8
0
  6
Continuous
 62
     7
370
    25
100
AcDbCircle
 10
140.3719376913
 20
169.803364851
 30
0.0
 40
0.5
  0
MTEXT
  5
12C
330
1F
100
AcDbEntity
  8
0
  6
Continuous
 62
     7
100
AcDbMText
 10
139.2919376913
 20
156.9337984593
 30
0.0
 40
4.83362
 41
0.0
 71
     1
 72
     1
  1
SOLIDWORKS Educational Product.
  7
SLDTEXTSTYLE0
 73
     1
 44
1.0
  0
MTEXT
  5
12D
330
1F
100
AcDbEntity
  8
0
  6
Continuous
 62
     7
100
AcDbMText
 10
139.2919376913
 20
149.6833684593
 30
0.0
 40
4.83362
 41
0.0
 71
     1
 72
     1
  1
For Instructional Use Only.
  7
SLDTEXTSTYLE0
 73
     1
 44
1.0
  0
ENDSEC
  0
SECTION
  2
OBJECTS
  0
DICTIONARY
  5
C
330
0
100
AcDbDictionary
281
     1
  3
ACAD_GROUP
350
D
  3
ACAD_LAYOUT
350
1A
  3
ACAD_MLINESTYLE
350
17
  3
ACAD_PLOTSETTINGS
350
19
  3
ACAD_PLOTSTYLENAME
350
E
  3
ACAD_SCALELIST
350
47
  3
DWGPROPS
350
12E
  0
DICTIONARY
  5
D
102
{ACAD_REACTORS
330
C
102
}
330
C
100
AcDbDictionary
281
     1
  0
DICTIONARY
  5
1A
102
{ACAD_REACTORS
330
C
102
}
330
C
100
AcDbDictionary
281
     1
  3
Layout1
350
1E
  3
Layout2
350
26
  3
Model
350
22
  0
DICTIONARY
  5
17
102
{ACAD_REACTORS
330
C
102
}
330
C
100
AcDbDictionary
281
     1
  3
Standard
350
18
  0
DICTIONARY
  5
19
102
{ACAD_REACTORS
330
C
102
}
330
C
100
AcDbDictionary
281
     1
  0
ACDBDICTIONARYWDFLT
  5
E
102
{ACAD_REACTORS
330
C
102
}
330
C
100
AcDbDictionary
281
     1
  3
Normal
350
F
100
AcDbDictionaryWithDefault
340
F
  0
DICTIONARY
  5
47
102
{ACAD_REACTORS
330
C
102
}
330
C
100
AcDbDictionary
281
     1
  3
A0
350
48
  3
A1
350
49
  3
A2
350
4A
  3
A3
350
4B
  3
A4
350
4C
  3
A5
350
4D
  3
A6
350
4E
  3
A7
350
4F
  3
A8
350
50
  3
A9
350
51
  3
B0
350
52
  3
B1
350
53
  3
B2
350
54
  3
B3
350
55
  3
B4
350
56
  3
B5
350
57
  3
B6
350
58
  0
XRECORD
  5
12E
102
{ACAD_REACTORS
330
C
102
}
330
C
100
AcDbXrecord
280
     1
  1
DWGPROPS COOKIE
  2

  3

  4

  6

  7

  8
timai
  9

300
=
301
=
302
=
303
=
304
=
305
=
306
=
307
=
308
=
309
=
 40
0.0
 41
2460442.159438241
 42
2460442.159486366
  1

 90
        0
  0
LAYOUT
  5
1E
102
{ACAD_REACTORS
330
1A
102
}
330
1A
100
AcDbPlotSettings
  1

  2
none_device
  4

  6

 40
0.0
 41
0.0
 42
0.0
 43
0.0
 44
0.0
 45
0.0
 46
0.0
 47
0.0
 48
0.0
 49
0.0
140
0.0
141
0.0
142
1.0
143
1.0
 70
   688
 72
     1
 73
     0
 74
     5
  7

 75
    16
147
1.0
148
0.0
149
0.0
100
AcDbLayout
  1
Layout1
 70
     1
 71
     1
 10
0.0
 20
0.0
 11
420.0
 21
297.0
 12
0.0
 22
0.0
 32
0.0
 14
1.0000000000E+20
 24
1.0000000000E+20
 34
1.0000000000E+20
 15
-1.0000000000E+20
 25
-1.0000000000E+20
 35
-1.0000000000E+20
146
0.0
 13
0.0
 23
0.0
 33
0.0
 16
1.0
 26
0.0
 36
0.0
 17
0.0
 27
1.0
 37
0.0
 76
     0
330
1B
  0
LAYOUT
  5
26
102
{ACAD_REACTORS
330
1A
102
}
330
1A
100
AcDbPlotSettings
  1

  2
none_device
  4

  6

 40
0.0
 41
0.0
 42
0.0
 43
0.0
 44
0.0
 45
0.0
 46
0.0
 47
0.0
 48
0.0
 49
0.0
140
0.0
141
0.0
142
1.0
143
1.0
 70
   688
 72
     1
 73
     0
 74
     5
  7

 75
    16
147
1.0
148
0.0
149
0.0
100
AcDbLayout
  1
Layout2
 70
     1
 71
     2
 10
0.0
 20
0.0
 11
0.0
 21
0.0
 12
0.0
 22
0.0
 32
0.0
 14
0.0
 24
0.0
 34
0.0
 15
0.0
 25
0.0
 35
0.0
146
0.0
 13
0.0
 23
0.0
 33
0.0
 16
1.0
 26
0.0
 36
0.0
 17
0.0
 27
1.0
 37
0.0
 76
     0
330
23
  0
LAYOUT
  5
22
102
{ACAD_REACTORS
330
1A
102
}
330
1A
100
AcDbPlotSettings
  1

  2
none_device
  4
ANSI_A_(11.00_x_8.50_Inches)
  6

 40
6.35
 41
19.05
 42
6.35000508
 43
19.05000254
 44
279.4
 45
215.9
 46
-2280.1465836228
 47
-2614.9789748554
 48
0.0
 49
0.0
140
0.0
141
0.0
142
0.6473076923
143
1.0
 70
  1696
 72
     0
 73
     0
 74
     0
  7

 75
     0
147
0.0179189148
148
-1300.4909072572
149
0.0
100
AcDbLayout
  1
Model
 70
     1
 71
     0
 10
0.0
 20
0.0
 11
420.0
 21
297.0
 12
0.0
 22
0.0
 32
0.0
 14
139.2919376913
 24
157.953364851
 34
0.0
 15
154.2919376913
 25
170.953364851
 35
0.0
146
0.0
 13
0.0
 23
0.0
 33
0.0
 16
1.0
 26
0.0
 36
0.0
 17
0.0
 27
1.0
 37
0.0
 76
     0
330
1F
331
29
  0
MLINESTYLE
  5
18
102
{ACAD_REACTORS
330
17
102
}
330
17
100
AcDbMlineStyle
  2
Standard
 70
     0
  3

 62
   256
 51
90.0
 52
90.0
 71
     2
 49
0.5
 62
   256
  6
BYLAYER
 49
-0.5
 62
   256
  6
BYLAYER
  0
ACDBPLACEHOLDER
  5
F
102
{ACAD_REACTORS
330
E
102
}
330
E
  0
SCALE
  5
48
102
{ACAD_REACTORS
330
47
102
}
330
47
100
AcDbScale
 70
     0
300
1:1
140
1.0
141
1.0
290
     1
  0
SCALE
  5
49
102
{ACAD_REACTORS
330
47
102
}
330
47
100
AcDbScale
 70
     0
300
1:2
140
1.0
141
2.0
290
     0
  0
SCALE
  5
4A
102
{ACAD_REACTORS
330
47
102
}
330
47
100
AcDbScale
 70
     0
300
1:4
140
1.0
141
4.0
290
     0
  0
SCALE
  5
4B
102
{ACAD_REACTORS
330
47
102
}
330
47
100
AcDbScale
 70
     0
300
1:5
140
1.0
141
5.0
290
     0
  0
SCALE
  5
4C
102
{ACAD_REACTORS
330
47
102
}
330
47
100
AcDbScale
 70
     0
300
1:8
140
1.0
141
8.0
290
     0
  0
SCALE
  5
4D
102
{ACAD_REACTORS
330
47
102
}
330
47
100
AcDbScale
 70
     0
300
1:10
140
1.0
141
10.0
290
     0
  0
SCALE
  5
4E
102
{ACAD_REACTORS
330
47
102
}
330
47
100
AcDbScale
 70
     0
300
1:16
140
1.0
141
16.0
290
     0
  0
SCALE
  5
4F
102
{ACAD_REACTORS
330
47
102
}
330
47
100
AcDbScale
 70
     0
300
1:20
140
1.0
141
20.0
290
     0
  0
SCALE
  5
50
102
{ACAD_REACTORS
330
47
102
}
330
47
100
AcDbScale
 70
     0
300
1:30
140
1.0
141
30.0
290
     0
  0
SCALE
  5
51
102
{ACAD_REACTORS
330
47
102
}
330
47
100
AcDbScale
 70
     0
300
1:40
140
1.0
141
40.0
290
     0
  0
SCALE
  5
52
102
{ACAD_REACTORS
330
47
102
}
330
47
100
AcDbScale
 70
     0
300
1:50
140
1.0
141
50.0
290
     0
  0
SCALE
  5
53
102
{ACAD_REACTORS
330
47
102
}
330
47
100
AcDbScale
 70
     0
300
1:100
140
1.0
141
100.0
290
     0
  0
SCALE
  5
54
102
{ACAD_REACTORS
330
47
102
}
330
47
100
AcDbScale
 70
     0
300
2:1
140
2.0
141
1.0
290
     0
  0
SCALE
  5
55
102
{ACAD_REACTORS
330
47
102
}
330
47
100
AcDbScale
 70
     0
300
4:1
140
4.0
141
1.0
290
     0
  0
SCALE
  5
56
102
{ACAD_REACTORS
330
47
102
}
330
47
100
AcDbScale
 70
     0
300
8:1
140
8.0
141
1.0
290
     0
  0
SCALE
  5
57
102
{ACAD_REACTORS
330
47
102
}
330
47
100
AcDbScale
 70
     0
300
10:1
140
10.0
141
1.0
290
     0
  0
SCALE
  5
58
102
{ACAD_REACTORS
330
47
102
}
330
47
100
AcDbScale
 70
     0
300
100:1
140
100.0
141
1.0
290
     0
  0
ENDSEC
  0
EOF
