  0
SECTION
  2
HEADER
  9
$ACADVER
  1
AC1015
  9
$ACADMAINTVER
 70
     6
  9
$DWGCODEPAGE
  3
ANSI_1252
  9
$INSBASE
 10
0.0
 20
0.0
 30
0.0
  9
$EXTMIN
 10
0.0
 20
0.0
 30
0.0
  9
$EXTMAX
 10
21.0
 20
16.0
 30
0.0
  9
$LIMMIN
 10
0.0
 20
0.0
  9
$LIMMAX
 10
420.0
 20
297.0
  9
$ORTHOMODE
 70
     0
  9
$REGENMODE
 70
     1
  9
$FILLMODE
 70
     1
  9
$QTEXTMODE
 70
     0
  9
$MIRRTEXT
 70
     1
  9
$LTSCALE
 40
1.0
  9
$ATTMODE
 70
     1
  9
$TEXTSIZE
 40
3.5
  9
$TRACEWID
 40
1.0
  9
$TEXTSTYLE
  7
Standard
  9
$CLAYER
  8
0
  9
$CELTYPE
  6
ByLayer
  9
$CECOLOR
 62
   256
  9
$CELTSCALE
 40
1.0
  9
$DISPSILH
 70
     0
  9
$DIMSCALE
 40
1.0
  9
$DIMASZ
 40
3.302
  9
$DIMEXO
 40
0.0
  9
$DIMDLI
 40
3.75
  9
$DIMRND
 40
0.0
  9
$DIMDLE
 40
0.0
  9
$DIMEXE
 40
1.0
  9
$DIMTP
 40
0.0
  9
$DIMTM
 40
0.0
  9
$DIMTXT
 40
3.5
  9
$DIMCEN
 40
2.5
  9
$DIMTSZ
 40
0.0
  9
$DIMTOL
 70
     0
  9
$DIMLIM
 70
     0
  9
$DIMTIH
 70
     1
  9
$DIMTOH
 70
     1
  9
$DIMSE1
 70
     0
  9
$DIMSE2
 70
     0
  9
$DIMTAD
 70
     1
  9
$DIMZIN
 70
     1
  9
$DIMBLK
  1

  9
$DIMASO
 70
     1
  9
$DIMSHO
 70
     1
  9
$DIMPOST
  1

  9
$DIMAPOST
  1

  9
$DIMALT
 70
     0
  9
$DIMALTD
 70
     3
  9
$DIMALTF
 40
0.0393700787
  9
$DIMLFAC
 40
1.0
  9
$DIMTOFL
 70
     1
  9
$DIMTVP
 40
0.0
  9
$DIMTIX
 70
     0
  9
$DIMSOXD
 70
     0
  9
$DIMSAH
 70
     0
  9
$DIMBLK1
  1

  9
$DIMBLK2
  1

  9
$DIMSTYLE
  2
ISO-25
  9
$DIMCLRD
 70
     0
  9
$DIMCLRE
 70
     0
  9
$DIMCLRT
 70
     0
  9
$DIMTFAC
 40
1.0
  9
$DIMGAP
 40
1.524
  9
$DIMJUST
 70
     0
  9
$DIMSD1
 70
     0
  9
$DIMSD2
 70
     0
  9
$DIMTOLJ
 70
     0
  9
$DIMTZIN
 70
     1
  9
$DIMALTZ
 70
     0
  9
$DIMALTTZ
 70
     0
  9
$DIMUPT
 70
     0
  9
$DIMDEC
 70
     2
  9
$DIMTDEC
 70
     2
  9
$DIMALTU
 70
     2
  9
$DIMALTTD
 70
     3
  9
$DIMTXSTY
  7
Standard
  9
$DIMAUNIT
 70
     0
  9
$DIMADEC
 70
     2
  9
$DIMALTRND
 40
0.0
  9
$DIMAZIN
 70
     0
  9
$DIMDSEP
 70
    44
  9
$DIMATFIT
 70
     3
  9
$DIMFRAC
 70
     0
  9
$DIMLDRBLK
  1

  9
$DIMLUNIT
 70
     2
  9
$DIMLWD
 70
    -2
  9
$DIMLWE
 70
    -2
  9
$DIMTMOVE
 70
     0
  9
$LUNITS
 70
     2
  9
$LUPREC
 70
     2
  9
$SKETCHINC
 40
1.0
  9
$FILLETRAD
 40
0.0
  9
$AUNITS
 70
     0
  9
$AUPREC
 70
     2
  9
$MENU
  1
.
  9
$ELEVATION
 40
0.0
  9
$PELEVATION
 40
0.0
  9
$THICKNESS
 40
0.0
  9
$LIMCHECK
 70
     0
  9
$CHAMFERA
 40
0.0
  9
$CHAMFERB
 40
0.0
  9
$CHAMFERC
 40
0.0
  9
$CHAMFERD
 40
0.0
  9
$SKPOLY
 70
     0
  9
$TDCREATE
 40
2460483.476329456
  9
$TDUCREATE
 40
2460482.976329456
  9
$TDUPDATE
 40
2460483.476377014
  9
$TDUUPDATE
 40
2460482.976377014
  9
$TDINDWG
 40
0.0000000116
  9
$TDUSRTIMER
 40
0.0000000116
  9
$USRTIMER
 70
     1
  9
$ANGBASE
 50
0.0
  9
$ANGDIR
 70
     0
  9
$PDMODE
 70
     0
  9
$PDSIZE
 40
-1.0
  9
$PLINEWID
 40
0.0
  9
$SPLFRAME
 70
     0
  9
$SPLINETYPE
 70
     6
  9
$SPLINESEGS
 70
     8
  9
$HANDSEED
  5
D5
  9
$SURFTAB1
 70
     6
  9
$SURFTAB2
 70
     6
  9
$SURFTYPE
 70
     6
  9
$SURFU
 70
     6
  9
$SURFV
 70
     6
  9
$UCSBASE
  2

  9
$UCSNAME
  2

  9
$UCSORG
 10
0.0
 20
0.0
 30
0.0
  9
$UCSXDIR
 10
1.0
 20
0.0
 30
0.0
  9
$UCSYDIR
 10
0.0
 20
1.0
 30
0.0
  9
$UCSORTHOREF
  2

  9
$UCSORTHOVIEW
 70
     0
  9
$UCSORGTOP
 10
0.0
 20
0.0
 30
0.0
  9
$UCSORGBOTTOM
 10
0.0
 20
0.0
 30
0.0
  9
$UCSORGLEFT
 10
0.0
 20
0.0
 30
0.0
  9
$UCSORGRIGHT
 10
0.0
 20
0.0
 30
0.0
  9
$UCSORGFRONT
 10
0.0
 20
0.0
 30
0.0
  9
$UCSORGBACK
 10
0.0
 20
0.0
 30
0.0
  9
$PUCSBASE
  2

  9
$PUCSNAME
  2

  9
$PUCSORG
 10
0.0
 20
0.0
 30
0.0
  9
$PUCSXDIR
 10
1.0
 20
0.0
 30
0.0
  9
$PUCSYDIR
 10
0.0
 20
1.0
 30
0.0
  9
$PUCSORTHOREF
  2

  9
$PUCSORTHOVIEW
 70
     0
  9
$PUCSORGTOP
 10
0.0
 20
0.0
 30
0.0
  9
$PUCSORGBOTTOM
 10
0.0
 20
0.0
 30
0.0
  9
$PUCSORGLEFT
 10
0.0
 20
0.0
 30
0.0
  9
$PUCSORGRIGHT
 10
0.0
 20
0.0
 30
0.0
  9
$PUCSORGFRONT
 10
0.0
 20
0.0
 30
0.0
  9
$PUCSORGBACK
 10
0.0
 20
0.0
 30
0.0
  9
$USERI1
 70
     0
  9
$USERI2
 70
     0
  9
$USERI3
 70
     0
  9
$USERI4
 70
     0
  9
$USERI5
 70
     0
  9
$USERR1
 40
0.0
  9
$USERR2
 40
0.0
  9
$USERR3
 40
0.0
  9
$USERR4
 40
0.0
  9
$USERR5
 40
0.0
  9
$WORLDVIEW
 70
     1
  9
$SHADEDGE
 70
     3
  9
$SHADEDIF
 70
    70
  9
$TILEMODE
 70
     1
  9
$MAXACTVP
 70
    64
  9
$PINSBASE
 10
0.0
 20
0.0
 30
0.0
  9
$PLIMCHECK
 70
     0
  9
$PEXTMIN
 10
1.0000000000E+20
 20
1.0000000000E+20
 30
1.0000000000E+20
  9
$PEXTMAX
 10
-1.0000000000E+20
 20
-1.0000000000E+20
 30
-1.0000000000E+20
  9
$PLIMMIN
 10
0.0
 20
0.0
  9
$PLIMMAX
 10
420.0
 20
297.0
  9
$UNITMODE
 70
     0
  9
$VISRETAIN
 70
     1
  9
$PLINEGEN
 70
     0
  9
$PSLTSCALE
 70
     1
  9
$TREEDEPTH
 70
  3020
  9
$CMLSTYLE
  2
Standard
  9
$CMLJUST
 70
     0
  9
$CMLSCALE
 40
20.0
  9
$PROXYGRAPHICS
 70
     1
  9
$MEASUREMENT
 70
     1
  9
$CELWEIGHT
370
    -1
  9
$ENDCAPS
280
     0
  9
$JOINSTYLE
280
     0
  9
$LWDISPLAY
290
     1
  9
$INSUNITS
 70
     4
  9
$HYPERLINKBASE
  1

  9
$STYLESHEET
  1

  9
$XEDIT
290
     1
  9
$CEPSNTYPE
380
     0
  9
$PSTYLEMODE
290
     1
  9
$FINGERPRINTGUID
  2
{fee5a78d-49a3-47f7-b6d5-9f21ef5062cd}
  9
$VERSIONGUID
  2
{FAEB1C32-E019-11D5-929B-00C0DF256EC4}
  9
$EXTNAMES
290
     1
  9
$PSVPSCALE
 40
0.0
  9
$OLESTARTUP
290
     0
  0
ENDSEC
  0
SECTION
  2
CLASSES
  0
CLASS
  1
ACDBDICTIONARYWDFLT
  2
AcDbDictionaryWithDefault
  3
ObjectDBX Classes
 90
        0
280
     0
281
     0
  0
CLASS
  1
VISUALSTYLE
  2
AcDbVisualStyle
  3
ObjectDBX Classes
 90
     4095
280
     0
281
     0
  0
CLASS
  1
MATERIAL
  2
AcDbMaterial
  3
ObjectDBX Classes
 90
     1153
280
     0
281
     0
  0
CLASS
  1
SCALE
  2
AcDbScale
  3
ObjectDBX Classes
 90
     1153
280
     0
281
     0
  0
CLASS
  1
TABLESTYLE
  2
AcDbTableStyle
  3
ObjectDBX Classes
 90
     4095
280
     0
281
     0
  0
CLASS
  1
MLEADERSTYLE
  2
AcDbMLeaderStyle
  3
ACDB_MLEADERSTYLE_CLASS
 90
     4095
280
     0
281
     0
  0
CLASS
  1
SUN
  2
AcDbSun
  3
SCENEOE
 90
     1153
280
     0
281
     0
  0
CLASS
  1
ACDBPLACEHOLDER
  2
AcDbPlaceHolder
  3
ObjectDBX Classes
 90
        0
280
     0
281
     0
  0
CLASS
  1
LAYOUT
  2
AcDbLayout
  3
ObjectDBX Classes
 90
        0
280
     0
281
     0
  0
ENDSEC
  0
SECTION
  2
TABLES
  0
TABLE
  2
VPORT
  5
8
330
0
100
AcDbSymbolTable
 70
     1
  0
VPORT
  5
29
330
8
100
AcDbSymbolTableRecord
100
AcDbViewportTableRecord
  2
*Active
 70
     0
 10
0.0
 20
0.0
 11
1.0
 21
1.0
 12
10.5
 22
8.0
 13
0.0
 23
0.0
 14
10.0
 24
10.0
 15
10.0
 25
10.0
 16
0.0
 26
0.0
 36
1.0
 17
0.0
 27
0.0
 37
0.0
 40
16.32
 41
1.3125
 42
50.0
 43
0.0
 44
0.0
 50
0.0
 51
0.0
 71
     0
 72
   100
 73
     1
 74
     3
 75
     0
 76
     0
 77
     0
 78
     0
281
     0
 65
     1
110
0.0
120
0.0
130
0.0
111
1.0
121
0.0
131
0.0
112
0.0
122
1.0
132
0.0
 79
     0
146
0.0
  0
ENDTAB
  0
TABLE
  2
LTYPE
  5
5
330
0
100
AcDbSymbolTable
 70
     6
  0
LTYPE
  5
14
330
5
100
AcDbSymbolTableRecord
100
AcDbLinetypeTableRecord
  2
ByBlock
 70
     0
  3

 72
    65
 73
     0
 40
0.0
  0
LTYPE
  5
15
330
5
100
AcDbSymbolTableRecord
100
AcDbLinetypeTableRecord
  2
ByLayer
 70
     0
  3

 72
    65
 73
     0
 40
0.0
  0
LTYPE
  5
16
330
5
100
AcDbSymbolTableRecord
100
AcDbLinetypeTableRecord
  2
Continuous
 70
     0
  3
Solid line
 72
    65
 73
     0
 40
0.0
  0
LTYPE
  5
5E
330
5
100
AcDbSymbolTableRecord
100
AcDbLinetypeTableRecord
  2
HIDDEN
 70
     0
  3
Hidden __ __ __ __ __ __ __ __ __ __ __ __ __ __
 72
    65
 73
     2
 40
1.905
 49
1.27
 74
     0
 49
-0.635
 74
     0
  0
LTYPE
  5
5F
330
5
100
AcDbSymbolTableRecord
100
AcDbLinetypeTableRecord
  2
PHANTOM
 70
     0
  3
Phantom ______  __  __  ______  __  __  ______
 72
    65
 73
     6
 40
12.7
 49
6.35
 74
     0
 49
-1.27
 74
     0
 49
1.27
 74
     0
 49
-1.27
 74
     0
 49
1.27
 74
     0
 49
-1.27
 74
     0
  0
LTYPE
  5
60
330
5
100
AcDbSymbolTableRecord
100
AcDbLinetypeTableRecord
  2
CENTER
 70
     0
  3
Center ____ _ ____ _ ____ _ ____ _ ____ _ ____
 72
    65
 73
     4
 40
10.16
 49
6.35
 74
     0
 49
-1.27
 74
     0
 49
1.27
 74
     0
 49
-1.27
 74
     0
  0
LTYPE
  5
61
330
5
100
AcDbSymbolTableRecord
100
AcDbLinetypeTableRecord
  2
CENTERX2
 70
     0
  3
Center (2x) ________  __  ________  __  _____
 72
    65
 73
     4
 40
20.32
 49
12.7
 74
     0
 49
-2.54
 74
     0
 49
2.54
 74
     0
 49
-2.54
 74
     0
  0
LTYPE
  5
62
330
5
100
AcDbSymbolTableRecord
100
AcDbLinetypeTableRecord
  2
DOT2
 70
     0
  3
Dot (.5x) ........................................
 72
    65
 73
     2
 40
0.635
 49
0.0
 74
     0
 49
-0.635
 74
     0
  0
ENDTAB
  0
TABLE
  2
LAYER
  5
2
330
0
100
AcDbSymbolTable
 70
     1
  0
LAYER
  5
10
330
2
100
AcDbSymbolTableRecord
100
AcDbLayerTableRecord
  2
0
 70
     0
 62
     7
  6
Continuous
370
    -3
390
F
  0
ENDTAB
  0
TABLE
  2
STYLE
  5
3
330
0
100
AcDbSymbolTable
 70
     2
  0
STYLE
  5
11
330
3
100
AcDbSymbolTableRecord
100
AcDbTextStyleTableRecord
  2
Standard
 70
     0
 40
0.0
 41
1.0
 50
0.0
 71
     0
 42
3.5
  3
txt
  4

  0
STYLE
  5
D1
330
3
100
AcDbSymbolTableRecord
100
AcDbTextStyleTableRecord
  2
SLDTEXTSTYLE0
 70
     0
 40
0.0
 41
0.7
 50
0.0
 71
     0
 42
3.5
  3
TXT
  4

  0
ENDTAB
  0
TABLE
  2
VIEW
  5
6
330
0
100
AcDbSymbolTable
 70
     0
  0
ENDTAB
  0
TABLE
  2
UCS
  5
7
330
0
100
AcDbSymbolTable
 70
     0
  0
ENDTAB
  0
TABLE
  2
APPID
  5
9
330
0
100
AcDbSymbolTable
 70
     1
  0
APPID
  5
12
330
9
100
AcDbSymbolTableRecord
100
AcDbRegAppTableRecord
  2
ACAD
 70
     0
  0
ENDTAB
  0
TABLE
  2
DIMSTYLE
  5
A
330
0
100
AcDbSymbolTable
 70
     1
100
AcDbDimStyleTable
  0
DIMSTYLE
105
27
330
A
100
AcDbSymbolTableRecord
100
AcDbDimStyleTableRecord
  2
ISO-25
 70
     0
 41
2.5
 42
0.625
 43
3.75
 44
1.25
 73
     0
 74
     0
 77
     1
 78
     8
140
2.5
141
2.5
143
0.0393700787
147
0.625
171
     3
172
     1
178
     0
271
     2
272
     2
274
     3
278
    44
283
     0
284
     8
340
11
  0
ENDTAB
  0
TABLE
  2
BLOCK_RECORD
  5
1
330
0
100
AcDbSymbolTable
 70
     1
  0
BLOCK_RECORD
  5
1F
330
1
100
AcDbSymbolTableRecord
100
AcDbBlockTableRecord
  2
*Model_Space
340
22
  0
BLOCK_RECORD
  5
1B
330
1
100
AcDbSymbolTableRecord
100
AcDbBlockTableRecord
  2
*Paper_Space
340
1E
  0
BLOCK_RECORD
  5
23
330
1
100
AcDbSymbolTableRecord
100
AcDbBlockTableRecord
  2
*Paper_Space0
340
26
  0
ENDTAB
  0
ENDSEC
  0
SECTION
  2
BLOCKS
  0
BLOCK
  5
20
330
1F
100
AcDbEntity
  8
0
100
AcDbBlockBegin
  2
*Model_Space
 70
     0
 10
0.0
 20
0.0
 30
0.0
  3
*Model_Space
  1

  0
ENDBLK
  5
21
330
1F
100
AcDbEntity
  8
0
100
AcDbBlockEnd
  0
BLOCK
  5
1C
330
1B
100
AcDbEntity
 67
     1
  8
0
100
AcDbBlockBegin
  2
*Paper_Space
 70
     0
 10
0.0
 20
0.0
 30
0.0
  3
*Paper_Space
  1

  0
ENDBLK
  5
1D
330
1B
100
AcDbEntity
 67
     1
  8
0
100
AcDbBlockEnd
  0
BLOCK
  5
24
330
23
100
AcDbEntity
  8
0
100
AcDbBlockBegin
  2
*Paper_Space0
 70
     0
 10
0.0
 20
0.0
 30
0.0
  3
*Paper_Space0
  1

  0
ENDBLK
  5
25
330
23
100
AcDbEntity
  8
0
100
AcDbBlockEnd
  0
ENDSEC
  0
SECTION
  2
ENTITIES
  0
LINE
  5
63
330
1F
100
AcDbEntity
  8
0
  6
Continuous
 62
     7
370
    25
100
AcDbLine
 10
7.9031428528
 20
12.0729132456
 30
0.0
 11
7.5373575964
 21
12.0729132456
 31
0.0
  0
LINE
  5
64
330
1F
100
AcDbEntity
  8
0
  6
Continuous
 62
     7
370
    25
100
AcDbLine
 10
7.5373575964
 20
12.0729132456
 30
0.0
 11
7.5373575964
 21
11.4062465789
 31
0.0
  0
LINE
  5
65
330
1F
100
AcDbEntity
  8
0
  6
Continuous
 62
     7
370
    25
100
AcDbLine
 10
7.5373575964
 20
11.4062465789
 30
0.0
 11
7.8875178528
 21
11.4018395276
 31
0.0
  0
SPLINE
  5
66
330
1F
100
AcDbEntity
  8
0
  6
Continuous
 62
     7
370
    25
100
AcDbSpline
210
0.0
220
0.0
230
1.0
 70
     8
 71
     3
 72
    23
 73
    19
 74
     0
 42
0.00000001
 43
0.00000001
 40
0.0
 40
0.0
 40
0.0
 40
0.0
 40
0.0725383714064935
 40
0.1400338305012507
 40
0.2024956806336215
 40
0.2605750556694153
 40
0.3132283378464658
 40
0.3615831937532624
 40
0.4048783612951257
 40
0.4441274373055382
 40
0.5163996933371984
 40
0.5865066709977652
 40
0.6550853737960464
 40
0.7243837831470357
 40
0.7939735287256624
 40
0.8616376821817762
 40
0.9301109423064036
 40
1.0
 40
1.0
 40
1.0
 40
1.0
 10
7.8875178528332
 20
11.40183952761172
 30
0.0
 10
7.90461495329769
 20
11.40183069127392
 30
0.0
 10
7.937620553259273
 20
11.40181363290598
 30
0.0
 10
7.985298395106836
 20
11.40409090346554
 30
0.0
 10
8.029532273565717
 20
11.40671977927376
 30
0.0
 10
8.070186316636194
 20
11.41056887839491
 30
0.0
 10
8.107278850626656
 20
11.4160095969573
 30
0.0
 10
8.140871724269202
 20
11.42150201862482
 30
0.0
 10
8.170704457352002
 20
11.42944794010969
 30
0.0
 10
8.205618286932488
 20
11.44014683676062
 30
0.0
 10
8.244523056919226
 20
11.45839404570976
 30
0.0
 10
8.286847370361043
 20
11.48487969716893
 30
0.0
 10
8.322716276847489
 20
11.51864010185471
 30
0.0
 10
8.35375530356838
 20
11.5565988626127
 30
0.0
 10
8.378387233818897
 20
11.59882693657045
 30
0.0
 10
8.396419229428314
 20
11.64400918612818
 30
0.0
 10
8.407014176493192
 20
11.69168224299773
 30
0.0
 10
8.408434858582151
 20
11.72430403662926
 30
0.0
 10
8.409152468217815
 20
11.74078183530403
 30
0.0
  0
SPLINE
  5
67
330
1F
100
AcDbEntity
  8
0
  6
Continuous
 62
     7
370
    25
100
AcDbSpline
210
0.0
220
0.0
230
1.0
 70
     8
 71
     3
 72
    23
 73
    19
 74
     0
 42
0.00000001
 43
0.00000001
 40
0.0
 40
0.0
 40
0.0
 40
0.0
 40
0.0700437554181561
 40
0.1392383167626451
 40
0.2081974550441362
 40
0.2791733744245674
 40
0.3499868116864782
 40
0.4183538456626562
 40
0.487609583757152
 40
0.5574110731083898
 40
0.5953301567632411
 40
0.6379640515652206
 40
0.6859127777112921
 40
0.7381851646524807
 40
0.7961026471849434
 40
0.8585165439469291
 40
0.9266577264685186
 40
1.0
 40
1.0
 40
1.0
 40
1.0
 10
8.409152468217815
 20
11.74078183530403
 30
0.0
 10
8.408430955934652
 20
11.75686098584623
 30
0.0
 10
8.406996678814139
 20
11.78882434707814
 30
0.0
 10
8.396336185579468
 20
11.83566935314083
 30
0.0
 10
8.378422291943158
 20
11.88037546993328
 30
0.0
 10
8.35358995222039
 20
11.92207437584953
 30
0.0
 10
8.323452163671455
 20
11.95989654954396
 30
0.0
 10
8.288423967609752
 20
11.99275205072273
 30
0.0
 10
8.248587818276222
 20
12.01916445228337
 30
0.0
 10
8.211531686257517
 20
12.0362120417969
 30
0.0
 10
8.17861672281326
 20
12.04662077061584
 30
0.0
 10
8.150027031451096
 20
12.0539035365914
 30
0.0
 10
8.117746646030328
 20
12.05971816873137
 30
0.0
 10
8.081765057738691
 20
12.06442645604347
 30
0.0
 10
8.042361152664173
 20
12.06845700531397
 30
0.0
 10
7.999196401295817
 20
12.07119184944767
 30
0.0
 10
7.952434319430434
 20
12.07279268158283
 30
0.0
 10
7.919971136079038
 20
12.07287208458665
 30
0.0
 10
7.9031428528332
 20
12.07291324556043
 30
0.0
  0
CIRCLE
  5
68
330
1F
100
AcDbEntity
  8
0
  6
Continuous
 62
     7
370
    25
100
AcDbCircle
 10
1.61
 20
1.0
 30
0.0
 40
0.5499999999999999
  0
CIRCLE
  5
69
330
1F
100
AcDbEntity
  8
0
  6
Continuous
 62
     7
370
    25
100
AcDbCircle
 10
1.61
 20
1.0
 30
0.0
 40
0.8000000000000004
  0
CIRCLE
  5
6A
330
1F
100
AcDbEntity
  8
0
  6
Continuous
 62
     7
370
    25
100
AcDbCircle
 10
4.15
 20
1.0
 30
0.0
 40
0.5500000000000005
  0
CIRCLE
  5
6B
330
1F
100
AcDbEntity
  8
0
  6
Continuous
 62
     7
370
    25
100
AcDbCircle
 10
4.15
 20
1.0
 30
0.0
 40
0.8000000000000002
  0
CIRCLE
  5
6C
330
1F
100
AcDbEntity
  8
0
  6
Continuous
 62
     7
370
    25
100
AcDbCircle
 10
6.69
 20
1.0
 30
0.0
 40
0.5499999999999997
  0
CIRCLE
  5
6D
330
1F
100
AcDbEntity
  8
0
  6
Continuous
 62
     7
370
    25
100
AcDbCircle
 10
6.69
 20
1.0
 30
0.0
 40
0.8000000000000002
  0
CIRCLE
  5
6E
330
1F
100
AcDbEntity
  8
0
  6
Continuous
 62
     7
370
    25
100
AcDbCircle
 10
9.23
 20
1.0
 30
0.0
 40
0.5499999999999998
  0
CIRCLE
  5
6F
330
1F
100
AcDbEntity
  8
0
  6
Continuous
 62
     7
370
    25
100
AcDbCircle
 10
9.23
 20
1.0
 30
0.0
 40
0.8000000000000009
  0
CIRCLE
  5
70
330
1F
100
AcDbEntity
  8
0
  6
Continuous
 62
     7
370
    25
100
AcDbCircle
 10
11.77
 20
1.0
 30
0.0
 40
0.5499999999999998
  0
CIRCLE
  5
71
330
1F
100
AcDbEntity
  8
0
  6
Continuous
 62
     7
370
    25
100
AcDbCircle
 10
11.77
 20
1.0
 30
0.0
 40
0.8000000000000009
  0
CIRCLE
  5
72
330
1F
100
AcDbEntity
  8
0
  6
Continuous
 62
     7
370
    25
100
AcDbCircle
 10
14.31
 20
1.0
 30
0.0
 40
0.5499999999999998
  0
CIRCLE
  5
73
330
1F
100
AcDbEntity
  8
0
  6
Continuous
 62
     7
370
    25
100
AcDbCircle
 10
14.31
 20
1.0
 30
0.0
 40
0.8000000000000009
  0
CIRCLE
  5
74
330
1F
100
AcDbEntity
  8
0
  6
Continuous
 62
     7
370
    25
100
AcDbCircle
 10
16.85
 20
1.0
 30
0.0
 40
0.5500000000000032
  0
CIRCLE
  5
75
330
1F
100
AcDbEntity
  8
0
  6
Continuous
 62
     7
370
    25
100
AcDbCircle
 10
16.85
 20
1.0
 30
0.0
 40
0.7999999999999992
  0
CIRCLE
  5
76
330
1F
100
AcDbEntity
  8
0
  6
Continuous
 62
     7
370
    25
100
AcDbCircle
 10
19.39
 20
1.0
 30
0.0
 40
0.5500000000000032
  0
CIRCLE
  5
77
330
1F
100
AcDbEntity
  8
0
  6
Continuous
 62
     7
370
    25
100
AcDbCircle
 10
19.39
 20
1.0
 30
0.0
 40
0.7999999999999992
  0
SPLINE
  5
78
330
1F
100
AcDbEntity
  8
0
  6
Continuous
 62
     7
370
    25
100
AcDbSpline
210
0.0
220
0.0
230
1.0
 70
     8
 71
     3
 72
    31
 73
    27
 74
     0
 42
0.00000001
 43
0.00000001
 40
0.0
 40
0.0
 40
0.0
 40
0.0
 40
0.0337871463469916
 40
0.066621657724293
 40
0.0992848780959716
 40
0.1313611650426508
 40
0.1635851875953438
 40
0.1961039269870682
 40
0.228902254323817
 40
0.2621580559050085
 40
0.2959912222583169
 40
0.330217845724801
 40
0.3650598258919549
 40
0.4009507373401079
 40
0.4376203820767386
 40
0.4757075294370932
 40
0.5153806916250486
 40
0.5564135414931651
 40
0.599764829872731
 40
0.6464241555840876
 40
0.6964314445175664
 40
0.7497815178015576
 40
0.8065733069755331
 40
0.8674355315654004
 40
0.9318867532508747
 40
0.9999999999999999
 40
0.9999999999999999
 40
0.9999999999999999
 40
0.9999999999999999
 10
15.89833516052551
 20
10.22675939940659
 30
0.0
 10
15.88256138110537
 20
10.2270258882402
 30
0.0
 10
15.85145856695364
 20
10.22755135220443
 30
0.0
 10
15.80537146670253
 20
10.23298777019768
 30
0.0
 10
15.7606386418797
 20
10.2417280577476
 30
0.0
 10
15.71703935385821
 20
10.25396611722822
 30
0.0
 10
15.67434991666753
 20
10.26894602369418
 30
0.0
 10
15.63315203857851
 20
10.28846241432446
 30
0.0
 10
15.59298764789813
 20
10.31093902515644
 30
0.0
 10
15.55396390160208
 20
10.33653640883546
 30
0.0
 10
15.5168140952936
 20
10.36586308490882
 30
0.0
 10
15.48132917797141
 20
10.39829982130111
 30
0.0
 10
15.44840059563028
 20
10.4346560563282
 30
0.0
 10
15.41775254099181
 20
10.47435772667547
 30
0.0
 10
15.38862449059424
 20
10.51703957943704
 30
0.0
 10
15.36183056298325
 20
10.56328436403443
 30
0.0
 10
15.3370472178015
 20
10.61290871288563
 30
0.0
 10
15.31439379456234
 20
10.6662332332714
 30
0.0
 10
15.29430884398238
 20
10.72403604919127
 30
0.0
 10
15.276567296489
 20
10.78697843690698
 30
0.0
 10
15.26255920650611
 20
10.85561594325786
 30
0.0
 10
15.25056894631589
 20
10.92939729588951
 30
0.0
 10
15.24089787029104
 20
11.00863954182428
 30
0.0
 10
15.23429539868054
 20
11.09338570078822
 30
0.0
 10
15.23021464723153
 20
11.18358296303173
 30
0.0
 10
15.22985174984861
 20
11.24545140549837
 30
0.0
 10
15.22966528873064
 20
11.27724016863736
 30
0.0
  0
SPLINE
  5
79
330
1F
100
AcDbEntity
  8
0
  6
Continuous
 62
     7
370
    25
100
AcDbSpline
210
0.0
220
0.0
230
1.0
 70
     8
 71
     3
 72
    31
 73
    27
 74
     0
 42
0.00000001
 43
0.00000001
 40
0.0
 40
0.0
 40
0.0
 40
0.0
 40
0.0685946222587426
 40
0.1332460424433012
 40
0.1943125864682558
 40
0.2512792231169659
 40
0.3045134392563464
 40
0.3542349066533247
 40
0.4004805887739888
 40
0.4434107549384915
 40
0.4840148686163446
 40
0.5232523007732027
 40
0.5610423727283598
 40
0.5979002393643997
 40
0.6335184888561951
 40
0.6683143511696508
 40
0.7024956712863816
 40
0.7366853535134577
 40
0.7702931693607887
 40
0.8034372550192483
 40
0.8359129516660275
 40
0.8684602457892889
 40
0.9008465382431833
 40
0.9334665246307087
 40
0.9662575752981226
 40
1.0
 40
1.0
 40
1.0
 40
1.0
 10
15.22966528873064
 20
11.27724016863736
 30
0.0
 10
15.22985272767776
 20
11.30929581877121
 30
0.0
 10
15.23021683053424
 20
11.37156438119834
 30
0.0
 10
15.23426735678695
 20
11.46229846237937
 30
0.0
 10
15.24099612382305
 20
11.54741862751947
 30
0.0
 10
15.2502174797375
 20
11.62692895097
 30
0.0
 10
15.26143918272241
 20
11.70084995926583
 30
0.0
 10
15.2764194607803
 20
11.76898410620086
 30
0.0
 10
15.29345534798885
 20
11.83164673855118
 30
0.0
 10
15.31319960273771
 20
11.88904219482319
 30
0.0
 10
15.33547833931962
 20
11.94194373940728
 30
0.0
 10
15.35972648830365
 20
11.991329568718
 30
0.0
 10
15.38690637083142
 20
12.03712495862645
 30
0.0
 10
15.41546460678976
 20
12.08006083886642
 30
0.0
 10
15.44655721914851
 20
12.11943437874775
 30
0.0
 10
15.4792993851298
 20
12.15580161447263
 30
0.0
 10
15.51496902871101
 20
12.18832204330909
 30
0.0
 10
15.55235360486726
 20
12.21794850181485
 30
0.0
 10
15.59179158451968
 20
12.24391962848453
 30
0.0
 10
15.63215882231579
 20
12.26679547912211
 30
0.0
 10
15.67373316851918
 20
12.28633826041216
 30
0.0
 10
15.71662813017515
 20
12.30170422376048
 30
0.0
 10
15.76045816325496
 20
12.31439613620197
 30
0.0
 10
15.80537648707856
 20
12.32307553485715
 30
0.0
 10
15.85145726647074
 20
12.32853662542252
 30
0.0
 10
15.88256094349826
 20
12.32905872127406
 30
0.0
 10
15.89833516052551
 20
12.32932350197069
 30
0.0
  0
SPLINE
  5
7A
330
1F
100
AcDbEntity
  8
0
  6
Continuous
 62
     7
370
    25
100
AcDbSpline
210
0.0
220
0.0
230
1.0
 70
     8
 71
     3
 72
    31
 73
    27
 74
     0
 42
0.00000001
 43
0.00000001
 40
0.0
 40
0.0
 40
0.0
 40
0.0
 40
0.0337881161627101
 40
0.0671939323738786
 40
0.0998624108568257
 40
0.1325666121262575
 40
0.1651511732547866
 40
0.1979131873557927
 40
0.2313190035669605
 40
0.2650832782673724
 40
0.2992553087581136
 40
0.3343985665049791
 40
0.3699428235093079
 40
0.4062835607000601
 40
0.4440638196985068
 40
0.4829977068727752
 40
0.5233544466133042
 40
0.5655365896041477
 40
0.6096129240658194
 40
0.656390811376416
 40
0.7058854949364566
 40
0.7583245002617313
 40
0.81383178294115
 40
0.8727945590393901
 40
0.9347222295400733
 40
1.0
 40
1.0
 40
1.0
 40
1.0
 10
15.89833516052551
 20
12.32932350197069
 30
0.0
 10
15.91424114823084
 20
12.32904475044174
 30
0.0
 10
15.94587315331409
 20
12.32849040135358
 30
0.0
 10
15.99263908202605
 20
12.32316243419095
 30
0.0
 10
16.03832461443439
 20
12.31432179242127
 30
0.0
 10
16.0827349794078
 20
12.30179552123118
 30
0.0
 10
16.12623497167511
 20
12.28625513456865
 30
0.0
 10
16.16848434747262
 20
12.26677678193485
 30
0.0
 10
16.20974553698236
 20
12.24410314345228
 30
0.0
 10
16.24936284413659
 20
12.21746092784851
 30
0.0
 10
16.28777119576292
 20
12.18775677002178
 30
0.0
 10
16.32402717460413
 20
12.15417810213416
 30
0.0
 10
16.35813408083124
 20
12.11706397683778
 30
0.0
 10
16.39051996962337
 20
12.07681148318829
 30
0.0
 10
16.4202660251658
 20
12.0326485775691
 30
0.0
 10
16.44859370072891
 20
11.98534337196102
 30
0.0
 10
16.47394914981557
 20
11.93406859207884
 30
0.0
 10
16.49836896420333
 20
11.87967975331253
 30
0.0
 10
16.51944724234005
 20
11.82067194828015
 30
0.0
 10
16.53845652535279
 20
11.75737779941267
 30
0.0
 10
16.55381593596705
 20
11.68904969263933
 30
0.0
 10
16.56660980587456
 20
11.61604612389927
 30
0.0
 10
16.57652117498634
 20
11.53809899061918
 30
0.0
 10
16.58373982760264
 20
11.45537538175531
 30
0.0
 10
16.58755301905483
 20
11.36782087281773
 30
0.0
 10
16.58827113403008
 20
11.3079592447165
 30
0.0
 10
16.588639647705
 20
11.27724016863736
 30
0.0
  0
SPLINE
  5
7B
330
1F
100
AcDbEntity
  8
0
  6
Continuous
 62
     7
370
    25
100
AcDbSpline
210
0.0
220
0.0
230
1.0
 70
     8
 71
     3
 72
    31
 73
    27
 74
     0
 42
0.00000001
 43
0.00000001
 40
0.0
 40
0.0
 40
0.0
 40
0.0
 40
0.0650632896172795
 40
0.1267731664665233
 40
0.1855157632260794
 40
0.2407646791677146
 40
0.2929797960235976
 40
0.3422503727797681
 40
0.3889192861856612
 40
0.4327756640583105
 40
0.4746284326311184
 40
0.514774690637954
 40
0.5536058934984432
 40
0.5914264064311733
 40
0.6280281199460684
 40
0.6638036341103208
 40
0.698984336131664
 40
0.7335914893067059
 40
0.7676284691511401
 40
0.8012083477865923
 40
0.8342638397266239
 40
0.8669806947287757
 40
0.8997197415181607
 40
0.9327019124985396
 40
0.9661758834327497
 40
1.0
 40
1.0
 40
1.0
 40
1.0
 10
16.588639647705
 20
11.27724016863736
 30
0.0
 10
16.5882673136799
 20
11.24665507838541
 30
0.0
 10
16.58754183601618
 20
11.18706127732323
 30
0.0
 10
16.58378257500607
 20
11.09990071999763
 30
0.0
 10
16.57637764290392
 20
11.01761612382702
 30
0.0
 10
16.56711479244177
 20
10.94001014527919
 30
0.0
 10
16.55428567074267
 20
10.86740579166035
 30
0.0
 10
16.53851129002766
 20
10.79955182110726
 30
0.0
 10
16.52099681984378
 20
10.73615520872702
 30
0.0
 10
16.49937693749533
 20
10.67773531637847
 30
0.0
 10
16.47571367443977
 20
10.62347718902717
 30
0.0
 10
16.44996784805383
 20
10.57281024712447
 30
0.0
 10
16.4223850902906
 20
10.52528665130754
 30
0.0
 10
16.39233437886029
 20
10.48128679591831
 30
0.0
 10
16.36030385703375
 20
10.44049899187667
 30
0.0
 10
16.32560797772349
 20
10.40364320750437
 30
0.0
 10
16.28922478623663
 20
10.369831394954
 30
0.0
 10
16.2507034057601
 20
10.33974475068991
 30
0.0
 10
16.21046823362743
 20
10.31341057661199
 30
0.0
 10
16.16934876109892
 20
10.2898598049618
 30
0.0
 10
16.12661539918619
 20
10.27086969350475
 30
0.0
 10
16.08323656905504
 20
10.25456395580317
 30
0.0
 10
16.03859178841792
 20
10.24210655472538
 30
0.0
 10
15.99273670802395
 20
10.23349292299932
 30
0.0
 10
15.94590457320757
 20
10.22745186673945
 30
0.0
 10
15.91424653601828
 20
10.22699102109642
 30
0.0
 10
15.89833516052551
 20
10.22675939940659
 30
0.0
  0
LINE
  5
7C
330
1F
100
AcDbEntity
  8
0
  6
Continuous
 62
     7
370
    25
100
AcDbLine
 10
14.1271011862
 20
12.2780414507
 30
0.0
 11
14.9476140067
 21
12.2780414507
 31
0.0
  0
LINE
  5
7D
330
1F
100
AcDbEntity
  8
0
  6
Continuous
 62
     7
370
    25
100
AcDbLine
 10
14.9476140067
 20
12.2780414507
 30
0.0
 11
14.9476140067
 21
12.0729132456
 31
0.0
  0
LINE
  5
7E
330
1F
100
AcDbEntity
  8
0
  6
Continuous
 62
     7
370
    25
100
AcDbLine
 10
14.9476140067
 20
12.0729132456
 30
0.0
 11
14.2673255451
 21
12.0729132456
 31
0.0
  0
LINE
  5
7F
330
1F
100
AcDbEntity
  8
0
  6
Continuous
 62
     7
370
    25
100
AcDbLine
 10
14.2673255451
 20
12.0729132456
 30
0.0
 11
14.1595531092
 21
11.5468715789
 31
0.0
  0
SPLINE
  5
80
330
1F
100
AcDbEntity
  8
0
  6
Continuous
 62
     7
370
    25
100
AcDbSpline
210
0.0
220
0.0
230
1.0
 70
     8
 71
     3
 72
    11
 73
     7
 74
     0
 42
0.00000001
 43
0.00000001
 40
0.0
 40
0.0
 40
0.0
 40
0.0
 40
0.2750683690187453
 40
0.5329014600899381
 40
0.773973459592442
 40
1.0
 40
1.0
 40
1.0
 40
1.0
 10
14.15955310924346
 20
11.54687157889377
 30
0.0
 10
14.18072789459984
 20
11.55271744849963
 30
0.0
 10
14.22175069221834
 20
11.56404289627675
 30
0.0
 10
14.28229918419761
 20
11.57661762223646
 30
0.0
 10
14.33978044332389
 20
11.58419787598359
 30
0.0
 10
14.37708065498704
 20
11.58523291056198
 30
0.0
 10
14.39513003232038
 20
11.58573375838095
 30
0.0
  0
SPLINE
  5
81
330
1F
100
AcDbEntity
  8
0
  6
Continuous
 62
     7
370
    25
100
AcDbSpline
210
0.0
220
0.0
230
1.0
 70
     8
 71
     3
 72
    23
 73
    19
 74
     0
 42
0.00000001
 43
0.00000001
 40
0.0
 40
0.0
 40
0.0
 40
0.0
 40
0.0658076458106949
 40
0.1293942736680547
 40
0.1908940606321903
 40
0.2512810689298358
 40
0.3108149644652721
 40
0.3703709874482449
 40
0.4307682625897257
 40
0.4928812506175028
 40
0.5551039481552504
 40
0.6160670509938414
 40
0.6772560331746539
 40
0.738259805199116
 40
0.8007621343762961
 40
0.864777581574485
 40
0.9310452949994039
 40
1.0
 40
1.0
 40
1.0
 40
1.0
 10
14.39513003232038
 20
11.58573375838095
 30
0.0
 10
14.41746359787021
 20
11.58525036655544
 30
0.0
 10
14.46137696777028
 20
11.58429989745131
 30
0.0
 10
14.52562779462379
 20
11.57517312634028
 30
0.0
 10
14.58696087646271
 20
11.56080746083727
 30
0.0
 10
14.64524794513492
 20
11.54073859127346
 30
0.0
 10
14.70059683121335
 20
11.51507588659097
 30
0.0
 10
14.75249829491652
 20
11.48301877781508
 30
0.0
 10
14.80173138805183
 20
11.44557116001527
 30
0.0
 10
14.84741287031137
 20
11.40251686746693
 30
0.0
 10
14.88885533212018
 20
11.35513308646568
 30
0.0
 10
14.92529304050131
 20
11.30418573158369
 30
0.0
 10
14.95624309210376
 20
11.25016992464966
 30
0.0
 10
14.98113495203313
 20
11.19256957679924
 30
0.0
 10
15.00101171447654
 20
11.13202148913617
 30
0.0
 10
15.01424142581585
 20
11.0678885848206
 30
0.0
 10
15.02305097379374
 20
11.00077537338439
 30
0.0
 10
15.02403519454778
 20
10.954887047626
 30
0.0
 10
15.02453708360243
 20
10.93148696350915
 30
0.0
  0
SPLINE
  5
82
330
1F
100
AcDbEntity
  8
0
  6
Continuous
 62
     7
370
    25
100
AcDbSpline
210
0.0
220
0.0
230
1.0
 70
     8
 71
     3
 72
    31
 73
    27
 74
     0
 42
0.00000001
 43
0.00000001
 40
0.0
 40
0.0
 40
0.0
 40
0.0
 40
0.0440144705761397
 40
0.0874341236677055
 40
0.1301183986578982
 40
0.172553694558183
 40
0.2145547559681384
 40
0.2562980920971303
 40
0.2984382251332506
 40
0.3408490025880959
 40
0.3827151889670265
 40
0.4239240454075313
 40
0.4642462432504175
 40
0.5040736714617959
 40
0.5438619058684914
 40
0.5835667249796535
 40
0.6230943188523332
 40
0.6632290607685843
 40
0.7035512586114705
 40
0.7439378946861852
 40
0.784541254800093
 40
0.8257501112405972
 40
0.8677573633885062
 40
0.91074516403231
 40
0.954914446891478
 40
0.9999999999999999
 40
0.9999999999999999
 40
0.9999999999999999
 40
0.9999999999999999
 10
15.02453708360243
 20
10.93148696350915
 30
0.0
 10
15.02415704058908
 20
10.91518855187946
 30
0.0
 10
15.02340209051484
 20
10.88281198755041
 30
0.0
 10
15.01956289757325
 20
10.83472958715881
 30
0.0
 10
15.0121710598223
 20
10.78766511111176
 30
0.0
 10
15.00224664604855
 20
10.74161231577535
 30
0.0
 10
14.98936526435398
 20
10.69665838881585
 30
0.0
 10
14.97377151926694
 20
10.65267465857199
 30
0.0
 10
14.95468807497558
 20
10.60993488329017
 30
0.0
 10
14.93375586054191
 20
10.56803465756231
 30
0.0
 10
14.91018644452173
 20
10.52792122487961
 30
0.0
 10
14.8840272974709
 20
10.49040751828379
 30
0.0
 10
14.85638987391528
 20
10.45493078600953
 30
0.0
 10
14.8266519393677
 20
10.42187151000429
 30
0.0
 10
14.79453708501764
 20
10.39144692835114
 30
0.0
 10
14.76043424681095
 20
10.36347648177633
 30
0.0
 10
14.72461555022288
 20
10.33748715017456
 30
0.0
 10
14.68652684032519
 20
10.31453389578856
 30
0.0
 10
14.6470168500603
 20
10.29341220655839
 30
0.0
 10
14.6055150116943
 20
10.27608447093819
 30
0.0
 10
14.5629660400043
 20
10.26059274060394
 30
0.0
 10
14.5187575396644
 20
10.24824443911159
 30
0.0
 10
14.4729896467411
 20
10.23856869367198
 30
0.0
 10
14.4255869178942
 20
10.23199692189914
 30
0.0
 10
14.37679796359491
 20
10.22721038620186
 30
0.0
 10
14.34372652783498
 20
10.22691075365864
 30
0.0
 10
14.3270210579614
 20
10.22675939940659
 30
0.0
  0
SPLINE
  5
83
330
1F
100
AcDbEntity
  8
0
  6
Continuous
 62
     7
370
    25
100
AcDbSpline
210
0.0
220
0.0
230
1.0
 70
     8
 71
     3
 72
    23
 73
    19
 74
     0
 42
0.00000001
 43
0.00000001
 40
0.0
 40
0.0
 40
0.0
 40
0.0
 40
0.0654211437588935
 40
0.1287083718818825
 40
0.1902361418635385
 40
0.2507244020335391
 40
0.3106371794134439
 40
0.3707664082897268
 40
0.431614744412352
 40
0.4935229735663541
 40
0.5558834553775337
 40
0.6173423673185097
 40
0.6786680390972761
 40
0.7407113595451474
 40
0.8029853625127442
 40
0.866802580265518
 40
0.9323471713458881
 40
1.0
 40
1.0
 40
1.0
 40
1.0
 10
14.3270210579614
 20
10.22675939940659
 30
0.0
 10
14.307092954703
 20
10.22715416396896
 30
0.0
 10
14.26788676572935
 20
10.22793081661031
 30
0.0
 10
14.21044644168846
 20
10.23605566532693
 30
0.0
 10
14.15518095272076
 20
10.24769218897981
 30
0.0
 10
14.10253518063081
 20
10.26519862889315
 30
0.0
 10
14.05203731565639
 20
10.28713422585899
 30
0.0
 10
14.00436719120562
 20
10.31485775242781
 30
0.0
 10
13.9583067477497
 20
10.34627438314041
 30
0.0
 10
13.91572844103569
 20
10.38334887054885
 30
0.0
 10
13.87621066191018
 20
10.42387211742458
 30
0.0
 10
13.84083551398427
 20
10.46784791237643
 30
0.0
 10
13.80933061299189
 20
10.51455045071134
 30
0.0
 10
13.78220047185542
 20
10.56420653875461
 30
0.0
 10
13.7590587453889
 20
10.6166856992904
 30
0.0
 10
13.74087875208793
 20
10.67218455694294
 30
0.0
 10
13.72620540640614
 20
10.7304131306226
 30
0.0
 10
13.71999773756251
 20
10.77050085085719
 30
0.0
 10
13.71684477591012
 20
10.79086196350915
 30
0.0
  0
LINE
  5
84
330
1F
100
AcDbEntity
  8
0
  6
Continuous
 62
     7
370
    25
100
AcDbLine
 10
13.7168447759
 20
10.7908619635
 30
0.0
 11
13.8963319554
 21
10.7908619635
 31
0.0
  0
SPLINE
  5
85
330
1F
100
AcDbEntity
  8
0
  6
Continuous
 62
     7
370
    25
100
AcDbSpline
210
0.0
220
0.0
230
1.0
 70
     8
 71
     3
 72
    19
 73
    15
 74
     0
 42
0.00000001
 43
0.00000001
 40
0.0
 40
0.0
 40
0.0
 40
0.0
 40
0.0946872518675539
 40
0.1819941557072741
 40
0.2643769486105109
 40
0.3421798619477707
 40
0.4186176108621471
 40
0.4965090753719078
 40
0.5773690916117316
 40
0.6615105924541981
 40
0.7467325508291965
 40
0.8312579843277426
 40
0.9152056162136545
 40
1.0
 40
1.0
 40
1.0
 40
1.0
 10
13.8963319553973
 20
10.79086196350915
 30
0.0
 10
13.90074827390597
 20
10.77178970496707
 30
0.0
 10
13.90923668330075
 20
10.73513176504023
 30
0.0
 10
13.92786853973046
 20
10.68362814142133
 30
0.0
 10
13.95064904000058
 20
10.6377314421779
 30
0.0
 10
13.97773723909616
 20
10.59683453745016
 30
0.0
 10
14.01005154223114
 20
10.56117225329455
 30
0.0
 10
14.04692550162581
 20
10.5293910750444
 30
0.0
 10
14.08826705773965
 20
10.50071957257152
 30
0.0
 10
14.13420604603674
 20
10.47682084845877
 30
0.0
 10
14.18267066279123
 20
10.45643870365876
 30
0.0
 10
14.23339478279671
 20
10.44286630654352
 30
0.0
 10
14.28499726649448
 20
10.43332293920477
 30
0.0
 10
14.31989919232105
 20
10.43236764731811
 30
0.0
 10
14.33743772462807
 20
10.43188760453479
 30
0.0
  0
SPLINE
  5
86
330
1F
100
AcDbEntity
  8
0
  6
Continuous
 62
     7
370
    25
100
AcDbSpline
210
0.0
220
0.0
230
1.0
 70
     8
 71
     3
 72
    23
 73
    19
 74
     0
 42
0.00000001
 43
0.00000001
 40
0.0
 40
0.0
 40
0.0
 40
0.0
 40
0.0642072952829858
 40
0.126424689779741
 40
0.1876802842649223
 40
0.2482164244552127
 40
0.3083050600086131
 40
0.3696609913251436
 40
0.4316985517867811
 40
0.4959468922087633
 40
0.5597580239721199
 40
0.6222954078261587
 40
0.6839106352841733
 40
0.7450924080566251
 40
0.8067402253892927
 40
0.8690866181212034
 40
0.9332900029747999
 40
1.0
 40
1.0
 40
1.0
 40
1.0
 10
14.33743772462807
 20
10.43188760453479
 30
0.0
 10
14.35455683572366
 20
10.43235662048057
 30
0.0
 10
14.38826450554572
 20
10.43328011671546
 30
0.0
 10
14.43787101222742
 20
10.44038812362394
 30
0.0
 10
14.48576408320008
 20
10.4513353072283
 30
0.0
 10
14.53147114420519
 20
10.46771808150473
 30
0.0
 10
14.57579202397037
 20
10.48762934917663
 30
0.0
 10
14.61760560706928
 20
10.51318082107142
 30
0.0
 10
14.65812153686394
 20
10.54258654589713
 30
0.0
 10
14.69608047030455
 20
10.57627604877907
 30
0.0
 10
14.73084586988143
 20
10.6134015885615
 30
0.0
 10
14.76156365338653
 20
10.65310295623288
 30
0.0
 10
14.78715046105861
 20
10.69545543997166
 30
0.0
 10
14.80871280898416
 20
10.73972581302934
 30
0.0
 10
14.82508612259708
 20
10.78639927427415
 30
0.0
 10
14.83676668329583
 20
10.8352570886584
 30
0.0
 10
14.84362557404926
 20
10.88641993449064
 30
0.0
 10
14.84456910546181
 20
10.9213166829342
 30
0.0
 10
14.84504990411525
 20
10.93909914299633
 30
0.0
  0
SPLINE
  5
87
330
1F
100
AcDbEntity
  8
0
  6
Continuous
 62
     7
370
    25
100
AcDbSpline
210
0.0
220
0.0
230
1.0
 70
     8
 71
     3
 72
    23
 73
    19
 74
     0
 42
0.00000001
 43
0.00000001
 40
0.0
 40
0.0
 40
0.0
 40
0.0
 40
0.0653513820265938
 40
0.1279160318306124
 40
0.1883602055717016
 40
0.2472160772654531
 40
0.3056301291974123
 40
0.3637698398318186
 40
0.4226609139127803
 40
0.4826872940903925
 40
0.5433002212395598
 40
0.6041179553231038
 40
0.6649648912652848
 40
0.7274134941125656
 40
0.7914676251494251
 40
0.8580554427290992
 40
0.9270368146149471
 40
0.9999999999999999
 40
0.9999999999999999
 40
0.9999999999999999
 40
0.9999999999999999
 10
14.84504990411525
 20
10.93909914299633
 30
0.0
 10
14.84467363013728
 20
10.95514242963702
 30
0.0
 10
14.84393712736334
 20
10.9865448805257
 30
0.0
 10
14.83791965861879
 20
11.0324872842064
 30
0.0
 10
14.82745281727383
 20
11.07595759409304
 30
0.0
 10
14.81292488587555
 20
11.1171657277913
 30
0.0
 10
14.79447945288493
 20
11.15615055199017
 30
0.0
 10
14.77193870298846
 20
11.192952300676
 30
0.0
 10
14.74487961844932
 20
11.22708591966085
 30
0.0
 10
14.71396996782721
 20
11.25856737886627
 30
0.0
 10
14.68010823014546
 20
11.28762159307949
 30
0.0
 10
14.64271180580424
 20
11.31238964248059
 30
0.0
 10
14.60256327620702
 20
11.33322616685307
 30
0.0
 10
14.56014636222481
 20
11.35120788019179
 30
0.0
 10
14.51445213446058
 20
11.36412259184856
 30
0.0
 10
14.46638548738664
 20
11.3738185263869
 30
0.0
 10
14.41542736855981
 20
11.37942730506019
 30
0.0
 10
14.38058697534041
 20
11.38020552698919
 30
0.0
 10
14.36267810924346
 20
11.38060555325274
 30
0.0
  0
SPLINE
  5
88
330
1F
100
AcDbEntity
  8
0
  6
Continuous
 62
     7
370
    25
100
AcDbSpline
210
0.0
220
0.0
230
1.0
 70
     8
 71
     3
 72
    15
 73
    11
 74
     0
 42
0.00000001
 43
0.00000001
 40
0.0
 40
0.0
 40
0.0
 40
0.0
 40
0.1022030370352184
 40
0.2110233423738751
 40
0.3250996615652069
 40
0.44650209713489
 40
0.5737877176488579
 40
0.7089007097660672
 40
0.8503578712933998
 40
1.0
 40
1.0
 40
1.0
 40
1.0
 10
14.36267810924346
 20
11.38060555325274
 30
0.0
 10
14.34717586421122
 20
11.38027378687699
 30
0.0
 10
14.31516766116853
 20
11.37958877348079
 30
0.0
 10
14.26606890303752
 20
11.3745450610086
 30
0.0
 10
14.2144736327651
 20
11.36640832133538
 30
0.0
 10
14.16057963530442
 20
11.35521617992442
 30
0.0
 10
14.10422505924556
 20
11.34056985034806
 30
0.0
 10
14.04552883025854
 20
11.32301870713345
 30
0.0
 10
13.98436753505895
 20
11.30203470786854
 30
0.0
 10
13.94315740683109
 20
11.28618772858472
 30
0.0
 10
13.92197298103833
 20
11.27804145068864
 30
0.0
  0
LINE
  5
89
330
1F
100
AcDbEntity
  8
0
  6
Continuous
 62
     7
370
    25
100
AcDbLine
 10
13.921972981
 20
11.2780414507
 30
0.0
 11
14.1271011862
 21
12.2780414507
 31
0.0
  0
SPLINE
  5
8A
330
1F
100
AcDbEntity
  8
0
  6
Continuous
 62
     7
370
    25
100
AcDbSpline
210
0.0
220
0.0
230
1.0
 70
     8
 71
     3
 72
    31
 73
    27
 74
     0
 42
0.00000001
 43
0.00000001
 40
0.0
 40
0.0
 40
0.0
 40
0.0
 40
0.0337871463469916
 40
0.0666216577242943
 40
0.0992848780959729
 40
0.1313611650426509
 40
0.1635851875953438
 40
0.1961039269870682
 40
0.2289022543238171
 40
0.2621580559050075
 40
0.2959912222583169
 40
0.3302178457248001
 40
0.3650598258919548
 40
0.4009507373401078
 40
0.4376203820767378
 40
0.4757075294370925
 40
0.5153806916250485
 40
0.5564135414931649
 40
0.5997648298727309
 40
0.6464241555840875
 40
0.6964314445175663
 40
0.7497815178015573
 40
0.8065733069755329
 40
0.8674355315654003
 40
0.9318867532508747
 40
0.9999999999999999
 40
0.9999999999999999
 40
0.9999999999999999
 40
0.9999999999999999
 10
12.82141208360243
 20
10.22675939940659
 30
0.0
 10
12.80563830418229
 20
10.22702588824019
 30
0.0
 10
12.77453549003057
 20
10.22755135220443
 30
0.0
 10
12.72844838977945
 20
10.23298777019768
 30
0.0
 10
12.68371556495662
 20
10.2417280577476
 30
0.0
 10
12.64011627693514
 20
10.25396611722822
 30
0.0
 10
12.59742683974446
 20
10.26894602369418
 30
0.0
 10
12.55622896165543
 20
10.28846241432446
 30
0.0
 10
12.51606457097505
 20
10.31093902515644
 30
0.0
 10
12.477040824679
 20
10.33653640883546
 30
0.0
 10
12.43989101837053
 20
10.36586308490883
 30
0.0
 10
12.40440610104833
 20
10.39829982130111
 30
0.0
 10
12.3714775187072
 20
10.4346560563282
 30
0.0
 10
12.34082946406873
 20
10.47435772667547
 30
0.0
 10
12.31170141367116
 20
10.51703957943704
 30
0.0
 10
12.28490748606017
 20
10.56328436403442
 30
0.0
 10
12.26012414087842
 20
10.61290871288563
 30
0.0
 10
12.23747071763926
 20
10.6662332332714
 30
0.0
 10
12.21738576705931
 20
10.72403604919127
 30
0.0
 10
12.19964421956593
 20
10.78697843690698
 30
0.0
 10
12.18563612958303
 20
10.85561594325786
 30
0.0
 10
12.17364586939281
 20
10.92939729588952
 30
0.0
 10
12.16397479336796
 20
11.00863954182428
 30
0.0
 10
12.15737232175746
 20
11.09338570078822
 30
0.0
 10
12.15329157030846
 20
11.18358296303174
 30
0.0
 10
12.15292867292553
 20
11.24545140549837
 30
0.0
 10
12.15274221180756
 20
11.27724016863736
 30
0.0
  0
SPLINE
  5
8B
330
1F
100
AcDbEntity
  8
0
  6
Continuous
 62
     7
370
    25
100
AcDbSpline
210
0.0
220
0.0
230
1.0
 70
     8
 71
     3
 72
    31
 73
    27
 74
     0
 42
0.00000001
 43
0.00000001
 40
0.0
 40
0.0
 40
0.0
 40
0.0
 40
0.0685946222587427
 40
0.1332460424433013
 40
0.1943125864682559
 40
0.251279223116966
 40
0.3045134392563464
 40
0.3542349066533246
 40
0.4004805887739888
 40
0.4434107549384919
 40
0.4840148686163445
 40
0.5232523007732032
 40
0.5610423727283597
 40
0.5979002393643996
 40
0.633518488856195
 40
0.6683143511696515
 40
0.7024956712863816
 40
0.7366853535134577
 40
0.7702931693607886
 40
0.8034372550192493
 40
0.8359129516660285
 40
0.86846024578929
 40
0.900846538243182
 40
0.9334665246307073
 40
0.9662575752981226
 40
1.0
 40
1.0
 40
1.0
 40
1.0
 10
12.15274221180756
 20
11.27724016863736
 30
0.0
 10
12.15292965075468
 20
11.30929581877121
 30
0.0
 10
12.15329375361117
 20
11.37156438119834
 30
0.0
 10
12.15734427986387
 20
11.46229846237937
 30
0.0
 10
12.16407304689998
 20
11.54741862751946
 30
0.0
 10
12.17329440281441
 20
11.62692895097
 30
0.0
 10
12.18451610579933
 20
11.70084995926583
 30
0.0
 10
12.19949638385722
 20
11.76898410620086
 30
0.0
 10
12.21653227106577
 20
11.83164673855118
 30
0.0
 10
12.23627652581463
 20
11.88904219482319
 30
0.0
 10
12.25855526239654
 20
11.94194373940728
 30
0.0
 10
12.28280341138058
 20
11.99132956871801
 30
0.0
 10
12.30998329390833
 20
12.03712495862645
 30
0.0
 10
12.33854152986668
 20
12.08006083886642
 30
0.0
 10
12.36963414222543
 20
12.11943437874775
 30
0.0
 10
12.40237630820672
 20
12.15580161447263
 30
0.0
 10
12.43804595178793
 20
12.18832204330909
 30
0.0
 10
12.47543052794419
 20
12.21794850181485
 30
0.0
 10
12.5148685075966
 20
12.24391962848453
 30
0.0
 10
12.55523574539272
 20
12.26679547912211
 30
0.0
 10
12.59681009159611
 20
12.28633826041217
 30
0.0
 10
12.63970505325207
 20
12.30170422376047
 30
0.0
 10
12.68353508633189
 20
12.31439613620197
 30
0.0
 10
12.72845341015548
 20
12.32307553485715
 30
0.0
 10
12.77453418954767
 20
12.32853662542252
 30
0.0
 10
12.80563786657518
 20
12.32905872127406
 30
0.0
 10
12.82141208360243
 20
12.32932350197069
 30
0.0
  0
SPLINE
  5
8C
330
1F
100
AcDbEntity
  8
0
  6
Continuous
 62
     7
370
    25
100
AcDbSpline
210
0.0
220
0.0
230
1.0
 70
     8
 71
     3
 72
    31
 73
    27
 74
     0
 42
0.00000001
 43
0.00000001
 40
0.0
 40
0.0
 40
0.0
 40
0.0
 40
0.0337881161627101
 40
0.0671939323738798
 40
0.0998624108568245
 40
0.1325666121262575
 40
0.1651511732547865
 40
0.1979131873557915
 40
0.2313190035669614
 40
0.2650832782673724
 40
0.2992553087581145
 40
0.334398566504979
 40
0.3699428235093079
 40
0.4062835607000608
 40
0.4440638196985076
 40
0.4829977068727753
 40
0.5233544466133038
 40
0.5655365896041485
 40
0.6096129240658195
 40
0.6563908113764167
 40
0.705885494936457
 40
0.7583245002617313
 40
0.8138317829411499
 40
0.8727945590393901
 40
0.9347222295400733
 40
1.0
 40
1.0
 40
1.0
 40
1.0
 10
12.82141208360243
 20
12.32932350197069
 30
0.0
 10
12.83731807130777
 20
12.32904475044174
 30
0.0
 10
12.86895007639102
 20
12.32849040135358
 30
0.0
 10
12.91571600510297
 20
12.32316243419095
 30
0.0
 10
12.96140153751132
 20
12.31432179242127
 30
0.0
 10
13.00581190248473
 20
12.30179552123118
 30
0.0
 10
13.04931189475203
 20
12.28625513456865
 30
0.0
 10
13.09156127054955
 20
12.26677678193485
 30
0.0
 10
13.13282246005928
 20
12.24410314345228
 30
0.0
 10
13.17243976721352
 20
12.2174609278485
 30
0.0
 10
13.21084811883985
 20
12.18775677002178
 30
0.0
 10
13.24710409768104
 20
12.15417810213416
 30
0.0
 10
13.28121100390816
 20
12.11706397683778
 30
0.0
 10
13.3135968927003
 20
12.07681148318829
 30
0.0
 10
13.34334294824272
 20
12.0326485775691
 30
0.0
 10
13.37167062380583
 20
11.98534337196102
 30
0.0
 10
13.39702607289249
 20
11.93406859207885
 30
0.0
 10
13.42144588728026
 20
11.87967975331253
 30
0.0
 10
13.44252416541697
 20
11.82067194828016
 30
0.0
 10
13.46153344842972
 20
11.75737779941267
 30
0.0
 10
13.47689285904397
 20
11.68904969263933
 30
0.0
 10
13.48968672895147
 20
11.61604612389927
 30
0.0
 10
13.49959809806326
 20
11.53809899061918
 30
0.0
 10
13.50681675067957
 20
11.45537538175532
 30
0.0
 10
13.51062994213176
 20
11.36782087281773
 30
0.0
 10
13.511348057107
 20
11.3079592447165
 30
0.0
 10
13.51171657078192
 20
11.27724016863736
 30
0.0
  0
SPLINE
  5
8D
330
1F
100
AcDbEntity
  8
0
  6
Continuous
 62
     7
370
    25
100
AcDbSpline
210
0.0
220
0.0
230
1.0
 70
     8
 71
     3
 72
    31
 73
    27
 74
     0
 42
0.00000001
 43
0.00000001
 40
0.0
 40
0.0
 40
0.0
 40
0.0
 40
0.0650632896172795
 40
0.1267731664665233
 40
0.1855157632260795
 40
0.2407646791677145
 40
0.2929797960235978
 40
0.342250372779768
 40
0.3889192861856604
 40
0.4327756640583105
 40
0.4746284326311174
 40
0.5147746906379534
 40
0.5536058934984427
 40
0.5914264064311735
 40
0.6280281199460679
 40
0.6638036341103211
 40
0.6989843361316642
 40
0.7335914893067061
 40
0.7676284691511404
 40
0.8012083477865926
 40
0.834263839726624
 40
0.866980694728777
 40
0.8997197415181609
 40
0.9327019124985385
 40
0.9661758834327498
 40
1.0
 40
1.0
 40
1.0
 40
1.0
 10
13.51171657078192
 20
11.27724016863736
 30
0.0
 10
13.51134423675682
 20
11.24665507838541
 30
0.0
 10
13.51061875909311
 20
11.18706127732323
 30
0.0
 10
13.50685949808298
 20
11.09990071999763
 30
0.0
 10
13.49945456598085
 20
11.01761612382703
 30
0.0
 10
13.4901917155187
 20
10.94001014527919
 30
0.0
 10
13.47736259381959
 20
10.86740579166035
 30
0.0
 10
13.46158821310458
 20
10.79955182110726
 30
0.0
 10
13.44407374292071
 20
10.73615520872702
 30
0.0
 10
13.42245386057225
 20
10.67773531637847
 30
0.0
 10
13.39879059751669
 20
10.62347718902716
 30
0.0
 10
13.37304477113076
 20
10.57281024712448
 30
0.0
 10
13.34546201336752
 20
10.52528665130754
 30
0.0
 10
13.31541130193721
 20
10.48128679591831
 30
0.0
 10
13.28338078011069
 20
10.44049899187667
 30
0.0
 10
13.2486849008004
 20
10.40364320750436
 30
0.0
 10
13.21230170931355
 20
10.36983139495399
 30
0.0
 10
13.17378032883702
 20
10.33974475068991
 30
0.0
 10
13.13354515670436
 20
10.31341057661199
 30
0.0
 10
13.09242568417585
 20
10.2898598049618
 30
0.0
 10
13.04969232226311
 20
10.27086969350475
 30
0.0
 10
13.00631349213197
 20
10.25456395580317
 30
0.0
 10
12.96166871149484
 20
10.24210655472538
 30
0.0
 10
12.91581363110088
 20
10.23349292299932
 30
0.0
 10
12.86898149628449
 20
10.22745186673945
 30
0.0
 10
12.8373234590952
 20
10.22699102109642
 30
0.0
 10
12.82141208360243
 20
10.22675939940659
 30
0.0
  0
LINE
  5
8E
330
1F
100
AcDbEntity
  8
0
  6
Continuous
 62
     7
370
    25
100
AcDbLine
 10
10.9404024682
 20
11.4166632456
 30
0.0
 11
11.5373575964
 21
12.329323502
 31
0.0
  0
LINE
  5
8F
330
1F
100
AcDbEntity
  8
0
  6
Continuous
 62
     7
370
    25
100
AcDbLine
 10
11.5373575964
 20
12.329323502
 30
0.0
 11
11.6755787503
 21
12.220749784
 31
0.0
  0
LINE
  5
90
330
1F
100
AcDbEntity
  8
0
  6
Continuous
 62
     7
370
    25
100
AcDbLine
 10
11.6755787503
 20
12.220749784
 30
0.0
 11
11.1471332374
 21
11.4126568353
 31
0.0
  0
SPLINE
  5
91
330
1F
100
AcDbEntity
  8
0
  6
Continuous
 62
     7
370
    25
100
AcDbSpline
210
0.0
220
0.0
230
1.0
 70
     8
 71
     3
 72
     9
 73
     5
 74
     0
 42
0.00000001
 43
0.00000001
 40
0.0
 40
0.0
 40
0.0
 40
0.0
 40
0.5126593363417727
 40
1.0
 40
1.0
 40
1.0
 40
1.0
 10
11.14713323744859
 20
11.41265683530402
 30
0.0
 10
11.18231625286763
 20
11.41826475567751
 30
0.0
 10
11.25094470245387
 20
11.42920363843247
 30
0.0
 10
11.32041093018209
 20
11.43100817868872
 30
0.0
 10
11.354264647705
 20
11.4318876045348
 30
0.0
  0
SPLINE
  5
92
330
1F
100
AcDbEntity
  8
0
  6
Continuous
 62
     7
370
    25
100
AcDbSpline
210
0.0
220
0.0
230
1.0
 70
     8
 71
     3
 72
    23
 73
    19
 74
     0
 42
0.00000001
 43
0.00000001
 40
0.0
 40
0.0
 40
0.0
 40
0.0
 40
0.0652308037420289
 40
0.1284048960032231
 40
0.190067071596479
 40
0.2509433657682811
 40
0.3115458328521439
 40
0.3728628021568287
 40
0.4350236738562378
 40
0.4990717247070436
 40
0.5630910750496627
 40
0.6255101063303756
 40
0.6866800359296493
 40
0.7472825030135121
 40
0.8085634952159599
 40
0.8707421035159858
 40
0.9343409515059123
 40
0.9999999999999999
 40
0.9999999999999999
 40
0.9999999999999999
 40
0.9999999999999999
 10
11.35426464770499
 20
11.43188760453479
 30
0.0
 10
11.37459178846795
 20
11.43134125499435
 30
0.0
 10
11.41460516015706
 20
11.43026578218247
 30
0.0
 10
11.47335190425648
 20
11.42198929607284
 30
0.0
 10
11.52980272481258
 20
11.40894637497363
 30
0.0
 10
11.58372364610139
 20
11.38993365728895
 30
0.0
 10
11.635308207164
 20
11.36564659765335
 30
0.0
 10
11.68485243351174
 20
11.33653867177879
 30
0.0
 10
11.73142501071529
 20
11.30110685443207
 30
0.0
 10
11.77562568455066
 20
11.26152687969843
 30
0.0
 10
11.81575545448949
 20
11.21768860284406
 30
0.0
 10
11.85128462909379
 20
11.17117355329774
 30
0.0
 10
11.88112851008471
 20
11.12203019272735
 30
0.0
 10
11.90534217957876
 20
11.07028341219402
 30
0.0
 10
11.92414496734898
 20
11.01601297815943
 30
0.0
 10
11.93785219308817
 20
10.95928832702319
 30
0.0
 10
11.94595481755666
 20
10.9000703433317
 30
0.0
 10
11.94705509796529
 20
10.85979710032245
 30
0.0
 10
11.94761400667935
 20
10.83933952761172
 30
0.0
  0
SPLINE
  5
93
330
1F
100
AcDbEntity
  8
0
  6
Continuous
 62
     7
370
    25
100
AcDbSpline
210
0.0
220
0.0
230
1.0
 70
     8
 71
     3
 72
    19
 73
    15
 74
     0
 42
0.00000001
 43
0.00000001
 40
0.0
 40
0.0
 40
0.0
 40
0.0
 40
0.0859479431441281
 40
0.1691252118806913
 40
0.2503991071860497
 40
0.3322897361388361
 40
0.4133642879158803
 40
0.4941722833711892
 40
0.5760217353866361
 40
0.6607569692540061
 40
0.7457831259137431
 40
0.8300435929752232
 40
0.9140275458206827
 40
1.0
 40
1.0
 40
1.0
 40
1.0
 10
11.94761400667935
 20
10.83933952761172
 30
0.0
 10
11.94680080388838
 20
10.81135112535639
 30
0.0
 10
11.94520061324629
 20
10.75627657338373
 30
0.0
 10
11.92925558694876
 20
10.67606131258116
 30
0.0
 10
11.90447864708858
 20
10.59964273227656
 30
0.0
 10
11.86906291657249
 20
10.52824092006604
 30
0.0
 10
11.82507298343893
 20
10.46195373744999
 30
0.0
 10
11.77142864477162
 20
10.40321918578045
 30
0.0
 10
11.71003236572358
 20
10.35083630731332
 30
0.0
 10
11.64061133819217
 20
10.3070325249088
 30
0.0
 10
11.56590107298281
 20
10.27125935290169
 30
0.0
 10
11.48741421731748
 20
10.24556492885433
 30
0.0
 10
11.40591299083794
 20
10.22974580348808
 30
0.0
 10
11.35059607194962
 20
10.22776260196393
 30
0.0
 10
11.32261400667935
 20
10.22675939940659
 30
0.0
  0
SPLINE
  5
94
330
1F
100
AcDbEntity
  8
0
  6
Continuous
 62
     7
370
    25
100
AcDbSpline
210
0.0
220
0.0
230
1.0
 70
     8
 71
     3
 72
    19
 73
    15
 74
     0
 42
0.00000001
 43
0.00000001
 40
0.0
 40
0.0
 40
0.0
 40
0.0
 40
0.0843347219926255
 40
0.1670523184160736
 40
0.2495660772409639
 40
0.3327404818018468
 40
0.4159148863627273
 40
0.4978280095399962
 40
0.5803725886080502
 40
0.6646001210565035
 40
0.7494666931126174
 40
0.8325102339401399
 40
0.9156392816681738
 40
1.0
 40
1.0
 40
1.0
 40
1.0
 10
11.32261400667935
 20
10.22675939940659
 30
0.0
 10
11.29570160630644
 20
10.22763265983157
 30
0.0
 10
11.24239285315931
 20
10.22936243583757
 30
0.0
 10
11.16397411359501
 20
10.24477154319435
 30
0.0
 10
11.08862381797137
 20
10.26974703049077
 30
0.0
 10
11.01686988602398
 20
10.30415518965814
 30
0.0
 10
10.95040096435089
 20
10.34761683705953
 30
0.0
 10
10.89093488638942
 20
10.39993813942064
 30
0.0
 10
10.83876815807023
 20
10.4600006908906
 30
0.0
 10
10.79535408896696
 20
10.52779517504597
 30
0.0
 10
10.76092052785427
 20
10.6006465793342
 30
0.0
 10
10.7350977135021
 20
10.67661066869966
 30
0.0
 10
10.72001414593918
 20
10.75541065825728
 30
0.0
 10
10.71790639917028
 20
10.80882845207813
 30
0.0
 10
10.71684477591012
 20
10.83573375838095
 30
0.0
  0
SPLINE
  5
95
330
1F
100
AcDbEntity
  8
0
  6
Continuous
 62
     7
370
    25
100
AcDbSpline
210
0.0
220
0.0
230
1.0
 70
     8
 71
     3
 72
    19
 73
    15
 74
     0
 42
0.00000001
 43
0.00000001
 40
0.0
 40
0.0
 40
0.0
 40
0.0
 40
0.097818189614715
 40
0.1997260534018278
 40
0.3052763574779403
 40
0.4158114905382935
 40
0.4744722311435613
 40
0.5372738797760971
 40
0.6036574205596583
 40
0.6742988630901257
 40
0.7498344853162313
 40
0.8285984767571017
 40
0.9123777781577821
 40
1.0
 40
1.0
 40
1.0
 40
1.0
 10
10.71684477591013
 20
10.83573375838095
 30
0.0
 10
10.71751988734244
 20
10.8563306630723
 30
0.0
 10
10.71889833589598
 20
10.89838560707097
 30
0.0
 10
10.72852313037503
 20
10.96207933732441
 30
0.0
 10
10.74398872739406
 20
11.02725138402533
 30
0.0
 10
10.76130886816689
 20
11.08253949465173
 30
0.0
 10
10.77960921676408
 20
11.12783179291435
 30
0.0
 10
10.79483923938556
 20
11.16434807327106
 30
0.0
 10
10.81379580855157
 20
11.20192582940518
 30
0.0
 10
10.83400916923444
 20
11.24185362139396
 30
0.0
 10
10.85729880861411
 20
11.28310244007312
 30
0.0
 10
10.88262203683602
 20
11.32636167976533
 30
0.0
 10
10.91067898021061
 20
11.37094335271501
 30
0.0
 10
10.93034764463693
 20
11.40119717857037
 30
0.0
 10
10.94040246821782
 20
11.41666324556043
 30
0.0
  0
LINE
  5
96
330
1F
100
AcDbEntity
  8
0
  6
Continuous
 62
     7
370
    25
100
AcDbLine
 10
8.998896058
 20
11.0701087584
 30
0.0
 11
8.998896058
 21
12.2780414507
 31
0.0
  0
LINE
  5
97
330
1F
100
AcDbEntity
  8
0
  6
Continuous
 62
     7
370
    25
100
AcDbLine
 10
8.998896058
 20
12.2780414507
 30
0.0
 11
9.1783832374
 21
12.2780414507
 31
0.0
  0
LINE
  5
98
330
1F
100
AcDbEntity
  8
0
  6
Continuous
 62
     7
370
    25
100
AcDbLine
 10
9.1783832374
 20
12.2780414507
 30
0.0
 11
9.1783832374
 21
11.079724143
 31
0.0
  0
SPLINE
  5
99
330
1F
100
AcDbEntity
  8
0
  6
Continuous
 62
     7
370
    25
100
AcDbSpline
210
0.0
220
0.0
230
1.0
 70
     8
 71
     3
 72
    15
 73
    11
 74
     0
 42
0.00000001
 43
0.00000001
 40
0.0
 40
0.0
 40
0.0
 40
0.0
 40
0.1910785917157183
 40
0.3626045563099697
 40
0.5160987502785557
 40
0.6500380260398428
 40
0.7659767209867923
 40
0.8623740257993903
 40
0.9408420582211744
 40
1.0
 40
1.0
 40
1.0
 40
1.0
 10
9.178383237448584
 20
11.07972414299633
 30
0.0
 10
9.178356526607018
 20
11.06276372257078
 30
0.0
 10
9.17830583818207
 20
11.03057840202796
 30
0.0
 10
9.178644417537148
 20
10.98476794458241
 30
0.0
 10
9.179592628059002
 20
10.94404082512428
 30
0.0
 10
9.18019043352088
 20
10.9082400550853
 30
0.0
 10
9.181520338398098
 20
10.87752991368025
 30
0.0
 10
9.182604936626651
 20
10.85174402186087
 30
0.0
 10
9.183999540460265
 20
10.83100447760118
 30
0.0
 10
9.185675607602954
 20
10.81890109128638
 30
0.0
 10
9.186396057961408
 20
10.81369850197069
 30
0.0
  0
SPLINE
  5
9A
330
1F
100
AcDbEntity
  8
0
  6
Continuous
 62
     7
370
    25
100
AcDbSpline
210
0.0
220
0.0
230
1.0
 70
     8
 71
     3
 72
    19
 73
    15
 74
     0
 42
0.00000001
 43
0.00000001
 40
0.0
 40
0.0
 40
0.0
 40
0.0
 40
0.0863150037405925
 40
0.1677664659179416
 40
0.2444326843848599
 40
0.3181346623514529
 40
0.3918841069799638
 40
0.4700680503917537
 40
0.5539041787139108
 40
0.6443394983098222
 40
0.7368746633345106
 40
0.8261683643076464
 40
0.9136785948895808
 40
1.0
 40
1.0
 40
1.0
 40
1.0
 10
9.186396057961407
 20
10.81369850197069
 30
0.0
 10
9.189354605850129
 20
10.79492892291269
 30
0.0
 10
9.19510499804187
 20
10.75844736340547
 30
0.0
 10
9.209760071056836
 20
10.70649977377968
 30
0.0
 10
9.230227214486067
 20
10.65968179762132
 30
0.0
 10
9.254480381758151
 20
10.61653248841449
 30
0.0
 10
9.286441873958376
 20
10.57825285410327
 30
0.0
 10
9.32472960840223
 20
10.5429890525079
 30
0.0
 10
9.371116904705673
 20
10.5121480212839
 30
0.0
 10
9.422694393661832
 20
10.48394755738617
 30
0.0
 10
9.478285957956086
 20
10.46128179603376
 30
0.0
 10
9.53509239587105
 20
10.4441427306964
 30
0.0
 10
9.59225981253113
 20
10.4336976451115
 30
0.0
 10
9.63053190686297
 20
10.43248819427
 30
0.0
 10
9.64953708360243
 20
10.43188760453479
 30
0.0
  0
SPLINE
  5
9B
330
1F
100
AcDbEntity
  8
0
  6
Continuous
 62
     7
370
    25
100
AcDbSpline
210
0.0
220
0.0
230
1.0
 70
     8
 71
     3
 72
    19
 73
    15
 74
     0
 42
0.00000001
 43
0.00000001
 40
0.0
 40
0.0
 40
0.0
 40
0.0
 40
0.0828906475568678
 40
0.1653025405594703
 40
0.2477618761145889
 40
0.3315277110598013
 40
0.4152798127751566
 40
0.496366230484051
 40
0.5771513480211474
 40
0.6577825401388804
 40
0.7393216419943464
 40
0.8237930816663162
 40
0.9094759533791132
 40
0.9999999999999999
 40
0.9999999999999999
 40
0.9999999999999999
 40
0.9999999999999999
 10
9.64953708360243
 20
10.43188760453479
 30
0.0
 10
9.66585350668393
 20
10.43250123326716
 30
0.0
 10
9.698392113483509
 20
10.4337249465739
 30
0.0
 10
9.74673864530569
 20
10.44130290716217
 30
0.0
 10
9.793824421677298
 20
10.45496037326543
 30
0.0
 10
9.839881953052904
 20
10.4725830923618
 30
0.0
 10
9.883053944149813
 20
10.49586743013046
 30
0.0
 10
9.923364482442086
 20
10.52276505268606
 30
0.0
 10
9.959343873429756
 20
10.55431412469622
 30
0.0
 10
9.992177015048112
 20
10.58922860728524
 30
0.0
 10
10.02076840696388
 20
10.62862277869507
 30
0.0
 10
10.04555191645059
 20
10.67163885758015
 30
0.0
 10
10.06585244767659
 20
10.71892419865591
 30
0.0
 10
10.07587731901343
 20
10.75215529708445
 30
0.0
 10
10.08102746821782
 20
10.76922734812454
 30
0.0
  0
SPLINE
  5
9C
330
1F
100
AcDbEntity
  8
0
  6
Continuous
 62
     7
370
    25
100
AcDbSpline
210
0.0
220
0.0
230
1.0
 70
     8
 71
     3
 72
    15
 73
    11
 74
     0
 42
0.00000001
 43
0.00000001
 40
0.0
 40
0.0
 40
0.0
 40
0.0
 40
0.0698351039154373
 40
0.1556207549116644
 40
0.2578015566582776
 40
0.3738112340663696
 40
0.50640249267437
 40
0.6555644581431069
 40
0.8200792824038559
 40
1.0
 40
1.0
 40
1.0
 40
1.0
 10
10.08102746821782
 20
10.76922734812454
 30
0.0
 10
10.08274182552926
 20
10.77628367632039
 30
0.0
 10
10.08656210450127
 20
10.79200801922496
 30
0.0
 10
10.09013184449327
 20
10.81859161382756
 30
0.0
 10
10.09384985901657
 20
10.84995696466578
 30
0.0
 10
10.09642961330279
 20
10.88632942912888
 30
0.0
 10
10.09894459639671
 20
10.92758712775993
 30
0.0
 10
10.10044920942322
 20
10.97394498917903
 30
0.0
 10
10.10114465680844
 20
11.02523468107111
 30
0.0
 10
10.10135190272529
 20
11.06102734494296
 30
0.0
 10
10.10146016052551
 20
11.07972414299633
 30
0.0
  0
LINE
  5
9D
330
1F
100
AcDbEntity
  8
0
  6
Continuous
 62
     7
370
    25
100
AcDbLine
 10
10.1014601605
 20
11.079724143
 30
0.0
 11
10.1014601605
 21
12.2780414507
 31
0.0
  0
LINE
  5
9E
330
1F
100
AcDbEntity
  8
0
  6
Continuous
 62
     7
370
    25
100
AcDbLine
 10
10.1014601605
 20
12.2780414507
 30
0.0
 11
10.28094734
 21
12.2780414507
 31
0.0
  0
LINE
  5
9F
330
1F
100
AcDbEntity
  8
0
  6
Continuous
 62
     7
370
    25
100
AcDbLine
 10
10.28094734
 20
12.2780414507
 30
0.0
 11
10.28094734
 21
11.0701087584
 31
0.0
  0
SPLINE
  5
A0
330
1F
100
AcDbEntity
  8
0
  6
Continuous
 62
     7
370
    25
100
AcDbSpline
210
0.0
220
0.0
230
1.0
 70
     8
 71
     3
 72
    31
 73
    27
 74
     0
 42
0.00000001
 43
0.00000001
 40
0.0
 40
0.0
 40
0.0
 40
0.0
 40
0.0548580354451532
 40
0.1070587915426413
 40
0.1569783545765243
 40
0.2039922771829774
 40
0.2484915357868493
 40
0.2904833137405242
 40
0.3304890042981896
 40
0.3678859257629632
 40
0.4038581313538711
 40
0.4400093433074115
 40
0.4762950107796835
 40
0.512792294573348
 40
0.5504848246303715
 40
0.5883811157748434
 40
0.6276453271698549
 40
0.6679794644543819
 40
0.7084327575000836
 40
0.7486023022886336
 40
0.7890877771957818
 40
0.829461204631706
 40
0.8703710453051783
 40
0.9122142271494432
 40
0.9555465749316873
 40
1.0
 40
1.0
 40
1.0
 40
1.0
 10
10.28094734001269
 20
11.07010875838095
 30
0.0
 10
10.2808021283644
 20
11.04833825612452
 30
0.0
 10
10.2805187390039
 20
11.00585179732343
 30
0.0
 10
10.27806126671982
 20
10.94359387788113
 30
0.0
 10
10.27414298109001
 20
10.88453503142004
 30
0.0
 10
10.26860693081909
 20
10.82866731911853
 30
0.0
 10
10.2612715004362
 20
10.77619065669366
 30
0.0
 10
10.25311423157639
 20
10.72664507487914
 30
0.0
 10
10.24272592697238
 20
10.68038622193799
 30
0.0
 10
10.2305925548677
 20
10.63705341185486
 30
0.0
 10
10.21672195598951
 20
10.59580454704691
 30
0.0
 10
10.19875558550901
 20
10.55665676723898
 30
0.0
 10
10.17851301411881
 20
10.51841996745032
 30
0.0
 10
10.15450464102637
 20
10.48167247666065
 30
0.0
 10
10.12752670808765
 20
10.44625158915348
 30
0.0
 10
10.09698289051778
 20
10.41237211771933
 30
0.0
 10
10.06388337000696
 20
10.37949266270527
 30
0.0
 10
10.02767790737975
 20
10.34845662490367
 30
0.0
 10
9.988963321518765
 20
10.31999452382507
 30
0.0
 10
9.947854774285533
 20
10.29496722606288
 30
0.0
 10
9.904668048712649
 20
10.27381087321656
 30
0.0
 10
9.859515405213068
 20
10.25639605927307
 30
0.0
 10
9.81237757499058
 20
10.24330200258869
 30
0.0
 10
9.763253369433974
 20
10.23354477071383
 30
0.0
 10
9.712030973254201
 20
10.22800060069122
 30
0.0
 10
9.677194026855329
 20
10.22717664065706
 30
0.0
 10
9.659553109243458
 20
10.22675939940659
 30
0.0
  0
SPLINE
  5
A1
330
1F
100
AcDbEntity
  8
0
  6
Continuous
 62
     7
370
    25
100
AcDbSpline
210
0.0
220
0.0
230
1.0
 70
     8
 71
     3
 72
    23
 73
    19
 74
     0
 42
0.00000001
 43
0.00000001
 40
0.0
 40
0.0
 40
0.0
 40
0.0
 40
0.0711745037456338
 40
0.139644121750622
 40
0.2063172239119631
 40
0.2713732401918831
 40
0.3354180839163108
 40
0.3980763446528618
 40
0.4606079146322854
 40
0.5229695111172337
 40
0.5847157240924586
 40
0.6448949403163614
 40
0.7042905608207897
 40
0.7629981899193219
 40
0.8210874309038763
 40
0.8801038914766998
 40
0.9393884881896671
 40
1.0
 40
1.0
 40
1.0
 40
1.0
 10
9.659553109243456
 20
10.22675939940659
 30
0.0
 10
9.640313622038905
 20
10.22720783670038
 30
0.0
 10
9.602565816965143
 20
10.2280876690667
 30
0.0
 10
9.54694406423387
 20
10.23312924056839
 30
0.0
 10
9.49362166634867
 20
10.24262546589136
 30
0.0
 10
9.442035450905848
 20
10.25471686230451
 30
0.0
 10
9.392887738257281
 20
10.27139328360648
 30
0.0
 10
9.34552005575341
 20
10.29087792638371
 30
0.0
 10
9.300743666542665
 20
10.31480778940257
 30
0.0
 10
9.257832164476728
 20
10.34143258541389
 30
0.0
 10
9.217932303816028
 20
10.37138952151029
 30
0.0
 10
9.181305216325953
 20
10.40404104948212
 30
0.0
 10
9.147890433130872
 20
10.4388641222795
 30
0.0
 10
9.118251178074825
 20
10.47623575986141
 30
0.0
 10
9.091896386886074
 20
10.51586530672079
 30
0.0
 10
9.069193407798537
 20
10.55786487232601
 30
0.0
 10
9.049700125444186
 20
10.60221819584277
 30
0.0
 10
9.039639229982544
 20
10.63304859607431
 30
0.0
 10
9.034553109243456
 20
10.64863439940659
 30
0.0
  0
SPLINE
  5
A2
330
1F
100
AcDbEntity
  8
0
  6
Continuous
 62
     7
370
    25
100
AcDbSpline
210
0.0
220
0.0
230
1.0
 70
     8
 71
     3
 72
    15
 73
    11
 74
     0
 42
0.00000001
 43
0.00000001
 40
0.0
 40
0.0
 40
0.0
 40
0.0
 40
0.0781298651584263
 40
0.1694654174977322
 40
0.2743352908540816
 40
0.3921101633539196
 40
0.5236873298575184
 40
0.6683654211389626
 40
0.8271319021257846
 40
0.9999999999999999
 40
0.9999999999999999
 40
0.9999999999999999
 40
0.9999999999999999
 10
9.034553109243456
 20
10.64863439940659
 30
0.0
 10
9.031594733143855
 20
10.65928158480616
 30
0.0
 10
9.025177949500144
 20
10.68237556705296
 30
0.0
 10
9.018306350845982
 20
10.72059641765722
 30
0.0
 10
9.012529732765142
 20
10.76460494202882
 30
0.0
 10
9.007097985210168
 20
10.81440415252484
 30
0.0
 10
9.00389286637776
 20
10.87003264772629
 30
0.0
 10
9.001082901408433
 20
10.9314663139374
 30
0.0
 10
8.998876262096111
 20
10.99877943490093
 30
0.0
 10
8.99888927489813
 20
11.04566772953956
 30
0.0
 10
8.998896057961407
 20
11.07010875838095
 30
0.0
  0
LINE
  5
A3
330
1F
100
AcDbEntity
  8
0
  6
Continuous
 62
     7
370
    25
100
AcDbLine
 10
7.3578704169
 20
10.2780414507
 30
0.0
 11
7.3578704169
 21
12.2780414507
 31
0.0
  0
LINE
  5
A4
330
1F
100
AcDbEntity
  8
0
  6
Continuous
 62
     7
370
    25
100
AcDbLine
 10
7.3578704169
 20
12.2780414507
 30
0.0
 11
7.750097981
 21
12.2780414507
 31
0.0
  0
SPLINE
  5
A5
330
1F
100
AcDbEntity
  8
0
  6
Continuous
 62
     7
370
    25
100
AcDbSpline
210
0.0
220
0.0
230
1.0
 70
     8
 71
     3
 72
    15
 73
    11
 74
     0
 42
0.00000001
 43
0.00000001
 40
0.0
 40
0.0
 40
0.0
 40
0.0
 40
0.1769557521312495
 40
0.339055079642582
 40
0.4863182249420794
 40
0.6187809228353777
 40
0.7356188277673839
 40
0.8387424767201106
 40
0.9264570678763191
 40
1.0
 40
1.0
 40
1.0
 40
1.0
 10
7.750097981038329
 20
12.27804145068864
 30
0.0
 10
7.777075641696423
 20
12.27801179569388
 30
0.0
 10
7.828766037588248
 20
12.27795497540693
 30
0.0
 10
7.902888926564754
 20
12.27623226350656
 30
0.0
 10
7.970208773208372
 20
12.2739312965964
 30
0.0
 10
8.030580419452217
 20
12.2707416433432
 30
0.0
 10
8.084189618358833
 20
12.26697216320176
 30
0.0
 10
8.130793789528296
 20
12.26168528355751
 30
0.0
 10
8.170759250290493
 20
12.2561651146699
 30
0.0
 10
8.194705792831357
 20
12.25055288237311
 30
0.0
 10
8.205626827192173
 20
12.24799337376556
 30
0.0
  0
SPLINE
  5
A6
330
1F
100
AcDbEntity
  8
0
  6
Continuous
 62
     7
370
    25
100
AcDbSpline
210
0.0
220
0.0
230
1.0
 70
     8
 71
     3
 72
    23
 73
    19
 74
     0
 42
0.00000001
 43
0.00000001
 40
0.0
 40
0.0
 40
0.0
 40
0.0
 40
0.062481338635205
 40
0.1234903826872912
 40
0.1834110942063122
 40
0.2431532209997813
 40
0.3021267353720889
 40
0.3617096708329082
 40
0.4218422916948808
 40
0.4829319014466699
 40
0.5445522544313254
 40
0.6056807199653594
 40
0.6676797383436883
 40
0.7299843875380632
 40
0.7945509212861305
 40
0.8603456197120832
 40
0.9289073562657092
 40
1.0
 40
1.0
 40
1.0
 40
1.0
 10
8.205626827192175
 20
12.24799337376556
 30
0.0
 10
8.219451703640914
 20
12.24420940243316
 30
0.0
 10
8.24677569061928
 20
12.23673062431921
 30
0.0
 10
8.286147715248779
 20
12.22175135376169
 30
0.0
 10
8.32360705552328
 20
12.20399011651855
 30
0.0
 10
8.359282231777668
 20
12.18374786517518
 30
0.0
 10
8.392734850675312
 20
12.16015611421111
 30
0.0
 10
8.424464016941597
 20
12.13417118978865
 30
0.0
 10
8.454189719967715
 20
12.10519315060441
 30
0.0
 10
8.481744801044387
 20
12.07354701354873
 30
0.0
 10
8.507050399663783
 20
12.03976403647359
 30
0.0
 10
8.528838789793598
 20
12.00333990509788
 30
0.0
 10
8.547082919526895
 20
11.96488773171512
 30
0.0
 10
8.562730503232121
 20
11.92443426248235
 30
0.0
 10
8.573992477214524
 20
11.88163979191588
 30
0.0
 10
8.582476419903353
 20
11.8368016705592
 30
0.0
 10
8.587861349969435
 20
11.78992470472977
 30
0.0
 10
8.588377099543804
 20
11.75789049471785
 30
0.0
 10
8.588639647704994
 20
11.74158311735531
 30
0.0
  0
SPLINE
  5
A7
330
1F
100
AcDbEntity
  8
0
  6
Continuous
 62
     7
370
    25
100
AcDbSpline
210
0.0
220
0.0
230
1.0
 70
     8
 71
     3
 72
    23
 73
    19
 74
     0
 42
0.00000001
 43
0.00000001
 40
0.0
 40
0.0
 40
0.0
 40
0.0
 40
0.0701188944197153
 40
0.1371923527859716
 40
0.2020161807247517
 40
0.2646314069747444
 40
0.3261165471458176
 40
0.3860103046676402
 40
0.4458118469576803
 40
0.5052976967309597
 40
0.5646332777264893
 40
0.6242826253338418
 40
0.68390203190375
 40
0.7439527709382701
 40
0.8053877310076359
 40
0.8683880308962795
 40
0.9330840282524774
 40
1.0
 40
1.0
 40
1.0
 40
1.0
 10
8.588639647704996
 20
11.74158311735531
 30
0.0
 10
8.588398833574162
 20
11.72513867347675
 30
0.0
 10
8.587927664462514
 20
11.69296400836505
 30
0.0
 10
8.582272644274608
 20
11.64589384368579
 30
0.0
 10
8.574655391921057
 20
11.60091190646774
 30
0.0
 10
8.562942790591231
 20
11.55811793477093
 30
0.0
 10
8.547602405963566
 20
11.51776606593049
 30
0.0
 10
8.529606947194608
 20
11.47923964763293
 30
0.0
 10
8.507902072697588
 20
11.44319412083373
 30
0.0
 10
8.482962170005875
 20
11.40949862509563
 30
0.0
 10
8.455218401781364
 20
11.37812153234468
 30
0.0
 10
8.424788151411502
 20
11.349290221206
 30
0.0
 10
8.391794269982777
 20
11.32317345639312
 30
0.0
 10
8.35634161393914
 20
11.29971268857575
 30
0.0
 10
8.318084557461118
 20
11.27945195743423
 30
0.0
 10
8.277603326849148
 20
11.2613049260482
 30
0.0
 10
8.234546060322335
 20
11.24606431996907
 30
0.0
 10
8.204750338050694
 20
11.23804714201112
 30
0.0
 10
8.189601186166533
 20
11.23397093786813
 30
0.0
  0
SPLINE
  5
A8
330
1F
100
AcDbEntity
  8
0
  6
Continuous
 62
     7
370
    25
100
AcDbSpline
210
0.0
220
0.0
230
1.0
 70
     8
 71
     3
 72
    15
 73
    11
 74
     0
 42
0.00000001
 43
0.00000001
 40
0.0
 40
0.0
 40
0.0
 40
0.0
 40
0.0751731173762208
 40
0.1647462575118019
 40
0.2680168809877804
 40
0.3859118756529558
 40
0.5177894792733982
 40
0.6636909770022814
 40
0.8244132205366398
 40
1.0
 40
1.0
 40
1.0
 40
1.0
 10
8.189601186166533
 20
11.23397093786813
 30
0.0
 10
8.177071281028581
 20
11.23130637725219
 30
0.0
 10
8.149611265393943
 20
11.22546683773712
 30
0.0
 10
8.104386852720948
 20
11.21894771954004
 30
0.0
 10
8.05173234647534
 20
11.21338337629122
 30
0.0
 10
7.991719615095013
 20
11.20921129767347
 30
0.0
 10
7.9244025265684
 20
11.20563965855232
 30
0.0
 10
7.849744665237116
 20
11.20280074775765
 30
0.0
 10
7.767599478277513
 20
11.20124083128042
 30
0.0
 10
7.71030162451868
 20
11.20116037825271
 30
0.0
 10
7.680386442576789
 20
11.20111837376556
 30
0.0
  0
LINE
  5
A9
330
1F
100
AcDbEntity
  8
0
  6
Continuous
 62
     7
370
    25
100
AcDbLine
 10
7.6803864426
 20
11.2011183738
 30
0.0
 11
7.5373575964
 21
11.2011183738
 31
0.0
  0
LINE
  5
AA
330
1F
100
AcDbEntity
  8
0
  6
Continuous
 62
     7
370
    25
100
AcDbLine
 10
7.5373575964
 20
11.2011183738
 30
0.0
 11
7.5373575964
 21
10.2780414507
 31
0.0
  0
LINE
  5
AB
330
1F
100
AcDbEntity
  8
0
  6
Continuous
 62
     7
370
    25
100
AcDbLine
 10
7.5373575964
 20
10.2780414507
 30
0.0
 11
7.3578704169
 21
10.2780414507
 31
0.0
  0
LINE
  5
AC
330
1F
100
AcDbEntity
  8
0
  6
Continuous
 62
     7
370
    25
100
AcDbLine
 10
4.8975338785
 20
10.2780414507
 30
0.0
 11
4.7168447759
 21
10.2780414507
 31
0.0
  0
LINE
  5
AD
330
1F
100
AcDbEntity
  8
0
  6
Continuous
 62
     7
370
    25
100
AcDbLine
 10
4.7168447759
 20
10.2780414507
 30
0.0
 11
4.9808672118
 21
12.2780414507
 31
0.0
  0
LINE
  5
AE
330
1F
100
AcDbEntity
  8
0
  6
Continuous
 62
     7
370
    25
100
AcDbLine
 10
4.9808672118
 20
12.2780414507
 30
0.0
 11
5.0065082374
 21
12.2780414507
 31
0.0
  0
LINE
  5
AF
330
1F
100
AcDbEntity
  8
0
  6
Continuous
 62
     7
370
    25
100
AcDbLine
 10
5.0065082374
 20
12.2780414507
 30
0.0
 11
5.8322293913
 21
10.6370158097
 31
0.0
  0
LINE
  5
B0
330
1F
100
AcDbEntity
  8
0
  6
Continuous
 62
     7
370
    25
100
AcDbLine
 10
5.8322293913
 20
10.6370158097
 30
0.0
 11
6.65594734
 21
12.2780414507
 31
0.0
  0
LINE
  5
B1
330
1F
100
AcDbEntity
  8
0
  6
Continuous
 62
     7
370
    25
100
AcDbLine
 10
6.65594734
 20
12.2780414507
 30
0.0
 11
6.6819890067
 21
12.2780414507
 31
0.0
  0
LINE
  5
B2
330
1F
100
AcDbEntity
  8
0
  6
Continuous
 62
     7
370
    25
100
AcDbLine
 10
6.6819890067
 20
12.2780414507
 30
0.0
 11
6.9476140067
 21
10.2780414507
 31
0.0
  0
LINE
  5
B3
330
1F
100
AcDbEntity
  8
0
  6
Continuous
 62
     7
370
    25
100
AcDbLine
 10
6.9476140067
 20
10.2780414507
 30
0.0
 11
6.7673255451
 21
10.2780414507
 31
0.0
  0
LINE
  5
B4
330
1F
100
AcDbEntity
  8
0
  6
Continuous
 62
     7
370
    25
100
AcDbLine
 10
6.7673255451
 20
10.2780414507
 30
0.0
 11
6.5758191349
 21
11.7171440148
 31
0.0
  0
LINE
  5
B5
330
1F
100
AcDbEntity
  8
0
  6
Continuous
 62
     7
370
    25
100
AcDbLine
 10
6.5758191349
 20
11.7171440148
 30
0.0
 11
5.8538640067
 21
10.2780414507
 31
0.0
  0
LINE
  5
B6
330
1F
100
AcDbEntity
  8
0
  6
Continuous
 62
     7
370
    25
100
AcDbLine
 10
5.8538640067
 20
10.2780414507
 30
0.0
 11
5.8133992631
 21
10.2780414507
 31
0.0
  0
LINE
  5
B7
330
1F
100
AcDbEntity
  8
0
  6
Continuous
 62
     7
370
    25
100
AcDbLine
 10
5.8133992631
 20
10.2780414507
 30
0.0
 11
5.0886396477
 21
11.720349143
 31
0.0
  0
LINE
  5
B8
330
1F
100
AcDbEntity
  8
0
  6
Continuous
 62
     7
370
    25
100
AcDbLine
 10
5.0886396477
 20
11.720349143
 30
0.0
 11
4.8975338785
 21
10.2780414507
 31
0.0
  0
LINE
  5
B9
330
1F
100
AcDbEntity
  8
0
  6
Continuous
 62
     7
370
    25
100
AcDbLine
 10
10.5
 20
9.75
 30
0.0
 11
10.5
 21
6.25
 31
0.0
  0
LINE
  5
BA
330
1F
100
AcDbEntity
  8
0
  6
Continuous
 62
     7
370
    25
100
AcDbLine
 10
10.5
 20
9.75
 30
0.0
 11
14.0
 21
9.75
 31
0.0
  0
LINE
  5
BB
330
1F
100
AcDbEntity
  8
0
  6
Continuous
 62
     7
370
    25
100
AcDbLine
 10
14.0
 20
9.75
 30
0.0
 11
14.0
 21
6.25
 31
0.0
  0
LINE
  5
BC
330
1F
100
AcDbEntity
  8
0
  6
Continuous
 62
     7
370
    25
100
AcDbLine
 10
10.5
 20
6.25
 30
0.0
 11
14.0
 21
6.25
 31
0.0
  0
LINE
  5
BD
330
1F
100
AcDbEntity
  8
0
  6
Continuous
 62
     7
370
    25
100
AcDbLine
 10
21.0
 20
0.0
 30
0.0
 11
21.0
 21
16.0
 31
0.0
  0
LINE
  5
BE
330
1F
100
AcDbEntity
  8
0
  6
Continuous
 62
     7
370
    25
100
AcDbLine
 10
0.0
 20
16.0
 30
0.0
 11
21.0
 21
16.0
 31
0.0
  0
LINE
  5
BF
330
1F
100
AcDbEntity
  8
0
  6
Continuous
 62
     7
370
    25
100
AcDbLine
 10
0.0
 20
0.0
 30
0.0
 11
0.0
 21
16.0
 31
0.0
  0
LINE
  5
C0
330
1F
100
AcDbEntity
  8
0
  6
Continuous
 62
     7
370
    25
100
AcDbLine
 10
0.0
 20
0.0
 30
0.0
 11
21.0
 21
0.0
 31
0.0
  0
CIRCLE
  5
C1
330
1F
100
AcDbEntity
  8
0
  6
Continuous
 62
     7
370
    25
100
AcDbCircle
 10
1.8
 20
14.2
 30
0.0
 40
1.5
  0
CIRCLE
  5
C2
330
1F
100
AcDbEntity
  8
0
  6
Continuous
 62
     7
370
    25
100
AcDbCircle
 10
19.2
 20
14.2
 30
0.0
 40
1.500000000000002
  0
SPLINE
  5
C3
330
1F
100
AcDbEntity
  8
0
  6
Continuous
 62
     7
370
    25
100
AcDbSpline
210
0.0
220
0.0
230
1.0
 70
     8
 71
     3
 72
    27
 73
    23
 74
     0
 42
0.00000001
 43
0.00000001
 40
0.0
 40
0.0
 40
0.0
 40
0.0
 40
0.0603866193110626
 40
0.1208832485859964
 40
0.1827546186251393
 40
0.2478110297583512
 40
0.2812991000432483
 40
0.3150876241506564
 40
0.3497023955502749
 40
0.3848565811185546
 40
0.4209661972261015
 40
0.4585111882611385
 40
0.4971747221273111
 40
0.5376020478662681
 40
0.5805030184200106
 40
0.6274675400267035
 40
0.6783882095592425
 40
0.7339832205925599
 40
0.7937467045508337
 40
0.8577136721607321
 40
0.9266978643613858
 40
1.0
 40
1.0
 40
1.0
 40
1.0
 10
12.82742169898705
 20
12.12419529684249
 30
0.0
 10
12.80530136065173
 20
12.12303447018691
 30
0.0
 10
12.76102038602025
 20
12.12071070212751
 30
0.0
 10
12.6956215547478
 20
12.10431455721802
 30
0.0
 10
12.63293335380935
 20
12.07573571953938
 30
0.0
 10
12.58308022542143
 20
12.04433436384514
 30
0.0
 10
12.54487234741709
 20
12.01442675730706
 30
0.0
 10
12.5179679512018
 20
11.98849164070222
 30
0.0
 10
12.49274156707741
 20
11.96012235249358
 30
0.0
 10
12.46950288128446
 20
11.92903554400765
 30
0.0
 10
12.44773757660317
 20
11.89562676268244
 30
0.0
 10
12.42774842655992
 20
11.85963318283944
 30
0.0
 10
12.40973852388788
 20
11.82087240328206
 30
0.0
 10
12.39311878892779
 20
11.77937729732831
 30
0.0
 10
12.37850576719852
 20
11.73390247193657
 30
0.0
 10
12.36645207392424
 20
11.68374876131174
 30
0.0
 10
12.35531661499859
 20
11.62862768028935
 30
0.0
 10
12.34743360419826
 20
11.5682165328921
 30
0.0
 10
12.340425743763
 20
11.50291244525253
 30
0.0
 10
12.33592211636171
 20
11.4324682634072
 30
0.0
 10
12.332418540665
 20
11.35700290317728
 30
0.0
 10
12.33229370388629
 20
11.30488909831862
 30
0.0
 10
12.33222939129474
 20
11.27804145068864
 30
0.0
  0
SPLINE
  5
C4
330
1F
100
AcDbEntity
  8
0
  6
Continuous
 62
     7
370
    25
100
AcDbSpline
210
0.0
220
0.0
230
1.0
 70
     8
 71
     3
 72
    27
 73
    23
 74
     0
 42
0.00000001
 43
0.00000001
 40
0.0
 40
0.0
 40
0.0
 40
0.0
 40
0.0729510658758664
 40
0.1415836941865443
 40
0.2059264601708666
 40
0.2653013571846055
 40
0.3205972327139281
 40
0.3718165030988094
 40
0.4187897697094511
 40
0.461698728615764
 40
0.5021335821035648
 40
0.5408043152926482
 40
0.5781805253279658
 40
0.6142968652075147
 40
0.6496782432647874
 40
0.6842994600896367
 40
0.7183589527723604
 40
0.752080864647597
 40
0.8176524386023862
 40
0.8797220764054383
 40
0.9399655597309877
 40
1.0
 40
1.0
 40
1.0
 40
1.0
 10
12.33222939129474
 20
11.27804145068864
 30
0.0
 10
12.33229764676189
 20
11.25132790851501
 30
0.0
 10
12.33243011722098
 20
11.19948216862978
 30
0.0
 10
12.33589080326511
 20
11.12414316235781
 30
0.0
 10
12.34060522155052
 20
11.05387440303372
 30
0.0
 10
12.34668596279918
 20
10.98858666791079
 30
0.0
 10
12.35571621909976
 20
10.92850094647661
 30
0.0
 10
12.36583438356701
 20
10.87320398472511
 30
0.0
 10
12.37814757763513
 20
10.82298842066007
 30
0.0
 10
12.39271615927342
 20
10.77750967168606
 30
0.0
 10
12.40930992892683
 20
10.73599591826014
 30
0.0
 10
12.42742756530972
 20
10.69736665247309
 30
0.0
 10
12.44689083554111
 20
10.66116554593836
 30
0.0
 10
12.46867320728566
 20
10.62771776972458
 30
0.0
 10
12.49239610055937
 20
10.59691424739722
 30
0.0
 10
12.51752367720938
 20
10.56820977178449
 30
0.0
 10
12.54499372534772
 20
10.54261149673558
 30
0.0
 10
12.58299586394384
 20
10.51191043671873
 30
0.0
 10
12.63316527790216
 20
10.48018521744468
 30
0.0
 10
12.69637696660565
 20
10.45255888039803
 30
0.0
 10
12.7613303671665
 20
10.43519747672242
 30
0.0
 10
12.80541679578761
 20
10.43298961617664
 30
0.0
 10
12.82742169898705
 20
10.4318876045348
 30
0.0
  0
SPLINE
  5
C5
330
1F
100
AcDbEntity
  8
0
  6
Continuous
 62
     7
370
    25
100
AcDbSpline
210
0.0
220
0.0
230
1.0
 70
     8
 71
     3
 72
    19
 73
    15
 74
     0
 42
0.00000001
 43
0.00000001
 40
0.0
 40
0.0
 40
0.0
 40
0.0
 40
0.1128134007444589
 40
0.2253938839207289
 40
0.3395948145627009
 40
0.4596754102248646
 40
0.5217351900879336
 40
0.5839258387389153
 40
0.6481741447653703
 40
0.7138810381130662
 40
0.7810044549073887
 40
0.8514509275565545
 40
0.9240506926641793
 40
1.0
 40
1.0
 40
1.0
 40
1.0
 10
12.82742169898705
 20
10.4318876045348
 30
0.0
 10
12.84956893993319
 20
10.43280062214139
 30
0.0
 10
12.89381769603873
 20
10.43462477231399
 30
0.0
 10
12.95846557897836
 20
10.45222405081355
 30
0.0
 10
13.02122573331107
 20
10.47877807336422
 30
0.0
 10
13.07040969918473
 20
10.51017664788951
 30
0.0
 10
13.10782829547126
 20
10.5400785504331
 30
0.0
 10
13.13463800410321
 20
10.56557263518333
 30
0.0
 10
13.15924488892221
 20
10.59411884507272
 30
0.0
 10
13.18258321741056
 20
10.62491844273838
 30
0.0
 10
13.2039884035105
 20
10.65855986226626
 30
0.0
 10
13.22345305362205
 20
10.69488133384684
 30
0.0
 10
13.24121496650499
 20
10.73398372122523
 30
0.0
 10
13.25133442133371
 20
10.76128071500571
 30
0.0
 10
13.25650823744859
 20
10.77523696350915
 30
0.0
  0
SPLINE
  5
C6
330
1F
100
AcDbEntity
  8
0
  6
Continuous
 62
     7
370
    25
100
AcDbSpline
210
0.0
220
0.0
230
1.0
 70
     8
 71
     3
 72
    15
 73
    11
 74
     0
 42
0.00000001
 43
0.00000001
 40
0.0
 40
0.0
 40
0.0
 40
0.0
 40
0.1105883385953365
 40
0.2245417540535971
 40
0.3425034940501044
 40
0.4643240984173589
 40
0.5907560327017687
 40
0.7222274753555169
 40
0.8588428362087251
 40
1.0
 40
1.0
 40
1.0
 40
1.0
 10
13.25650823744859
 20
10.77523696350915
 30
0.0
 10
13.26253781904503
 20
10.79308252891848
 30
0.0
 10
13.27478045552072
 20
10.82931667991475
 30
0.0
 10
13.29055861224685
 20
10.8855244811036
 30
0.0
 10
13.30298455464896
 20
10.94449748906814
 30
0.0
 10
13.3141636207915
 20
11.0058832700501
 30
0.0
 10
13.32179393844712
 20
11.07013452777066
 30
0.0
 10
13.32793554603755
 20
11.13705246143681
 30
0.0
 10
13.33155308143141
 20
11.20668752557135
 30
0.0
 10
13.33200151061503
 20
11.25399894911149
 30
0.0
 10
13.33222939129474
 20
11.27804145068864
 30
0.0
  0
SPLINE
  5
C7
330
1F
100
AcDbEntity
  8
0
  6
Continuous
 62
     7
370
    25
100
AcDbSpline
210
0.0
220
0.0
230
1.0
 70
     8
 71
     3
 72
    27
 73
    23
 74
     0
 42
0.00000001
 43
0.00000001
 40
0.0
 40
0.0
 40
0.0
 40
0.0
 40
0.0656811979906398
 40
0.1284864641740654
 40
0.1881751303280092
 40
0.245106130669987
 40
0.2994484245294759
 40
0.3508229360093821
 40
0.3999416805337784
 40
0.4466717436323723
 40
0.4912545333734982
 40
0.5333763442704363
 40
0.5738527549682236
 40
0.6125263117194529
 40
0.6495971364453292
 40
0.6855320415538501
 40
0.7201057860682007
 40
0.7538376629736496
 40
0.8189254160467139
 40
0.8804934616501626
 40
0.9403113338460563
 40
1.0
 40
1.0
 40
1.0
 40
1.0
 10
13.33222939129474
 20
11.27804145068864
 30
0.0
 10
13.33191499744735
 20
11.30208006355609
 30
0.0
 10
13.33129997587275
 20
11.34910472914499
 30
0.0
 10
13.32894912575782
 20
11.41797226095192
 30
0.0
 10
13.3228785117624
 20
11.48338241004287
 30
0.0
 10
13.31613615812553
 20
11.54561696585104
 30
0.0
 10
13.30619488893005
 20
11.60433142453932
 30
0.0
 10
13.29547614214131
 20
11.66001731325722
 30
0.0
 10
13.28107544940404
 20
11.71198475601113
 30
0.0
 10
13.26569272084748
 20
11.76104737413205
 30
0.0
 10
13.2480867805438
 20
11.80664774813251
 30
0.0
 10
13.22870636096805
 20
11.84899848319649
 30
0.0
 10
13.20800821310003
 20
11.88830404020037
 30
0.0
 10
13.1855269328376
 20
11.92445657824409
 30
0.0
 10
13.16152939965744
 20
11.95761803133617
 30
0.0
 10
13.1353822286874
 20
11.98712351394022
 30
0.0
 10
13.10812258708121
 20
12.01388749571652
 30
0.0
 10
13.06994133803911
 20
12.04443753521458
 30
0.0
 10
13.01995602958175
 20
12.07558707549068
 30
0.0
 10
12.95775851681465
 20
12.1042532239823
 30
0.0
 10
12.89303243438542
 20
12.12071510547996
 30
0.0
 10
12.84927617490426
 20
12.12303606950175
 30
0.0
 10
12.82742169898705
 20
12.12419529684249
 30
0.0
  0
SPLINE
  5
C8
330
1F
100
AcDbEntity
  8
0
  6
Continuous
 62
     7
370
    25
100
AcDbSpline
210
0.0
220
0.0
230
1.0
 70
     8
 71
     3
 72
    27
 73
    23
 74
     0
 42
0.00000001
 43
0.00000001
 40
0.0
 40
0.0
 40
0.0
 40
0.0
 40
0.0603866193110595
 40
0.1208832485859949
 40
0.1827546186251393
 40
0.2478110297583499
 40
0.281299100043247
 40
0.3150876241506552
 40
0.3497023955502748
 40
0.3848565811185545
 40
0.4209661972261006
 40
0.4585111882611376
 40
0.4971747221273102
 40
0.5376020478662679
 40
0.5805030184200104
 40
0.6274675400267029
 40
0.6783882095592423
 40
0.7339832205925596
 40
0.7937467045508334
 40
0.8577136721607319
 40
0.9266978643613857
 40
1.0
 40
1.0
 40
1.0
 40
1.0
 10
15.90434477591012
 20
12.12419529684249
 30
0.0
 10
15.88222443757481
 20
12.12303447018692
 30
0.0
 10
15.83794346294332
 20
12.1207107021275
 30
0.0
 10
15.77254463167088
 20
12.10431455721802
 30
0.0
 10
15.70985643073242
 20
12.07573571953938
 30
0.0
 10
15.66000330234452
 20
12.04433436384514
 30
0.0
 10
15.62179542434017
 20
12.01442675730706
 30
0.0
 10
15.59489102812489
 20
11.98849164070222
 30
0.0
 10
15.56966464400048
 20
11.96012235249357
 30
0.0
 10
15.54642595820754
 20
11.92903554400765
 30
0.0
 10
15.52466065352625
 20
11.89562676268244
 30
0.0
 10
15.50467150348298
 20
11.85963318283943
 30
0.0
 10
15.48666160081096
 20
11.82087240328206
 30
0.0
 10
15.47004186585087
 20
11.77937729732832
 30
0.0
 10
15.4554288441216
 20
11.73390247193657
 30
0.0
 10
15.44337515084732
 20
11.68374876131174
 30
0.0
 10
15.43223969192166
 20
11.62862768028935
 30
0.0
 10
15.42435668112135
 20
11.5682165328921
 30
0.0
 10
15.41734882068608
 20
11.50291244525253
 30
0.0
 10
15.41284519328479
 20
11.4324682634072
 30
0.0
 10
15.40934161758808
 20
11.35700290317728
 30
0.0
 10
15.40921678080937
 20
11.30488909831862
 30
0.0
 10
15.40915246821782
 20
11.27804145068864
 30
0.0
  0
SPLINE
  5
C9
330
1F
100
AcDbEntity
  8
0
  6
Continuous
 62
     7
370
    25
100
AcDbSpline
210
0.0
220
0.0
230
1.0
 70
     8
 71
     3
 72
    27
 73
    23
 74
     0
 42
0.00000001
 43
0.00000001
 40
0.0
 40
0.0
 40
0.0
 40
0.0
 40
0.0729510658758664
 40
0.1415836941865443
 40
0.2059264601708668
 40
0.2653013571846055
 40
0.3205972327139283
 40
0.3718165030988099
 40
0.4187897697094516
 40
0.4616987286157645
 40
0.5021335821035654
 40
0.5408043152926487
 40
0.5781805253279657
 40
0.6142968652075156
 40
0.6496782432647883
 40
0.6842994600896376
 40
0.7183589527723613
 40
0.7520808646475979
 40
0.8176524386023846
 40
0.8797220764054366
 40
0.9399655597309892
 40
1.0
 40
1.0
 40
1.0
 40
1.0
 10
15.40915246821782
 20
11.27804145068864
 30
0.0
 10
15.40922072368497
 20
11.25132790851501
 30
0.0
 10
15.40935319414406
 20
11.19948216862978
 30
0.0
 10
15.41281388018818
 20
11.12414316235781
 30
0.0
 10
15.4175282984736
 20
11.05387440303372
 30
0.0
 10
15.42360903972226
 20
10.98858666791079
 30
0.0
 10
15.43263929602284
 20
10.92850094647661
 30
0.0
 10
15.44275746049008
 20
10.8732039847251
 30
0.0
 10
15.45507065455821
 20
10.82298842066007
 30
0.0
 10
15.46963923619649
 20
10.77750967168605
 30
0.0
 10
15.48623300584991
 20
10.73599591826014
 30
0.0
 10
15.50435064223279
 20
10.69736665247309
 30
0.0
 10
15.52381391246418
 20
10.66116554593836
 30
0.0
 10
15.54559628420874
 20
10.62771776972458
 30
0.0
 10
15.56931917748245
 20
10.59691424739722
 30
0.0
 10
15.59444675413245
 20
10.56820977178449
 30
0.0
 10
15.6219168022708
 20
10.54261149673557
 30
0.0
 10
15.65991894086692
 20
10.51191043671873
 30
0.0
 10
15.71008835482523
 20
10.48018521744468
 30
0.0
 10
15.77330004352872
 20
10.45255888039803
 30
0.0
 10
15.83825344408958
 20
10.43519747672243
 30
0.0
 10
15.88233987271068
 20
10.43298961617664
 30
0.0
 10
15.90434477591012
 20
10.43188760453479
 30
0.0
  0
SPLINE
  5
CA
330
1F
100
AcDbEntity
  8
0
  6
Continuous
 62
     7
370
    25
100
AcDbSpline
210
0.0
220
0.0
230
1.0
 70
     8
 71
     3
 72
    19
 73
    15
 74
     0
 42
0.00000001
 43
0.00000001
 40
0.0
 40
0.0
 40
0.0
 40
0.0
 40
0.1128134007444645
 40
0.2253938839207284
 40
0.3395948145627029
 40
0.4596754102248663
 40
0.5217351900879328
 40
0.5839258387389186
 40
0.6481741447653734
 40
0.7138810381130674
 40
0.7810044549073896
 40
0.8514509275565524
 40
0.9240506926641794
 40
1.0
 40
1.0
 40
1.0
 40
1.0
 10
15.90434477591012
 20
10.43188760453479
 30
0.0
 10
15.92649201685626
 20
10.43280062214139
 30
0.0
 10
15.97074077296181
 20
10.43462477231399
 30
0.0
 10
16.03538865590144
 20
10.45222405081355
 30
0.0
 10
16.09814881023416
 20
10.47877807336423
 30
0.0
 10
16.1473327761078
 20
10.51017664788951
 30
0.0
 10
16.18475137239434
 20
10.5400785504331
 30
0.0
 10
16.21156108102629
 20
10.56557263518333
 30
0.0
 10
16.23616796584529
 20
10.59411884507271
 30
0.0
 10
16.25950629433364
 20
10.62491844273838
 30
0.0
 10
16.28091148043357
 20
10.65855986226626
 30
0.0
 10
16.30037613054511
 20
10.69488133384684
 30
0.0
 10
16.31813804342807
 20
10.73398372122523
 30
0.0
 10
16.32825749825679
 20
10.7612807150057
 30
0.0
 10
16.33343131437166
 20
10.77523696350915
 30
0.0
  0
SPLINE
  5
CB
330
1F
100
AcDbEntity
  8
0
  6
Continuous
 62
     7
370
    25
100
AcDbSpline
210
0.0
220
0.0
230
1.0
 70
     8
 71
     3
 72
    15
 73
    11
 74
     0
 42
0.00000001
 43
0.00000001
 40
0.0
 40
0.0
 40
0.0
 40
0.0
 40
0.1105883385953366
 40
0.2245417540535964
 40
0.3425034940501038
 40
0.4643240984173583
 40
0.590756032701769
 40
0.7222274753555167
 40
0.8588428362087251
 40
1.0
 40
1.0
 40
1.0
 40
1.0
 10
16.33343131437166
 20
10.77523696350915
 30
0.0
 10
16.3394608959681
 20
10.79308252891848
 30
0.0
 10
16.3517035324438
 20
10.82931667991475
 30
0.0
 10
16.36748168916992
 20
10.8855244811036
 30
0.0
 10
16.37990763157203
 20
10.94449748906813
 30
0.0
 10
16.39108669771458
 20
11.00588327005011
 30
0.0
 10
16.3987170153702
 20
11.07013452777066
 30
0.0
 10
16.40485862296062
 20
11.13705246143681
 30
0.0
 10
16.40847615835449
 20
11.20668752557134
 30
0.0
 10
16.4089245875381
 20
11.25399894911149
 30
0.0
 10
16.40915246821782
 20
11.27804145068864
 30
0.0
  0
SPLINE
  5
CC
330
1F
100
AcDbEntity
  8
0
  6
Continuous
 62
     7
370
    25
100
AcDbSpline
210
0.0
220
0.0
230
1.0
 70
     8
 71
     3
 72
    27
 73
    23
 74
     0
 42
0.00000001
 43
0.00000001
 40
0.0
 40
0.0
 40
0.0
 40
0.0
 40
0.0656811979906397
 40
0.1284864641740652
 40
0.1881751303280091
 40
0.2451061306699871
 40
0.2994484245294754
 40
0.3508229360093815
 40
0.3999416805337778
 40
0.4466717436323722
 40
0.4912545333734981
 40
0.5333763442704355
 40
0.5738527549682235
 40
0.6125263117194528
 40
0.649597136445328
 40
0.68553204155385
 40
0.7201057860682005
 40
0.753837662973647
 40
0.8189254160467124
 40
0.8804934616501612
 40
0.9403113338460579
 40
1.0
 40
1.0
 40
1.0
 40
1.0
 10
16.40915246821782
 20
11.27804145068864
 30
0.0
 10
16.40883807437042
 20
11.30208006355609
 30
0.0
 10
16.40822305279583
 20
11.34910472914499
 30
0.0
 10
16.4058722026809
 20
11.41797226095192
 30
0.0
 10
16.39980158868547
 20
11.48338241004286
 30
0.0
 10
16.39305923504861
 20
11.54561696585105
 30
0.0
 10
16.38311796585312
 20
11.60433142453932
 30
0.0
 10
16.3723992190644
 20
11.66001731325723
 30
0.0
 10
16.35799852632712
 20
11.71198475601113
 30
0.0
 10
16.34261579777056
 20
11.76104737413205
 30
0.0
 10
16.32500985746688
 20
11.80664774813251
 30
0.0
 10
16.30562943789113
 20
11.84899848319648
 30
0.0
 10
16.28493129002311
 20
11.88830404020037
 30
0.0
 10
16.26245000976068
 20
11.9244565782441
 30
0.0
 10
16.23845247658052
 20
11.95761803133617
 30
0.0
 10
16.21230530561048
 20
11.98712351394022
 30
0.0
 10
16.18504566400428
 20
12.01388749571652
 30
0.0
 10
16.1468644149622
 20
12.04443753521459
 30
0.0
 10
16.09687910650483
 20
12.07558707549067
 30
0.0
 10
16.03468159373772
 20
12.1042532239823
 30
0.0
 10
15.9699555113085
 20
12.12071510547996
 30
0.0
 10
15.92619925182734
 20
12.12303606950175
 30
0.0
 10
15.90434477591012
 20
12.12419529684249
 30
0.0
  0
SPLINE
  5
CD
330
1F
100
AcDbEntity
  8
0
  6
Continuous
 62
     7
370
    25
100
AcDbSpline
210
0.0
220
0.0
230
1.0
 70
     8
 71
     3
 72
    23
 73
    19
 74
     0
 42
0.00000001
 43
0.00000001
 40
0.0
 40
0.0
 40
0.0
 40
0.0
 40
0.0611379149156199
 40
0.1199938438512126
 40
0.1782253215076157
 40
0.2362564202618976
 40
0.2949293769549089
 40
0.3547157488097533
 40
0.4167296639241626
 40
0.4806644084708265
 40
0.545831770210865
 40
0.6097581054261642
 40
0.6729712284742206
 40
0.7360168691676618
 40
0.7998393981920314
 40
0.8647753566655655
 40
0.9310876232725684
 40
1.0
 40
1.0
 40
1.0
 40
1.0
 10
11.76812682719218
 20
10.82852221991941
 30
0.0
 10
11.76781237405218
 20
10.84217624901499
 30
0.0
 10
11.76719520480408
 20
10.86897466759855
 30
0.0
 10
11.76021466275744
 20
10.90822473516199
 30
0.0
 10
11.75053330626589
 20
10.94612485300292
 30
0.0
 10
11.73591443157462
 20
10.98243682387908
 30
0.0
 10
11.71692212029439
 20
11.01701735373087
 30
0.0
 10
11.69378874484826
 20
11.05004112568315
 30
0.0
 10
11.66702727609943
 20
11.08176132414221
 30
0.0
 10
11.63611439633188
 20
11.11122578607085
 30
0.0
 10
11.60246283407415
 20
11.13816697346351
 30
0.0
 10
11.56668249957535
 20
11.16194957711954
 30
0.0
 10
11.52924937174766
 20
11.18202099235971
 30
0.0
 10
11.49020140463724
 20
11.19876790794068
 30
0.0
 10
11.44909118598021
 20
11.21085332173016
 30
0.0
 10
11.40658242073115
 20
11.22036946062634
 30
0.0
 10
11.36213142493451
 20
11.22543347075538
 30
0.0
 10
11.33197336303988
 20
11.22631179370186
 30
0.0
 10
11.31660439129474
 20
11.22675939940659
 30
0.0
  0
SPLINE
  5
CE
330
1F
100
AcDbEntity
  8
0
  6
Continuous
 62
     7
370
    25
100
AcDbSpline
210
0.0
220
0.0
230
1.0
 70
     8
 71
     3
 72
    23
 73
    19
 74
     0
 42
0.00000001
 43
0.00000001
 40
0.0
 40
0.0
 40
0.0
 40
0.0
 40
0.0705992894335894
 40
0.1379009210036195
 40
0.2031961978097323
 40
0.2667897246502601
 40
0.3291063872214237
 40
0.390653545234859
 40
0.4526530569344803
 40
0.5157480403003715
 40
0.5779263408004529
 40
0.6389300116184455
 40
0.6983507176418216
 40
0.7572960374442724
 40
0.8163937673501548
 40
0.8762669096141298
 40
0.9368171089060849
 40
0.9999999999999999
 40
0.9999999999999999
 40
0.9999999999999999
 40
0.9999999999999999
 10
11.31660439129474
 20
11.22675939940659
 30
0.0
 10
11.30136882281941
 20
11.22631480301654
 30
0.0
 10
11.27160933173081
 20
11.22544637711374
 30
0.0
 10
11.22794795189013
 20
11.22040337601375
 30
0.0
 10
11.18662609391999
 20
11.21090676711044
 30
0.0
 10
11.14709630326247
 20
11.19881172027469
 30
0.0
 10
11.11009761588753
 20
11.18218140043718
 30
0.0
 10
11.07536113597423
 20
11.16198037246281
 30
0.0
 10
11.04275253489543
 20
11.13819684209326
 30
0.0
 10
11.01261336247878
 20
11.11116775003409
 30
0.0
 10
10.98528784056427
 20
11.08157458832715
 30
0.0
 10
10.96175576583922
 20
11.04987771851229
 30
0.0
 10
10.94145725150043
 20
11.01684103102324
 30
0.0
 10
10.92495335499603
 20
10.98218849262503
 30
0.0
 10
10.91210188312989
 20
10.94593335000246
 30
0.0
 10
10.90280573977563
 20
10.90824235035571
 30
0.0
 10
10.89763216764931
 20
10.86886274685501
 30
0.0
 10
10.89677146393192
 20
10.84215845958102
 30
0.0
 10
10.8963319553973
 20
10.82852221991941
 30
0.0
  0
SPLINE
  5
CF
330
1F
100
AcDbEntity
  8
0
  6
Continuous
 62
     7
370
    25
100
AcDbSpline
210
0.0
220
0.0
230
1.0
 70
     8
 71
     3
 72
    23
 73
    19
 74
     0
 42
0.00000001
 43
0.00000001
 40
0.0
 40
0.0
 40
0.0
 40
0.0
 40
0.0618417029839097
 40
0.121262373094448
 40
0.1807459488653176
 40
0.2392309018221068
 40
0.2983075587884657
 40
0.3581827976158481
 40
0.4203592307800693
 40
0.4847924155141845
 40
0.5499384837666865
 40
0.6137182775404278
 40
0.6766807072496335
 40
0.7391541704483177
 40
0.8021997032403512
 40
0.8667401776162981
 40
0.9320496524002442
 40
1.0
 40
1.0
 40
1.0
 40
1.0
 10
10.8963319553973
 20
10.82852221991941
 30
0.0
 10
10.89668987624323
 20
10.81500794570055
 30
0.0
 10
10.89739170573795
 20
10.78850846584543
 30
0.0
 10
10.90376445994858
 20
10.7494575060915
 30
0.0
 10
10.91349879270497
 20
10.7118775584329
 30
0.0
 10
10.92797901891116
 20
10.67596235912774
 30
0.0
 10
10.94525152643394
 20
10.64116446310924
 30
0.0
 10
10.96805456882769
 20
10.6087442999825
 30
0.0
 10
10.99332130358877
 20
10.57673283135776
 30
0.0
 10
11.02352355127324
 20
10.54758913339963
 30
0.0
 10
11.05593690154675
 20
10.52047106244201
 30
0.0
 10
11.09056616012155
 20
10.49676806043188
 30
0.0
 10
11.12665756575413
 20
10.47649024706149
 30
0.0
 10
11.16469837836848
 20
10.46059819128008
 30
0.0
 10
11.20414888349288
 20
10.44755574165314
 30
0.0
 10
11.24533777151918
 20
10.43837775350564
 30
0.0
 10
11.28829368896544
 20
10.433188881508
 30
0.0
 10
11.31739193926356
 20
10.43232705658963
 30
0.0
 10
11.33222939129474
 20
10.43188760453479
 30
0.0
  0
SPLINE
  5
D0
330
1F
100
AcDbEntity
  8
0
  6
Continuous
 62
     7
370
    25
100
AcDbSpline
210
0.0
220
0.0
230
1.0
 70
     8
 71
     3
 72
    23
 73
    19
 74
     0
 42
0.00000001
 43
0.00000001
 40
0.0
 40
0.0
 40
0.0
 40
0.0
 40
0.0679623714944525
 40
0.1332834028675197
 40
0.1978352977570524
 40
0.2608919865309878
 40
0.3233765044831753
 40
0.3863500754690888
 40
0.4496377310517117
 40
0.514795326978355
 40
0.5792399132410264
 40
0.6418141777582866
 40
0.7013585647860562
 40
0.7607267659857184
 40
0.819222067924386
 40
0.8787161693846278
 40
0.9381473540533074
 40
0.9999999999999999
 40
0.9999999999999999
 40
0.9999999999999999
 40
0.9999999999999999
 10
11.33222939129474
 20
10.43188760453479
 30
0.0
 10
11.34706681901824
 20
10.43232709104553
 30
0.0
 10
11.37616502164571
 20
10.43318898353659
 30
0.0
 10
11.41912128463454
 20
10.43837736573093
 30
0.0
 10
11.46030889528302
 20
10.44755716454936
 30
0.0
 10
11.49976404305149
 20
10.46059303327241
 30
0.0
 10
11.53778771794628
 20
10.47650938160851
 30
0.0
 10
11.57384755880927
 20
10.49664190717379
 30
0.0
 10
11.60814932654945
 20
10.52061683160314
 30
0.0
 10
11.64058395486217
 20
10.54754279058903
 30
0.0
 10
11.67066049105596
 20
10.57689870599038
 30
0.0
 10
11.69653322184001
 20
10.60845854737715
 30
0.0
 10
11.71863792654921
 20
10.64142648756412
 30
0.0
 10
11.73660031915944
 20
10.67582528178199
 30
0.0
 10
11.75092105705516
 20
10.71189927471652
 30
0.0
 10
11.76070475259284
 20
10.74945168838449
 30
0.0
 10
11.76706434626377
 20
10.78850998893583
 30
0.0
 10
11.76776798411556
 20
10.8150084601102
 30
0.0
 10
11.76812682719217
 20
10.82852221991941
 30
0.0
  0
MTEXT
  5
D2
330
1F
100
AcDbEntity
  8
0
  6
Continuous
 62
     7
100
AcDbMText
 10
0.0
 20
-1.0195663917
 30
0.0
 40
4.83362
 41
0.0
 71
     1
 72
     1
  1
SOLIDWORKS Educational Product.
  7
SLDTEXTSTYLE0
 73
     1
 44
1.0
  0
MTEXT
  5
D3
330
1F
100
AcDbEntity
  8
0
  6
Continuous
 62
     7
100
AcDbMText
 10
0.0
 20
-8.2699963917
 30
0.0
 40
4.83362
 41
0.0
 71
     1
 72
     1
  1
For Instructional Use Only.
  7
SLDTEXTSTYLE0
 73
     1
 44
1.0
  0
ENDSEC
  0
SECTION
  2
OBJECTS
  0
DICTIONARY
  5
C
330
0
100
AcDbDictionary
281
     1
  3
ACAD_GROUP
350
D
  3
ACAD_LAYOUT
350
1A
  3
ACAD_MLINESTYLE
350
17
  3
ACAD_PLOTSETTINGS
350
19
  3
ACAD_PLOTSTYLENAME
350
E
  3
ACAD_SCALELIST
350
47
  3
DWGPROPS
350
D4
  0
DICTIONARY
  5
D
102
{ACAD_REACTORS
330
C
102
}
330
C
100
AcDbDictionary
281
     1
  0
DICTIONARY
  5
1A
102
{ACAD_REACTORS
330
C
102
}
330
C
100
AcDbDictionary
281
     1
  3
Layout1
350
1E
  3
Layout2
350
26
  3
Model
350
22
  0
DICTIONARY
  5
17
102
{ACAD_REACTORS
330
C
102
}
330
C
100
AcDbDictionary
281
     1
  3
Standard
350
18
  0
DICTIONARY
  5
19
102
{ACAD_REACTORS
330
C
102
}
330
C
100
AcDbDictionary
281
     1
  0
ACDBDICTIONARYWDFLT
  5
E
102
{ACAD_REACTORS
330
C
102
}
330
C
100
AcDbDictionary
281
     1
  3
Normal
350
F
100
AcDbDictionaryWithDefault
340
F
  0
DICTIONARY
  5
47
102
{ACAD_REACTORS
330
C
102
}
330
C
100
AcDbDictionary
281
     1
  3
A0
350
48
  3
A1
350
49
  3
A2
350
4A
  3
A3
350
4B
  3
A4
350
4C
  3
A5
350
4D
  3
A6
350
4E
  3
A7
350
4F
  3
A8
350
50
  3
A9
350
51
  3
B0
350
52
  3
B1
350
53
  3
B2
350
54
  3
B3
350
55
  3
B4
350
56
  3
B5
350
57
  3
B6
350
58
  0
XRECORD
  5
D4
102
{ACAD_REACTORS
330
C
102
}
330
C
100
AcDbXrecord
280
     1
  1
DWGPROPS COOKIE
  2

  3

  4

  6

  7

  8
timai
  9

300
=
301
=
302
=
303
=
304
=
305
=
306
=
307
=
308
=
309
=
 40
0.0
 41
2460482.976329456
 42
2460482.976377014
  1

 90
        0
  0
LAYOUT
  5
1E
102
{ACAD_REACTORS
330
1A
102
}
330
1A
100
AcDbPlotSettings
  1

  2
none_device
  4

  6

 40
0.0
 41
0.0
 42
0.0
 43
0.0
 44
0.0
 45
0.0
 46
0.0
 47
0.0
 48
0.0
 49
0.0
140
0.0
141
0.0
142
1.0
143
1.0
 70
   688
 72
     1
 73
     0
 74
     5
  7

 75
    16
147
1.0
148
0.0
149
0.0
100
AcDbLayout
  1
Layout1
 70
     1
 71
     1
 10
0.0
 20
0.0
 11
420.0
 21
297.0
 12
0.0
 22
0.0
 32
0.0
 14
1.0000000000E+20
 24
1.0000000000E+20
 34
1.0000000000E+20
 15
-1.0000000000E+20
 25
-1.0000000000E+20
 35
-1.0000000000E+20
146
0.0
 13
0.0
 23
0.0
 33
0.0
 16
1.0
 26
0.0
 36
0.0
 17
0.0
 27
1.0
 37
0.0
 76
     0
330
1B
  0
LAYOUT
  5
26
102
{ACAD_REACTORS
330
1A
102
}
330
1A
100
AcDbPlotSettings
  1

  2
none_device
  4

  6

 40
0.0
 41
0.0
 42
0.0
 43
0.0
 44
0.0
 45
0.0
 46
0.0
 47
0.0
 48
0.0
 49
0.0
140
0.0
141
0.0
142
1.0
143
1.0
 70
   688
 72
     1
 73
     0
 74
     5
  7

 75
    16
147
1.0
148
0.0
149
0.0
100
AcDbLayout
  1
Layout2
 70
     1
 71
     2
 10
0.0
 20
0.0
 11
0.0
 21
0.0
 12
0.0
 22
0.0
 32
0.0
 14
0.0
 24
0.0
 34
0.0
 15
0.0
 25
0.0
 35
0.0
146
0.0
 13
0.0
 23
0.0
 33
0.0
 16
1.0
 26
0.0
 36
0.0
 17
0.0
 27
1.0
 37
0.0
 76
     0
330
23
  0
LAYOUT
  5
22
102
{ACAD_REACTORS
330
1A
102
}
330
1A
100
AcDbPlotSettings
  1

  2
none_device
  4
ANSI_A_(11.00_x_8.50_Inches)
  6

 40
6.35
 41
19.05
 42
6.35000508
 43
19.05000254
 44
279.4
 45
215.9
 46
-4.95300254
 47
-16.4737155557
 48
0.0
 49
0.0
140
0.0
141
0.0
142
0.5185714286
143
1.0
 70
  1696
 72
     0
 73
     0
 74
     0
  7

 75
     0
147
0.0179189148
148
-1300.4909072572
149
0.0
100
AcDbLayout
  1
Model
 70
     1
 71
     0
 10
0.0
 20
0.0
 11
420.0
 21
297.0
 12
0.0
 22
0.0
 32
0.0
 14
0.0
 24
0.0
 34
0.0
 15
21.0
 25
16.0
 35
0.0
146
0.0
 13
0.0
 23
0.0
 33
0.0
 16
1.0
 26
0.0
 36
0.0
 17
0.0
 27
1.0
 37
0.0
 76
     0
330
1F
331
29
  0
MLINESTYLE
  5
18
102
{ACAD_REACTORS
330
17
102
}
330
17
100
AcDbMlineStyle
  2
Standard
 70
     0
  3

 62
   256
 51
90.0
 52
90.0
 71
     2
 49
0.5
 62
   256
  6
BYLAYER
 49
-0.5
 62
   256
  6
BYLAYER
  0
ACDBPLACEHOLDER
  5
F
102
{ACAD_REACTORS
330
E
102
}
330
E
  0
SCALE
  5
48
102
{ACAD_REACTORS
330
47
102
}
330
47
100
AcDbScale
 70
     0
300
1:1
140
1.0
141
1.0
290
     1
  0
SCALE
  5
49
102
{ACAD_REACTORS
330
47
102
}
330
47
100
AcDbScale
 70
     0
300
1:2
140
1.0
141
2.0
290
     0
  0
SCALE
  5
4A
102
{ACAD_REACTORS
330
47
102
}
330
47
100
AcDbScale
 70
     0
300
1:4
140
1.0
141
4.0
290
     0
  0
SCALE
  5
4B
102
{ACAD_REACTORS
330
47
102
}
330
47
100
AcDbScale
 70
     0
300
1:5
140
1.0
141
5.0
290
     0
  0
SCALE
  5
4C
102
{ACAD_REACTORS
330
47
102
}
330
47
100
AcDbScale
 70
     0
300
1:8
140
1.0
141
8.0
290
     0
  0
SCALE
  5
4D
102
{ACAD_REACTORS
330
47
102
}
330
47
100
AcDbScale
 70
     0
300
1:10
140
1.0
141
10.0
290
     0
  0
SCALE
  5
4E
102
{ACAD_REACTORS
330
47
102
}
330
47
100
AcDbScale
 70
     0
300
1:16
140
1.0
141
16.0
290
     0
  0
SCALE
  5
4F
102
{ACAD_REACTORS
330
47
102
}
330
47
100
AcDbScale
 70
     0
300
1:20
140
1.0
141
20.0
290
     0
  0
SCALE
  5
50
102
{ACAD_REACTORS
330
47
102
}
330
47
100
AcDbScale
 70
     0
300
1:30
140
1.0
141
30.0
290
     0
  0
SCALE
  5
51
102
{ACAD_REACTORS
330
47
102
}
330
47
100
AcDbScale
 70
     0
300
1:40
140
1.0
141
40.0
290
     0
  0
SCALE
  5
52
102
{ACAD_REACTORS
330
47
102
}
330
47
100
AcDbScale
 70
     0
300
1:50
140
1.0
141
50.0
290
     0
  0
SCALE
  5
53
102
{ACAD_REACTORS
330
47
102
}
330
47
100
AcDbScale
 70
     0
300
1:100
140
1.0
141
100.0
290
     0
  0
SCALE
  5
54
102
{ACAD_REACTORS
330
47
102
}
330
47
100
AcDbScale
 70
     0
300
2:1
140
2.0
141
1.0
290
     0
  0
SCALE
  5
55
102
{ACAD_REACTORS
330
47
102
}
330
47
100
AcDbScale
 70
     0
300
4:1
140
4.0
141
1.0
290
     0
  0
SCALE
  5
56
102
{ACAD_REACTORS
330
47
102
}
330
47
100
AcDbScale
 70
     0
300
8:1
140
8.0
141
1.0
290
     0
  0
SCALE
  5
57
102
{ACAD_REACTORS
330
47
102
}
330
47
100
AcDbScale
 70
     0
300
10:1
140
10.0
141
1.0
290
     0
  0
SCALE
  5
58
102
{ACAD_REACTORS
330
47
102
}
330
47
100
AcDbScale
 70
     0
300
100:1
140
100.0
141
1.0
290
     0
  0
ENDSEC
  0
EOF
