  0
SECTION
  2
HEADER
  9
$ACADVER
  1
AC1015
  9
$ACADMAINTVER
 70
     6
  9
$DWGCODEPAGE
  3
ANSI_1252
  9
$INSBASE
 10
0.0
 20
0.0
 30
0.0
  9
$EXTMIN
 10
51.205593343
 20
74.060982754
 30
0.0
  9
$EXTMAX
 10
72.205593343
 20
92.060982754
 30
0.0
  9
$LIMMIN
 10
0.0
 20
0.0
  9
$LIMMAX
 10
420.0
 20
297.0
  9
$ORTHOMODE
 70
     0
  9
$REGENMODE
 70
     1
  9
$FILLMODE
 70
     1
  9
$QTEXTMODE
 70
     0
  9
$MIRRTEXT
 70
     1
  9
$LTSCALE
 40
1.0
  9
$ATTMODE
 70
     1
  9
$TEXTSIZE
 40
3.5
  9
$TRACEWID
 40
1.0
  9
$TEXTSTYLE
  7
Standard
  9
$CLAYER
  8
0
  9
$CELTYPE
  6
ByLayer
  9
$CECOLOR
 62
   256
  9
$CELTSCALE
 40
1.0
  9
$DISPSILH
 70
     0
  9
$DIMSCALE
 40
1.0
  9
$DIMASZ
 40
3.302
  9
$DIMEXO
 40
0.0
  9
$DIMDLI
 40
3.75
  9
$DIMRND
 40
0.0
  9
$DIMDLE
 40
0.0
  9
$DIMEXE
 40
1.0
  9
$DIMTP
 40
0.0
  9
$DIMTM
 40
0.0
  9
$DIMTXT
 40
3.5
  9
$DIMCEN
 40
2.5
  9
$DIMTSZ
 40
0.0
  9
$DIMTOL
 70
     0
  9
$DIMLIM
 70
     0
  9
$DIMTIH
 70
     1
  9
$DIMTOH
 70
     1
  9
$DIMSE1
 70
     0
  9
$DIMSE2
 70
     0
  9
$DIMTAD
 70
     1
  9
$DIMZIN
 70
     1
  9
$DIMBLK
  1

  9
$DIMASO
 70
     1
  9
$DIMSHO
 70
     1
  9
$DIMPOST
  1

  9
$DIMAPOST
  1

  9
$DIMALT
 70
     0
  9
$DIMALTD
 70
     3
  9
$DIMALTF
 40
0.0393700787
  9
$DIMLFAC
 40
1.0
  9
$DIMTOFL
 70
     1
  9
$DIMTVP
 40
0.0
  9
$DIMTIX
 70
     0
  9
$DIMSOXD
 70
     0
  9
$DIMSAH
 70
     0
  9
$DIMBLK1
  1

  9
$DIMBLK2
  1

  9
$DIMSTYLE
  2
ISO-25
  9
$DIMCLRD
 70
     0
  9
$DIMCLRE
 70
     0
  9
$DIMCLRT
 70
     0
  9
$DIMTFAC
 40
1.0
  9
$DIMGAP
 40
1.524
  9
$DIMJUST
 70
     0
  9
$DIMSD1
 70
     0
  9
$DIMSD2
 70
     0
  9
$DIMTOLJ
 70
     0
  9
$DIMTZIN
 70
     1
  9
$DIMALTZ
 70
     0
  9
$DIMALTTZ
 70
     0
  9
$DIMUPT
 70
     0
  9
$DIMDEC
 70
     2
  9
$DIMTDEC
 70
     2
  9
$DIMALTU
 70
     2
  9
$DIMALTTD
 70
     3
  9
$DIMTXSTY
  7
Standard
  9
$DIMAUNIT
 70
     0
  9
$DIMADEC
 70
     2
  9
$DIMALTRND
 40
0.0
  9
$DIMAZIN
 70
     0
  9
$DIMDSEP
 70
    44
  9
$DIMATFIT
 70
     3
  9
$DIMFRAC
 70
     0
  9
$DIMLDRBLK
  1

  9
$DIMLUNIT
 70
     2
  9
$DIMLWD
 70
    -2
  9
$DIMLWE
 70
    -2
  9
$DIMTMOVE
 70
     0
  9
$LUNITS
 70
     2
  9
$LUPREC
 70
     2
  9
$SKETCHINC
 40
1.0
  9
$FILLETRAD
 40
0.0
  9
$AUNITS
 70
     0
  9
$AUPREC
 70
     2
  9
$MENU
  1
.
  9
$ELEVATION
 40
0.0
  9
$PELEVATION
 40
0.0
  9
$THICKNESS
 40
0.0
  9
$LIMCHECK
 70
     0
  9
$CHAMFERA
 40
0.0
  9
$CHAMFERB
 40
0.0
  9
$CHAMFERC
 40
0.0
  9
$CHAMFERD
 40
0.0
  9
$SKPOLY
 70
     0
  9
$TDCREATE
 40
2460483.4594039
  9
$TDUCREATE
 40
2460482.9594039
  9
$TDUPDATE
 40
2460483.459439722
  9
$TDUUPDATE
 40
2460482.959439722
  9
$TDINDWG
 40
0.0000000116
  9
$TDUSRTIMER
 40
0.0000000116
  9
$USRTIMER
 70
     1
  9
$ANGBASE
 50
0.0
  9
$ANGDIR
 70
     0
  9
$PDMODE
 70
     0
  9
$PDSIZE
 40
-1.0
  9
$PLINEWID
 40
0.0
  9
$SPLFRAME
 70
     0
  9
$SPLINETYPE
 70
     6
  9
$SPLINESEGS
 70
     8
  9
$HANDSEED
  5
CF
  9
$SURFTAB1
 70
     6
  9
$SURFTAB2
 70
     6
  9
$SURFTYPE
 70
     6
  9
$SURFU
 70
     6
  9
$SURFV
 70
     6
  9
$UCSBASE
  2

  9
$UCSNAME
  2

  9
$UCSORG
 10
0.0
 20
0.0
 30
0.0
  9
$UCSXDIR
 10
1.0
 20
0.0
 30
0.0
  9
$UCSYDIR
 10
0.0
 20
1.0
 30
0.0
  9
$UCSORTHOREF
  2

  9
$UCSORTHOVIEW
 70
     0
  9
$UCSORGTOP
 10
0.0
 20
0.0
 30
0.0
  9
$UCSORGBOTTOM
 10
0.0
 20
0.0
 30
0.0
  9
$UCSORGLEFT
 10
0.0
 20
0.0
 30
0.0
  9
$UCSORGRIGHT
 10
0.0
 20
0.0
 30
0.0
  9
$UCSORGFRONT
 10
0.0
 20
0.0
 30
0.0
  9
$UCSORGBACK
 10
0.0
 20
0.0
 30
0.0
  9
$PUCSBASE
  2

  9
$PUCSNAME
  2

  9
$PUCSORG
 10
0.0
 20
0.0
 30
0.0
  9
$PUCSXDIR
 10
1.0
 20
0.0
 30
0.0
  9
$PUCSYDIR
 10
0.0
 20
1.0
 30
0.0
  9
$PUCSORTHOREF
  2

  9
$PUCSORTHOVIEW
 70
     0
  9
$PUCSORGTOP
 10
0.0
 20
0.0
 30
0.0
  9
$PUCSORGBOTTOM
 10
0.0
 20
0.0
 30
0.0
  9
$PUCSORGLEFT
 10
0.0
 20
0.0
 30
0.0
  9
$PUCSORGRIGHT
 10
0.0
 20
0.0
 30
0.0
  9
$PUCSORGFRONT
 10
0.0
 20
0.0
 30
0.0
  9
$PUCSORGBACK
 10
0.0
 20
0.0
 30
0.0
  9
$USERI1
 70
     0
  9
$USERI2
 70
     0
  9
$USERI3
 70
     0
  9
$USERI4
 70
     0
  9
$USERI5
 70
     0
  9
$USERR1
 40
0.0
  9
$USERR2
 40
0.0
  9
$USERR3
 40
0.0
  9
$USERR4
 40
0.0
  9
$USERR5
 40
0.0
  9
$WORLDVIEW
 70
     1
  9
$SHADEDGE
 70
     3
  9
$SHADEDIF
 70
    70
  9
$TILEMODE
 70
     1
  9
$MAXACTVP
 70
    64
  9
$PINSBASE
 10
0.0
 20
0.0
 30
0.0
  9
$PLIMCHECK
 70
     0
  9
$PEXTMIN
 10
1.0000000000E+20
 20
1.0000000000E+20
 30
1.0000000000E+20
  9
$PEXTMAX
 10
-1.0000000000E+20
 20
-1.0000000000E+20
 30
-1.0000000000E+20
  9
$PLIMMIN
 10
0.0
 20
0.0
  9
$PLIMMAX
 10
420.0
 20
297.0
  9
$UNITMODE
 70
     0
  9
$VISRETAIN
 70
     1
  9
$PLINEGEN
 70
     0
  9
$PSLTSCALE
 70
     1
  9
$TREEDEPTH
 70
  3020
  9
$CMLSTYLE
  2
Standard
  9
$CMLJUST
 70
     0
  9
$CMLSCALE
 40
20.0
  9
$PROXYGRAPHICS
 70
     1
  9
$MEASUREMENT
 70
     1
  9
$CELWEIGHT
370
    -1
  9
$ENDCAPS
280
     0
  9
$JOINSTYLE
280
     0
  9
$LWDISPLAY
290
     1
  9
$INSUNITS
 70
     4
  9
$HYPERLINKBASE
  1

  9
$STYLESHEET
  1

  9
$XEDIT
290
     1
  9
$CEPSNTYPE
380
     0
  9
$PSTYLEMODE
290
     1
  9
$FINGERPRINTGUID
  2
{2232d51f-0b75-420c-aef2-fe5cc006fedb}
  9
$VERSIONGUID
  2
{FAEB1C32-E019-11D5-929B-00C0DF256EC4}
  9
$EXTNAMES
290
     1
  9
$PSVPSCALE
 40
0.0
  9
$OLESTARTUP
290
     0
  0
ENDSEC
  0
SECTION
  2
CLASSES
  0
CLASS
  1
ACDBDICTIONARYWDFLT
  2
AcDbDictionaryWithDefault
  3
ObjectDBX Classes
 90
        0
280
     0
281
     0
  0
CLASS
  1
VISUALSTYLE
  2
AcDbVisualStyle
  3
ObjectDBX Classes
 90
     4095
280
     0
281
     0
  0
CLASS
  1
MATERIAL
  2
AcDbMaterial
  3
ObjectDBX Classes
 90
     1153
280
     0
281
     0
  0
CLASS
  1
SCALE
  2
AcDbScale
  3
ObjectDBX Classes
 90
     1153
280
     0
281
     0
  0
CLASS
  1
TABLESTYLE
  2
AcDbTableStyle
  3
ObjectDBX Classes
 90
     4095
280
     0
281
     0
  0
CLASS
  1
MLEADERSTYLE
  2
AcDbMLeaderStyle
  3
ACDB_MLEADERSTYLE_CLASS
 90
     4095
280
     0
281
     0
  0
CLASS
  1
SUN
  2
AcDbSun
  3
SCENEOE
 90
     1153
280
     0
281
     0
  0
CLASS
  1
ACDBPLACEHOLDER
  2
AcDbPlaceHolder
  3
ObjectDBX Classes
 90
        0
280
     0
281
     0
  0
CLASS
  1
LAYOUT
  2
AcDbLayout
  3
ObjectDBX Classes
 90
        0
280
     0
281
     0
  0
ENDSEC
  0
SECTION
  2
TABLES
  0
TABLE
  2
VPORT
  5
8
330
0
100
AcDbSymbolTable
 70
     1
  0
VPORT
  5
29
330
8
100
AcDbSymbolTableRecord
100
AcDbViewportTableRecord
  2
*Active
 70
     0
 10
0.0
 20
0.0
 11
1.0
 21
1.0
 12
61.705593343
 22
83.060982754
 13
0.0
 23
0.0
 14
10.0
 24
10.0
 15
10.0
 25
10.0
 16
0.0
 26
0.0
 36
1.0
 17
0.0
 27
0.0
 37
0.0
 40
18.36
 41
1.1666666667
 42
50.0
 43
0.0
 44
0.0
 50
0.0
 51
0.0
 71
     0
 72
   100
 73
     1
 74
     3
 75
     0
 76
     0
 77
     0
 78
     0
281
     0
 65
     1
110
0.0
120
0.0
130
0.0
111
1.0
121
0.0
131
0.0
112
0.0
122
1.0
132
0.0
 79
     0
146
0.0
  0
ENDTAB
  0
TABLE
  2
LTYPE
  5
5
330
0
100
AcDbSymbolTable
 70
     6
  0
LTYPE
  5
14
330
5
100
AcDbSymbolTableRecord
100
AcDbLinetypeTableRecord
  2
ByBlock
 70
     0
  3

 72
    65
 73
     0
 40
0.0
  0
LTYPE
  5
15
330
5
100
AcDbSymbolTableRecord
100
AcDbLinetypeTableRecord
  2
ByLayer
 70
     0
  3

 72
    65
 73
     0
 40
0.0
  0
LTYPE
  5
16
330
5
100
AcDbSymbolTableRecord
100
AcDbLinetypeTableRecord
  2
Continuous
 70
     0
  3
Solid line
 72
    65
 73
     0
 40
0.0
  0
LTYPE
  5
5E
330
5
100
AcDbSymbolTableRecord
100
AcDbLinetypeTableRecord
  2
HIDDEN
 70
     0
  3
Hidden __ __ __ __ __ __ __ __ __ __ __ __ __ __
 72
    65
 73
     2
 40
1.905
 49
1.27
 74
     0
 49
-0.635
 74
     0
  0
LTYPE
  5
5F
330
5
100
AcDbSymbolTableRecord
100
AcDbLinetypeTableRecord
  2
PHANTOM
 70
     0
  3
Phantom ______  __  __  ______  __  __  ______
 72
    65
 73
     6
 40
12.7
 49
6.35
 74
     0
 49
-1.27
 74
     0
 49
1.27
 74
     0
 49
-1.27
 74
     0
 49
1.27
 74
     0
 49
-1.27
 74
     0
  0
LTYPE
  5
60
330
5
100
AcDbSymbolTableRecord
100
AcDbLinetypeTableRecord
  2
CENTER
 70
     0
  3
Center ____ _ ____ _ ____ _ ____ _ ____ _ ____
 72
    65
 73
     4
 40
10.16
 49
6.35
 74
     0
 49
-1.27
 74
     0
 49
1.27
 74
     0
 49
-1.27
 74
     0
  0
LTYPE
  5
61
330
5
100
AcDbSymbolTableRecord
100
AcDbLinetypeTableRecord
  2
CENTERX2
 70
     0
  3
Center (2x) ________  __  ________  __  _____
 72
    65
 73
     4
 40
20.32
 49
12.7
 74
     0
 49
-2.54
 74
     0
 49
2.54
 74
     0
 49
-2.54
 74
     0
  0
LTYPE
  5
62
330
5
100
AcDbSymbolTableRecord
100
AcDbLinetypeTableRecord
  2
DOT2
 70
     0
  3
Dot (.5x) ........................................
 72
    65
 73
     2
 40
0.635
 49
0.0
 74
     0
 49
-0.635
 74
     0
  0
ENDTAB
  0
TABLE
  2
LAYER
  5
2
330
0
100
AcDbSymbolTable
 70
     1
  0
LAYER
  5
10
330
2
100
AcDbSymbolTableRecord
100
AcDbLayerTableRecord
  2
0
 70
     0
 62
     7
  6
Continuous
370
    -3
390
F
  0
ENDTAB
  0
TABLE
  2
STYLE
  5
3
330
0
100
AcDbSymbolTable
 70
     2
  0
STYLE
  5
11
330
3
100
AcDbSymbolTableRecord
100
AcDbTextStyleTableRecord
  2
Standard
 70
     0
 40
0.0
 41
1.0
 50
0.0
 71
     0
 42
3.5
  3
txt
  4

  0
STYLE
  5
CB
330
3
100
AcDbSymbolTableRecord
100
AcDbTextStyleTableRecord
  2
SLDTEXTSTYLE0
 70
     0
 40
0.0
 41
0.7
 50
0.0
 71
     0
 42
3.5
  3
TXT
  4

  0
ENDTAB
  0
TABLE
  2
VIEW
  5
6
330
0
100
AcDbSymbolTable
 70
     0
  0
ENDTAB
  0
TABLE
  2
UCS
  5
7
330
0
100
AcDbSymbolTable
 70
     0
  0
ENDTAB
  0
TABLE
  2
APPID
  5
9
330
0
100
AcDbSymbolTable
 70
     1
  0
APPID
  5
12
330
9
100
AcDbSymbolTableRecord
100
AcDbRegAppTableRecord
  2
ACAD
 70
     0
  0
ENDTAB
  0
TABLE
  2
DIMSTYLE
  5
A
330
0
100
AcDbSymbolTable
 70
     1
100
AcDbDimStyleTable
  0
DIMSTYLE
105
27
330
A
100
AcDbSymbolTableRecord
100
AcDbDimStyleTableRecord
  2
ISO-25
 70
     0
 41
2.5
 42
0.625
 43
3.75
 44
1.25
 73
     0
 74
     0
 77
     1
 78
     8
140
2.5
141
2.5
143
0.0393700787
147
0.625
171
     3
172
     1
178
     0
271
     2
272
     2
274
     3
278
    44
283
     0
284
     8
340
11
  0
ENDTAB
  0
TABLE
  2
BLOCK_RECORD
  5
1
330
0
100
AcDbSymbolTable
 70
     1
  0
BLOCK_RECORD
  5
1F
330
1
100
AcDbSymbolTableRecord
100
AcDbBlockTableRecord
  2
*Model_Space
340
22
  0
BLOCK_RECORD
  5
1B
330
1
100
AcDbSymbolTableRecord
100
AcDbBlockTableRecord
  2
*Paper_Space
340
1E
  0
BLOCK_RECORD
  5
23
330
1
100
AcDbSymbolTableRecord
100
AcDbBlockTableRecord
  2
*Paper_Space0
340
26
  0
ENDTAB
  0
ENDSEC
  0
SECTION
  2
BLOCKS
  0
BLOCK
  5
20
330
1F
100
AcDbEntity
  8
0
100
AcDbBlockBegin
  2
*Model_Space
 70
     0
 10
0.0
 20
0.0
 30
0.0
  3
*Model_Space
  1

  0
ENDBLK
  5
21
330
1F
100
AcDbEntity
  8
0
100
AcDbBlockEnd
  0
BLOCK
  5
1C
330
1B
100
AcDbEntity
 67
     1
  8
0
100
AcDbBlockBegin
  2
*Paper_Space
 70
     0
 10
0.0
 20
0.0
 30
0.0
  3
*Paper_Space
  1

  0
ENDBLK
  5
1D
330
1B
100
AcDbEntity
 67
     1
  8
0
100
AcDbBlockEnd
  0
BLOCK
  5
24
330
23
100
AcDbEntity
  8
0
100
AcDbBlockBegin
  2
*Paper_Space0
 70
     0
 10
0.0
 20
0.0
 30
0.0
  3
*Paper_Space0
  1

  0
ENDBLK
  5
25
330
23
100
AcDbEntity
  8
0
100
AcDbBlockEnd
  0
ENDSEC
  0
SECTION
  2
ENTITIES
  0
LINE
  5
63
330
1F
100
AcDbEntity
  8
0
  6
Continuous
 62
     7
370
    25
100
AcDbLine
 10
62.229487137
 20
82.6282164363
 30
0.0
 11
62.1402443486
 21
82.6282164363
 31
0.0
  0
LINE
  5
64
330
1F
100
AcDbEntity
  8
0
  6
Continuous
 62
     7
370
    25
100
AcDbLine
 10
62.1402443486
 20
82.6282164363
 30
0.0
 11
62.1402443486
 21
82.0705241287
 31
0.0
  0
LINE
  5
65
330
1F
100
AcDbEntity
  8
0
  6
Continuous
 62
     7
370
    25
100
AcDbLine
 10
62.1402443486
 20
82.0705241287
 30
0.0
 11
62.3319510793
 21
82.0705241287
 31
0.0
  0
SPLINE
  5
66
330
1F
100
AcDbEntity
  8
0
  6
Continuous
 62
     7
370
    25
100
AcDbSpline
210
0.0
220
0.0
230
1.0
 70
     8
 71
     3
 72
    23
 73
    19
 74
     0
 42
0.00000001
 43
0.00000001
 40
0.0
 40
0.0
 40
0.0
 40
0.0
 40
0.0725024889330305
 40
0.1397389892678951
 40
0.2017951348259256
 40
0.2598219344148661
 40
0.3122059893845844
 40
0.3607734341243455
 40
0.4045403426007361
 40
0.4436980985527664
 40
0.5168407942439566
 40
0.58787433594427
 40
0.6579654175616289
 40
0.7289693886473059
 40
0.7993077199548803
 40
0.8666357778344717
 40
0.9331163290572713
 40
1.0
 40
1.0
 40
1.0
 40
1.0
 10
62.33195107934489
 20
82.070524128657
 30
0.0
 10
62.34567347616476
 20
82.07068859182705
 30
0.0
 10
62.37212158698357
 20
82.07100557290578
 30
0.0
 10
62.41030782846394
 20
82.07204038200322
 30
0.0
 10
62.44570058723586
 20
82.07439421444569
 30
0.0
 10
62.47813835969134
 20
82.0780995785873
 30
0.0
 10
62.50797141081876
 20
82.08211891394679
 30
0.0
 10
62.534841854974
 20
82.08752374862749
 30
0.0
 10
62.55896750931461
 20
82.09371616028126
 30
0.0
 10
62.58694221263151
 20
82.10328794838202
 30
0.0
 10
62.61844371618047
 20
82.11815786448936
 30
0.0
 10
62.65239122606006
 20
82.1405782472401
 30
0.0
 10
62.68257389097889
 20
82.16728823628556
 30
0.0
 10
62.70820471635314
 20
82.19820148521713
 30
0.0
 10
62.72921028287284
 20
82.23181491104351
 30
0.0
 10
62.74449119219441
 20
82.26744863245185
 30
0.0
 10
62.753915845074
 20
82.30451385848826
 30
0.0
 10
62.7550567747697
 20
82.32978530672098
 30
0.0
 10
62.75562896396027
 20
82.34245922481082
 30
0.0
  0
SPLINE
  5
67
330
1F
100
AcDbEntity
  8
0
  6
Continuous
 62
     7
370
    25
100
AcDbSpline
210
0.0
220
0.0
230
1.0
 70
     8
 71
     3
 72
    19
 73
    15
 74
     0
 42
0.00000001
 43
0.00000001
 40
0.0
 40
0.0
 40
0.0
 40
0.0
 40
0.0602873979279596
 40
0.1196023547074953
 40
0.1775033710185409
 40
0.2351426637323207
 40
0.2921325932269146
 40
0.3508712086415652
 40
0.4100978625665875
 40
0.4707315215304533
 40
0.5948287040804211
 40
0.7225788240942725
 40
0.8566913895440179
 40
1.0
 40
1.0
 40
1.0
 40
1.0
 10
62.75562896396027
 20
82.34245922481082
 30
0.0
 10
62.75551063352994
 20
82.35038494217443
 30
0.0
 10
62.75527588134978
 20
82.36610853436804
 30
0.0
 10
62.75173561781106
 20
82.38921531401999
 30
0.0
 10
62.7465868164709
 20
82.41159783115253
 30
0.0
 10
62.73993048766409
 20
82.43331686278887
 30
0.0
 10
62.73023643033934
 20
82.4539797383665
 30
0.0
 10
62.71891933961775
 20
82.47399512102513
 30
0.0
 10
62.70565016748431
 20
82.49338946934958
 30
0.0
 10
62.68497409639817
 20
82.51790900654214
 30
0.0
 10
62.65490038874674
 20
82.54615915492933
 30
0.0
 10
62.61216891355696
 20
82.5738180844722
 30
0.0
 10
62.56358078585582
 20
82.59612428750968
 30
0.0
 10
62.52834043175753
 20
82.60559549165475
 30
0.0
 10
62.51013617549874
 20
82.61048807096468
 30
0.0
  0
SPLINE
  5
68
330
1F
100
AcDbEntity
  8
0
  6
Continuous
 62
     7
370
    25
100
AcDbSpline
210
0.0
220
0.0
230
1.0
 70
     8
 71
     3
 72
    15
 73
    11
 74
     0
 42
0.00000001
 43
0.00000001
 40
0.0
 40
0.0
 40
0.0
 40
0.0
 40
0.0793064855230097
 40
0.1719528189279444
 40
0.2770565073915937
 40
0.3947305758644878
 40
0.5261773212767691
 40
0.6713447665976141
 40
0.8292852571892576
 40
1.0
 40
1.0
 40
1.0
 40
1.0
 10
62.51013617549874
 20
82.61048807096468
 30
0.0
 10
62.50283799156205
 20
82.61196882123129
 30
0.0
 10
62.4870140234125
 20
82.61517939323927
 30
0.0
 10
62.46121077465726
 20
82.61856840897755
 30
0.0
 10
62.43175254512771
 20
82.6215877203599
 30
0.0
 10
62.39857131203086
 20
82.62382107364436
 30
0.0
 10
62.36162509441069
 20
82.62612959230782
 30
0.0
 10
62.32083498640256
 20
82.62702737278877
 30
0.0
 10
62.27636756583433
 20
82.62809848425738
 30
0.0
 10
62.24551369194877
 20
82.62817611321816
 30
0.0
 10
62.2294871370372
 20
82.62821643634928
 30
0.0
  0
LINE
  5
69
330
1F
100
AcDbEntity
  8
0
  6
Continuous
 62
     7
370
    25
100
AcDbLine
 10
62.3229366563
 20
83.262831821
 30
0.0
 11
62.1402443486
 21
83.262831821
 31
0.0
  0
LINE
  5
6A
330
1F
100
AcDbEntity
  8
0
  6
Continuous
 62
     7
370
    25
100
AcDbLine
 10
62.1402443486
 20
83.262831821
 30
0.0
 11
62.1402443486
 21
82.7820625902
 31
0.0
  0
LINE
  5
6B
330
1F
100
AcDbEntity
  8
0
  6
Continuous
 62
     7
370
    25
100
AcDbLine
 10
62.1402443486
 20
82.7820625902
 30
0.0
 11
62.2306890601
 21
82.7820625902
 31
0.0
  0
SPLINE
  5
6C
330
1F
100
AcDbEntity
  8
0
  6
Continuous
 62
     7
370
    25
100
AcDbSpline
210
0.0
220
0.0
230
1.0
 70
     8
 71
     3
 72
    23
 73
    19
 74
     0
 42
0.00000001
 43
0.00000001
 40
0.0
 40
0.0
 40
0.0
 40
0.0
 40
0.0723010339955068
 40
0.1397003317393872
 40
0.2022885114847706
 40
0.2605995332221946
 40
0.3131903291553336
 40
0.3617389329854309
 40
0.4057064756322257
 40
0.4455399848948735
 40
0.5188319558616078
 40
0.5897782395835753
 40
0.6588674786561551
 40
0.728430478061058
 40
0.7972827036080852
 40
0.8648153774014357
 40
0.9313637528792531
 40
1.0
 40
1.0
 40
1.0
 40
1.0
 10
62.23068906011412
 20
82.78206259019544
 30
0.0
 10
62.24390997241403
 20
82.78223398576965
 30
0.0
 10
62.26945546923652
 20
82.78256515694734
 30
0.0
 10
62.30644971061882
 20
82.78351380711672
 30
0.0
 10
62.34078900413149
 20
82.78617011143834
 30
0.0
 10
62.37241407544889
 20
82.78882565231883
 30
0.0
 10
62.40127512286316
 20
82.79314333274624
 30
0.0
 10
62.42730820636407
 20
82.79828281399438
 30
0.0
 10
62.45092189076632
 20
82.80371834475001
 30
0.0
 10
62.47815312456762
 20
82.81296241056444
 30
0.0
 10
62.50904153104966
 20
82.8266242713575
 30
0.0
 10
62.54197000425869
 20
82.84782648683756
 30
0.0
 10
62.57099906265394
 20
82.87307978106571
 30
0.0
 10
62.59551214310502
 20
82.902218764675
 30
0.0
 10
62.61557420190304
 20
82.93430427289991
 30
0.0
 10
62.62950865125483
 20
82.96882436451482
 30
0.0
 10
62.63895748733309
 20
83.00491870681576
 30
0.0
 10
62.63981100077189
 20
83.02969795801138
 30
0.0
 10
62.64024434857565
 20
83.04227893634929
 30
0.0
  0
SPLINE
  5
6D
330
1F
100
AcDbEntity
  8
0
  6
Continuous
 62
     7
370
    25
100
AcDbSpline
210
0.0
220
0.0
230
1.0
 70
     8
 71
     3
 72
    23
 73
    19
 74
     0
 42
0.00000001
 43
0.00000001
 40
0.0
 40
0.0
 40
0.0
 40
0.0
 40
0.0570031325129213
 40
0.1118178691207088
 40
0.1644023722181925
 40
0.2158698048987845
 40
0.2668411100818543
 40
0.3174789632053475
 40
0.3699021362727509
 40
0.4234004494436309
 40
0.4797183982994571
 40
0.5392414966442832
 40
0.6024306889434189
 40
0.6710295461473375
 40
0.7444847975608437
 40
0.8234539713786777
 40
0.9087403127306615
 40
1.0
 40
1.0
 40
1.0
 40
1.0
 10
62.64024434857565
 20
83.04227893634929
 30
0.0
 10
62.64001884278259
 20
83.05060426699794
 30
0.0
 10
62.63957648854447
 20
83.06693531218475
 30
0.0
 10
62.63595364457095
 20
83.09074217825184
 30
0.0
 10
62.62979611266993
 20
83.11313235789987
 30
0.0
 10
62.62188712985277
 20
83.134412690896
 30
0.0
 10
62.6108348346886
 20
83.15391776956184
 30
0.0
 10
62.59782192184489
 20
83.17232199628819
 30
0.0
 10
62.58209948314931
 20
83.18899861850116
 30
0.0
 10
62.56420349201101
 20
83.20458554635057
 30
0.0
 10
62.54362836792887
 20
83.21840462969261
 30
0.0
 10
62.52038638572059
 20
83.23050781390984
 30
0.0
 10
62.4941630955491
 20
83.24025386105835
 30
0.0
 10
62.46540044341421
 20
83.24878935497732
 30
0.0
 10
62.43365569162909
 20
83.25478433804228
 30
0.0
 10
62.39929516873968
 20
83.25977864703815
 30
0.0
 10
62.36203743201386
 20
83.26232125075444
 30
0.0
 10
62.33626095950284
 20
83.26265783484358
 30
0.0
 10
62.32293665626796
 20
83.26283182096466
 30
0.0
  0
SPLINE
  5
6E
330
1F
100
AcDbEntity
  8
0
  6
Continuous
 62
     7
370
    25
100
AcDbSpline
210
0.0
220
0.0
230
1.0
 70
     8
 71
     3
 72
    23
 73
    19
 74
     0
 42
0.00000001
 43
0.00000001
 40
0.0
 40
0.0
 40
0.0
 40
0.0
 40
0.0611379149156114
 40
0.1199938438511948
 40
0.178225321507602
 40
0.2362564202618817
 40
0.2949293769549148
 40
0.3547157488097537
 40
0.4167296639241519
 40
0.4806644084708234
 40
0.5458317702108693
 40
0.6097581054261643
 40
0.6729712284742119
 40
0.7360168691676503
 40
0.7998393981920309
 40
0.8647753566655637
 40
0.9310876232725702
 40
1.0
 40
1.0
 40
1.0
 40
1.0
 10
63.9287058870372
 20
82.3295385517339
 30
0.0
 10
63.92847004718219
 20
82.33977907355559
 30
0.0
 10
63.92800717024612
 20
82.35987788749327
 30
0.0
 10
63.92277176371113
 20
82.3893154381658
 30
0.0
 10
63.91551074634248
 20
82.41774052654655
 30
0.0
 10
63.90454659032403
 20
82.44497450470364
 30
0.0
 10
63.89030235686384
 20
82.47090990209247
 30
0.0
 10
63.87295232527929
 20
82.49567773105674
 30
0.0
 10
63.85288122371763
 20
82.51946787990099
 30
0.0
 10
63.82969656389198
 20
82.5415662263475
 30
0.0
 10
63.80445789219866
 20
82.56177211689196
 30
0.0
 10
63.77762264132457
 20
82.57960906963397
 30
0.0
 10
63.7495477954538
 20
82.59466263106414
 30
0.0
 10
63.720261820121
 20
82.60722281774986
 30
0.0
 10
63.68942915612823
 20
82.61628687809196
 30
0.0
 10
63.6575475821914
 20
82.62342398226409
 30
0.0
 10
63.62420933534395
 20
82.62722198986087
 30
0.0
 10
63.60159078892296
 20
82.62788073207072
 30
0.0
 10
63.59006406011411
 20
82.62821643634928
 30
0.0
  0
SPLINE
  5
6F
330
1F
100
AcDbEntity
  8
0
  6
Continuous
 62
     7
370
    25
100
AcDbSpline
210
0.0
220
0.0
230
1.0
 70
     8
 71
     3
 72
    23
 73
    19
 74
     0
 42
0.00000001
 43
0.00000001
 40
0.0
 40
0.0
 40
0.0
 40
0.0
 40
0.0705992894335759
 40
0.1379009210036065
 40
0.2031961978097253
 40
0.2667897246502616
 40
0.3291063872214249
 40
0.3906535452348569
 40
0.4526530569344619
 40
0.5157480403003822
 40
0.5779263408004489
 40
0.6389300116184408
 40
0.6983507176418282
 40
0.7572960374442842
 40
0.8163937673501626
 40
0.8762669096141422
 40
0.9368171089060944
 40
1.0
 40
1.0
 40
1.0
 40
1.0
 10
63.59006406011411
 20
82.62821643634928
 30
0.0
 10
63.57863738375762
 20
82.62788298905676
 30
0.0
 10
63.55631776544116
 20
82.62723166962964
 30
0.0
 10
63.52357173056067
 20
82.62344941880465
 30
0.0
 10
63.49258033708303
 20
82.61632696212715
 30
0.0
 10
63.46293299408993
 20
82.60725567700041
 30
0.0
 10
63.4351839785587
 20
82.5947829371222
 30
0.0
 10
63.40913161862373
 20
82.57963216614145
 30
0.0
 10
63.38467516781465
 20
82.56179451836431
 30
0.0
 10
63.36207078850214
 20
82.54152269931991
 30
0.0
 10
63.34157664706625
 20
82.51932782803966
 30
0.0
 10
63.32392759102247
 20
82.49555517567856
 30
0.0
 10
63.30870370526835
 20
82.47077766006177
 30
0.0
 10
63.29632578289009
 20
82.44478825626312
 30
0.0
 10
63.28668717899046
 20
82.41759689929616
 30
0.0
 10
63.27971507147481
 20
82.38932864956112
 30
0.0
 10
63.27583489238002
 20
82.3597939469356
 30
0.0
 10
63.27518936459199
 20
82.3397657314801
 30
0.0
 10
63.27485973319104
 20
82.3295385517339
 30
0.0
  0
SPLINE
  5
70
330
1F
100
AcDbEntity
  8
0
  6
Continuous
 62
     7
370
    25
100
AcDbSpline
210
0.0
220
0.0
230
1.0
 70
     8
 71
     3
 72
    23
 73
    19
 74
     0
 42
0.00000001
 43
0.00000001
 40
0.0
 40
0.0
 40
0.0
 40
0.0
 40
0.0618417029839106
 40
0.1212623730944566
 40
0.1807459488653235
 40
0.2392309018221278
 40
0.2983075587884751
 40
0.3581827976158534
 40
0.4203592307800906
 40
0.4847924155141905
 40
0.5499384837666896
 40
0.6137182775404261
 40
0.6766807072496555
 40
0.7391541704483124
 40
0.802199703240358
 40
0.8667401776163108
 40
0.9320496524002547
 40
1.0
 40
1.0
 40
1.0
 40
1.0
 10
63.27485973319104
 20
82.3295385517339
 30
0.0
 10
63.27512817382549
 20
82.31940284606975
 30
0.0
 10
63.27565454594654
 20
82.29952823617843
 30
0.0
 10
63.28043411160449
 20
82.27024001636295
 30
0.0
 10
63.28773486117178
 20
82.24205505561903
 30
0.0
 10
63.29859503082644
 20
82.21511865614015
 30
0.0
 10
63.31154941146852
 20
82.18902023412627
 30
0.0
 10
63.32865169326382
 20
82.16470511178123
 30
0.0
 10
63.34760174433464
 20
82.14069651031267
 30
0.0
 10
63.37025343009797
 20
82.11883873684405
 30
0.0
 10
63.39456344280313
 20
82.09850018362586
 30
0.0
 10
63.42053538673422
 20
82.08072293211826
 30
0.0
 10
63.44760394095865
 20
82.06551457209044
 30
0.0
 10
63.47613455041944
 20
82.05359553025441
 30
0.0
 10
63.50572242926273
 20
82.04381369303421
 30
0.0
 10
63.53661409528242
 20
82.03693020192355
 30
0.0
 10
63.56883103336715
 20
82.03303854792534
 30
0.0
 10
63.59065472109072
 20
82.03239217923657
 30
0.0
 10
63.60178281011411
 20
82.03206259019544
 30
0.0
  0
SPLINE
  5
71
330
1F
100
AcDbEntity
  8
0
  6
Continuous
 62
     7
370
    25
100
AcDbSpline
210
0.0
220
0.0
230
1.0
 70
     8
 71
     3
 72
    23
 73
    19
 74
     0
 42
0.00000001
 43
0.00000001
 40
0.0
 40
0.0
 40
0.0
 40
0.0
 40
0.0679623714944743
 40
0.1332834028675381
 40
0.1978352977570755
 40
0.2608919865309902
 40
0.3233765044831753
 40
0.3863500754690868
 40
0.4496377310517168
 40
0.5147953269783561
 40
0.579239913241011
 40
0.6418141777582957
 40
0.7013585647860519
 40
0.7607267659857072
 40
0.8192220679243795
 40
0.8787161693846247
 40
0.9381473540533063
 40
1.0
 40
1.0
 40
1.0
 40
1.0
 10
63.60178281011411
 20
82.03206259019544
 30
0.0
 10
63.61291088090673
 20
82.03239220507848
 30
0.0
 10
63.63473453287734
 20
82.03303862444675
 30
0.0
 10
63.66695173011898
 20
82.03692991109254
 30
0.0
 10
63.6978424381053
 20
82.04381476020635
 30
0.0
 10
63.7274337989317
 20
82.05359166174868
 30
0.0
 10
63.75595155510276
 20
82.0655289230007
 30
0.0
 10
63.78299643575001
 20
82.08062831717467
 30
0.0
 10
63.80872276155514
 20
82.09860951049671
 30
0.0
 10
63.83304873278969
 20
82.1188039797361
 30
0.0
 10
63.85560613493503
 20
82.14082091628713
 30
0.0
 10
63.87501068302306
 20
82.1644907973272
 30
0.0
 10
63.89158921155498
 20
82.18921675246744
 30
0.0
 10
63.90506100601264
 20
82.21501584813083
 30
0.0
 10
63.91580155943443
 20
82.24207134283176
 30
0.0
 10
63.9231393310877
 20
82.2702356530827
 30
0.0
 10
63.92790902634089
 20
82.29952937849625
 30
0.0
 10
63.92843675472974
 20
82.319403231877
 30
0.0
 10
63.9287058870372
 20
82.3295385517339
 30
0.0
  0
SPLINE
  5
72
330
1F
100
AcDbEntity
  8
0
  6
Continuous
 62
     7
370
    25
100
AcDbSpline
210
0.0
220
0.0
230
1.0
 70
     8
 71
     3
 72
    23
 73
    19
 74
     0
 42
0.00000001
 43
0.00000001
 40
0.0
 40
0.0
 40
0.0
 40
0.0
 40
0.0611379149156108
 40
0.1199938438511994
 40
0.1782253215076074
 40
0.2362564202618775
 40
0.2949293769549113
 40
0.3547157488097667
 40
0.4167296639241657
 40
0.480664408470818
 40
0.5458317702108648
 40
0.6097581054261606
 40
0.6729712284742089
 40
0.7360168691676735
 40
0.7998393981920283
 40
0.864775356665562
 40
0.9310876232725694
 40
1.0
 40
1.0
 40
1.0
 40
1.0
 10
65.08255204088334
 20
82.3295385517339
 30
0.0
 10
65.08231620102833
 20
82.33977907355556
 30
0.0
 10
65.08185332409226
 20
82.35987788749323
 30
0.0
 10
65.0766179175573
 20
82.38931543816584
 30
0.0
 10
65.06935690018864
 20
82.41774052654654
 30
0.0
 10
65.05839274417018
 20
82.44497450470364
 30
0.0
 10
65.04414851070999
 20
82.47090990209249
 30
0.0
 10
65.02679847912542
 20
82.4956777310567
 30
0.0
 10
65.00672737756378
 20
82.519467879901
 30
0.0
 10
64.98354271773812
 20
82.54156622634747
 30
0.0
 10
64.95830404604483
 20
82.56177211689199
 30
0.0
 10
64.93146879517074
 20
82.57960906963399
 30
0.0
 10
64.90339394929997
 20
82.59466263106412
 30
0.0
 10
64.87410797396713
 20
82.60722281774981
 30
0.0
 10
64.84327530997437
 20
82.61628687809196
 30
0.0
 10
64.81139373603757
 20
82.62342398226409
 30
0.0
 10
64.7780554891901
 20
82.62722198986087
 30
0.0
 10
64.75543694276912
 20
82.62788073207072
 30
0.0
 10
64.74391021396026
 20
82.62821643634928
 30
0.0
  0
SPLINE
  5
73
330
1F
100
AcDbEntity
  8
0
  6
Continuous
 62
     7
370
    25
100
AcDbSpline
210
0.0
220
0.0
230
1.0
 70
     8
 71
     3
 72
    23
 73
    19
 74
     0
 42
0.00000001
 43
0.00000001
 40
0.0
 40
0.0
 40
0.0
 40
0.0
 40
0.0705992894336036
 40
0.1379009210036334
 40
0.2031961978097234
 40
0.2667897246502589
 40
0.3291063872214215
 40
0.3906535452348774
 40
0.4526530569344816
 40
0.5157480403003797
 40
0.5779263408004457
 40
0.6389300116184367
 40
0.6983507176418234
 40
0.757296037444291
 40
0.8163937673501686
 40
0.8762669096141475
 40
0.9368171089060952
 40
1.0
 40
1.0
 40
1.0
 40
1.0
 10
64.74391021396026
 20
82.62821643634928
 30
0.0
 10
64.73248353760377
 20
82.62788298905674
 30
0.0
 10
64.71016391928731
 20
82.62723166962965
 30
0.0
 10
64.6774178844068
 20
82.62344941880463
 30
0.0
 10
64.64642649092923
 20
82.61632696212719
 30
0.0
 10
64.61677914793606
 20
82.60725567700034
 30
0.0
 10
64.58903013240489
 20
82.59478293712225
 30
0.0
 10
64.5629777724699
 20
82.57963216614148
 30
0.0
 10
64.53852132166077
 20
82.5617945183643
 30
0.0
 10
64.5159169423483
 20
82.54152269931988
 30
0.0
 10
64.4954228009124
 20
82.51932782803969
 30
0.0
 10
64.47777374486861
 20
82.49555517567853
 30
0.0
 10
64.46254985911453
 20
82.4707776600618
 30
0.0
 10
64.45017193673621
 20
82.44478825626308
 30
0.0
 10
64.44053333283662
 20
82.41759689929619
 30
0.0
 10
64.43356122532094
 20
82.38932864956114
 30
0.0
 10
64.42968104622618
 20
82.35979394693555
 30
0.0
 10
64.42903551843817
 20
82.33976573148011
 30
0.0
 10
64.4287058870372
 20
82.3295385517339
 30
0.0
  0
SPLINE
  5
74
330
1F
100
AcDbEntity
  8
0
  6
Continuous
 62
     7
370
    25
100
AcDbSpline
210
0.0
220
0.0
230
1.0
 70
     8
 71
     3
 72
    23
 73
    19
 74
     0
 42
0.00000001
 43
0.00000001
 40
0.0
 40
0.0
 40
0.0
 40
0.0
 40
0.0618417029839099
 40
0.1212623730944509
 40
0.1807459488653244
 40
0.2392309018221177
 40
0.2983075587884773
 40
0.3581827976158391
 40
0.4203592307800756
 40
0.4847924155141949
 40
0.5499384837666933
 40
0.6137182775404291
 40
0.676680707249633
 40
0.7391541704483153
 40
0.8021997032403603
 40
0.8667401776163124
 40
0.9320496524002556
 40
1.0
 40
1.0
 40
1.0
 40
1.0
 10
64.4287058870372
 20
82.3295385517339
 30
0.0
 10
64.42897432767163
 20
82.31940284606975
 30
0.0
 10
64.42950069979265
 20
82.29952823617839
 30
0.0
 10
64.43428026545068
 20
82.27024001636302
 30
0.0
 10
64.44158101501792
 20
82.24205505561899
 30
0.0
 10
64.45244118467258
 20
82.21511865614015
 30
0.0
 10
64.46539556531468
 20
82.18902023412627
 30
0.0
 10
64.48249784710997
 20
82.1647051117812
 30
0.0
 10
64.5014478981808
 20
82.14069651031271
 30
0.0
 10
64.52409958394414
 20
82.11883873684403
 30
0.0
 10
64.54840959664931
 20
82.09850018362589
 30
0.0
 10
64.57438154058038
 20
82.08072293211825
 30
0.0
 10
64.6014500948048
 20
82.06551457209045
 30
0.0
 10
64.62998070426559
 20
82.05359553025443
 30
0.0
 10
64.65956858310886
 20
82.04381369303418
 30
0.0
 10
64.6904602491286
 20
82.0369302019236
 30
0.0
 10
64.72267718721329
 20
82.03303854792534
 30
0.0
 10
64.7445008749369
 20
82.03239217923658
 30
0.0
 10
64.75562896396026
 20
82.03206259019544
 30
0.0
  0
SPLINE
  5
75
330
1F
100
AcDbEntity
  8
0
  6
Continuous
 62
     7
370
    25
100
AcDbSpline
210
0.0
220
0.0
230
1.0
 70
     8
 71
     3
 72
    23
 73
    19
 74
     0
 42
0.00000001
 43
0.00000001
 40
0.0
 40
0.0
 40
0.0
 40
0.0
 40
0.0679623714944464
 40
0.1332834028675106
 40
0.1978352977570482
 40
0.2608919865309902
 40
0.3233765044831755
 40
0.3863500754690873
 40
0.4496377310517176
 40
0.5147953269783572
 40
0.5792399132410124
 40
0.6418141777582796
 40
0.7013585647860516
 40
0.7607267659857072
 40
0.8192220679243798
 40
0.8787161693846254
 40
0.9381473540533073
 40
1.0
 40
1.0
 40
1.0
 40
1.0
 10
64.75562896396026
 20
82.03206259019544
 30
0.0
 10
64.7667570347529
 20
82.0323922050785
 30
0.0
 10
64.7885806867235
 20
82.03303862444679
 30
0.0
 10
64.82079788396511
 20
82.03692991109254
 30
0.0
 10
64.85168859195146
 20
82.04381476020636
 30
0.0
 10
64.88127995277786
 20
82.0535916617487
 30
0.0
 10
64.90979770894891
 20
82.0655289230007
 30
0.0
 10
64.93684258959617
 20
82.08062831717469
 30
0.0
 10
64.96256891540129
 20
82.09860951049671
 30
0.0
 10
64.98689488663585
 20
82.1188039797361
 30
0.0
 10
65.00945228878119
 20
82.14082091628713
 30
0.0
 10
65.02885683686921
 20
82.1644907973272
 30
0.0
 10
65.0454353654011
 20
82.18921675246742
 30
0.0
 10
65.05890715985879
 20
82.21501584813083
 30
0.0
 10
65.06964771328059
 20
82.24207134283171
 30
0.0
 10
65.07698548493387
 20
82.27023565308275
 30
0.0
 10
65.08175518018705
 20
82.29952937849619
 30
0.0
 10
65.08228290857586
 20
82.31940323187698
 30
0.0
 10
65.08255204088334
 20
82.3295385517339
 30
0.0
  0
CIRCLE
  5
76
330
1F
100
AcDbEntity
  8
0
  6
Continuous
 62
     7
370
    25
100
AcDbCircle
 10
52.815593343
 20
75.210982754
 30
0.0
 40
1.0
  0
CIRCLE
  5
77
330
1F
100
AcDbEntity
  8
0
  6
Continuous
 62
     7
370
    25
100
AcDbCircle
 10
70.595593343
 20
75.210982754
 30
0.0
 40
1.0
  0
CIRCLE
  5
78
330
1F
100
AcDbEntity
  8
0
  6
Continuous
 62
     7
370
    25
100
AcDbCircle
 10
68.055593343
 20
75.210982754
 30
0.0
 40
1.0
  0
CIRCLE
  5
79
330
1F
100
AcDbEntity
  8
0
  6
Continuous
 62
     7
370
    25
100
AcDbCircle
 10
65.515593343
 20
75.210982754
 30
0.0
 40
1.0
  0
CIRCLE
  5
7A
330
1F
100
AcDbEntity
  8
0
  6
Continuous
 62
     7
370
    25
100
AcDbCircle
 10
62.975593343
 20
75.210982754
 30
0.0
 40
1.0
  0
CIRCLE
  5
7B
330
1F
100
AcDbEntity
  8
0
  6
Continuous
 62
     7
370
    25
100
AcDbCircle
 10
60.435593343
 20
75.210982754
 30
0.0
 40
1.0
  0
CIRCLE
  5
7C
330
1F
100
AcDbEntity
  8
0
  6
Continuous
 62
     7
370
    25
100
AcDbCircle
 10
57.895593343
 20
75.210982754
 30
0.0
 40
1.0
  0
CIRCLE
  5
7D
330
1F
100
AcDbEntity
  8
0
  6
Continuous
 62
     7
370
    25
100
AcDbCircle
 10
55.355593343
 20
75.210982754
 30
0.0
 40
1.0
  0
CIRCLE
  5
7E
330
1F
100
AcDbEntity
  8
0
  6
Continuous
 62
     7
370
    25
100
AcDbCircle
 10
70.595593343
 20
90.810982754
 30
0.0
 40
1.0
  0
CIRCLE
  5
7F
330
1F
100
AcDbEntity
  8
0
  6
Continuous
 62
     7
370
    25
100
AcDbCircle
 10
68.055593343
 20
90.810982754
 30
0.0
 40
1.0
  0
CIRCLE
  5
80
330
1F
100
AcDbEntity
  8
0
  6
Continuous
 62
     7
370
    25
100
AcDbCircle
 10
65.515593343
 20
90.810982754
 30
0.0
 40
1.0
  0
CIRCLE
  5
81
330
1F
100
AcDbEntity
  8
0
  6
Continuous
 62
     7
370
    25
100
AcDbCircle
 10
62.975593343
 20
90.810982754
 30
0.0
 40
1.0
  0
CIRCLE
  5
82
330
1F
100
AcDbEntity
  8
0
  6
Continuous
 62
     7
370
    25
100
AcDbCircle
 10
60.435593343
 20
90.810982754
 30
0.0
 40
1.0
  0
CIRCLE
  5
83
330
1F
100
AcDbEntity
  8
0
  6
Continuous
 62
     7
370
    25
100
AcDbCircle
 10
57.895593343
 20
90.810982754
 30
0.0
 40
1.0
  0
CIRCLE
  5
84
330
1F
100
AcDbEntity
  8
0
  6
Continuous
 62
     7
370
    25
100
AcDbCircle
 10
55.355593343
 20
90.810982754
 30
0.0
 40
1.0
  0
CIRCLE
  5
85
330
1F
100
AcDbEntity
  8
0
  6
Continuous
 62
     7
370
    25
100
AcDbCircle
 10
52.815593343
 20
90.810982754
 30
0.0
 40
1.0
  0
LINE
  5
86
330
1F
100
AcDbEntity
  8
0
  6
Continuous
 62
     7
370
    25
100
AcDbLine
 10
72.205593343
 20
92.060982754
 30
0.0
 11
72.205593343
 21
74.060982754
 31
0.0
  0
LINE
  5
87
330
1F
100
AcDbEntity
  8
0
  6
Continuous
 62
     7
370
    25
100
AcDbLine
 10
51.205593343
 20
92.060982754
 30
0.0
 11
72.205593343
 21
92.060982754
 31
0.0
  0
LINE
  5
88
330
1F
100
AcDbEntity
  8
0
  6
Continuous
 62
     7
370
    25
100
AcDbLine
 10
51.205593343
 20
92.060982754
 30
0.0
 11
51.205593343
 21
74.060982754
 31
0.0
  0
LINE
  5
89
330
1F
100
AcDbEntity
  8
0
  6
Continuous
 62
     7
370
    25
100
AcDbLine
 10
51.205593343
 20
74.060982754
 30
0.0
 11
72.205593343
 21
74.060982754
 31
0.0
  0
LINE
  5
8A
330
1F
100
AcDbEntity
  8
0
  6
Continuous
 62
     7
370
    25
100
AcDbLine
 10
60.2335690672
 20
85.4998121626
 30
0.0
 11
68.055593343
 21
85.4998121626
 31
0.0
  0
LINE
  5
8B
330
1F
100
AcDbEntity
  8
0
  6
Continuous
 62
     7
370
    25
100
AcDbLine
 10
68.055593343
 20
85.4998121626
 30
0.0
 11
68.055593343
 21
80.0731368488
 31
0.0
  0
LINE
  5
8C
330
1F
100
AcDbEntity
  8
0
  6
Continuous
 62
     7
370
    25
100
AcDbLine
 10
60.2335690672
 20
80.0731368488
 30
0.0
 11
68.055593343
 21
80.0731368488
 31
0.0
  0
LINE
  5
8D
330
1F
100
AcDbEntity
  8
0
  6
Continuous
 62
     7
370
    25
100
AcDbLine
 10
60.2335690672
 20
85.4998121626
 30
0.0
 11
60.2335690672
 21
80.0731368488
 31
0.0
  0
LINE
  5
8E
330
1F
100
AcDbEntity
  8
0
  6
Continuous
 62
     7
370
    25
100
AcDbLine
 10
51.7687936742
 20
84.2217148879
 30
0.0
 11
54.5764171957
 21
84.2217148879
 31
0.0
  0
LINE
  5
8F
330
1F
100
AcDbEntity
  8
0
  6
Continuous
 62
     7
370
    25
100
AcDbLine
 10
54.5764171957
 20
84.2217148879
 30
0.0
 11
54.5764171957
 21
80.764566522
 31
0.0
  0
LINE
  5
90
330
1F
100
AcDbEntity
  8
0
  6
Continuous
 62
     7
370
    25
100
AcDbLine
 10
51.7687936742
 20
80.764566522
 30
0.0
 11
54.5764171957
 21
80.764566522
 31
0.0
  0
LINE
  5
91
330
1F
100
AcDbEntity
  8
0
  6
Continuous
 62
     7
370
    25
100
AcDbLine
 10
51.7687936742
 20
84.2217148879
 30
0.0
 11
51.7687936742
 21
80.764566522
 31
0.0
  0
LINE
  5
92
330
1F
100
AcDbEntity
  8
0
  6
Continuous
 62
     7
370
    25
100
AcDbLine
 10
57.0278496733
 20
86.2960039075
 30
0.0
 11
57.7611841752
 21
86.2960039075
 31
0.0
  0
LINE
  5
93
330
1F
100
AcDbEntity
  8
0
  6
Continuous
 62
     7
370
    25
100
AcDbLine
 10
57.7611841752
 20
86.2960039075
 30
0.0
 11
57.7611841752
 21
84.7455252464
 31
0.0
  0
LINE
  5
94
330
1F
100
AcDbEntity
  8
0
  6
Continuous
 62
     7
370
    25
100
AcDbLine
 10
57.0278496733
 20
84.7455252464
 30
0.0
 11
57.7611841752
 21
84.7455252464
 31
0.0
  0
LINE
  5
95
330
1F
100
AcDbEntity
  8
0
  6
Continuous
 62
     7
370
    25
100
AcDbLine
 10
57.0278496733
 20
86.2960039075
 30
0.0
 11
57.0278496733
 21
84.7455252464
 31
0.0
  0
LINE
  5
96
330
1F
100
AcDbEntity
  8
0
  6
Continuous
 62
     7
370
    25
100
AcDbLine
 10
57.0278496733
 20
80.4293278925
 30
0.0
 11
57.7611841752
 21
80.4293278925
 31
0.0
  0
LINE
  5
97
330
1F
100
AcDbEntity
  8
0
  6
Continuous
 62
     7
370
    25
100
AcDbLine
 10
57.7611841752
 20
80.4293278925
 30
0.0
 11
57.7611841752
 21
78.8788492314
 31
0.0
  0
LINE
  5
98
330
1F
100
AcDbEntity
  8
0
  6
Continuous
 62
     7
370
    25
100
AcDbLine
 10
57.0278496733
 20
78.8788492314
 30
0.0
 11
57.7611841752
 21
78.8788492314
 31
0.0
  0
LINE
  5
99
330
1F
100
AcDbEntity
  8
0
  6
Continuous
 62
     7
370
    25
100
AcDbLine
 10
57.0278496733
 20
80.4293278925
 30
0.0
 11
57.0278496733
 21
78.8788492314
 31
0.0
  0
SPLINE
  5
9A
330
1F
100
AcDbEntity
  8
0
  6
Continuous
 62
     7
370
    25
100
AcDbSpline
210
0.0
220
0.0
230
1.0
 70
     8
 71
     3
 72
    23
 73
    19
 74
     0
 42
0.00000001
 43
0.00000001
 40
0.0
 40
0.0
 40
0.0
 40
0.0
 40
0.064438671595245
 40
0.1265469112716862
 40
0.1868871534365931
 40
0.2458775355894659
 40
0.3040408846912798
 40
0.362191218072665
 40
0.4209759327916525
 40
0.4806602832796819
 40
0.5406002749537556
 40
0.6006890983494584
 40
0.6619357897572119
 40
0.7244425059139928
 40
0.7890383938817588
 40
0.8563137570510017
 40
0.9263520282058589
 40
1.0
 40
1.0
 40
1.0
 40
1.0
 10
67.06482367549873
 20
83.30129335942621
 30
0.0
 10
67.05309331860316
 20
83.30098691702737
 30
0.0
 10
67.03005683450908
 20
83.30038511475409
 30
0.0
 10
66.99623439182199
 20
83.29617540161465
 30
0.0
 10
66.96396905859747
 20
83.28891289858738
 30
0.0
 10
66.93317967161765
 20
83.27898003813581
 30
0.0
 10
66.90381413484077
 20
83.26635494578338
 30
0.0
 10
66.87601525882475
 20
83.25062991234962
 30
0.0
 10
66.84984544914195
 20
83.23186555814138
 30
0.0
 10
66.82525551056531
 20
83.21059103400252
 30
0.0
 10
66.80259951953808
 20
83.18690491919571
 30
0.0
 10
66.78269371559595
 20
83.16050064930984
 30
0.0
 10
66.76530056667728
 20
83.13186032843656
 30
0.0
 10
66.7501251809002
 20
83.10106123533535
 30
0.0
 10
66.73780131372186
 20
83.0678239010563
 30
0.0
 10
66.7283842492514
 20
83.03226631326412
 30
0.0
 10
66.72093274351356
 20
82.99454286407614
 30
0.0
 10
66.71844337754007
 20
82.96849211342335
 30
0.0
 10
66.71716742549873
 20
82.95513951327237
 30
0.0
  0
LINE
  5
9B
330
1F
100
AcDbEntity
  8
0
  6
Continuous
 62
     7
370
    25
100
AcDbLine
 10
66.7171674255
 20
82.9551395133
 30
0.0
 11
66.5825520409
 21
82.9551395133
 31
0.0
  0
SPLINE
  5
9C
330
1F
100
AcDbEntity
  8
0
  6
Continuous
 62
     7
370
    25
100
AcDbSpline
210
0.0
220
0.0
230
1.0
 70
     8
 71
     3
 72
    23
 73
    19
 74
     0
 42
0.00000001
 43
0.00000001
 40
0.0
 40
0.0
 40
0.0
 40
0.0
 40
0.0687907943906096
 40
0.1351032894311214
 40
0.1989786743106442
 40
0.2619042997808458
 40
0.3234949693679562
 40
0.385195377966044
 40
0.4469692387407616
 40
0.5097647767031189
 40
0.5722505688473595
 40
0.6334051756611365
 40
0.6932511629217398
 40
0.7525831627856677
 40
0.8125792661534182
 40
0.8732750849201784
 40
0.9355499428950234
 40
1.0
 40
1.0
 40
1.0
 40
1.0
 10
66.58255204088334
 20
82.95513951327237
 30
0.0
 10
66.58342939217245
 20
82.97299846517284
 30
0.0
 10
66.585152486755
 20
83.00807297141922
 30
0.0
 10
66.59322175358155
 20
83.05921178844746
 30
0.0
 10
66.60476784381213
 20
83.1080924164723
 30
0.0
 10
66.62109275267564
 20
83.15432237960222
 30
0.0
 10
66.64136687171982
 20
83.19831043984378
 30
0.0
 10
66.66567974059737
 20
83.23988187514004
 30
0.0
 10
66.6944771051031
 20
83.27887809887488
 30
0.0
 10
66.7271371339797
 20
83.31493760314432
 30
0.0
 10
66.76260940786045
 20
83.34801799062983
 30
0.0
 10
66.80088338191945
 20
83.37658452326099
 30
0.0
 10
66.84110267932789
 20
83.40072066813043
 30
0.0
 10
66.88314527888446
 20
83.42089834319778
 30
0.0
 10
66.92748552040995
 20
83.43604399145029
 30
0.0
 10
66.97372103091256
 20
83.44728183699513
 30
0.0
 10
67.02205494651662
 20
83.45404312801864
 30
0.0
 10
67.05498638453673
 20
83.45476989327764
 30
0.0
 10
67.07173473319105
 20
83.45513951327237
 30
0.0
  0
SPLINE
  5
9D
330
1F
100
AcDbEntity
  8
0
  6
Continuous
 62
     7
370
    25
100
AcDbSpline
210
0.0
220
0.0
230
1.0
 70
     8
 71
     3
 72
    23
 73
    19
 74
     0
 42
0.00000001
 43
0.00000001
 40
0.0
 40
0.0
 40
0.0
 40
0.0
 40
0.0694754602496642
 40
0.1365167976177899
 40
0.2007888236092606
 40
0.2638296728558207
 40
0.3257350229654126
 40
0.3872906922152846
 40
0.4495092187625898
 40
0.5129678195454395
 40
0.576275215493062
 40
0.6375801002639144
 40
0.6979026059171076
 40
0.7571720884269815
 40
0.8165985284886573
 40
0.8766531708928198
 40
0.937289642410247
 40
1.0
 40
1.0
 40
1.0
 40
1.0
 10
67.07173473319105
 20
83.45513951327237
 30
0.0
 10
67.08818247922848
 20
83.45475446051005
 30
0.0
 10
67.12050171265265
 20
83.45399784558678
 30
0.0
 10
67.16767114741818
 20
83.44750026161508
 30
0.0
 10
67.21257570218818
 20
83.43732357948568
 30
0.0
 10
67.25512760212615
 20
83.42304554392283
 30
0.0
 10
67.29498734408524
 20
83.40385221789747
 30
0.0
 10
67.33245436318083
 20
83.38079612990111
 30
0.0
 10
67.3679747106627
 20
83.35413048788449
 30
0.0
 10
67.39994904649645
 20
83.32273599640656
 30
0.0
 10
67.42930965188346
 20
83.28922068877645
 30
0.0
 10
67.4546391898024
 20
83.25344015865693
 30
0.0
 10
67.47633054557673
 20
83.21648475049341
 30
0.0
 10
67.49441097981148
 20
83.17807266410128
 30
0.0
 10
67.50772075364254
 20
83.13784222335296
 30
0.0
 10
67.51782569994083
 20
83.09637913644228
 30
0.0
 10
67.52353744866434
 20
83.05325421743947
 30
0.0
 10
67.52441405873482
 20
83.02406569359043
 30
0.0
 10
67.52485973319104
 20
83.0092260517339
 30
0.0
  0
SPLINE
  5
9E
330
1F
100
AcDbEntity
  8
0
  6
Continuous
 62
     7
370
    25
100
AcDbSpline
210
0.0
220
0.0
230
1.0
 70
     8
 71
     3
 72
    19
 73
    15
 74
     0
 42
0.00000001
 43
0.00000001
 40
0.0
 40
0.0
 40
0.0
 40
0.0
 40
0.0987021963061639
 40
0.195672308810666
 40
0.2924224265079487
 40
0.3913425437998178
 40
0.4444624406718979
 40
0.5042287754493223
 40
0.5703523379946857
 40
0.6425457530977532
 40
0.7222875053440234
 40
0.8079211226827163
 40
0.9004695379850179
 40
1.0
 40
1.0
 40
1.0
 40
1.0
 10
67.52485973319104
 20
83.0092260517339
 30
0.0
 10
67.52413404910969
 20
82.9883341226304
 30
0.0
 10
67.52269541567519
 20
82.94691688820019
 30
0.0
 10
67.51038925428915
 20
82.88605337559335
 30
0.0
 10
67.49116932096251
 20
82.82708476741338
 30
0.0
 10
67.46802759659856
 20
82.77962592366293
 30
0.0
 10
67.44468226342919
 20
82.74138299776699
 30
0.0
 10
67.42364476017482
 20
82.70989640994429
 30
0.0
 10
67.39901698402261
 20
82.67599406634882
 30
0.0
 10
67.37044048489572
 20
82.63978949318857
 30
0.0
 10
67.33850639683115
 20
82.60099910528916
 30
0.0
 10
67.30292546967831
 20
82.55964633583277
 30
0.0
 10
67.2634439773834
 20
82.51615843448127
 30
0.0
 10
67.23573319134582
 20
82.48645603388648
 30
0.0
 10
67.22137415626796
 20
82.4710649940416
 30
0.0
  0
LINE
  5
9F
330
1F
100
AcDbEntity
  8
0
  6
Continuous
 62
     7
370
    25
100
AcDbLine
 10
67.2213741563
 20
82.471064994
 30
0.0
 11
66.8460736755
 21
82.0705241287
 31
0.0
  0
LINE
  5
A0
330
1F
100
AcDbEntity
  8
0
  6
Continuous
 62
     7
370
    25
100
AcDbLine
 10
66.8460736755
 20
82.0705241287
 30
0.0
 11
67.5440905024
 21
82.0705241287
 31
0.0
  0
LINE
  5
A1
330
1F
100
AcDbEntity
  8
0
  6
Continuous
 62
     7
370
    25
100
AcDbLine
 10
67.5440905024
 20
82.0705241287
 30
0.0
 11
67.5440905024
 21
81.9166779748
 31
0.0
  0
LINE
  5
A2
330
1F
100
AcDbEntity
  8
0
  6
Continuous
 62
     7
370
    25
100
AcDbLine
 10
67.5440905024
 20
81.9166779748
 30
0.0
 11
66.5248597332
 21
81.9166779748
 31
0.0
  0
LINE
  5
A3
330
1F
100
AcDbEntity
  8
0
  6
Continuous
 62
     7
370
    25
100
AcDbLine
 10
66.5248597332
 20
81.9166779748
 30
0.0
 11
67.1065905024
 21
82.537471244
 31
0.0
  0
SPLINE
  5
A4
330
1F
100
AcDbEntity
  8
0
  6
Continuous
 62
     7
370
    25
100
AcDbSpline
210
0.0
220
0.0
230
1.0
 70
     8
 71
     3
 72
    19
 73
    15
 74
     0
 42
0.00000001
 43
0.00000001
 40
0.0
 40
0.0
 40
0.0
 40
0.0
 40
0.1108026438013045
 40
0.2128292023477595
 40
0.3061013098231046
 40
0.3906473211159903
 40
0.4669244693608465
 40
0.5344810392840198
 40
0.5935869409656609
 40
0.6445570045086951
 40
0.7362004526293668
 40
0.8250240256188625
 40
0.9119855848297462
 40
1.0
 40
1.0
 40
1.0
 40
1.0
 10
67.10659050242181
 20
82.5374712440416
 30
0.0
 10
67.12075388248232
 20
82.55225623256241
 30
0.0
 10
67.14795883696186
 20
82.58065516967854
 30
0.0
 10
67.18643708416577
 20
82.62211643830734
 30
0.0
 10
67.22099665058538
 20
82.66058052720112
 30
0.0
 10
67.2518612474876
 20
82.69597476224878
 30
0.0
 10
67.27836132121581
 20
82.72881686273259
 30
0.0
 10
67.30187799205059
 20
82.75804316427018
 30
0.0
 10
67.32072038818573
 20
82.78493792868784
 30
0.0
 10
67.34116984348047
 20
82.81611247750752
 30
0.0
 10
67.36097583550826
 20
82.85417489915352
 30
0.0
 10
67.37799541666845
 20
82.9006893374083
 30
0.0
 10
67.3883732088607
 20
82.94857244569795
 30
0.0
 10
67.3896181383632
 20
82.98093046157538
 30
0.0
 10
67.39024434857566
 20
82.99720682096468
 30
0.0
  0
SPLINE
  5
A5
330
1F
100
AcDbEntity
  8
0
  6
Continuous
 62
     7
370
    25
100
AcDbSpline
210
0.0
220
0.0
230
1.0
 70
     8
 71
     3
 72
    23
 73
    19
 74
     0
 42
0.00000001
 43
0.00000001
 40
0.0
 40
0.0
 40
0.0
 40
0.0
 40
0.0619654006870528
 40
0.1221219056382995
 40
0.1809884968498193
 40
0.2399332164518944
 40
0.2999058311065154
 40
0.3599888474769697
 40
0.4217757417416444
 40
0.4865758264211324
 40
0.5515348046197353
 40
0.615017542759983
 40
0.6772586166616658
 40
0.739729962362723
 40
0.8030501026629658
 40
0.866495132015704
 40
0.9319734741771679
 40
1.0
 40
1.0
 40
1.0
 40
1.0
 10
67.39024434857566
 20
82.99720682096469
 30
0.0
 10
67.3899718875902
 20
83.0074417059979
 30
0.0
 10
67.38943491930809
 20
83.02761269900988
 30
0.0
 10
67.38469590609645
 20
83.05718659573212
 30
0.0
 10
67.37753426062737
 20
83.08571437308174
 30
0.0
 10
67.36727200717827
 20
83.11328378127513
 30
0.0
 10
67.35372626142738
 20
83.1396176321606
 30
0.0
 10
67.33723767003414
 20
83.1647479808193
 30
0.0
 10
67.31821335714078
 20
83.18904325161932
 30
0.0
 10
67.29620567028469
 20
83.21182323650137
 30
0.0
 10
67.2720293046533
 20
83.23268661027957
 30
0.0
 10
67.2464889119739
 20
83.25116836117141
 30
0.0
 10
67.21946743871966
 20
83.26661369437095
 30
0.0
 10
67.19107881493001
 20
83.27927519316252
 30
0.0
 10
67.16140218518358
 20
83.28920749938955
 30
0.0
 10
67.1303801515597
 20
83.29608974771374
 30
0.0
 10
67.09809843029578
 20
83.3004108122623
 30
0.0
 10
67.07605550357123
 20
83.30099545736589
 30
0.0
 10
67.06482367549873
 20
83.30129335942621
 30
0.0
  0
LINE
  5
A6
330
1F
100
AcDbEntity
  8
0
  6
Continuous
 62
     7
370
    25
100
AcDbLine
 10
65.6017828101
 20
83.262831821
 30
0.0
 11
65.6898236755
 21
83.4166779748
 31
0.0
  0
LINE
  5
A7
330
1F
100
AcDbEntity
  8
0
  6
Continuous
 62
     7
370
    25
100
AcDbLine
 10
65.6898236755
 20
83.4166779748
 30
0.0
 11
65.9671674255
 21
83.4166779748
 31
0.0
  0
LINE
  5
A8
330
1F
100
AcDbEntity
  8
0
  6
Continuous
 62
     7
370
    25
100
AcDbLine
 10
65.9671674255
 20
83.4166779748
 30
0.0
 11
65.9671674255
 21
81.9166779748
 31
0.0
  0
LINE
  5
A9
330
1F
100
AcDbEntity
  8
0
  6
Continuous
 62
     7
370
    25
100
AcDbLine
 10
65.9671674255
 20
81.9166779748
 30
0.0
 11
65.8325520409
 21
81.9166779748
 31
0.0
  0
LINE
  5
AA
330
1F
100
AcDbEntity
  8
0
  6
Continuous
 62
     7
370
    25
100
AcDbLine
 10
65.8325520409
 20
81.9166779748
 30
0.0
 11
65.8325520409
 21
83.262831821
 31
0.0
  0
LINE
  5
AB
330
1F
100
AcDbEntity
  8
0
  6
Continuous
 62
     7
370
    25
100
AcDbLine
 10
65.8325520409
 20
83.262831821
 30
0.0
 11
65.6017828101
 21
83.262831821
 31
0.0
  0
LINE
  5
AC
330
1F
100
AcDbEntity
  8
0
  6
Continuous
 62
     7
370
    25
100
AcDbLine
 10
64.4617587717
 20
82.770644321
 30
0.0
 11
64.9094751178
 21
83.4551395133
 31
0.0
  0
LINE
  5
AD
330
1F
100
AcDbEntity
  8
0
  6
Continuous
 62
     7
370
    25
100
AcDbLine
 10
64.9094751178
 20
83.4551395133
 30
0.0
 11
65.0131409832
 21
83.3737092248
 31
0.0
  0
LINE
  5
AE
330
1F
100
AcDbEntity
  8
0
  6
Continuous
 62
     7
370
    25
100
AcDbLine
 10
65.0131409832
 20
83.3737092248
 30
0.0
 11
64.6168068486
 21
82.7676395133
 31
0.0
  0
SPLINE
  5
AF
330
1F
100
AcDbEntity
  8
0
  6
Continuous
 62
     7
370
    25
100
AcDbSpline
210
0.0
220
0.0
230
1.0
 70
     8
 71
     3
 72
     9
 73
     5
 74
     0
 42
0.00000001
 43
0.00000001
 40
0.0
 40
0.0
 40
0.0
 40
0.0
 40
0.5126593363417933
 40
1.0
 40
1.0
 40
1.0
 40
1.0
 10
64.61680684857565
 20
82.76763951327236
 30
0.0
 10
64.64319411013996
 20
82.77184545355249
 30
0.0
 10
64.69466544732963
 20
82.78004961561871
 30
0.0
 10
64.74676511812577
 20
82.78140302081087
 30
0.0
 10
64.77215540626796
 20
82.78206259019544
 30
0.0
  0
SPLINE
  5
B0
330
1F
100
AcDbEntity
  8
0
  6
Continuous
 62
     7
370
    25
100
AcDbSpline
210
0.0
220
0.0
230
1.0
 70
     8
 71
     3
 72
    23
 73
    19
 74
     0
 42
0.00000001
 43
0.00000001
 40
0.0
 40
0.0
 40
0.0
 40
0.0
 40
0.0652308037420278
 40
0.1284048960032323
 40
0.1900670715964693
 40
0.2509433657682888
 40
0.3115458328521396
 40
0.372862802156827
 40
0.4350236738562315
 40
0.499071724707054
 40
0.5630910750496769
 40
0.6255101063303797
 40
0.6866800359296515
 40
0.7472825030135203
 40
0.808563495215976
 40
0.8707421035159935
 40
0.9343409515059227
 40
1.0
 40
1.0
 40
1.0
 40
1.0
 10
64.77215540626796
 20
82.78206259019544
 30
0.0
 10
64.78740076184016
 20
82.78165282804011
 30
0.0
 10
64.817410790607
 20
82.7808462234312
 30
0.0
 10
64.86147084868158
 20
82.77463885884897
 30
0.0
 10
64.90380896409866
 20
82.76485666802458
 30
0.0
 10
64.94424965506525
 20
82.75059712976103
 30
0.0
 10
64.9829380758622
 20
82.73238183503433
 30
0.0
 10
65.02009624562304
 20
82.71055089062847
 30
0.0
 10
65.05502567852567
 20
82.68397702761838
 30
0.0
 10
65.0881761839022
 20
82.65429204656817
 30
0.0
 10
65.11827351135634
 20
82.62141333892738
 30
0.0
 10
65.14492039230957
 20
82.58652705176767
 30
0.0
 10
65.16730330305273
 20
82.54966953133984
 30
0.0
 10
65.1854635551733
 20
82.51085944593987
 30
0.0
 10
65.19956564600096
 20
82.4701566204139
 30
0.0
 10
65.20984606530534
 20
82.42761313206177
 30
0.0
 10
65.2159230336567
 20
82.38319964429311
 30
0.0
 10
65.21674824396318
 20
82.35299471203619
 30
0.0
 10
65.21716742549873
 20
82.33765153250313
 30
0.0
  0
SPLINE
  5
B1
330
1F
100
AcDbEntity
  8
0
  6
Continuous
 62
     7
370
    25
100
AcDbSpline
210
0.0
220
0.0
230
1.0
 70
     8
 71
     3
 72
    19
 73
    15
 74
     0
 42
0.00000001
 43
0.00000001
 40
0.0
 40
0.0
 40
0.0
 40
0.0
 40
0.0859479431441288
 40
0.169125211880697
 40
0.2503991071860657
 40
0.3322897361388514
 40
0.413364287915892
 40
0.4941722833712011
 40
0.5760217353866459
 40
0.6607569692540167
 40
0.7457831259137493
 40
0.830043592975233
 40
0.9140275458207001
 40
1.0
 40
1.0
 40
1.0
 40
1.0
 10
65.21716742549873
 20
82.33765153250313
 30
0.0
 10
65.2165575234055
 20
82.31666023081165
 30
0.0
 10
65.21535738042391
 20
82.27535431683215
 30
0.0
 10
65.20339861070079
 20
82.21519287123019
 30
0.0
 10
65.18481590580564
 20
82.15787893600175
 30
0.0
 10
65.1582541079186
 20
82.10432757684389
 30
0.0
 10
65.12526165806841
 20
82.05461218988188
 30
0.0
 10
65.08502840406794
 20
82.01056127612966
 30
0.0
 10
65.0389811947819
 20
81.97127411727932
 30
0.0
 10
64.98691542413333
 20
81.93842128047594
 30
0.0
 10
64.93088272522633
 20
81.91159140147063
 30
0.0
 10
64.87201758347732
 20
81.89232058343505
 30
0.0
 10
64.81089166361767
 20
81.8804562394104
 30
0.0
 10
64.76940397445142
 20
81.87896883826728
 30
0.0
 10
64.74841742549873
 20
81.87821643634928
 30
0.0
  0
SPLINE
  5
B2
330
1F
100
AcDbEntity
  8
0
  6
Continuous
 62
     7
370
    25
100
AcDbSpline
210
0.0
220
0.0
230
1.0
 70
     8
 71
     3
 72
    19
 73
    15
 74
     0
 42
0.00000001
 43
0.00000001
 40
0.0
 40
0.0
 40
0.0
 40
0.0
 40
0.0843347219926369
 40
0.1670523184160745
 40
0.2495660772409766
 40
0.3327404818018546
 40
0.4159148863627259
 40
0.497828009540005
 40
0.5803725886080453
 40
0.6646001210564992
 40
0.7494666931126198
 40
0.8325102339401309
 40
0.9156392816681658
 40
0.9999999999999999
 40
0.9999999999999999
 40
0.9999999999999999
 40
0.9999999999999999
 10
64.74841742549873
 20
81.87821643634928
 30
0.0
 10
64.72823312521903
 20
81.878871381668
 30
0.0
 10
64.68825156035867
 20
81.88016871367249
 30
0.0
 10
64.6294375056855
 20
81.89172554419015
 30
0.0
 10
64.57292478396772
 20
81.9104571596624
 30
0.0
 10
64.5191093350072
 20
81.93626327903796
 30
0.0
 10
64.46925764375236
 20
81.96885951458897
 30
0.0
 10
64.4246580852813
 20
82.00810049135984
 30
0.0
 10
64.38553303904187
 20
82.05314740496229
 30
0.0
 10
64.35297248721443
 20
82.10399326807882
 30
0.0
 10
64.32714731637991
 20
82.158631821295
 30
0.0
 10
64.30778020561579
 20
82.21560488831908
 30
0.0
 10
64.29646752994361
 20
82.2747048804873
 30
0.0
 10
64.29488671986691
 20
82.31476822585294
 30
0.0
 10
64.29409050242181
 20
82.33494720558006
 30
0.0
  0
SPLINE
  5
B3
330
1F
100
AcDbEntity
  8
0
  6
Continuous
 62
     7
370
    25
100
AcDbSpline
210
0.0
220
0.0
230
1.0
 70
     8
 71
     3
 72
    19
 73
    15
 74
     0
 42
0.00000001
 43
0.00000001
 40
0.0
 40
0.0
 40
0.0
 40
0.0
 40
0.0978181896147166
 40
0.199726053401827
 40
0.305276357477934
 40
0.4158114905383101
 40
0.4744722311435707
 40
0.5372738797761216
 40
0.6036574205596587
 40
0.6742988630901257
 40
0.7498344853162476
 40
0.8285984767571024
 40
0.9123777781577999
 40
0.9999999999999999
 40
0.9999999999999999
 40
0.9999999999999999
 40
0.9999999999999999
 10
64.29409050242181
 20
82.33494720558006
 30
0.0
 10
64.29459683599605
 20
82.35039488409856
 30
0.0
 10
64.2956306724112
 20
82.38193609209759
 30
0.0
 10
64.30284926827048
 20
82.42970638978764
 30
0.0
 10
64.31444846603476
 20
82.47858542481333
 30
0.0
 10
64.32743857161435
 20
82.52005150778312
 30
0.0
 10
64.34116383306231
 20
82.55402073148012
 30
0.0
 10
64.3525863500284
 20
82.58140794174764
 30
0.0
 10
64.36680377690287
 20
82.60959125884821
 30
0.0
 10
64.38196379741505
 20
82.6395371028398
 30
0.0
 10
64.39943102694978
 20
82.67047371684919
 30
0.0
 10
64.41842344811623
 20
82.70291814661833
 30
0.0
 10
64.4394661556472
 20
82.73635440133062
 30
0.0
 10
64.45421765396691
 20
82.75904477072211
 30
0.0
 10
64.46175877165257
 20
82.77064432096466
 30
0.0
  0
LINE
  5
B4
330
1F
100
AcDbEntity
  8
0
  6
Continuous
 62
     7
370
    25
100
AcDbLine
 10
63.3079126178
 20
82.770644321
 30
0.0
 11
63.755628964
 21
83.4551395133
 31
0.0
  0
LINE
  5
B5
330
1F
100
AcDbEntity
  8
0
  6
Continuous
 62
     7
370
    25
100
AcDbLine
 10
63.755628964
 20
83.4551395133
 30
0.0
 11
63.8592948293
 21
83.3737092248
 31
0.0
  0
LINE
  5
B6
330
1F
100
AcDbEntity
  8
0
  6
Continuous
 62
     7
370
    25
100
AcDbLine
 10
63.8592948293
 20
83.3737092248
 30
0.0
 11
63.4629606947
 21
82.7676395133
 31
0.0
  0
SPLINE
  5
B7
330
1F
100
AcDbEntity
  8
0
  6
Continuous
 62
     7
370
    25
100
AcDbSpline
210
0.0
220
0.0
230
1.0
 70
     8
 71
     3
 72
     9
 73
     5
 74
     0
 42
0.00000001
 43
0.00000001
 40
0.0
 40
0.0
 40
0.0
 40
0.0
 40
0.5126593363417933
 40
1.0
 40
1.0
 40
1.0
 40
1.0
 10
63.4629606947295
 20
82.76763951327236
 30
0.0
 10
63.48934795629378
 20
82.77184545355249
 30
0.0
 10
63.54081929348346
 20
82.78004961561871
 30
0.0
 10
63.59291896427963
 20
82.78140302081087
 30
0.0
 10
63.6183092524218
 20
82.78206259019544
 30
0.0
  0
SPLINE
  5
B8
330
1F
100
AcDbEntity
  8
0
  6
Continuous
 62
     7
370
    25
100
AcDbSpline
210
0.0
220
0.0
230
1.0
 70
     8
 71
     3
 72
    23
 73
    19
 74
     0
 42
0.00000001
 43
0.00000001
 40
0.0
 40
0.0
 40
0.0
 40
0.0
 40
0.0652308037420273
 40
0.1284048960032313
 40
0.1900670715964872
 40
0.2509433657682875
 40
0.3115458328521558
 40
0.3728628021568257
 40
0.4350236738562456
 40
0.499071724707053
 40
0.5630910750496755
 40
0.6255101063303777
 40
0.6866800359296491
 40
0.7472825030135258
 40
0.8085634952159747
 40
0.8707421035159961
 40
0.9343409515059222
 40
1.0
 40
1.0
 40
1.0
 40
1.0
 10
63.6183092524218
 20
82.78206259019544
 30
0.0
 10
63.63355460799403
 20
82.78165282804011
 30
0.0
 10
63.66356463676086
 20
82.7808462234312
 30
0.0
 10
63.70762469483542
 20
82.77463885884896
 30
0.0
 10
63.74996281025251
 20
82.76485666802458
 30
0.0
 10
63.7904035012191
 20
82.75059712976103
 30
0.0
 10
63.82909192201608
 20
82.73238183503439
 30
0.0
 10
63.86625009177686
 20
82.71055089062843
 30
0.0
 10
63.90117952467953
 20
82.68397702761841
 30
0.0
 10
63.93433003005607
 20
82.65429204656817
 30
0.0
 10
63.96442735751015
 20
82.62141333892737
 30
0.0
 10
63.99107423846341
 20
82.58652705176766
 30
0.0
 10
64.01345714920659
 20
82.54966953133987
 30
0.0
 10
64.03161740132715
 20
82.51085944593986
 30
0.0
 10
64.04571949215477
 20
82.47015662041389
 30
0.0
 10
64.05599991145921
 20
82.42761313206177
 30
0.0
 10
64.06207687981053
 20
82.38319964429311
 30
0.0
 10
64.062902090117
 20
82.35299471203616
 30
0.0
 10
64.06332127165258
 20
82.33765153250313
 30
0.0
  0
SPLINE
  5
B9
330
1F
100
AcDbEntity
  8
0
  6
Continuous
 62
     7
370
    25
100
AcDbSpline
210
0.0
220
0.0
230
1.0
 70
     8
 71
     3
 72
    19
 73
    15
 74
     0
 42
0.00000001
 43
0.00000001
 40
0.0
 40
0.0
 40
0.0
 40
0.0
 40
0.0859479431441292
 40
0.1691252118806967
 40
0.2503991071860588
 40
0.3322897361388438
 40
0.4133642879158838
 40
0.4941722833712049
 40
0.576021735386649
 40
0.6607569692540192
 40
0.7457831259137511
 40
0.8300435929752341
 40
0.9140275458206819
 40
0.9999999999999999
 40
0.9999999999999999
 40
0.9999999999999999
 40
0.9999999999999999
 10
64.06332127165258
 20
82.33765153250313
 30
0.0
 10
64.06271136955934
 20
82.31666023081165
 30
0.0
 10
64.06151122657776
 20
82.27535431683214
 30
0.0
 10
64.04955245685464
 20
82.21519287123022
 30
0.0
 10
64.03096975195949
 20
82.15787893600177
 30
0.0
 10
64.00440795407243
 20
82.10432757684389
 30
0.0
 10
63.97141550422224
 20
82.05461218988182
 30
0.0
 10
63.93118225022179
 20
82.01056127612968
 30
0.0
 10
63.88513504093575
 20
81.97127411727934
 30
0.0
 10
63.83306927028718
 20
81.93842128047594
 30
0.0
 10
63.77703657138016
 20
81.91159140147062
 30
0.0
 10
63.71817142963116
 20
81.89232058343507
 30
0.0
 10
63.65704550977153
 20
81.88045623941042
 30
0.0
 10
63.61555782060528
 20
81.8789688382673
 30
0.0
 10
63.59457127165258
 20
81.87821643634928
 30
0.0
  0
SPLINE
  5
BA
330
1F
100
AcDbEntity
  8
0
  6
Continuous
 62
     7
370
    25
100
AcDbSpline
210
0.0
220
0.0
230
1.0
 70
     8
 71
     3
 72
    19
 73
    15
 74
     0
 42
0.00000001
 43
0.00000001
 40
0.0
 40
0.0
 40
0.0
 40
0.0
 40
0.0843347219926378
 40
0.1670523184160763
 40
0.2495660772409608
 40
0.3327404818018398
 40
0.415914886362712
 40
0.4978280095399919
 40
0.5803725886080457
 40
0.6646001210565006
 40
0.749466693112622
 40
0.8325102339401278
 40
0.9156392816681636
 40
1.0
 40
1.0
 40
1.0
 40
1.0
 10
63.59457127165258
 20
81.87821643634928
 30
0.0
 10
63.57438697137287
 20
81.878871381668
 30
0.0
 10
63.53440540651253
 20
81.88016871367252
 30
0.0
 10
63.47559135183935
 20
81.89172554419015
 30
0.0
 10
63.41907863012158
 20
81.9104571596624
 30
0.0
 10
63.36526318116105
 20
81.93626327903797
 30
0.0
 10
63.31541148990623
 20
81.968859514589
 30
0.0
 10
63.27081193143513
 20
82.00810049135981
 30
0.0
 10
63.23168688519572
 20
82.05314740496226
 30
0.0
 10
63.19912633336826
 20
82.10399326807884
 30
0.0
 10
63.1733011625338
 20
82.158631821295
 30
0.0
 10
63.15393405176962
 20
82.21560488831909
 30
0.0
 10
63.14262137609747
 20
82.2747048804873
 30
0.0
 10
63.14104056602076
 20
82.31476822585292
 30
0.0
 10
63.14024434857565
 20
82.33494720558006
 30
0.0
  0
SPLINE
  5
BB
330
1F
100
AcDbEntity
  8
0
  6
Continuous
 62
     7
370
    25
100
AcDbSpline
210
0.0
220
0.0
230
1.0
 70
     8
 71
     3
 72
    19
 73
    15
 74
     0
 42
0.00000001
 43
0.00000001
 40
0.0
 40
0.0
 40
0.0
 40
0.0
 40
0.0978181896147151
 40
0.1997260534018239
 40
0.3052763574779294
 40
0.4158114905383038
 40
0.4744722311435635
 40
0.5372738797761135
 40
0.6036574205596495
 40
0.6742988630901156
 40
0.7498344853162363
 40
0.8285984767571047
 40
0.9123777781577855
 40
1.0
 40
1.0
 40
1.0
 40
1.0
 10
63.14024434857565
 20
82.33494720558006
 30
0.0
 10
63.14075068214987
 20
82.35039488409856
 30
0.0
 10
63.14178451856503
 20
82.38193609209758
 30
0.0
 10
63.14900311442434
 20
82.42970638978768
 30
0.0
 10
63.16060231218862
 20
82.47858542481333
 30
0.0
 10
63.17359241776821
 20
82.52005150778315
 30
0.0
 10
63.18731767921614
 20
82.55402073148012
 30
0.0
 10
63.19874019618224
 20
82.58140794174763
 30
0.0
 10
63.21295762305675
 20
82.60959125884824
 30
0.0
 10
63.22811764356889
 20
82.63953710283982
 30
0.0
 10
63.24558487310364
 20
82.67047371684919
 30
0.0
 10
63.26457729427007
 20
82.70291814661833
 30
0.0
 10
63.28562000180102
 20
82.7363544013306
 30
0.0
 10
63.30037150012076
 20
82.75904477072211
 30
0.0
 10
63.30791261780642
 20
82.77064432096466
 30
0.0
  0
LINE
  5
BC
330
1F
100
AcDbEntity
  8
0
  6
Continuous
 62
     7
370
    25
100
AcDbLine
 10
62.005628964
 20
81.9166779748
 30
0.0
 11
62.005628964
 21
83.4166779748
 31
0.0
  0
LINE
  5
BD
330
1F
100
AcDbEntity
  8
0
  6
Continuous
 62
     7
370
    25
100
AcDbLine
 10
62.005628964
 20
83.4166779748
 30
0.0
 11
62.2982972332
 21
83.4166779748
 31
0.0
  0
SPLINE
  5
BE
330
1F
100
AcDbEntity
  8
0
  6
Continuous
 62
     7
370
    25
100
AcDbSpline
210
0.0
220
0.0
230
1.0
 70
     8
 71
     3
 72
    23
 73
    19
 74
     0
 42
0.00000001
 43
0.00000001
 40
0.0
 40
0.0
 40
0.0
 40
0.0
 40
0.0625940971873283
 40
0.1213229386347507
 40
0.1766801421977616
 40
0.2283650957096739
 40
0.2768684458368055
 40
0.3218791276660471
 40
0.3640986251098957
 40
0.4033556962426978
 40
0.4779679481633707
 40
0.5505354613647778
 40
0.6235844567403309
 40
0.6981748822642055
 40
0.7733536703408774
 40
0.8472811254977345
 40
0.9228183395566798
 40
1.0
 40
1.0
 40
1.0
 40
1.0
 10
62.29829723319104
 20
83.41667797481082
 30
0.0
 10
62.31262372384293
 20
83.41660265321006
 30
0.0
 10
62.34039202827284
 20
83.4164566612019
 30
0.0
 10
62.3807717890566
 20
83.41419246213894
 30
0.0
 10
62.41859270790253
 20
83.41110517504808
 30
0.0
 10
62.45386575319562
 20
83.40620656391484
 30
0.0
 10
62.48657462564894
 20
83.40029580228114
 30
0.0
 10
62.51681789875087
 20
83.39313788109958
 30
0.0
 10
62.54449940115156
 20
83.38455504667425
 30
0.0
 10
62.57754771675425
 20
83.37090664043183
 30
0.0
 10
62.61522799998798
 20
83.35062528256763
 30
0.0
 10
62.65602731114642
 20
83.32065589750374
 30
0.0
 10
62.69091484230042
 20
83.28399912759504
 30
0.0
 10
62.72099469254653
 20
83.24264941812746
 30
0.0
 10
62.74490945809423
 20
83.19716265880564
 30
0.0
 10
62.76221058551522
 20
83.14862300647236
 30
0.0
 10
62.77316396066894
 20
83.09765654564973
 30
0.0
 10
62.77429043247574
 20
83.06266661227303
 30
0.0
 10
62.77485973319104
 20
83.04498326327237
 30
0.0
  0
SPLINE
  5
BF
330
1F
100
AcDbEntity
  8
0
  6
Continuous
 62
     7
370
    25
100
AcDbSpline
210
0.0
220
0.0
230
1.0
 70
     8
 71
     3
 72
    15
 73
    11
 74
     0
 42
0.00000001
 43
0.00000001
 40
0.0
 40
0.0
 40
0.0
 40
0.0
 40
0.130569107087318
 40
0.2565806086940786
 40
0.3805516168037054
 40
0.5036229172007063
 40
0.6257393231697921
 40
0.7475485819596224
 40
0.8717661185648781
 40
1.0
 40
1.0
 40
1.0
 40
1.0
 10
62.77485973319104
 20
83.04498326327237
 30
0.0
 10
62.77439121100137
 20
83.02841788226753
 30
0.0
 10
62.77347052071489
 20
82.99586534640142
 30
0.0
 10
62.76466648100082
 20
82.9482535852798
 30
0.0
 10
62.75088333738392
 20
82.90293163435383
 30
0.0
 10
62.73172394488505
 20
82.86006489774657
 30
0.0
 10
62.70682308937158
 20
82.82062192068416
 30
0.0
 10
62.67731238137225
 20
82.78428452095054
 30
0.0
 10
62.64170803744755
 20
82.75259121080985
 30
0.0
 10
62.61503236316702
 20
82.73487282400241
 30
0.0
 10
62.60148232934488
 20
82.72587268634929
 30
0.0
  0
SPLINE
  5
C0
330
1F
100
AcDbEntity
  8
0
  6
Continuous
 62
     7
370
    25
100
AcDbSpline
210
0.0
220
0.0
230
1.0
 70
     8
 71
     3
 72
    19
 73
    15
 74
     0
 42
0.00000001
 43
0.00000001
 40
0.0
 40
0.0
 40
0.0
 40
0.0
 40
0.1060574933033888
 40
0.2029142570846056
 40
0.290300165395854
 40
0.3702225656250392
 40
0.44638372077098
 40
0.5213968999648431
 40
0.5982910828464502
 40
0.6761424688569453
 40
0.7555286995560195
 40
0.8348871724576722
 40
0.9166460487466459
 40
1.0
 40
1.0
 40
1.0
 40
1.0
 10
62.60148232934488
 20
82.72587268634929
 30
0.0
 10
62.61852251259979
 20
82.71933054394617
 30
0.0
 10
62.65112460433381
 20
82.70681380491978
 30
0.0
 10
62.6959900382332
 20
82.6846843203496
 30
0.0
 10
62.73464497180298
 20
82.66061484446757
 30
0.0
 10
62.76738660579664
 20
82.63432976583458
 30
0.0
 10
62.79538845790376
 20
82.6059974183531
 30
0.0
 10
62.81983971857787
 20
82.5752023693895
 30
0.0
 10
62.84070316464682
 20
82.54154290172778
 30
0.0
 10
62.85858013188921
 20
82.50536995800104
 30
0.0
 10
62.87252959875761
 20
82.4670529001338
 30
0.0
 10
62.88297641491602
 20
82.42695113894918
 30
0.0
 10
62.8889624645457
 20
82.38520847243734
 30
0.0
 10
62.88981431080777
 20
82.35680045272086
 30
0.0
 10
62.89024434857565
 20
82.34245922481082
 30
0.0
  0
SPLINE
  5
C1
330
1F
100
AcDbEntity
  8
0
  6
Continuous
 62
     7
370
    25
100
AcDbSpline
210
0.0
220
0.0
230
1.0
 70
     8
 71
     3
 72
    23
 73
    19
 74
     0
 42
0.00000001
 43
0.00000001
 40
0.0
 40
0.0
 40
0.0
 40
0.0
 40
0.0611602766365263
 40
0.1203345577262132
 40
0.1781802550631309
 40
0.2352351259863723
 40
0.2926829614441835
 40
0.3511862482150867
 40
0.4104566095096925
 40
0.4717198544629932
 40
0.5337612027726012
 40
0.5957390238870993
 40
0.6578875151248942
 40
0.7212951802914704
 40
0.7868225145418958
 40
0.8546861538286867
 40
0.9254779862699953
 40
1.0
 40
1.0
 40
1.0
 40
1.0
 10
62.89024434857565
 20
82.34245922481082
 30
0.0
 10
62.88982570027994
 20
82.32781627961573
 30
0.0
 10
62.88900199802942
 20
82.29900587471299
 30
0.0
 10
62.88292486725938
 20
82.25668224561994
 30
0.0
 10
62.87263524997761
 20
82.21623583992877
 30
0.0
 10
62.85846190153556
 20
82.1774050473412
 30
0.0
 10
62.83996376670773
 20
82.14026498971096
 30
0.0
 10
62.81745178199424
 20
82.10477359085954
 30
0.0
 10
62.79060968329875
 20
82.07128744916824
 30
0.0
 10
62.76058273946222
 20
82.0394344678384
 30
0.0
 10
62.72661324853848
 20
82.01079398754993
 30
0.0
 10
62.68996363928596
 20
81.98528725611506
 30
0.0
 10
62.65017235933151
 20
81.96431037235128
 30
0.0
 10
62.6078929333245
 20
81.94668922027866
 30
0.0
 10
62.56265108356122
 20
81.93322899236503
 30
0.0
 10
62.51464996612134
 20
81.92381217497964
 30
0.0
 10
62.46393097962059
 20
81.91746715912308
 30
0.0
 10
62.42912680057284
 20
81.91694549988239
 30
0.0
 10
62.41127800242181
 20
81.91667797481082
 30
0.0
  0
LINE
  5
C2
330
1F
100
AcDbEntity
  8
0
  6
Continuous
 62
     7
370
    25
100
AcDbLine
 10
62.4112780024
 20
81.9166779748
 30
0.0
 11
62.005628964
 21
81.9166779748
 31
0.0
  0
LINE
  5
C3
330
1F
100
AcDbEntity
  8
0
  6
Continuous
 62
     7
370
    25
100
AcDbLine
 10
61.3133212717
 20
83.262831821
 30
0.0
 11
60.9863981947
 21
83.262831821
 31
0.0
  0
LINE
  5
C4
330
1F
100
AcDbEntity
  8
0
  6
Continuous
 62
     7
370
    25
100
AcDbLine
 10
60.9863981947
 20
83.262831821
 30
0.0
 11
60.9863981947
 21
83.4166779748
 31
0.0
  0
LINE
  5
C5
330
1F
100
AcDbEntity
  8
0
  6
Continuous
 62
     7
370
    25
100
AcDbLine
 10
60.9863981947
 20
83.4166779748
 30
0.0
 11
61.7748597332
 21
83.4166779748
 31
0.0
  0
LINE
  5
C6
330
1F
100
AcDbEntity
  8
0
  6
Continuous
 62
     7
370
    25
100
AcDbLine
 10
61.7748597332
 20
83.4166779748
 30
0.0
 11
61.7748597332
 21
83.262831821
 31
0.0
  0
LINE
  5
C7
330
1F
100
AcDbEntity
  8
0
  6
Continuous
 62
     7
370
    25
100
AcDbLine
 10
61.7748597332
 20
83.262831821
 30
0.0
 11
61.4479366563
 21
83.262831821
 31
0.0
  0
LINE
  5
C8
330
1F
100
AcDbEntity
  8
0
  6
Continuous
 62
     7
370
    25
100
AcDbLine
 10
61.4479366563
 20
83.262831821
 30
0.0
 11
61.4479366563
 21
81.9166779748
 31
0.0
  0
LINE
  5
C9
330
1F
100
AcDbEntity
  8
0
  6
Continuous
 62
     7
370
    25
100
AcDbLine
 10
61.4479366563
 20
81.9166779748
 30
0.0
 11
61.3133212717
 21
81.9166779748
 31
0.0
  0
LINE
  5
CA
330
1F
100
AcDbEntity
  8
0
  6
Continuous
 62
     7
370
    25
100
AcDbLine
 10
61.3133212717
 20
81.9166779748
 30
0.0
 11
61.3133212717
 21
83.262831821
 31
0.0
  0
MTEXT
  5
CC
330
1F
100
AcDbEntity
  8
0
  6
Continuous
 62
     7
100
AcDbMText
 10
51.205593343
 20
73.0414163623
 30
0.0
 40
4.83362
 41
0.0
 71
     1
 72
     1
  1
SOLIDWORKS Educational Product.
  7
SLDTEXTSTYLE0
 73
     1
 44
1.0
  0
MTEXT
  5
CD
330
1F
100
AcDbEntity
  8
0
  6
Continuous
 62
     7
100
AcDbMText
 10
51.205593343
 20
65.7909863623
 30
0.0
 40
4.83362
 41
0.0
 71
     1
 72
     1
  1
For Instructional Use Only.
  7
SLDTEXTSTYLE0
 73
     1
 44
1.0
  0
ENDSEC
  0
SECTION
  2
OBJECTS
  0
DICTIONARY
  5
C
330
0
100
AcDbDictionary
281
     1
  3
ACAD_GROUP
350
D
  3
ACAD_LAYOUT
350
1A
  3
ACAD_MLINESTYLE
350
17
  3
ACAD_PLOTSETTINGS
350
19
  3
ACAD_PLOTSTYLENAME
350
E
  3
ACAD_SCALELIST
350
47
  3
DWGPROPS
350
CE
  0
DICTIONARY
  5
D
102
{ACAD_REACTORS
330
C
102
}
330
C
100
AcDbDictionary
281
     1
  0
DICTIONARY
  5
1A
102
{ACAD_REACTORS
330
C
102
}
330
C
100
AcDbDictionary
281
     1
  3
Layout1
350
1E
  3
Layout2
350
26
  3
Model
350
22
  0
DICTIONARY
  5
17
102
{ACAD_REACTORS
330
C
102
}
330
C
100
AcDbDictionary
281
     1
  3
Standard
350
18
  0
DICTIONARY
  5
19
102
{ACAD_REACTORS
330
C
102
}
330
C
100
AcDbDictionary
281
     1
  0
ACDBDICTIONARYWDFLT
  5
E
102
{ACAD_REACTORS
330
C
102
}
330
C
100
AcDbDictionary
281
     1
  3
Normal
350
F
100
AcDbDictionaryWithDefault
340
F
  0
DICTIONARY
  5
47
102
{ACAD_REACTORS
330
C
102
}
330
C
100
AcDbDictionary
281
     1
  3
A0
350
48
  3
A1
350
49
  3
A2
350
4A
  3
A3
350
4B
  3
A4
350
4C
  3
A5
350
4D
  3
A6
350
4E
  3
A7
350
4F
  3
A8
350
50
  3
A9
350
51
  3
B0
350
52
  3
B1
350
53
  3
B2
350
54
  3
B3
350
55
  3
B4
350
56
  3
B5
350
57
  3
B6
350
58
  0
XRECORD
  5
CE
102
{ACAD_REACTORS
330
C
102
}
330
C
100
AcDbXrecord
280
     1
  1
DWGPROPS COOKIE
  2

  3

  4

  6

  7

  8
timai
  9

300
=
301
=
302
=
303
=
304
=
305
=
306
=
307
=
308
=
309
=
 40
0.0
 41
2460482.9594039
 42
2460482.959439722
  1

 90
        0
  0
LAYOUT
  5
1E
102
{ACAD_REACTORS
330
1A
102
}
330
1A
100
AcDbPlotSettings
  1

  2
none_device
  4

  6

 40
0.0
 41
0.0
 42
0.0
 43
0.0
 44
0.0
 45
0.0
 46
0.0
 47
0.0
 48
0.0
 49
0.0
140
0.0
141
0.0
142
1.0
143
1.0
 70
   688
 72
     1
 73
     0
 74
     5
  7

 75
    16
147
1.0
148
0.0
149
0.0
100
AcDbLayout
  1
Layout1
 70
     1
 71
     1
 10
0.0
 20
0.0
 11
420.0
 21
297.0
 12
0.0
 22
0.0
 32
0.0
 14
1.0000000000E+20
 24
1.0000000000E+20
 34
1.0000000000E+20
 15
-1.0000000000E+20
 25
-1.0000000000E+20
 35
-1.0000000000E+20
146
0.0
 13
0.0
 23
0.0
 33
0.0
 16
1.0
 26
0.0
 36
0.0
 17
0.0
 27
1.0
 37
0.0
 76
     0
330
1B
  0
LAYOUT
  5
26
102
{ACAD_REACTORS
330
1A
102
}
330
1A
100
AcDbPlotSettings
  1

  2
none_device
  4

  6

 40
0.0
 41
0.0
 42
0.0
 43
0.0
 44
0.0
 45
0.0
 46
0.0
 47
0.0
 48
0.0
 49
0.0
140
0.0
141
0.0
142
1.0
143
1.0
 70
   688
 72
     1
 73
     0
 74
     5
  7

 75
    16
147
1.0
148
0.0
149
0.0
100
AcDbLayout
  1
Layout2
 70
     1
 71
     2
 10
0.0
 20
0.0
 11
0.0
 21
0.0
 12
0.0
 22
0.0
 32
0.0
 14
0.0
 24
0.0
 34
0.0
 15
0.0
 25
0.0
 35
0.0
146
0.0
 13
0.0
 23
0.0
 33
0.0
 16
1.0
 26
0.0
 36
0.0
 17
0.0
 27
1.0
 37
0.0
 76
     0
330
23
  0
LAYOUT
  5
22
102
{ACAD_REACTORS
330
1A
102
}
330
1A
100
AcDbPlotSettings
  1

  2
none_device
  4
ANSI_A_(11.00_x_8.50_Inches)
  6

 40
6.35
 41
19.05
 42
6.35000508
 43
19.05000254
 44
279.4
 45
215.9
 46
-599.3730706915
 47
-897.4076409822
 48
0.0
 49
0.0
140
0.0
141
0.0
142
0.4675
143
1.0
 70
  1696
 72
     0
 73
     0
 74
     0
  7

 75
     0
147
0.0179189148
148
-1300.4909072572
149
0.0
100
AcDbLayout
  1
Model
 70
     1
 71
     0
 10
0.0
 20
0.0
 11
420.0
 21
297.0
 12
0.0
 22
0.0
 32
0.0
 14
51.205593343
 24
74.060982754
 34
0.0
 15
72.205593343
 25
92.060982754
 35
0.0
146
0.0
 13
0.0
 23
0.0
 33
0.0
 16
1.0
 26
0.0
 36
0.0
 17
0.0
 27
1.0
 37
0.0
 76
     0
330
1F
331
29
  0
MLINESTYLE
  5
18
102
{ACAD_REACTORS
330
17
102
}
330
17
100
AcDbMlineStyle
  2
Standard
 70
     0
  3

 62
   256
 51
90.0
 52
90.0
 71
     2
 49
0.5
 62
   256
  6
BYLAYER
 49
-0.5
 62
   256
  6
BYLAYER
  0
ACDBPLACEHOLDER
  5
F
102
{ACAD_REACTORS
330
E
102
}
330
E
  0
SCALE
  5
48
102
{ACAD_REACTORS
330
47
102
}
330
47
100
AcDbScale
 70
     0
300
1:1
140
1.0
141
1.0
290
     1
  0
SCALE
  5
49
102
{ACAD_REACTORS
330
47
102
}
330
47
100
AcDbScale
 70
     0
300
1:2
140
1.0
141
2.0
290
     0
  0
SCALE
  5
4A
102
{ACAD_REACTORS
330
47
102
}
330
47
100
AcDbScale
 70
     0
300
1:4
140
1.0
141
4.0
290
     0
  0
SCALE
  5
4B
102
{ACAD_REACTORS
330
47
102
}
330
47
100
AcDbScale
 70
     0
300
1:5
140
1.0
141
5.0
290
     0
  0
SCALE
  5
4C
102
{ACAD_REACTORS
330
47
102
}
330
47
100
AcDbScale
 70
     0
300
1:8
140
1.0
141
8.0
290
     0
  0
SCALE
  5
4D
102
{ACAD_REACTORS
330
47
102
}
330
47
100
AcDbScale
 70
     0
300
1:10
140
1.0
141
10.0
290
     0
  0
SCALE
  5
4E
102
{ACAD_REACTORS
330
47
102
}
330
47
100
AcDbScale
 70
     0
300
1:16
140
1.0
141
16.0
290
     0
  0
SCALE
  5
4F
102
{ACAD_REACTORS
330
47
102
}
330
47
100
AcDbScale
 70
     0
300
1:20
140
1.0
141
20.0
290
     0
  0
SCALE
  5
50
102
{ACAD_REACTORS
330
47
102
}
330
47
100
AcDbScale
 70
     0
300
1:30
140
1.0
141
30.0
290
     0
  0
SCALE
  5
51
102
{ACAD_REACTORS
330
47
102
}
330
47
100
AcDbScale
 70
     0
300
1:40
140
1.0
141
40.0
290
     0
  0
SCALE
  5
52
102
{ACAD_REACTORS
330
47
102
}
330
47
100
AcDbScale
 70
     0
300
1:50
140
1.0
141
50.0
290
     0
  0
SCALE
  5
53
102
{ACAD_REACTORS
330
47
102
}
330
47
100
AcDbScale
 70
     0
300
1:100
140
1.0
141
100.0
290
     0
  0
SCALE
  5
54
102
{ACAD_REACTORS
330
47
102
}
330
47
100
AcDbScale
 70
     0
300
2:1
140
2.0
141
1.0
290
     0
  0
SCALE
  5
55
102
{ACAD_REACTORS
330
47
102
}
330
47
100
AcDbScale
 70
     0
300
4:1
140
4.0
141
1.0
290
     0
  0
SCALE
  5
56
102
{ACAD_REACTORS
330
47
102
}
330
47
100
AcDbScale
 70
     0
300
8:1
140
8.0
141
1.0
290
     0
  0
SCALE
  5
57
102
{ACAD_REACTORS
330
47
102
}
330
47
100
AcDbScale
 70
     0
300
10:1
140
10.0
141
1.0
290
     0
  0
SCALE
  5
58
102
{ACAD_REACTORS
330
47
102
}
330
47
100
AcDbScale
 70
     0
300
100:1
140
100.0
141
1.0
290
     0
  0
ENDSEC
  0
EOF
